<svg width="40" height="40" viewBox="0 0 115 116" fill="none" xmlns="http://www.w3.org/2000/svg">
<path d="M57.1856 2.00001L57.1862 2.00001C65.7631 1.99562 74.2272 3.95475 81.9299 7.72727C89.6326 11.4998 96.3694 16.9856 101.624 23.7643C106.879 30.5429 110.512 38.4346 112.246 46.8346C113.979 55.2345 113.766 63.9198 111.624 72.2248C109.482 80.5299 105.467 88.2343 99.8863 94.7477C94.3061 101.261 87.3089 106.411 79.4308 109.802C71.5527 113.193 63.0029 114.735 54.4365 114.311C45.8767 113.887 37.5273 111.511 30.0272 107.365L22.3437 102.705L18.3666 98.7968L18.3667 98.7967L18.3567 98.7872C10.2474 91.0341 4.64509 81.0305 2.27159 70.0652C-0.101905 59.0998 0.862098 47.675 5.03941 37.2624C9.21671 26.8497 16.416 17.9263 25.7098 11.6417C35.0036 5.35698 45.9663 1.9989 57.1856 2.00001Z" fill="#F5F1FD" stroke="#D2C0F7" stroke-width="2"/>
<path d="M41.2109 77.8516L19.2109 62.3316V54.1116L41.2109 38.4316V46.7316L25.4509 58.1816L41.2109 69.6316V77.8516Z" fill="#7054A8"/>
<path d="M47.8906 80.6209L64.6406 18.3809H71.7906L54.9606 80.6209H47.8906Z" fill="#D2C0F7"/>
<path d="M78.4688 77.8516V69.6316L94.3188 58.1116L78.4688 46.7316V38.4316L100.529 54.0316V62.2616L78.4688 77.8516Z" fill="#7054A8"/>
</svg>
