<svg xmlns="http://www.w3.org/2000/svg" viewBox="0 0 500 500"><g id="freepik--Floor--inject-3"><path id="freepik--floor--inject-3" d="M77.67,451.92c-95.18-54.95-95.18-144,0-199s249.49-55,344.66,0,95.18,144,0,199S172.84,506.87,77.67,451.92Z" style="fill:#fafafa"></path></g><g id="freepik--Clouds--inject-3"><path id="freepik--Cloud--inject-3" d="M134.21,86.19c0-3.13-3.44-5.31-7.33-5.68-4.58-.43-7.84,1.61-7.95,5.22-3-1.23-6.15-.44-5.92,2.86-.78-.9-3.69-.87-4.74-.62a4.08,4.08,0,0,0-2.61,2.22,3,3,0,0,0-.27,1.69c-1.75-.57-5.72-.93-6.72.68-1.77,2.85,5.3,2.94,6.73,2.08.3,2.22,7.89,2.58,9.73.53,1.44,1.45,3.5,1.77,5.73,1.9,3.76.23,6.06-1,9-2.54,3.19,2.7,8.71,2.75,11.58-.34.73.69,2.75.9,4.37.52,1.06-.26,1.3-.71,1.3-.71a9.7,9.7,0,0,0,2,.59c2.09.43,6,0,4.34-1.9a4.88,4.88,0,0,0-3.44-.85c-.91-1.79-4.56-3.48-6.65-2-.09-2.17-2.07-3.86-4.85-4.29C137.51,85.43,135.27,85.31,134.21,86.19Z" style="fill:#f5f5f5"></path><path id="freepik--cloud--inject-3" d="M385.32,45.77c0-3.13-3.44-5.31-7.33-5.68-4.59-.43-7.84,1.61-7.95,5.22-3-1.23-6.15-.44-5.92,2.86-.78-.9-3.69-.88-4.74-.63a4.12,4.12,0,0,0-2.61,2.23,3,3,0,0,0-.27,1.69c-1.75-.58-5.73-.93-6.72.68-1.77,2.85,5.3,2.94,6.73,2.08.3,2.22,7.89,2.58,9.73.53,1.44,1.45,3.5,1.77,5.73,1.9,3.76.23,6.06-1,9-2.54,3.19,2.7,8.71,2.75,11.58-.34.73.69,2.75.9,4.37.52,1.06-.26,1.3-.71,1.3-.71a9.7,9.7,0,0,0,2,.59c2.09.43,6,0,4.34-1.91a4.94,4.94,0,0,0-3.44-.84c-.91-1.79-4.56-3.48-6.66-2-.08-2.17-2.06-3.86-4.84-4.29C388.62,45,386.38,44.89,385.32,45.77Z" style="fill:#f0f0f0"></path><path id="freepik--cloud--inject-3" d="M110.11,66.55a8.44,8.44,0,0,0-2.88-.53c-.93-.07-1.22-.26-1.4-.46a6.88,6.88,0,0,0-8.25-2.44,5.26,5.26,0,0,0-6.21-3.51c.1-2.9-3.6-6-6.92-6.72s-6-.39-7.79,1.7c-2-3.8-9.58-4.87-13.71-2.86-2.38,1.16-4.39,2.34-5.38,4.52a9.08,9.08,0,0,0-.89,4.33c-1.61-1.42-4.84-1.8-7-1-2.32.89-2.49,2.64-2.61,4.42A8.24,8.24,0,0,0,42.86,64c-1.46.44-2.3,1.58-2.1,2.51-1.15-.06-3.91.87-3.59,2.09.36,1.37,3.5,1.23,4.67,1.19a22.39,22.39,0,0,0,3.29-.52,5.09,5.09,0,0,0,1.71.33c2,0,2.85-.88,3.17-1.62,1,2.06,4.45,3.62,6.91,4.25,4.63,1.19,11.18.46,14-3a5.22,5.22,0,0,0,1.38,1.68,8,8,0,0,0,4.28,1.73c1.9.18,7,.42,8.44-2.6,1,2,5.56,2.92,9,2.43a14.13,14.13,0,0,0,3.87-1.16,24.61,24.61,0,0,0,2.22-1.34,1.89,1.89,0,0,1,1.9-.13,11.28,11.28,0,0,0,7.54,0C111.52,69,111.92,67.37,110.11,66.55Z" style="fill:#ebebeb"></path></g><g id="freepik--Plants--inject-3"><g id="freepik--plants--inject-3"><g id="freepik--plants--inject-3"><path d="M36,317.16a5,5,0,0,0,.21-5.36c-1.24-2.31-3.5-4-3.81-3.92s-1.1,2.74,0,5.6A5.91,5.91,0,0,0,36,317.16Z" style="fill:#6247EC"></path><path d="M34.75,323.53a5,5,0,0,0-2.26-4.87c-2.16-1.49-4.93-1.93-5.18-1.74s.27,2.93,2.56,5A5.88,5.88,0,0,0,34.75,323.53Z" style="fill:#6247EC"></path><path d="M39,328.1A5.06,5.06,0,0,0,43.36,325c1.09-2.37,1.2-4.94,1-5.15s-3.15.83-4.76,3.07A5.29,5.29,0,0,0,39,328.1Z" style="fill:#6247EC"></path><path d="M36.71,327.75a52.72,52.72,0,0,1-.4,6.12q.49.12,1,.21h.1a51.26,51.26,0,0,0-.32-12.86,27.39,27.39,0,0,0-2.37-8.49c0-.05-.18,0-.16.05a41.1,41.1,0,0,1,1.59,7.83A47.45,47.45,0,0,1,36.71,327.75Z" style="fill:#37474f"></path><path d="M37.68,329.8A15.52,15.52,0,0,0,40,327.23a8.75,8.75,0,0,0,1.55-2.94c0-.15-.15,0-.2.08a26.87,26.87,0,0,1-1.73,2.43,11.53,11.53,0,0,1-2.32,2.14.72.72,0,0,0-.26.76A.37.37,0,0,0,37.68,329.8Z" style="fill:#37474f"></path><path d="M37.58,327.55a13,13,0,0,0-2.51-4.27,14.22,14.22,0,0,0-1.53-1.67,9.16,9.16,0,0,0-2.2-1.54s-.26,0-.2,0a22.59,22.59,0,0,1,1.93,1.78,12.83,12.83,0,0,1,1.54,1.84A21.58,21.58,0,0,1,37,327.85C37.12,328.15,37.66,327.82,37.58,327.55Z" style="fill:#37474f"></path></g></g><g id="freepik--plants--inject-3"><g id="freepik--plants--inject-3"><path d="M469.46,311a5,5,0,0,1-.2-5.36c1.23-2.31,3.5-4,3.81-3.92s1.09,2.74,0,5.6A5.88,5.88,0,0,1,469.46,311Z" style="fill:#6247EC"></path><path d="M470.76,317.35a5,5,0,0,1,2.26-4.87c2.15-1.49,4.92-1.93,5.17-1.74s-.27,2.93-2.55,5A5.88,5.88,0,0,1,470.76,317.35Z" style="fill:#6247EC"></path><path d="M466.55,321.92a5,5,0,0,1-4.4-3.08c-1.09-2.37-1.21-4.94-1-5.15s3.15.83,4.76,3.07A5.28,5.28,0,0,1,466.55,321.92Z" style="fill:#6247EC"></path><path d="M468.8,321.57a50.6,50.6,0,0,0,.4,6.12q-.49.12-1,.21h-.1a51.26,51.26,0,0,1,.31-12.86,27.68,27.68,0,0,1,2.38-8.49c0-.05.18,0,.16.05a41.21,41.21,0,0,0-1.6,7.83A48.84,48.84,0,0,0,468.8,321.57Z" style="fill:#37474f"></path><path d="M467.83,323.62a15.52,15.52,0,0,1-2.36-2.57,8.48,8.48,0,0,1-1.55-2.94c0-.15.14,0,.2.08a28.89,28.89,0,0,0,1.72,2.43,11.8,11.8,0,0,0,2.32,2.14.68.68,0,0,1,.26.76A.36.36,0,0,1,467.83,323.62Z" style="fill:#37474f"></path><path d="M467.93,321.37a13.06,13.06,0,0,1,2.5-4.27,15.24,15.24,0,0,1,1.54-1.67,8.79,8.79,0,0,1,2.2-1.54s.25,0,.2,0a24.28,24.28,0,0,0-1.94,1.78,13.41,13.41,0,0,0-1.53,1.84,20.85,20.85,0,0,0-2.38,4.14C468.39,322,467.84,321.64,467.93,321.37Z" style="fill:#37474f"></path></g></g><g id="freepik--plants--inject-3"><g id="freepik--plants--inject-3"><path d="M172,416a6.49,6.49,0,0,1-.26-6.89c1.59-3,4.49-5.09,4.89-5s1.41,3.51,0,7.18A7.57,7.57,0,0,1,172,416Z" style="fill:#6247EC"></path><path d="M173.69,424.22A6.49,6.49,0,0,1,176.6,418c2.77-1.91,6.33-2.48,6.65-2.23s-.35,3.76-3.29,6.39A7.53,7.53,0,0,1,173.69,424.22Z" style="fill:#6247EC"></path><path d="M168.3,430.09a6.46,6.46,0,0,1-5.66-3.95c-1.4-3.05-1.55-6.34-1.26-6.62s4.05,1.07,6.12,3.94C169.76,426.58,168.49,429.14,168.3,430.09Z" style="fill:#6247EC"></path><path d="M171.18,429.64a65.9,65.9,0,0,0,.52,7.86c-.43.1-.86.19-1.31.27l-.13,0a65.8,65.8,0,0,1,.4-16.53,35.42,35.42,0,0,1,3.05-10.89c0-.07.23,0,.21.06a51.91,51.91,0,0,0-2,10.05A62,62,0,0,0,171.18,429.64Z" style="fill:#37474f"></path><path d="M169.93,432.27a19.69,19.69,0,0,1-3-3.29,11.26,11.26,0,0,1-2-3.78c0-.19.19,0,.26.1a33.83,33.83,0,0,0,2.21,3.12,15,15,0,0,0,3,2.75.88.88,0,0,1,.34,1A.48.48,0,0,1,169.93,432.27Z" style="fill:#37474f"></path><path d="M170.06,429.38a16.71,16.71,0,0,1,3.22-5.48,19,19,0,0,1,2-2.14,11.57,11.57,0,0,1,2.83-2s.32,0,.25,0a30.7,30.7,0,0,0-2.48,2.29,17.45,17.45,0,0,0-2,2.36,27.53,27.53,0,0,0-3.05,5.32C170.65,430.16,170,429.74,170.06,429.38Z" style="fill:#37474f"></path></g></g></g><g id="freepik--Shadows--inject-3"><path id="freepik--Shadow--inject-3" d="M311.09,456.61a83.89,83.89,0,0,0-21.68-9.19c-9.78-2.8-21.33-4.86-29.65-8.25-10.81-4.4-15.64-10.92-16-18.15-.18-4.09,1.56-8.92,10.29-13.24a32.64,32.64,0,0,1,8.06-2.79A34.4,34.4,0,0,1,274,404.9c17.6,2.61,25.9,9.39,32.68,16.16s14.29,10.17,27.68,15.52c5.73,2.29,11.84,4.46,17.29,6.83l.13.06a65.79,65.79,0,0,1,8,3.66c3.56,2.23,6.76,4.61,8.34,7.39s1.47,6-1.46,9.44a9.41,9.41,0,0,1-3.62,2.62,26.47,26.47,0,0,1-5.53,1.54,50.49,50.49,0,0,1-11.29.76,54.59,54.59,0,0,1-8.9-1.21A75.72,75.72,0,0,1,311.09,456.61Z" style="fill:#f0f0f0"></path><path id="freepik--shadow--inject-3" d="M196.5,303.55A80.53,80.53,0,0,0,176,294.18c-9.29-2.94-20.3-5.21-28.17-8.67-10.24-4.5-14.69-10.86-14.82-17.79-.07-3.93,1.73-8.5,10.2-12.42a31.36,31.36,0,0,1,7.78-2.45,32.47,32.47,0,0,1,11.34.22c16.78,2.95,24.56,9.66,30.87,16.32s13.42,10.12,26.1,15.59c5.43,2.34,11.22,4.58,16.37,7l.13.06a62.3,62.3,0,0,1,7.54,3.71c3.35,2.23,6.35,4.59,7.78,7.3s1.25,5.78-1.64,9a9,9,0,0,1-3.53,2.42,25.28,25.28,0,0,1-5.34,1.33,48.71,48.71,0,0,1-10.83.43,51.57,51.57,0,0,1-8.48-1.39A72.52,72.52,0,0,1,196.5,303.55Z" style="fill:#f0f0f0"></path><path id="freepik--shadow--inject-3" d="M89.39,378.66a77.48,77.48,0,0,0-20-8.45c-9-2.58-19.67-4.46-27.34-7.58-10-4.05-14.42-10.06-14.73-16.72-.17-3.78,1.43-8.23,9.47-12.22a29.79,29.79,0,0,1,7.43-2.58A31.52,31.52,0,0,1,55.13,331c16.23,2.39,23.89,8.63,30.15,14.87s13.18,9.37,25.53,14.29c5.29,2.11,10.92,4.1,15.94,6.28l.12.06a61.46,61.46,0,0,1,7.35,3.36c3.29,2.06,6.24,4.25,7.69,6.81s1.36,5.53-1.33,8.7a8.62,8.62,0,0,1-3.33,2.43,25.73,25.73,0,0,1-5.1,1.42,47.26,47.26,0,0,1-10.41.71,49.23,49.23,0,0,1-8.21-1.12A69.64,69.64,0,0,1,89.39,378.66Z" style="fill:#f0f0f0"></path><path id="freepik--shadow--inject-3" d="M409.28,337.29a77.48,77.48,0,0,0-20-8.46c-9-2.57-19.67-4.46-27.34-7.57-10-4.06-14.43-10.06-14.74-16.72-.17-3.78,1.43-8.23,9.48-12.23a30.12,30.12,0,0,1,7.42-2.57,31.58,31.58,0,0,1,10.92-.09c16.22,2.39,23.89,8.63,30.14,14.87s13.18,9.37,25.53,14.29c5.29,2.1,10.92,4.1,15.94,6.28l.13.05a60.62,60.62,0,0,1,7.35,3.37c3.28,2.06,6.23,4.25,7.69,6.81s1.36,5.53-1.34,8.7a8.54,8.54,0,0,1-3.33,2.42,24.1,24.1,0,0,1-5.1,1.42,46,46,0,0,1-10.41.71,49,49,0,0,1-8.2-1.11A69.74,69.74,0,0,1,409.28,337.29Z" style="fill:#f0f0f0"></path><path id="freepik--shadow--inject-3" d="M185.44,349.31a106.38,106.38,0,0,1,22.8,11.28c8,5.23,15.3,11.56,23.81,15.9,11,5.64,23.73,7.66,36.13,7.05,7-.35,14.65-1.87,19.13-7.29a8.06,8.06,0,0,0,2.07-4.87c0-2.65-1.83-4.91-3.76-6.73C275.38,355,261.11,351,247.35,347.91s-22-7-35.53-14c-5.79-3-11.49-6.22-17.32-9l-.14-.07a89.06,89.06,0,0,0-8.86-4.12,69.09,69.09,0,0,0-15.32-3.91,31.48,31.48,0,0,0-15.57,1.87,6.85,6.85,0,0,0-3.26,2.34,5.57,5.57,0,0,0-.79,3.3,11.86,11.86,0,0,0,2.44,6.49,25.24,25.24,0,0,0,5,4.9C166.05,342,175.87,345.93,185.44,349.31Z" style="fill:#e0e0e0"></path></g><g id="freepik--character-5--inject-3"><g id="freepik--Character--inject-3"><path id="freepik--Arm--inject-3" d="M428.26,122.79c7.13.46,9.91.57,14,5.9s12.5,26,14.63,30.24,2.79,5.79,2.8,10.83c0,5.24-1.85,14.82-2.47,20-.29,2.4-.39,4.71-.51,7.15a54.55,54.55,0,0,1-1.39,7.45,6.87,6.87,0,0,1-1.64,3.16c-.52.58-1.29.73-1.78,1.27s-.52,1.36-1.24,1.84-1.8.4-2.49.93a21.59,21.59,0,0,1-2.1,1.8,4.86,4.86,0,0,0-1.8,1.37c-.41.6-.73,1.85-1.61,1.88s-1.28-.9-1.43-1.71a7.57,7.57,0,0,1,1-4.62,41.46,41.46,0,0,1,2.31-4.44,10.58,10.58,0,0,0,1.55-4.42c.18-1.05-.09-2.34-1.32-1.58-1.45.9-2.89,2.58-4.78,2.51-1.31-.06-1.51-1.05-.87-2a37.66,37.66,0,0,0,2.78-4.86c.83-1.71,1.47-3.5,2.34-5.19a23.06,23.06,0,0,1,1.6-2.54c1.6-2.29,1.16-5.06,1-7.67-.17-3.65-.44-7.3-.74-10.94a6.39,6.39,0,0,0-.16-2l-11.33-19.62Z" style="fill:#e0e0e0"></path><g id="freepik--Bottom--inject-3"><path d="M360.48,300.67c-.53-.26-.84,1.51-.72,2.38s1.11,3.55,4.79,5.87,9.51,3.72,11.91,4.52,4.29,2.76,7.44,4.42c2.79,1.47,7,2.22,8.91,1.42a2.86,2.86,0,0,0,1.4-2c.53-1.54.5-1.9.32-1.95Z" style="fill:#e0e0e0"></path><path d="M365.3,296.36c-2,.29-4.74,1.66-5.16,4.48-.17,1.79,1.09,2.91,2.44,4.22a21.4,21.4,0,0,0,5.56,3.55,63.53,63.53,0,0,0,8.35,2.82,26,26,0,0,1,5.85,2.93c2.86,1.78,4.93,2.75,8,3,1.18.09,2.94,0,3.86-.9a14,14,0,0,0,1.63-4.48,26.24,26.24,0,0,1,.83-5.33h0c-.74.87-2.37,2.05-7.34,1.42a58,58,0,0,1-14.57-3.52c-4.26-1.82-5-5.86-2.9-7C369.78,296.89,367.45,296.05,365.3,296.36Z" style="fill:#e0e0e0"></path><path d="M365.3,296.36c-2,.29-4.74,1.66-5.16,4.48-.17,1.79,1.09,2.91,2.44,4.22a21.4,21.4,0,0,0,5.56,3.55,63.53,63.53,0,0,0,8.35,2.82,26,26,0,0,1,5.85,2.93c2.86,1.78,4.93,2.75,8,3,1.18.09,2.94,0,3.86-.9a14,14,0,0,0,1.63-4.48,26.24,26.24,0,0,1,.83-5.33h0c-.74.87-2.37,2.05-7.34,1.42a58,58,0,0,1-14.57-3.52c-4.26-1.82-5-5.86-2.9-7C369.78,296.89,367.45,296.05,365.3,296.36Z" style="opacity:0.1"></path><path d="M374.79,304.53a58,58,0,0,0,14.57,3.52c5,.63,6.6-.55,7.34-1.42h0c.1-.29.2-.59.33-.9,1.19-3.09,3.45-9.88,3.45-9.88s-13-5-13.14-4.58c-.57,2.12-.7,7.16-4.76,7.87-1.69.29-8.07-.93-10.69-1.66C369.82,298.67,370.53,302.71,374.79,304.53Z" style="fill:#e0e0e0"></path><path d="M431.3,331.22a4.58,4.58,0,0,1,2.17-2.43,6.25,6.25,0,0,1,1.08.2C433.93,329.6,431.72,330.46,431.3,331.22Z" style="opacity:0.1"></path><path d="M451.71,313.12c-.35-1.33-1.55-2-2.71-2.76-.87-.53-1.83-1.08-2.67-1.66h0s-3.9-.32-5.88,1.88-2.87,6.26-2.65,12.66-3.24,8.75-4.88,8.23,1.63-2.48,1.63-2.48a8,8,0,0,0-4.77.24l-.06,0a7.63,7.63,0,0,0-1.17.54c-3.12,1.73-2.93,4.3-2.93,4.3s-.38,2.23,5.77,4.45a8,8,0,0,0,5.62.55,4.68,4.68,0,0,0,.56-.23c3.08-1.48,10.73-5.33,10.63-5.8a5.79,5.79,0,0,1,.05-1.44c.06-1.13.14-2.26.21-3.38a14.91,14.91,0,0,1,.26-3.21,17.07,17.07,0,0,0,.49-2.66c.26-2.25,1.49-3.92,1.76-6.17a8.07,8.07,0,0,0,.07-2C451,314.1,451.74,313.27,451.71,313.12Z" style="fill:#e0e0e0"></path><path d="M432.92,331.47c1.64.52,5.1-1.83,4.88-8.23s.66-10.45,2.65-12.66,5.88-1.88,5.88-1.88h0a7.22,7.22,0,0,1-1.84-1.68,53.1,53.1,0,0,1-2.52-4.75c-.69-1.47-3.47-1.8-8.37,1.7-5.12,3.66-4.27,6.5-3.27,7.61.89,1.29,2.18,3,3.36,4.92a11.67,11.67,0,0,1,1.35,5.34,31.15,31.15,0,0,1-.07,4.32,8,8,0,0,1-.42,2.83S431.29,331,432.92,331.47Z" style="fill:#e0e0e0"></path><path d="M451.71,313.12c-.35-1.33-1.55-2-2.71-2.76-.87-.53-1.83-1.08-2.67-1.66h0s-3.9-.32-5.88,1.88-2.87,6.26-2.65,12.66-3.24,8.75-4.88,8.23,1.63-2.48,1.63-2.48a8,8,0,0,0-4.77.24l-.06,0a7.63,7.63,0,0,0-1.17.54c-3.12,1.73-2.93,4.3-2.93,4.3s-.38,2.23,5.77,4.45a8,8,0,0,0,5.62.55,4.68,4.68,0,0,0,.56-.23c3.08-1.48,10.73-5.33,10.63-5.8a5.79,5.79,0,0,1,.05-1.44c.06-1.13.14-2.26.21-3.38a14.91,14.91,0,0,1,.26-3.21,17.07,17.07,0,0,0,.49-2.66c.26-2.25,1.49-3.92,1.76-6.17a8.07,8.07,0,0,0,.07-2C451,314.1,451.74,313.27,451.71,313.12Z" style="opacity:0.1"></path><path d="M452.45,314.43c1.37.58.23,2.8-1.42,6.1a12.77,12.77,0,0,0-1.63,8.21c.32,3-.38,4.44-1.67,5.47s-10.84,5.23-10.84,5.23a17.48,17.48,0,0,0,3.76-10c.53-6.55,1.15-10.76,4.41-13.62A7.87,7.87,0,0,1,452.45,314.43Z" style="fill:#e0e0e0"></path><path d="M452.45,314.43c1.37.58.23,2.8-1.42,6.1a12.77,12.77,0,0,0-1.63,8.21c.32,3-.38,4.44-1.67,5.47s-10.84,5.23-10.84,5.23a17.48,17.48,0,0,0,3.76-10c.53-6.55,1.15-10.76,4.41-13.62A7.87,7.87,0,0,1,452.45,314.43Z" style="opacity:0.18"></path><path d="M425.62,334.1c.16,1.27,3.81,3.87,8.13,3.83s4.69-1,5.36-6,1.13-12.08,3.32-15.09,5.07-4.79,9.28-3.69c.48.23,1.78,1.54,1.29,2.75,0,0,0-1-1.71-1.46-1.49-.43-3.25-.38-5.72,1.75-2.89,2.49-3.53,8.32-3.86,13.34s-1.9,9.83-6,10.27a12.38,12.38,0,0,1-10-3.1A4.65,4.65,0,0,1,425.62,334.1Z" style="fill:#e0e0e0"></path><path d="M410.26,186.88s-5.44,6.52-8.73,18.71A281.74,281.74,0,0,0,394.75,240c-.79,5.19-1.36,8.89-2.77,18.34-1.18,7.88-6.35,36.21-6.35,36.21a31,31,0,0,0,7.5,3.52c2.39.58,6.26.91,7.35.47,0,0,2.6-6.82,7.13-19.13a116.75,116.75,0,0,0,5.21-17.37c.59-3,.45-8.46.39-11.19l21.94-38.13s5.41-3.75,7.37-9.12c3-8.25.19-16.75.19-16.75Z" style="fill:#f0f0f0"></path><path d="M434.21,197.43H404.33a64.8,64.8,0,0,0-2.8,8.16,264.05,264.05,0,0,0-6.37,31.71c.73,4.89,1.55,9.9,2.31,13.37,2,9.11,3.26,15.55,4.85,19.31a61.28,61.28,0,0,0,5.42,9.11,116.79,116.79,0,0,0,5.08-17c.59-3,.45-8.46.39-11.19L431,220h0l1.28-4.86C436.77,207.77,436.27,202.25,434.21,197.43Z" style="fill:#e0e0e0"></path><path d="M429.14,186.88a23.34,23.34,0,0,1,5.53,13.83,20.78,20.78,0,0,1-4.37,13.68c-1.14,16.65-4.43,48.72-4.43,48.72,4.4,4.52,5.54,7.45,8.08,15.57,1.55,4.93,7.36,20.77,8.8,25.19-7.7.94-11.9,8.6-11.9,8.6s-13.55-20-20.08-31.81c-4.82-8.71-5.93-10.4-7.24-15.59a191.2,191.2,0,0,1-3.82-20.83c-1.59-10.83-4.4-25.75-5.18-36.42s-.92-22-.92-22Z" style="fill:#f0f0f0"></path></g><g id="freepik--Top--inject-3"><path d="M400.09,91.06a5.34,5.34,0,0,0,2.19-5.17,11.82,11.82,0,0,1-.6-3.18,3.77,3.77,0,0,1,3-3c1.51-.37,3,.22,4.46,0,1.15-.19,2.29-.6,3.47-.77a30.05,30.05,0,0,1,7.4-.19,17.82,17.82,0,0,1,12.53,6.57c1,1.31-12.64,26.91-12,32.22-2.83-3-5.56-6.05-8.3-9.1s-6.33-6.11-7.88-9.91c-.39-.93-.72-2.65-1.71-3.15a3.09,3.09,0,0,0-1.76-.21,3.7,3.7,0,0,0-2.8,1.36,1.76,1.76,0,0,0,.77,2.64,5.58,5.58,0,0,1-2.6-2.22,3.32,3.32,0,0,1-.06-3.31C397.07,92.3,398.79,91.94,400.09,91.06Z" style="fill:#e0e0e0"></path><path d="M400.09,91.06a5.34,5.34,0,0,0,2.19-5.17,11.82,11.82,0,0,1-.6-3.18,3.77,3.77,0,0,1,3-3c1.51-.37,3,.22,4.46,0,1.15-.19,2.29-.6,3.47-.77a30.05,30.05,0,0,1,7.4-.19,17.82,17.82,0,0,1,12.53,6.57c1,1.31-12.64,26.91-12,32.22-2.83-3-5.56-6.05-8.3-9.1s-6.33-6.11-7.88-9.91c-.39-.93-.72-2.65-1.71-3.15a3.09,3.09,0,0,0-1.76-.21,3.7,3.7,0,0,0-2.8,1.36,1.76,1.76,0,0,0,.77,2.64,5.58,5.58,0,0,1-2.6-2.22,3.32,3.32,0,0,1-.06-3.31C397.07,92.3,398.79,91.94,400.09,91.06Z" style="opacity:0.1"></path><path d="M403.07,99.29s-3.73,6.1-3.31,6.59a18.88,18.88,0,0,0,2.76,1.83Z" style="fill:#e0e0e0"></path><path d="M403.07,99.29s-3.73,6.1-3.31,6.59a18.88,18.88,0,0,0,2.76,1.83Z" style="opacity:0.1"></path><path d="M407.71,88.18c-2.5,1.18-4.67,3.1-5.45,8.6-.21,1.43.91,3.4.41,5.3-2.18,8.18.4,15,2,16.51,1.08,1,6.69,1.46,9.64.64,3.69-1,11.7-4.64,15.52-10.41,4.49-6.78,5.54-15.89.54-19.55C423.31,84.12,410.38,86.92,407.71,88.18Z" style="fill:#e0e0e0"></path><path d="M426.86,112.69l1.46,10.1h0c2.26.48,2.47,3.15,1.35,5.17l.52,2.84-15.4,2.83-1.73-14.12Z" style="fill:#e0e0e0"></path><path d="M405,118.79c1.31.73,4.19,1.26,8.1.72l-.23-2A25.72,25.72,0,0,1,409,118.6,13.68,13.68,0,0,1,405,118.79Z" style="fill:#e0e0e0"></path><path d="M405,118.79c1.31.73,4.19,1.26,8.1.72l-.23-2A25.72,25.72,0,0,1,409,118.6,13.68,13.68,0,0,1,405,118.79Z" style="opacity:0.1"></path><path d="M400.55,93.77c.08.7-.07,1.42,0,2.12.17,1.68,1.88,1.86,3.25,1.77,3.14-.22,2.75.57,3.24,3,.36,1.81,1,3.29,2.82,3.89,1.09.36,1.41-.12,1.79-1,.55-1.21,1.25-3.09,3.86-2.73,3,.42,3.8,4.94,2.05,7.9a4.39,4.39,0,0,1-3.39,2.27,2.75,2.75,0,0,1-2-1,6.1,6.1,0,0,1,.53,2.94,6.47,6.47,0,0,0,1.1,4c1.14,1.44,3.07,1.91,4.7,2.74,1.84,1,4.12,2.39,6.17,1.07a9.84,9.84,0,0,1,1.91-1.34c1.47-.51,3,.73,4.52.78a3,3,0,0,0,2.4-1.11c.4-.5.64-1.13,1.09-1.59a5.66,5.66,0,0,1,2.87-1.1c1-.23,2.13-.72,2.4-1.73s-.4-2-.1-3a2.91,2.91,0,0,1,2.12-1.62,4.28,4.28,0,0,0,2.38-1.33,2.75,2.75,0,0,0,.4-1.54,5.42,5.42,0,0,0-.94-3.15,4.21,4.21,0,0,1-.85-1.49c-.31-1.53,1.5-3.55,2-5a5.46,5.46,0,0,0,.39-2,4.94,4.94,0,0,0-2-3.52c-2-1.62-5-2.22-5.15-5.23-.08-1.46.29-3-.12-4.38A4.16,4.16,0,0,0,435,79.74c-1.23-.3-2.57,0-3.75-.49s-2.09-1.78-3-2.86a8.39,8.39,0,0,0-3.71-2.77,4.76,4.76,0,0,0-4.45.62c-.91.74-1.5,1.9-2.59,2.35-1.8.75-3.69-.86-5.63-1-2.68-.27-5,2.49-4.95,5.18a5.35,5.35,0,0,1-.1,1.88,3,3,0,0,1-2.66,1.61,18.54,18.54,0,0,0-3.26.23A4.14,4.14,0,0,0,398.37,90c.6,1.29,1.9,2.25,2.15,3.66Z" style="fill:#e0e0e0"></path><path d="M400.55,93.77c.08.7-.07,1.42,0,2.12.17,1.68,1.88,1.86,3.25,1.77,3.14-.22,2.75.57,3.24,3,.36,1.81,1,3.29,2.82,3.89,1.09.36,1.41-.12,1.79-1,.55-1.21,1.25-3.09,3.86-2.73,3,.42,3.8,4.94,2.05,7.9a4.39,4.39,0,0,1-3.39,2.27,2.75,2.75,0,0,1-2-1,6.1,6.1,0,0,1,.53,2.94,6.47,6.47,0,0,0,1.1,4c1.14,1.44,3.07,1.91,4.7,2.74,1.84,1,4.12,2.39,6.17,1.07a9.84,9.84,0,0,1,1.91-1.34c1.47-.51,3,.73,4.52.78a3,3,0,0,0,2.4-1.11c.4-.5.64-1.13,1.09-1.59a5.66,5.66,0,0,1,2.87-1.1c1-.23,2.13-.72,2.4-1.73s-.4-2-.1-3a2.91,2.91,0,0,1,2.12-1.62,4.28,4.28,0,0,0,2.38-1.33,2.75,2.75,0,0,0,.4-1.54,5.42,5.42,0,0,0-.94-3.15,4.21,4.21,0,0,1-.85-1.49c-.31-1.53,1.5-3.55,2-5a5.46,5.46,0,0,0,.39-2,4.94,4.94,0,0,0-2-3.52c-2-1.62-5-2.22-5.15-5.23-.08-1.46.29-3-.12-4.38A4.16,4.16,0,0,0,435,79.74c-1.23-.3-2.57,0-3.75-.49s-2.09-1.78-3-2.86a8.39,8.39,0,0,0-3.71-2.77,4.76,4.76,0,0,0-4.45.62c-.91.74-1.5,1.9-2.59,2.35-1.8.75-3.69-.86-5.63-1-2.68-.27-5,2.49-4.95,5.18a5.35,5.35,0,0,1-.1,1.88,3,3,0,0,1-2.66,1.61,18.54,18.54,0,0,0-3.26.23A4.14,4.14,0,0,0,398.37,90c.6,1.29,1.9,2.25,2.15,3.66Z" style="opacity:0.1"></path><path d="M440.44,131.05c-1.38-4.5-5.95-6.87-7.34-7.28s-4.78-1-4.78-1c.78,1.78-.54,3-2.84,3.49-3,.7-7.51.78-10.59-1.27l-1.26-.78a100.79,100.79,0,0,0-9.95,3c-.67.31-4.38,1.56-10.22,14.66-2.49,5.6-1.75,11.3,2.83,15.33.26,3.55-1.66,11.24-1.66,11.24a91.77,91.77,0,0,0-1.15,20.49s2.76,7.26,24.46,7.18c16.81-.06,25.25-8.2,25.25-8.2-.2-4.14-6.66-18.54-6-23.37C438.17,157.45,444.65,144.78,440.44,131.05Z" style="fill:#fafafa"></path><path id="freepik--arm--inject-3" d="M403.68,127.22c4.42,3.59,4.76,8.54,4.07,15.21s-7.36,27.52-8.72,32-3.34,6.12-6.79,9.78c-3.6,3.82-11.51,9.51-15.53,12.86-1.86,1.55-3.52,3.16-5.28,4.85a56.42,56.42,0,0,1-6.12,4.47,7,7,0,0,1-3.37,1.17c-.77.06-1.44-.36-2.17-.31s-1.31.64-2.16.5-1.58-1-2.45-1a23.52,23.52,0,0,1-2.76-.14,4.78,4.78,0,0,0-2.25-.23c-.71.15-1.8.84-2.46.25s-.31-1.53.13-2.23a7.61,7.61,0,0,1,3.89-2.68,44.74,44.74,0,0,1,4.72-1.65,10.4,10.4,0,0,0,4.16-2.14c.86-.65,1.55-1.76.13-2-1.67-.35-3.87-.11-5.2-1.47-.91-.93-.37-1.8.74-2a37.94,37.94,0,0,0,5.36-1.62c1.77-.68,3.46-1.54,5.26-2.17a23.42,23.42,0,0,1,2.91-.75c2.73-.57,4.31-2.88,6-4.87,2.38-2.77,6.47-8,9.26-11.73l4.2-20.34C391.92,139.81,392.9,130.55,403.68,127.22Z" style="fill:#e0e0e0"></path></g></g></g><g id="freepik--character-3--inject-3"><g id="freepik--character--inject-3"><g id="freepik--bottom--inject-3"><g id="freepik--bottom--inject-3"><path d="M145.81,266.74c-.55-.24-1,1.15-.87,1.93.39,2.26,2.56,5.24,6.41,7.49s12.31,3.79,14.8,4.49,6.33,3.32,8.65,4.5c4.23,2.16,7.68,1.92,9.6,1a2.84,2.84,0,0,0,1.29-1.91c.51-1.71.47-2.1.28-2.14Z" style="fill:#e0e0e0"></path><path d="M187.08,277a22.1,22.1,0,0,1-1.58,6.24,4.91,4.91,0,0,1-3.76,1.36,17.93,17.93,0,0,1-9-2.86,24.44,24.44,0,0,0-6.1-2.76c-2.58-.69-8.36-1.93-10.92-2.71a18.3,18.3,0,0,1-6.49-3.58c-1.43-1.32-3.42-3.88-3.57-5.36.43-3.23,1.33-4.94,3.42-5.41s4.93.15,8.69,1.06c1.12.27,2.53.66,3.13.78,2.3.47,4.43,1,6.15,1.41a10,10,0,0,0,4.44.44,3,3,0,0,0,1.79-.88c.6-.67,1-1.81,1.66-1.66,0,0,11.87,6.19,12.85,6.62C188.92,270.14,187.61,271.57,187.08,277Z" style="fill:#e0e0e0"></path><g style="opacity:0.1"><path d="M187.08,277a22.1,22.1,0,0,1-1.58,6.24,4.91,4.91,0,0,1-3.76,1.36,17.93,17.93,0,0,1-9-2.86,24.44,24.44,0,0,0-6.1-2.76c-2.58-.69-8.36-1.93-10.92-2.71a18.3,18.3,0,0,1-6.49-3.58c-1.43-1.32-3.42-3.88-3.57-5.36.43-3.23,1.33-4.94,3.42-5.41s4.93.15,8.69,1.06c1.12.27,2.53.66,3.13.78,2.3.47,4.43,1,6.15,1.41a10,10,0,0,0,4.44.44,3,3,0,0,0,1.79-.88c.6-.67,1-1.81,1.66-1.66,0,0,11.87,6.19,12.85,6.62C188.92,270.14,187.61,271.57,187.08,277Z"></path></g><path d="M160,263.28a3.66,3.66,0,0,0-1.28.8,6.76,6.76,0,0,0-1.05,1.27c-.37.59.38,1,.92.33a9.18,9.18,0,0,1,1.47-1.45,2.11,2.11,0,0,1,1.34-.42l.65.14C162,263.42,160.56,263.12,160,263.28Z" style="fill:#fafafa"></path><path d="M165.85,264.45a1.63,1.63,0,0,0-1.3,0,3.12,3.12,0,0,0-1.32,1,12.42,12.42,0,0,0-1.11,1.73c-.18.39.79.69,1,.28a17.89,17.89,0,0,1,1.05-1.57c.2-.25,1.06-1.17,1.76-1.06l.31.08c.05-.14-.11-.3-.24-.38Z" style="fill:#fafafa"></path><path d="M169.2,265.43a1.36,1.36,0,0,0-.87.18,3.49,3.49,0,0,0-.84.83,6.88,6.88,0,0,0-1,1.93c-.19.53.82.7,1,.36a5.36,5.36,0,0,1,1.5-2.46,2.73,2.73,0,0,1,1.11-.61c0-.1-.13-.16-.23-.17A3.93,3.93,0,0,0,169.2,265.43Z" style="fill:#fafafa"></path><path d="M192.48,256.48s-3.72,11.3-4.86,13.88c-.36.82-2.08.64-3,.73a10.5,10.5,0,0,0-3.38.72c-2.79,1.42-4.53,1.39-4.62-2.69,0-.83-.39-1.32-1.41-1.45a6.18,6.18,0,0,1-2.28-.4c-.09-.11,0-.26.14-.34a3.78,3.78,0,0,0,1.7-2.65c1.17-4.84,1.77-9,3-14.95Z" style="fill:#f0f0f0"></path><path d="M237.41,274.28c-1.61-2.56-2.47-7.5-6-17.54L217.67,268l8.14,12.94a12.17,12.17,0,0,1,.6,2.05C228.15,285.51,237.41,274.28,237.41,274.28Z" style="fill:#f0f0f0"></path><path d="M242.26,279.76c0-.15.06-1.36,0-1.51-.34-1.3-1.15-1.66-2.18-2.39a15.93,15.93,0,0,1-2.85-2.44c-.35-.48-.42-.72-.95-.94a5,5,0,0,0-4.2.55c-3,1.56-3.88,3.44-3.71,5.47.13,1.55.26,3.62-1.11,4.54-.57.39-1.47-2.1-1.47-2.1-.84,1.42.35,3.38,1,6.24a11.85,11.85,0,0,1,.09,4.82c-.3,2.52-.65,2.51-2,2.68-1.15.15-4.41-.07-6.4,1.32a4.21,4.21,0,0,0-2,4.45c.35,1,3.33,5.66,14.2,3.91,3.15-.51,9.77-5.47,9.67-5.93a6.14,6.14,0,0,1,0-1.42c0-1.11.08-2.23.13-3.34a16.73,16.73,0,0,1,.19-3.17,17.76,17.76,0,0,0,.4-2.63l.63-6.69C241.78,280.54,242.34,280.39,242.26,279.76Z" style="fill:#e0e0e0"></path><path d="M242.26,279.76c0-.15.06-1.36,0-1.51-.34-1.3-1.15-1.66-2.18-2.39a15.93,15.93,0,0,1-2.85-2.44c-.35-.48-.42-.72-.95-.94a5,5,0,0,0-4.2.55c-3,1.56-3.88,3.44-3.71,5.47.13,1.55.26,3.62-1.11,4.54-.57.39-1.47-2.1-1.47-2.1-.84,1.42.35,3.38,1,6.24a11.85,11.85,0,0,1,.09,4.82c-.3,2.52-.65,2.51-2,2.68-1.15.15-4.41-.07-6.4,1.32a4.21,4.21,0,0,0-2,4.45c.35,1,3.33,5.66,14.2,3.91,3.15-.51,9.77-5.47,9.67-5.93a6.14,6.14,0,0,1,0-1.42c0-1.11.08-2.23.13-3.34a16.73,16.73,0,0,1,.19-3.17,17.76,17.76,0,0,0,.4-2.63l.63-6.69C241.78,280.54,242.34,280.39,242.26,279.76Z" style="opacity:0.1"></path><path d="M243.63,279.31c1.07,1,.42,4.05-1,7.66-.64,1.61-1.83,4.36-1.48,7.3s.41,4.31-.34,5.69c-1.19,2.15-7.5,4.9-11.23,5.76A20.58,20.58,0,0,0,233.35,295c.37-6.47.87-10.64,3.83-13.51C240.92,277.82,243.63,279.31,243.63,279.31Z" style="fill:#e0e0e0"></path><path d="M243.63,279.31c1.07,1,.42,4.05-1,7.66-.64,1.61-1.83,4.36-1.48,7.3s.41,4.31-.34,5.69c-1.19,2.15-7.5,4.9-11.23,5.76A20.58,20.58,0,0,0,233.35,295c.37-6.47.87-10.64,3.83-13.51C240.92,277.82,243.63,279.31,243.63,279.31Z" style="opacity:0.1"></path><path d="M216.47,300.45s2.18,4.09,10.59,3.95c3.31,0,5.08-1.66,5.16-6.69.1-6.07.59-12.19,2.55-15.2s5.08-4.47,7.51-4.26a2.37,2.37,0,0,1,1.35,1.06s-2.43-.79-6.2,2.34c-2.79,2.31-3.54,7.14-3.5,13.14,0,2.58.18,5.5-.58,7.46a6,6,0,0,1-4,3.54c-4.58,1.28-10.83-.83-12.42-2.77A3,3,0,0,1,216.47,300.45Z" style="fill:#e0e0e0"></path><path d="M226.57,293.58a1.73,1.73,0,0,0-.68,1,2.9,2.9,0,0,0,1.33,2.64c.5.31.94.2.14-.86A5.31,5.31,0,0,1,226.57,293.58Z" style="fill:#fafafa"></path><path d="M227,290.44s-.26.17-.33,1a4.11,4.11,0,0,0,1.55,2.7c.89.44.41-.58,0-1.09A6.55,6.55,0,0,1,227,290.44Z" style="fill:#fafafa"></path><path d="M226.73,287s-.29.08,0,1.24a3.69,3.69,0,0,0,1.83,1.61c.57.07.85-.21.15-.72S226.83,287.54,226.73,287Z" style="fill:#fafafa"></path><path d="M201.45,144.67s-5.69,6.82-9.12,19.57a294.14,294.14,0,0,0-7.1,36c-.82,5.42-1.42,9.3-2.9,19.18-1.23,8.24-6.64,38.85-6.64,38.85s4,3.44,7.31,4.7c3.1,1.17,6,1.64,7.12,1.17,0,0,3.82-9.82,8.56-22.69a122.69,122.69,0,0,0,5.45-18.16c.62-3.18.47-8.85.41-11.7L230,172.3a27,27,0,0,0,4.75-8.19c3.35-8.4-.92-20.51-.92-20.51Z" style="fill:#e0e0e0"></path><path d="M226.49,155.71H195.24a67,67,0,0,0-2.91,8.53,276.51,276.51,0,0,0-6.67,33.15c.76,5.12,1.62,10.36,2.42,14,2.09,9.53,3.41,16.26,5.07,20.2a64,64,0,0,0,5.66,9.52,122.29,122.29,0,0,0,5.32-17.79c.62-3.18.47-8.85.41-11.7L223,183.05l1.44-8.84C229.17,166.52,228.65,160.75,226.49,155.71Z" style="fill:#e0e0e0"></path><path d="M226.49,155.71H195.24a67,67,0,0,0-2.91,8.53,276.51,276.51,0,0,0-6.67,33.15c.76,5.12,1.62,10.36,2.42,14,2.09,9.53,3.41,16.26,5.07,20.2a64,64,0,0,0,5.66,9.52,122.29,122.29,0,0,0,5.32-17.79c.62-3.18.47-8.85.41-11.7L223,183.05l1.44-8.84C229.17,166.52,228.65,160.75,226.49,155.71Z" style="opacity:0.1"></path><path d="M221.19,144.67A24.49,24.49,0,0,1,227,159.14a21.65,21.65,0,0,1-4.57,14.3c-1.19,17.41-4.63,50.94-4.63,50.94,4.6,4.73,5.79,7.79,8.45,16.28,1.62,5.15,6.86,21.29,8.57,26.55-8.19,1.23-12.33,8.41-12.33,8.41S208.81,255.05,202,242.74c-5.05-9.11-6.21-10.88-7.58-16.31s-2.33-10.45-4-21.78-4.6-26.93-5.42-38.08-1-23-1-23Z" style="fill:#e0e0e0"></path><path d="M235.94,158.32A6.88,6.88,0,0,1,232.6,156a10,10,0,0,1-.86-2.47,26.66,26.66,0,0,0-1.41-4.18l-.86.38a25.91,25.91,0,0,1,1.36,4,10,10,0,0,0,1,2.72,7.65,7.65,0,0,0,4.06,2.82C235.89,159,235.92,158.63,235.94,158.32Z" style="opacity:0.18"></path><path d="M213.59,168.29a2.52,2.52,0,0,0,.6-.06c1.36-.3,2.43-1.22,4.54-3.92,1.61-2.06,1.45-3.54,1.18-6-.1-.9-1-5.71-1.11-7l-.91.5c.07,1.3,1,5.67,1.08,6.59.27,2.43.39,3.55-1,5.31-2,2.5-2.89,3.34-4,3.58s-5.86-.55-7.13-1.43c-.74-.51-2-6.8-2.69-12.34l-.94.13c.37,2.8,1.66,12,3.09,13C207.58,167.53,211.69,168.34,213.59,168.29Z" style="opacity:0.18"></path></g></g><g id="freepik--top--inject-3"><path id="freepik--arm--inject-3" d="M238.9,122.89l-9.4-19.11C225,93.9,217.09,87.21,227.84,80c4.75-.36,7.13,1.12,10.54,6.53s10.64,24.94,12.29,29.14a40.22,40.22,0,0,1,2.69,11.39c.56,5-.18,14.22-.22,19.2,0,2.3.12,4.5.27,6.82a52.84,52.84,0,0,1-.52,7.2,6.59,6.59,0,0,1-1.23,3.17c-.43.59-1.14.82-1.55,1.39s-.35,1.34-1,1.87-1.67.57-2.26,1.14a20.38,20.38,0,0,1-1.8,1.93,4.54,4.54,0,0,0-1.56,1.49c-.33.61-.49,1.82-1.33,1.94s-1.3-.71-1.53-1.47a7.17,7.17,0,0,1,.44-4.47,40.46,40.46,0,0,1,1.71-4.45,10,10,0,0,0,1-4.34c.05-1-.33-2.21-1.42-1.36-1.28,1-2.46,2.75-4.26,2.88-1.24.09-1.54-.84-1-1.79a36.64,36.64,0,0,0,2.12-4.89c.6-1.71,1-3.47,1.66-5.16a21.13,21.13,0,0,1,1.25-2.58c1.27-2.33.56-4.91.17-7.37C241.76,134.81,239.91,127.23,238.9,122.89Z" style="fill:#f0f0f0"></path><path d="M226.19,79.53c4-.27,8.05.15,10.74,4.17a115.86,115.86,0,0,1,10.64,22.84c-2.84,5-13.95,8.16-13.95,8.16l-6.32-13Z" style="fill:#f0f0f0"></path><path d="M226.19,79.53c4-.27,8.05.15,10.74,4.17a115.86,115.86,0,0,1,10.64,22.84c-2.84,5-13.95,8.16-13.95,8.16l-6.32-13Z" style="opacity:0.15"></path><path d="M234,84.53c3.19,6.1,2.79,11.56,1.87,20.11-.85,7.89-1.44,12.77-2.17,22.53-.83,11.15.66,18.18.66,18.18s-.32,4.72-14.22,8.26c-24.42,6.22-36.14-.87-36.14-.87s-.59-13.75.36-31.74c1.06-20.16,1.41-23.11,3-27.9a12.46,12.46,0,0,1,6.25-6.37c2.42-1.1,8.23-3,11.67-4.33,8-3.09,17.29-2.9,17.29-2.9C229.54,79,232.38,81.37,234,84.53Z" style="fill:#fafafa"></path><path d="M204.69,76.16l.66,6.75c4.06.88,13.92.25,15.77-2.27l-.39-6.13Z" style="fill:#f0f0f0"></path><path d="M194.12,57.16s-1.88,1.42-3.31,6.34l2.79,2C194.52,62.09,195.51,58.57,194.12,57.16Z" style="fill:#e0e0e0"></path><path d="M201.32,43.38c-5.21.34-8,5-7.06,15.88-2.43,11.22.93,15.65,2.38,17.12,3.26,1.75,6.58,2,11.09.87,3.44-.9,12.14-3.48,15.79-8.89,4.29-6.35,5.41-16,.84-19.62C217.93,43.68,204.08,43.19,201.32,43.38Z" style="fill:#f0f0f0"></path><path d="M196.64,76.38c.8.82,5.43,2.28,8.29,2l-.24-2.19A29.46,29.46,0,0,1,196.64,76.38Z" style="fill:#e0e0e0"></path><path d="M201,51a4.17,4.17,0,0,0,.68,2.47,5.06,5.06,0,0,0,2.87,2.07,10,10,0,0,0-1.14,4.5,2.4,2.4,0,0,0,.31,1.42.94.94,0,0,0,1.69,0,11.45,11.45,0,0,1,1.41-2.35,4.53,4.53,0,0,1,2.84-1.53c4.18-.4,4.2,6.1,2.52,8.3-2.74,3.61-5,1.29-5,1.29s-1.41,5.56,2.62,8c0,0,6.54,2.25,11,0,3.9-4.16,7.71-8.94,9.08-13.09,3-9,1.2-14.79-2.79-16.31-.52-3.47-3.77-5.64-6.9-6.77-4.27-1.53-8.42-.19-12.79-.22a14.86,14.86,0,0,1-6.45-1.54c-.89-.44-2-1-2.8-.43a2.06,2.06,0,0,0-.67.92,4.42,4.42,0,0,0,.33,3.94c-1.15-.82-3.17-.45-4.33.45-1.66,1.29-1.92,2.83-1.34,5C192.49,48.44,195.19,52.69,201,51Z" style="fill:#e0e0e0"></path><path d="M201,51a4.17,4.17,0,0,0,.68,2.47,5.06,5.06,0,0,0,2.87,2.07,10,10,0,0,0-1.14,4.5,2.4,2.4,0,0,0,.31,1.42.94.94,0,0,0,1.69,0,11.45,11.45,0,0,1,1.41-2.35,4.53,4.53,0,0,1,2.84-1.53c4.18-.4,4.2,6.1,2.52,8.3-2.74,3.61-5,1.29-5,1.29s-1.41,5.56,2.62,8c0,0,6.54,2.25,11,0,3.9-4.16,7.71-8.94,9.08-13.09,3-9,1.2-14.79-2.79-16.31-.52-3.47-3.77-5.64-6.9-6.77-4.27-1.53-8.42-.19-12.79-.22a14.86,14.86,0,0,1-6.45-1.54c-.89-.44-2-1-2.8-.43a2.06,2.06,0,0,0-.67.92,4.42,4.42,0,0,0,.33,3.94c-1.15-.82-3.17-.45-4.33.45-1.66,1.29-1.92,2.83-1.34,5C192.49,48.44,195.19,52.69,201,51Z" style="opacity:0.1"></path><path id="freepik--arm--inject-3" d="M174.15,131.19s2.5-12.52,4.32-21.3,1.11-18.93,14.94-22.4c2.28,3.49,3.77,8.83,3,15.49s-5.65,26.89-7.06,31.4c-1.73,5-3.33,6.73-7.06,11.3-3.32,4.06-9.65,10.93-13,15-1.53,1.87-2.86,3.77-4.27,5.76A55.15,55.15,0,0,1,159.9,172a6.86,6.86,0,0,1-3.08,1.79c-.75.2-1.48-.08-2.19.11s-1.17.87-2,.9-1.73-.64-2.6-.55a24.24,24.24,0,0,1-2.73.39,4.68,4.68,0,0,0-2.26.2c-.67.28-1.6,1.16-2.37.71s-.59-1.44-.29-2.21a7.54,7.54,0,0,1,3.31-3.37,41.47,41.47,0,0,1,4.32-2.51,10.54,10.54,0,0,0,3.68-2.9c.72-.8,1.18-2-.27-2-1.7,0-3.82.63-5.37-.45-1.08-.74-.71-1.69.33-2.15a36.49,36.49,0,0,0,5-2.6c1.62-1,3.12-2.17,4.76-3.13a21.72,21.72,0,0,1,2.71-1.29c2.57-1.07,3.69-3.65,5-5.92C167.57,143.78,172.12,135.4,174.15,131.19Z" style="fill:#f0f0f0"></path><path d="M194,86.58c-3,.72-10.93,2.14-13.23,9.62S176,119.81,176,119.81s1.85,3.24,7.91,4.59,9-.34,9-.34,3.61-15.78,4.23-19.76S198.09,90,194,86.58Z" style="fill:#f0f0f0"></path><path d="M194,86.58c-3,.72-10.93,2.14-13.23,9.62S176,119.81,176,119.81s1.85,3.24,7.91,4.59,9-.34,9-.34,3.61-15.78,4.23-19.76S198.09,90,194,86.58Z" style="opacity:0.15"></path></g></g></g><g id="freepik--character-1--inject-3"><g id="freepik--character--inject-3"><g id="freepik--bottom--inject-3"><path d="M173.84,284.53a5,5,0,0,0-3.83,2.22,22.92,22.92,0,0,0-.94,6.57A19.52,19.52,0,0,1,166,304.15c-2.18,3.35-4.67,10.69-2.65,15.27s4.62,8.27,9.23,9,8.74-4.3,10-7.53Z" style="fill:#37474f"></path><path d="M164.94,316.66a8.42,8.42,0,0,1-.34-2.56,15.28,15.28,0,0,1,1.51-6.73,44.28,44.28,0,0,0,3.5-6.55,31.06,31.06,0,0,0,1.78-7.56c.21-2.06.11-4.35.85-6.32,2.22-6,8.77-5.37,12.49-6l13.32-9.63,5,17.88s-7.23,2.65-9.33,3.76c-2.78,1.47-5.36,5-7,7.53-2.13,3.2-4.77,6.54-4.79,10.55a31.39,31.39,0,0,0,.94,6.44,6,6,0,0,1,.19,1.83c-.18,1.7-1.69,2.9-3.07,3.9-2.24,1.62-4.93,3.32-7.58,2.52a8.53,8.53,0,0,1-3.68-2.86A17.46,17.46,0,0,1,164.94,316.66Z" style="fill:#f28f8f"></path><path d="M182.56,312.34a15.29,15.29,0,0,1,1.81-7.08c1.31-2.28,4.22-6.91,5.52-8.16s2.47-1.63,2.05-2.05-7.95-2.26-10.48-2.3-2.84,1.5-4.19,2.63c0,0,2.08-2.87,2.08-5.63,0-2.05.85-7.54,4.3-8.45l1.11-.37s.09-.83-1.35-.5-6.32,1.37-8,2.38-3.74,2.23-4.25,5.93,0,4.88-1,8.53a33.06,33.06,0,0,1-4,9.32,15.69,15.69,0,0,0-1.68,10.82Z" style="fill:#455a64"></path><path d="M258.83,213.12a185.82,185.82,0,0,1-5.68,42c-4.45,16.75-6.65,19.23-9.53,20.61-12.79,6.12-47,16-47,16s-7.32-7.35-5.64-15.58c10.11-7.26,26.61-19.75,34.56-19.25l-15.08-48Z" style="fill:#37474f"></path><path d="M173.36,326.75c2.79,0,6.89-2.05,9.2-5.9,1.89-3.14.06-7.24,0-8.51-.25-.49-3.54-1.85-9.28-.95s-7.65,3.23-8.76,6C164.8,320.25,169.27,326.75,173.36,326.75Z" style="fill:#f0f0f0"></path><path d="M267.93,344.24c-1.26.09-1-1.62-1.85-5.45s-3.51-20.39-3.51-20.39l-19.48,7.33s5.23,13.78,6.87,17.75c1.83,4.41,4.38,10.47,4.8,13.9s.61,13,4.92,14.74,8.3-.24,11.15-2.11,6.14-8.36,9.28-11.65,5.81-5.12,8.24-8.52,2.24-11.83-1-13.58-8,.26-10.72,1.91S270.27,344.08,267.93,344.24Z" style="fill:#f28f8f"></path><path d="M210.45,208.8c-5.8,13.62-7.69,27.1-1.66,38.36s10.9,18,24.27,43.52c0,5.73.15,11.44,4.34,22.2,5.22,13.38,10.92,27.76,10.92,27.76s5.28-8.65,17-7.19c-.61-6.59-4.55-38-6.47-47.24-2.4-11.54-11.7-51-11.7-51A27.11,27.11,0,0,0,258.05,213Z" style="fill:#455a64"></path><path d="M256.39,369.45a38.44,38.44,0,0,1-1.95-10.32c-.43-5-1.35-6.56-1.35-6.56s.51-3.33,5.65-7.4,8.35-2.17,8.35-2.17,1.18,2,4.43-1.7l6,7.7Z" style="fill:#455a64"></path><path d="M287.77,335.84c-1.92-1.82-5-1.79-9,.23a24,24,0,0,0-7.21,5.23s-2.14,3.89,1.11,6.54S287.77,335.84,287.77,335.84Z" style="fill:#f0f0f0"></path><path d="M290.7,339.37a4.16,4.16,0,0,0-1.55-2.75c-.27-.17-1.2-.66-1.38-.78-2.39-1.55-6.67,1.79-10.28,5.06-4.2,3.81-8.09,11.47-11.49,16.65s-7.63,7.18-9,9.46a3.77,3.77,0,0,0,.4,4.64c.22.24,1,1,1.18,1.13,1.11,1.07,3.09,1.51,5.43,1.06,4.71-.91,8.1-2.4,12-7.95s6-8.43,10.51-12S291.67,343.84,290.7,339.37Z" style="fill:#37474f"></path><path d="M290.7,339.37c-1.36-6.26-7.16-1.92-11.83,2.32-4.2,3.81-8.09,11.46-11.49,16.65s-7.73,7.11-9,9.46c-2.35,4.26.91,6.94,5.63,6s8.1-2.4,12-7.95,6-8.43,10.51-12S291.67,343.84,290.7,339.37Z" style="fill:#263238"></path><path d="M269.08,343.34h0c-1.42.63-2-.34-2-.34-4.47,4.53-5,7.44-5,7.44S266.5,345.09,269.08,343.34Z" style="fill:#37474f"></path><path d="M241.77,236.79a183,183,0,0,1,7.75,22,232.11,232.11,0,0,1,5.6,22.74c1.24,7.69,2.46,15.39,3.58,23.1s2.18,15.42,3.12,23.16q-2.35-11.46-4.4-22.95c-1.38-7.66-2.66-15.33-3.93-23-.62-3.82-1.53-7.59-2.41-11.38s-1.84-7.55-2.8-11.31-2-7.52-3.05-11.26S243,240.47,241.77,236.79Z" style="fill:#37474f"></path></g><g id="freepik--top--inject-3"><g id="freepik--top--inject-3"><g id="freepik--arm--inject-3"><path d="M255.26,154.22c6.57,1,7.7,2.69,17.42,11.09a71.18,71.18,0,0,0,14,9.77s8.23,10,8.57,11.95,1,6.34-2.87,8.79c-2.47,1.56-5.34.13-6.87.28-3.19.31-5.15-2.28-6.47-3.07-9-5.35-18-10.23-18-10.23Z" style="fill:#455a64"></path><path d="M316.33,148.65c-1.35-.8-1.59.44-2.05.61,0,0,1.38-1.59-.94-3-1.43-.85-2.12,1.15-2.15.88,0-.12,1.72-4.19,3.13-7.65,1.35-3.28.19-4.22-.35-4.48s-1.08,0-2.32,2.35-4.9,9.54-5.73,11-1.42,2.18-1.95.25-1-3.53-2-4.64c-1.76-1.85-3.14-1-2.86.38.39,2,.36,4.34.64,7.61.15,1.7.19,3.3.39,4.47.6,4.09-1.8,6-4.64,9.19-2.33,2.63-4.73,4.78-10.08,10.07-5.07,5-4.87,16.79.14,18.87,5.75,2.38,8-.65,12.21-7,3.53-5.39,8.41-15.22,9.73-17.5s1.8-3.67,3.64-4.79a13.31,13.31,0,0,0,5-5.55c.66-1.15,1.91-3.26,2.73-5s.9-2.94-.08-3.67c-1.33-1-1.72.48-1.86.32S318.25,149.78,316.33,148.65Z" style="fill:#ffa8a7"></path><path d="M306,151.47c1.86,1.83,3.18,6.77,2.37,10C310.72,158.09,309.4,153.06,306,151.47Z" style="fill:#f28f8f"></path><path d="M310.76,148.25c-1.09,2-2.14,4.22-1.86,5.11s.93,1.36,1.66,1.17a2.77,2.77,0,0,0,1.17-.64,2.42,2.42,0,0,0-.28,1.57,1.68,1.68,0,0,0,1.9.85,2.26,2.26,0,0,0,1.1-.92s-.45,1.19,0,1.85a1.54,1.54,0,0,0,2.32-.19c-.55.94-1.32,1.47-2.29,1s-.74-1.24-.74-1.24a1.7,1.7,0,0,1-1.9,0,1.77,1.77,0,0,1-1-1.83,1.61,1.61,0,0,1-2.52-.85c-.42-1.24,0-2.13.81-3.57A9.72,9.72,0,0,1,310.76,148.25Z" style="fill:#f28f8f"></path></g><g id="freepik--Chest--inject-3"><path d="M262.19,177.12c.55-16.82-4.8-22-7.66-23.37l-11.79-3.11c-3.67.18-19.47,3.89-23.81,4.69-2.79.52-4.8,6-6.73,14.71-1.56,7.1-2.56,13.1-3.84,23.05-1.08,8.33-2.33,17.83-1.57,29.77,18.53,6.9,36.48,10.76,51.15.85-.18-2.38,2.44-22,2.91-27.74S262,181.68,262.19,177.12Z" style="fill:#fafafa"></path><path d="M213.87,155.62l17.22-4s1,4,3.4,11.76,2,11,.36,23.68-6.13,39.8-5.42,45.14c-5.66-.08-23.87-4.23-26.89-6.79,0,0,2.86-20.66,4.37-33.6S207,158.28,213.87,155.62Z" style="fill:#6247EC"></path><path d="M213.87,155.62l17.22-4s1,4,3.4,11.76,2,11,.36,23.68-6.13,39.8-5.42,45.14c-5.66-.08-23.87-4.23-26.89-6.79,0,0,2.86-20.66,4.37-33.6S207,158.28,213.87,155.62Z" style="fill:#fff;opacity:0.65"></path><path d="M247.91,153.13c4.79,2.77,7.65,9,7.65,17s-1.25,24.15-1.32,30.19,1.26,27.41,1.26,27.41c2.53-1.12,4.91-3,5.57-6.55-.7-3.79.79-20.57,1.05-25.57s.68-16.57.86-22.69-.82-13.91-5.68-18.37a60,60,0,0,0-9.13-2.79Z" style="fill:#6247EC"></path><path d="M247.91,153.13c4.79,2.77,7.65,9,7.65,17s-1.25,24.15-1.32,30.19,1.26,27.41,1.26,27.41c2.53-1.12,4.91-3,5.57-6.55-.7-3.79.79-20.57,1.05-25.57s.68-16.57.86-22.69-.82-13.91-5.68-18.37a60,60,0,0,0-9.13-2.79Z" style="fill:#fff;opacity:0.65"></path><path d="M255.42,174.75c.19-5.87-1.51-16.68-7.42-19.73a5.09,5.09,0,0,1-.09-1.89l.51-3a25.86,25.86,0,0,1,4.92,3.41c2.43,2.16,6.22,8.43,6.73,13.1C257.72,164,256.08,167.52,255.42,174.75Z" style="fill:#6247EC"></path><path d="M255.42,174.75c.19-5.87-1.51-16.68-7.42-19.73a5.09,5.09,0,0,1-.09-1.89l.51-3a25.86,25.86,0,0,1,4.92,3.41c2.43,2.16,6.22,8.43,6.73,13.1C257.72,164,256.08,167.52,255.42,174.75Z" style="fill:#fff;opacity:0.45"></path><g id="freepik--Head--inject-3"><path d="M232.81,144.9c-.46-4.11-4.26-8.59-5.88-12.25s-2.45-6.24-2.07-9.45c.23-1.89,1.58-4.41,3-4.87A8.87,8.87,0,0,1,235,107.67a29.86,29.86,0,0,0,4-.86c1.57-.55,2-1.77,3.29-2.75,2.23-1.68,5.82-1.51,7,1.3,1.53-1.75,3.45-1.59,5.63-.89a3.79,3.79,0,0,1,2.66,4.45c3.07-1.49,5.67.77,5.84,2.53.13,1.3-.21,2.37.57,3.58s2.67,1.43,3.28.41c.2,1.85-.6,3.21-2.58,3A4.13,4.13,0,0,1,265,122a3.79,3.79,0,0,1-3.58,2.42,6.59,6.59,0,0,1-1,2.74,6.74,6.74,0,0,1-2.46,2c-3.09,1.26-6.44,1.53-9.72,2l-3.88.57c-.23,0-1.39,0-1.54.23Z" style="fill:#263238"></path><path d="M228.18,139.35a4,4,0,0,0,4.81.14l-.8,8.18-1,6.62s6.7,9.79,17.64,10.94c.92-2.35.79-6.76-.64-9.13l.7-6.3a40.22,40.22,0,0,0,4.85.07,8.46,8.46,0,0,0,7.17-6A36.6,36.6,0,0,0,262.17,130a11.82,11.82,0,0,1,0-3.36,15.81,15.81,0,0,0-.57-7.25c-3.35-3-13.25-4.2-21.1,0,1.4,4,.15,7.82-3.22,9.35.08,1.22,0,4.31-2,4.13-1.44-.12-1.43-1.94-2.81-3.61s-4.82-2.31-6.29,0A7.8,7.8,0,0,0,228.18,139.35Z" style="fill:#ffa8a7"></path><path d="M248.91,149.8c-5-.89-8.85-1.67-11.27-5.49a31.77,31.77,0,0,1-2.7-6.18,24.56,24.56,0,0,0,1.73,7.65c1.14,2.42,4.15,4.55,12.05,5.69Z" style="fill:#f28f8f"></path><path d="M247.47,129.36a1.43,1.43,0,1,1-1.31-1.59A1.45,1.45,0,0,1,247.47,129.36Z" style="fill:#263238"></path><path d="M246.65,125.05l-3.2,1.38a1.82,1.82,0,0,1,.94-2.35A1.71,1.71,0,0,1,246.65,125.05Z" style="fill:#263238"></path><path d="M260,126.78l-3.33-1.13a1.68,1.68,0,0,1,2.17-1.13A1.84,1.84,0,0,1,260,126.78Z" style="fill:#263238"></path><path d="M259.2,129.93a1.44,1.44,0,0,1-1.53,1.37,1.47,1.47,0,0,1-1.32-1.58,1.43,1.43,0,1,1,2.85.21Z" style="fill:#263238"></path><path d="M257.78,135.27l-5.09,1.91-1-9.8C253.61,126.83,255.72,131.43,257.78,135.27Z" style="fill:#f28f8f"></path><path d="M247,139.15l5.89,1.62a3,3,0,0,1-3.7,2.23A3.2,3.2,0,0,1,247,139.15Z" style="fill:#b16668"></path><path d="M247.71,140.16a3.08,3.08,0,0,0-.74,0,3.16,3.16,0,0,0,2.26,2.87,3,3,0,0,0,1,.09A2.8,2.8,0,0,0,247.71,140.16Z" style="fill:#f28f8f"></path></g><path d="M236.09,175.72c.34-11.52-4.3-12.84-6-9.29A23.23,23.23,0,0,1,228,152.22c1.42-1.77,2.55-3.27,3-3.94.65-.89,1.18-.61,1.18-.61l-.41,2.88a19.55,19.55,0,0,0,2.9,8.07C236.69,162.05,237,166.09,236.09,175.72Z" style="fill:#6247EC"></path><path d="M236.09,175.72c.34-11.52-4.3-12.84-6-9.29A23.23,23.23,0,0,1,228,152.22c1.42-1.77,2.55-3.27,3-3.94.65-.89,1.18-.61,1.18-.61l-.41,2.88a19.55,19.55,0,0,0,2.9,8.07C236.69,162.05,237,166.09,236.09,175.72Z" style="fill:#fff;opacity:0.45"></path></g><g id="freepik--arm--inject-3"><path d="M202.48,249.77c-.66-2.91-1.1-6-2.39-8.69-1.53-3.17-2.46-3.77-3-8.05-.81-6.2,1.83-26.39,1.83-26.39-5.07-3.54-11-4.42-17.55-3.28-.6,3.71-.08,8,2.76,29.66.53,4-.63,7.86-.55,11.83.09,3.79.42,7.74,2.33,11.1a4.4,4.4,0,0,0,.67.93c.2.21.44.38.66.57,1.41,1.22,2.15,3.32,3.93,3.86a4.45,4.45,0,0,0,2.6-.16,2,2,0,0,1,1-.17c.28,0,.52.27.82.32,1.35.22,1.88-1,1.76-2.19-.22-2.06-1.48-4.75-2-7.65s-.16-6.48.38-6.55c1.83-.26,2.33,6.05,5.48,6.79C203,252.13,202.66,250.54,202.48,249.77Z" style="fill:#ffa8a7"></path><path d="M213.87,155.62c-4.74.83-7.57,1.44-10.82,3.92s-5.28,6.71-8,11.55-4.61,8.09-7.53,13.93a119.26,119.26,0,0,0-6.05,14.25,12.41,12.41,0,0,0-.73,4.61l18.66-.35s13.65-24.44,14.82-26.27S219.21,159.67,213.87,155.62Z" style="fill:#455a64"></path><path d="M198.51,209.57c1.16-.61.72-1.84,1.28-2.37a4.23,4.23,0,0,0,.77-4c-.66-1.49-2.42-4.32-8.51-6.43a25.47,25.47,0,0,0-5.46-1.19c-1.54-.17-3.43-.4-4.86.36a3,3,0,0,0-1.52,2.48,3,3,0,0,1-.1,1.13,3.18,3.18,0,0,1-.51.65,1.79,1.79,0,0,0-.49,1.25c0,.69.62,1.2,1,1.8S180,205,180,205.81c.09,1.26.66,1.46,1.13,1.55v-1.92s2.72-1.91,10.58-.61c5.22.87,6.94,3.67,6.94,3.67Z" style="fill:#37474f"></path></g><path d="M287,174.16c.38-.86-2-1.11-3.08-.58-3.91,3.26-6,10.73-5.48,15.09s2.93,7.77,5.67,7.89,2.5.61,4.62.61,5.44-1.68,6.62-6.07a6.57,6.57,0,0,1-6.06,2.16c-3.81-.68-4.69-8-4.49-11.14A25.88,25.88,0,0,1,287,174.16Z" style="fill:#37474f"></path></g></g></g></g><g id="freepik--character-4--inject-3"><g id="freepik--character--inject-3"><g id="freepik--bottom--inject-3"><g id="freepik--bottom--inject-3"><path d="M255.66,419.43c-.56-.24-1,1.15-.88,1.94.4,2.25,2.56,5.23,6.41,7.49s12.31,3.78,14.8,4.48,6.33,3.32,8.65,4.51c4.23,2.16,7.68,1.91,9.61.95a2.93,2.93,0,0,0,1.29-1.91c.5-1.71.46-2.1.27-2.15Z" style="fill:#e0e0e0"></path><path d="M296.92,429.64a22,22,0,0,1-1.58,6.24,4.86,4.86,0,0,1-3.75,1.36,18,18,0,0,1-9-2.85,24.74,24.74,0,0,0-6.09-2.77c-2.59-.68-8.37-1.92-10.93-2.71a18.15,18.15,0,0,1-6.49-3.58c-1.43-1.32-3.42-3.87-3.57-5.36.44-3.23,1.33-4.94,3.42-5.4s4.93.15,8.69,1.05c1.12.27,2.53.66,3.14.78,2.29.48,4.42,1,6.14,1.42a10.13,10.13,0,0,0,4.44.43,2.91,2.91,0,0,0,1.79-.88c.6-.67,1-1.81,1.67-1.65,0,0,11.86,6.18,12.84,6.62S297.46,424.26,296.92,429.64Z" style="fill:#e0e0e0"></path><g style="opacity:0.1"><path d="M296.92,429.64a22,22,0,0,1-1.58,6.24,4.86,4.86,0,0,1-3.75,1.36,18,18,0,0,1-9-2.85,24.74,24.74,0,0,0-6.09-2.77c-2.59-.68-8.37-1.92-10.93-2.71a18.15,18.15,0,0,1-6.49-3.58c-1.43-1.32-3.42-3.87-3.57-5.36.44-3.23,1.33-4.94,3.42-5.4s4.93.15,8.69,1.05c1.12.27,2.53.66,3.14.78,2.29.48,4.42,1,6.14,1.42a10.13,10.13,0,0,0,4.44.43,2.91,2.91,0,0,0,1.79-.88c.6-.67,1-1.81,1.67-1.65,0,0,11.86,6.18,12.84,6.62S297.46,424.26,296.92,429.64Z"></path></g><path d="M269.81,416a3.81,3.81,0,0,0-1.28.8,6.35,6.35,0,0,0-1,1.27c-.38.59.37,1,.92.34a8,8,0,0,1,1.46-1.45,2.06,2.06,0,0,1,1.34-.43l.66.14C271.85,416.11,270.4,415.81,269.81,416Z" style="fill:#fafafa"></path><path d="M275.69,417.14a1.63,1.63,0,0,0-1.3,0,3.1,3.1,0,0,0-1.31,1,12.17,12.17,0,0,0-1.12,1.73c-.18.4.79.7,1,.28a18,18,0,0,1,1.06-1.57c.2-.25,1.05-1.16,1.75-1.06l.31.08c.05-.14-.11-.3-.23-.37Z" style="fill:#fafafa"></path><path d="M279,418.12a1.31,1.31,0,0,0-.87.19,3.44,3.44,0,0,0-.84.82,7.07,7.07,0,0,0-.95,1.94c-.18.52.83.69,1,.35a5.55,5.55,0,0,1,1.5-2.46,2.61,2.61,0,0,1,1.11-.6c0-.11-.13-.17-.23-.18A5.2,5.2,0,0,0,279,418.12Z" style="fill:#fafafa"></path><path d="M302.33,409.17s-3.73,11.3-4.86,13.88c-.37.82-2.09.64-3,.74a10.82,10.82,0,0,0-3.39.71c-2.78,1.42-4.53,1.4-4.62-2.69,0-.83-.39-1.31-1.41-1.45a6.18,6.18,0,0,1-2.28-.39c-.09-.11,0-.26.15-.35a3.84,3.84,0,0,0,1.7-2.65c1.16-4.84,1.76-9,3-15Z" style="fill:#f0f0f0"></path><path d="M347.25,427c-1.6-2.57-2.47-7.51-6-17.55l-13.74,11.26,8.15,12.95a12.33,12.33,0,0,1,.59,2.05C338,438.2,347.25,427,347.25,427Z" style="fill:#f0f0f0"></path><path d="M352.1,432.45c0-.15.06-1.36,0-1.5-.34-1.31-1.14-1.67-2.18-2.4a16.42,16.42,0,0,1-2.85-2.43c-.35-.48-.41-.73-.95-.95a5.08,5.08,0,0,0-4.2.55c-3,1.56-3.88,3.44-3.71,5.47.13,1.56.26,3.62-1.1,4.54-.57.39-1.47-2.09-1.47-2.09-.85,1.41.34,3.37,1,6.24a11.8,11.8,0,0,1,.08,4.81c-.3,2.52-.65,2.51-2,2.68-1.15.15-4.42-.06-6.4,1.32a4.22,4.22,0,0,0-2,4.46c.36,1,3.33,5.65,14.2,3.9,3.15-.51,9.78-5.46,9.68-5.93a6.13,6.13,0,0,1,0-1.42c0-1.11.09-2.22.14-3.33a16.83,16.83,0,0,1,.18-3.18,16.24,16.24,0,0,0,.4-2.62l.63-6.7C351.62,433.23,352.19,433.08,352.1,432.45Z" style="fill:#e0e0e0"></path><path d="M352.1,432.45c0-.15.06-1.36,0-1.5-.34-1.31-1.14-1.67-2.18-2.4a16.42,16.42,0,0,1-2.85-2.43c-.35-.48-.41-.73-.95-.95a5.08,5.08,0,0,0-4.2.55c-3,1.56-3.88,3.44-3.71,5.47.13,1.56.26,3.62-1.1,4.54-.57.39-1.47-2.09-1.47-2.09-.85,1.41.34,3.37,1,6.24a11.8,11.8,0,0,1,.08,4.81c-.3,2.52-.65,2.51-2,2.68-1.15.15-4.42-.06-6.4,1.32a4.22,4.22,0,0,0-2,4.46c.36,1,3.33,5.65,14.2,3.9,3.15-.51,9.78-5.46,9.68-5.93a6.13,6.13,0,0,1,0-1.42c0-1.11.09-2.22.14-3.33a16.83,16.83,0,0,1,.18-3.18,16.24,16.24,0,0,0,.4-2.62l.63-6.7C351.62,433.23,352.19,433.08,352.1,432.45Z" style="opacity:0.1"></path><path d="M353.47,432c1.07,1,.42,4-1,7.66-.64,1.6-1.82,4.36-1.48,7.29s.41,4.32-.34,5.69c-1.18,2.15-7.5,4.9-11.23,5.76a20.47,20.47,0,0,0,3.79-10.75c.37-6.47.87-10.65,3.83-13.52C350.76,430.51,353.47,432,353.47,432Z" style="fill:#e0e0e0"></path><path d="M353.47,432c1.07,1,.42,4-1,7.66-.64,1.6-1.82,4.36-1.48,7.29s.41,4.32-.34,5.69c-1.18,2.15-7.5,4.9-11.23,5.76a20.47,20.47,0,0,0,3.79-10.75c.37-6.47.87-10.65,3.83-13.52C350.76,430.51,353.47,432,353.47,432Z" style="opacity:0.1"></path><path d="M326.31,453.15s2.18,4.08,10.59,4c3.31-.06,5.08-1.67,5.17-6.7.09-6.07.58-12.19,2.54-15.2s5.09-4.47,7.51-4.25a2.29,2.29,0,0,1,1.35,1.06s-2.43-.8-6.2,2.33c-2.79,2.31-3.54,7.14-3.5,13.14,0,2.58.18,5.5-.58,7.46a5.94,5.94,0,0,1-4,3.54c-4.57,1.29-10.83-.83-12.41-2.76A3,3,0,0,1,326.31,453.15Z" style="fill:#e0e0e0"></path><path d="M336.41,446.27a1.77,1.77,0,0,0-.68,1,2.89,2.89,0,0,0,1.33,2.63c.51.32.95.2.14-.86A5.31,5.31,0,0,1,336.41,446.27Z" style="fill:#fafafa"></path><path d="M336.87,443.13s-.27.18-.34,1a4.15,4.15,0,0,0,1.55,2.7c.89.44.41-.58,0-1.08A6.52,6.52,0,0,1,336.87,443.13Z" style="fill:#fafafa"></path><path d="M336.57,439.67s-.29.08,0,1.24a3.69,3.69,0,0,0,1.83,1.61c.57.06.85-.22.15-.73S336.68,440.23,336.57,439.67Z" style="fill:#fafafa"></path><path d="M311.29,297.37s-5.68,6.81-9.12,19.56a294.5,294.5,0,0,0-7.1,36c-.82,5.43-1.42,9.3-2.9,19.18C291,380.36,285.54,411,285.54,411s4,3.43,7.3,4.69c3.1,1.17,6,1.64,7.12,1.17,0,0,3.82-9.82,8.56-22.69A122.33,122.33,0,0,0,314,376c.62-3.18.47-8.84.41-11.7L339.82,325a27.24,27.24,0,0,0,4.75-8.19c3.34-8.4-.93-20.5-.93-20.5Z" style="fill:#e0e0e0"></path><path d="M311.29,297.37s-5.68,6.81-9.12,19.56a294.5,294.5,0,0,0-7.1,36c-.82,5.43-1.42,9.3-2.9,19.18C291,380.36,285.54,411,285.54,411s4,3.43,7.3,4.69c3.1,1.17,6,1.64,7.12,1.17,0,0,3.82-9.82,8.56-22.69A122.33,122.33,0,0,0,314,376c.62-3.18.47-8.84.41-11.7L339.82,325a27.24,27.24,0,0,0,4.75-8.19c3.34-8.4-.93-20.5-.93-20.5Z" style="opacity:0.15"></path><path d="M336.33,308.4H305.09a66.93,66.93,0,0,0-2.92,8.53,278.23,278.23,0,0,0-6.67,33.16c.76,5.11,1.62,10.36,2.42,14,2.1,9.54,3.41,16.27,5.07,20.2a64.92,64.92,0,0,0,5.66,9.52A122.29,122.29,0,0,0,314,376c.62-3.18.47-8.84.41-11.7l18.47-28.54,1.44-8.84C339,319.21,338.49,313.44,336.33,308.4Z" style="opacity:0.1"></path><path d="M331,297.37a24.42,24.42,0,0,1,5.78,14.47,21.68,21.68,0,0,1-4.57,14.3c-1.19,17.4-4.63,50.93-4.63,50.93,4.6,4.74,5.79,7.79,8.46,16.28,1.61,5.16,6.85,21.3,8.57,26.55-8.19,1.23-12.34,8.41-12.34,8.41s-13.64-20.56-20.47-32.88c-5.05-9.11-6.21-10.88-7.58-16.3s-2.33-10.46-4-21.78-4.6-26.93-5.41-38.08-1-23-1-23Z" style="fill:#e0e0e0"></path><g style="opacity:0.15"><path d="M331,297.37a24.42,24.42,0,0,1,5.78,14.47,21.68,21.68,0,0,1-4.57,14.3c-1.19,17.4-4.63,50.93-4.63,50.93,4.6,4.74,5.79,7.79,8.46,16.28,1.61,5.16,6.85,21.3,8.57,26.55-8.19,1.23-12.34,8.41-12.34,8.41s-13.64-20.56-20.47-32.88c-5.05-9.11-6.21-10.88-7.58-16.3s-2.33-10.46-4-21.78-4.6-26.93-5.41-38.08-1-23-1-23Z"></path></g><path d="M345.79,311a6.91,6.91,0,0,1-3.35-2.37,10,10,0,0,1-.86-2.47,26,26,0,0,0-1.41-4.18l-.86.38a24.65,24.65,0,0,1,1.36,4.05,10.28,10.28,0,0,0,1,2.72A7.73,7.73,0,0,0,345.7,312C345.74,311.64,345.76,311.32,345.79,311Z" style="opacity:0.18"></path><path d="M323.43,321a4.31,4.31,0,0,0,.6-.06c1.37-.31,2.43-1.22,4.54-3.93,1.62-2.06,1.45-3.54,1.18-6-.1-.9-1.05-5.72-1.11-7l-.9.5c.06,1.3,1,5.67,1.07,6.58.27,2.44.4,3.55-1,5.31-1.95,2.5-2.89,3.34-4,3.58s-5.86-.54-7.13-1.43c-.74-.51-2-6.8-2.69-12.33l-.93.12c.36,2.8,1.66,12,3.08,13C317.43,320.23,321.53,321,323.43,321Z" style="opacity:0.18"></path></g></g><g id="freepik--top--inject-3"><path id="freepik--arm--inject-3" d="M348.74,275.59l-9.39-19.12c-4.54-9.88-12.42-16.57-1.67-23.74,4.75-.36,7.14,1.12,10.54,6.53s10.65,24.95,12.29,29.15a39.74,39.74,0,0,1,2.69,11.38c.56,5-.18,14.22-.22,19.2,0,2.31.13,4.5.27,6.82a52.84,52.84,0,0,1-.52,7.2,6.56,6.56,0,0,1-1.23,3.17c-.42.6-1.14.82-1.55,1.39s-.35,1.34-1,1.87-1.67.57-2.26,1.15a21.57,21.57,0,0,1-1.8,1.92,4.51,4.51,0,0,0-1.55,1.49c-.33.61-.5,1.83-1.34,1.94s-1.3-.71-1.53-1.46a7.2,7.2,0,0,1,.44-4.48,42.41,42.41,0,0,1,1.71-4.44,10,10,0,0,0,1-4.35c0-1-.33-2.2-1.42-1.35-1.27,1-2.46,2.74-4.26,2.87-1.24.09-1.53-.84-1-1.79a35.39,35.39,0,0,0,2.12-4.89c.6-1.71,1-3.47,1.67-5.16a20.33,20.33,0,0,1,1.24-2.58c1.27-2.33.57-4.91.17-7.37C351.61,287.51,349.75,279.92,348.74,275.59Z" style="fill:#f0f0f0"></path><path d="M336,232.22c4-.26,8.05.15,10.74,4.18s7.54,13.65,10.64,22.83c-2.84,5-14,8.16-14,8.16l-6.31-13Z" style="fill:#f0f0f0"></path><path d="M336,232.22c4-.26,8.05.15,10.74,4.18s7.54,13.65,10.64,22.83c-2.84,5-14,8.16-14,8.16l-6.31-13Z" style="opacity:0.15"></path><path d="M343.88,237.23c3.19,6.09,2.8,11.55,1.88,20.1-.85,7.89-1.45,12.78-2.18,22.53-.83,11.15.66,18.18.66,18.18s-.32,4.72-14.21,8.26c-24.43,6.22-36.15-.86-36.15-.86s-.59-13.76.36-31.75c1.06-20.16,1.41-23.11,3-27.9a12.44,12.44,0,0,1,6.25-6.36c2.42-1.11,8.23-3,11.68-4.34,8-3.09,17.29-2.9,17.29-2.9C339.38,231.72,342.23,234.06,343.88,237.23Z" style="fill:#e0e0e0"></path><path d="M314.53,228.19l.66,7.41c4.06.89,13.92.25,15.77-2.27l-.39-6.79Z" style="fill:#f0f0f0"></path><path d="M304,209.18s-1.89,1.43-3.32,6.35l2.79,2.05C304.36,214.12,305.35,210.6,304,209.18Z" style="fill:#e0e0e0"></path><path d="M311.16,195.41c-6.92.46-8.08,4.07-7.05,15.88-2.44,11.22.92,15.65,2.37,17.12,3.26,1.75,6.58,2,11.09.86,3.44-.89,12.15-3.47,15.79-8.88,4.29-6.35,5.42-16,.85-19.62C327.77,195.71,313.92,195.22,311.16,195.41Z" style="fill:#f0f0f0"></path><path d="M306.48,228.41c.8.81,5.43,2.28,8.29,2l-.24-2.19A29.46,29.46,0,0,1,306.48,228.41Z" style="fill:#e0e0e0"></path><path d="M311.46,203.26c0,.32,0,.63.05.93a3.76,3.76,0,0,0,2.89,3.42,10,10,0,0,0-1.15,4.5,2.42,2.42,0,0,0,.31,1.42.94.94,0,0,0,1.69,0,11.91,11.91,0,0,1,1.41-2.35,4.55,4.55,0,0,1,2.85-1.53c4.17-.41,4.19,6.1,2.51,8.3-2.74,3.61-5,1.29-5,1.29s-1.41,5.56,2.62,8c0,0,6.55,2.25,11,0,2-4.17,4.7-7.26,6.88-11.7,3.81-7.78,1.82-14.31-.78-15.72.42-1.61-2.38-6.47-7.08-8.68a23.55,23.55,0,0,0-13.45-1.43c-5,1.12-10.12,4.38-11.31,9a12.94,12.94,0,0,0,6,1.89.77.77,0,0,1,.59.44,1,1,0,0,1,.05.42C311.49,202,311.45,202.65,311.46,203.26Z" style="fill:#e0e0e0"></path><path id="freepik--arm--inject-3" d="M284,283.88s2.5-12.52,4.32-21.3,1.12-18.92,14.94-22.4c2.28,3.49,3.77,8.83,3,15.5s-5.64,26.88-7.06,31.4c-1.72,5-3.32,6.72-7.06,11.29-3.32,4.06-9.65,10.93-13,15-1.53,1.87-2.86,3.77-4.27,5.76a54,54,0,0,1-5.16,5.55,6.8,6.8,0,0,1-3.08,1.79c-.75.21-1.48-.08-2.19.11s-1.17.88-2,.9-1.73-.63-2.6-.55a21.88,21.88,0,0,1-2.73.39,4.81,4.81,0,0,0-2.26.2c-.67.28-1.6,1.17-2.36.71s-.6-1.44-.3-2.21a7.59,7.59,0,0,1,3.31-3.37,44.49,44.49,0,0,1,4.32-2.51,10.42,10.42,0,0,0,3.68-2.9c.72-.79,1.19-2-.26-2-1.71,0-3.83.63-5.38-.45-1.07-.74-.71-1.69.33-2.14a37.72,37.72,0,0,0,4.95-2.61c1.62-1,3.12-2.17,4.76-3.13a23.23,23.23,0,0,1,2.71-1.29c2.58-1.07,3.7-3.64,5-5.92C277.41,296.47,282,288.1,284,283.88Z" style="fill:#f0f0f0"></path><path d="M303.81,239.27c-3,.72-10.93,2.14-13.22,9.63s-4.79,23.61-4.79,23.61,1.84,3.23,7.9,4.58,9-.34,9-.34S306.34,261,307,257,307.94,242.66,303.81,239.27Z" style="fill:#f0f0f0"></path><path d="M303.81,239.27c-3,.72-10.93,2.14-13.22,9.63s-4.79,23.61-4.79,23.61,1.84,3.23,7.9,4.58,9-.34,9-.34S306.34,261,307,257,307.94,242.66,303.81,239.27Z" style="opacity:0.15"></path></g></g></g><g id="freepik--character-2--inject-3"><g id="freepik--character--inject-3"><path id="freepik--arm--inject-3" d="M108.88,167.71c7,1.38,9.75,1.85,13.11,7.65s9,27.41,10.61,31.88,2,6.1,1.38,11.1c-.67,5.2-3.74,14.45-5,19.52-.6,2.34-1,4.62-1.43,7a56.58,56.58,0,0,1-2.33,7.21,6.89,6.89,0,0,1-2,2.92c-.58.5-1.37.55-1.92,1s-.7,1.28-1.47,1.67-1.84.16-2.59.6a21.87,21.87,0,0,1-2.31,1.51,4.83,4.83,0,0,0-2,1.13c-.49.54-1,1.74-1.84,1.65s-1.15-1.05-1.2-1.88a7.6,7.6,0,0,1,1.57-4.46,42.94,42.94,0,0,1,2.86-4.1A10.6,10.6,0,0,0,116.4,248c.31-1,.21-2.33-1.11-1.73-1.55.7-3.2,2.18-5.06,1.86-1.29-.22-1.36-1.23-.61-2.08a38.79,38.79,0,0,0,3.39-4.46c1-1.59,1.9-3.28,3-4.84a21.21,21.21,0,0,1,1.91-2.32c1.88-2.06,1.81-4.87,2-7.47.3-3.65.5-7.29.68-10.94a6.56,6.56,0,0,0,.09-2L112,193.07Z" style="fill:#f0f0f0"></path><g id="freepik--bottom--inject-3"><path d="M61.53,330.15c2.41-.85,4.19-.93,4.17.26s-1.55,4.23-1.55,4.23l-1.92,2.63-.91,2.61s-1.13,1.4-1.19,1.5-.45-4.85-.45-4.85S58.32,330.77,61.53,330.15Z" style="fill:#e0e0e0"></path><path d="M61.53,330.15c2.41-.85,4.19-.93,4.17.26s-1.55,4.23-1.55,4.23l-1.92,2.63-.91,2.61s-1.13,1.4-1.19,1.5-.45-4.85-.45-4.85S59.45,330.9,61.53,330.15Z" style="opacity:0.2"></path><path d="M87.42,228.44S82,235,78.69,247.15a282.52,282.52,0,0,0-6.79,34.44c-.78,5.19-1.36,8.89-2.77,18.35C68,307.81,62,335.45,62,335.45s2.6,4.32,5.75,5.63c4.52,1.89,8.89,1,9.45-3,0,0,3-4.76,7.52-17.06A118.35,118.35,0,0,0,90,303.63c.59-3,.44-8.45.39-11.19l21.93-38.13s5.41-3.75,7.38-9.12c3-8.25-1.37-19.28-1.37-19.28Z" style="fill:#e0e0e0"></path><path d="M64.82,349.29l-1-.19c.08-.38,7.36-37.88,12.47-53.63s18.44-47,18.58-47.36l.92.4c-.14.31-13.47,31.58-18.55,47.27S64.89,348.91,64.82,349.29Z" style="fill:#f0f0f0"></path><path d="M111.36,239H81.48a63.31,63.31,0,0,0-2.79,8.16,266.45,266.45,0,0,0-6.38,31.71c.73,4.89,1.55,9.91,2.31,13.37,2,9.11,3.27,15.55,4.85,19.31a62.21,62.21,0,0,0,5.42,9.11,115.84,115.84,0,0,0,5.09-17c.59-3,.44-8.45.39-11.19l17.77-30.89h0l1.27-4.86C113.93,249.33,113.42,243.81,111.36,239Z" style="opacity:0.18"></path><path d="M37.09,342.31c-.54-.25-1.19,1.85-1.24,2.6s1.38,3.82,5.1,6.07,10.16,3.52,12.58,4.28,4.33,2.68,7.51,4.28c2.82,1.43,7.08,2.1,8.94,1.27a2.86,2.86,0,0,0,1.36-2c.5-1.55.47-1.91.28-2Z" style="fill:#e0e0e0"></path><path d="M72.91,353.43a14,14,0,0,1-1.55,4.51c-.91,1-2.66,1-3.85,1-3.12-.18-5.2-1.11-8.09-2.83a25.85,25.85,0,0,0-5.9-2.83,63.61,63.61,0,0,1-8.4-2.67,21.4,21.4,0,0,1-5.62-3.45c-1.38-1.28-2.65-2.75-2.51-4.54a5.71,5.71,0,0,1,5.07-4.21c2.15-.34,4.49.45,6.61,1,2.63.69,3.53,1.19,6.35,1.41,1.48.11,3.22,1.34,4.37.06,1.36-1.51,1.9-5.07,2.82-6.84a1.21,1.21,0,0,1,.66-.67c.46-.1.85.33,1.13.7a13.57,13.57,0,0,0,5,3.89c5.3,2.61,7.75,1.24,7.75,1.24l.48-1.1s1.06.59-.28,3.06a38.37,38.37,0,0,0-2.84,6.34A22.73,22.73,0,0,0,72.91,353.43Z" style="fill:#e0e0e0"></path><path d="M72.91,353.43a14,14,0,0,1-1.55,4.51c-.91,1-2.66,1-3.85,1-3.12-.18-5.2-1.11-8.09-2.83a25.85,25.85,0,0,0-5.9-2.83,63.61,63.61,0,0,1-8.4-2.67,21.4,21.4,0,0,1-5.62-3.45c-1.38-1.28-2.65-2.75-2.51-4.54a5.71,5.71,0,0,1,5.07-4.21c2.15-.34,4.49.45,6.61,1,2.63.69,3.53,1.19,6.35,1.41,1.48.11,3.22,1.34,4.37.06,1.36-1.51,1.9-5.07,2.82-6.84a1.21,1.21,0,0,1,.66-.67c.46-.1.85.33,1.13.7a13.57,13.57,0,0,0,5,3.89c5.3,2.61,7.75,1.24,7.75,1.24l.48-1.1s1.06.59-.28,3.06a38.37,38.37,0,0,0-2.84,6.34A22.73,22.73,0,0,0,72.91,353.43Z" style="opacity:0.1"></path><path d="M49.66,339.65c-2.26.22-2.88,3.87-2.88,3.87a19.38,19.38,0,0,0,6.51,2.12c4,.32,6.38-1.64,7.33-4.68s.08-7.33-.09-8.71A1.87,1.87,0,0,1,61.87,330c-2.13.56-2.62,1.66-2.54,3.29s0,4.89-.7,6S54.48,340.85,49.66,339.65Z" style="fill:#e0e0e0"></path><path d="M49.66,339.65c-2.26.22-2.88,3.87-2.88,3.87a19.38,19.38,0,0,0,6.51,2.12c4,.32,6.38-1.64,7.33-4.68s.08-7.33-.09-8.71A1.87,1.87,0,0,1,61.87,330c-2.13.56-2.62,1.66-2.54,3.29s0,4.89-.7,6S54.48,340.85,49.66,339.65Z" style="opacity:0.1"></path><path d="M106.29,228.44a23.29,23.29,0,0,1,5.53,13.84A20.69,20.69,0,0,1,107.45,256c-1.13,16.65-4.43,48.72-4.43,48.72,4.4,4.53,5.54,7.45,8.09,15.57,1.55,4.93,7.35,20.78,8.8,25.19-7.71.94-11.9,8.6-11.9,8.6s-13.55-20-20.08-31.81c-4.83-8.71-5.93-10.4-7.25-15.59a192.73,192.73,0,0,1-3.82-20.83c-1.58-10.83-4.4-25.75-5.17-36.42s-.92-22-.92-22Z" style="fill:#e0e0e0"></path><path d="M88.85,309.91c-4-10.17-8.76-65.49-8.52-84.61h-1c-.08,6.38.4,16.81,1.22,28.25-3.25-1.64-5.34-4.66-5.34-19.8h-1c0,15.23,2,18.91,6.43,20.95,1.67,22.65,4.64,48.86,7.28,55.58,3.9,10,24.26,43.55,24.47,43.89l.86-.52C113,353.31,92.72,319.78,88.85,309.91Z" style="fill:#f0f0f0"></path><g id="freepik--bottom--inject-3"><path d="M106.87,352.32c-1.22,1.73-2.59,3,.87,5.25,2.68,1.77,2.84,3.2,3.67,5.08s.66,5.69.66,5.69,4.59-6.95,3.25-11.42S106.87,352.32,106.87,352.32Z" style="fill:#e0e0e0"></path><path d="M106.87,352.32c-1.22,1.73-2.59,3,.87,5.25,2.68,1.77,2.84,3.2,3.67,5.08s.66,5.69.66,5.69,4.59-6.95,3.25-11.42S106.87,352.32,106.87,352.32Z" style="opacity:0.1"></path><path d="M121.65,348.36c.85,1.24,2.85,2.31,4.5,3.34,1.17.72,2.37,1.43,2.71,2.75,0,.15-.68,1-.67,1.13a7.58,7.58,0,0,1-.07,2c-.26,2.26-1.49,3.92-1.76,6.18a16.73,16.73,0,0,1-.49,2.65,16.37,16.37,0,0,0-.26,3.21c-.07,1.13-.14,2.25-.2,3.38a5.8,5.8,0,0,0-.06,1.44c.1.47-7.54,4.33-10.63,5.81l-.55.23a8,8,0,0,1-5.63-.55c-6.14-2.23-5.76-4.46-5.76-4.46s-.19-2.56,2.92-4.3a8,8,0,0,1,1.17-.53l.06,0a8,8,0,0,1,4.77-.25,8.06,8.06,0,0,0,.43-2.82,34.77,34.77,0,0,0,.07-4.33,11.18,11.18,0,0,0-1.86-4.53c-1.3-1.81-2.71-4.08-3.6-5.37-1-1.12-1.1-4.3,4-8,4.9-3.51,8.49-2.78,9.18-1.31A19.63,19.63,0,0,0,121.65,348.36Z" style="fill:#e0e0e0"></path><path d="M121.65,348.36c.85,1.24,2.85,2.31,4.5,3.34,1.17.72,2.37,1.43,2.71,2.75,0,.15-.68,1-.67,1.13a7.58,7.58,0,0,1-.07,2c-.26,2.26-1.49,3.92-1.76,6.18a16.73,16.73,0,0,1-.49,2.65,16.37,16.37,0,0,0-.26,3.21c-.07,1.13-.14,2.25-.2,3.38a5.8,5.8,0,0,0-.06,1.44c.1.47-7.54,4.33-10.63,5.81l-.55.23a8,8,0,0,1-5.63-.55c-6.14-2.23-5.76-4.46-5.76-4.46s-.19-2.56,2.92-4.3a8,8,0,0,1,1.17-.53l.06,0a8,8,0,0,1,4.77-.25,8.06,8.06,0,0,0,.43-2.82,34.77,34.77,0,0,0,.07-4.33,11.18,11.18,0,0,0-1.86-4.53c-1.3-1.81-2.71-4.08-3.6-5.37-1-1.12-1.1-4.3,4-8,4.9-3.51,8.49-2.78,9.18-1.31A19.63,19.63,0,0,0,121.65,348.36Z" style="opacity:0.1"></path><path d="M108.46,372.55a4.58,4.58,0,0,1,2.16-2.42,6.72,6.72,0,0,1,1.08.19C111.09,370.93,108.87,371.79,108.46,372.55Z" style="opacity:0.1"></path><path d="M129.6,355.77c1.37.57.24,2.79-1.41,6.09a12.87,12.87,0,0,0-1.64,8.22c.33,3-.37,4.43-1.66,5.47S114,380.78,114,380.78a17.58,17.58,0,0,0,3.77-10c.52-6.55,1.15-10.76,4.41-13.62A7.83,7.83,0,0,1,129.6,355.77Z" style="fill:#e0e0e0"></path><g style="opacity:0.18"><path d="M129.6,355.77c1.37.57.24,2.79-1.41,6.09a12.87,12.87,0,0,0-1.64,8.22c.33,3-.37,4.43-1.66,5.47S114,380.78,114,380.78a17.58,17.58,0,0,0,3.77-10c.52-6.55,1.15-10.76,4.41-13.62A7.83,7.83,0,0,1,129.6,355.77Z"></path></g><path d="M102.78,375.43c.15,1.28,3.81,3.88,8.12,3.83s4.69-1,5.36-6,1.14-12.07,3.32-15.08,5.07-4.79,9.28-3.7c.48.24,1.79,1.54,1.3,2.76,0,0,0-1-1.72-1.46-1.48-.43-3.25-.39-5.72,1.74-2.88,2.49-3.53,8.33-3.85,13.34s-1.9,9.83-6.05,10.28a12.41,12.41,0,0,1-10-3.1A4.58,4.58,0,0,1,102.78,375.43Z" style="fill:#e0e0e0"></path></g></g><g id="freepik--top--inject-3"><path d="M78.05,136.26a5.58,5.58,0,0,1-.56-5.51c.7-1.78,2.15-3.65,6.39-5.85,5-2.6,18.88-4.46,25.72,4.6,1,1.3-12.63,26.9-12,32.21-3.53-3.71-15.19-16.77-15.19-16.77-2.76-1.18-4.44-2.17-5-4.78A6.42,6.42,0,0,1,78.05,136.26Z" style="fill:#e0e0e0"></path><path d="M80.12,143.5s-3.73,6.09-3.32,6.59a19.43,19.43,0,0,0,2.77,1.83Z" style="fill:#e0e0e0"></path><path d="M84.76,132.39c-2.51,1.18-4.68,3.1-5.45,8.59-.21,1.44.91,3.4.4,5.31-2.18,8.18.41,15,2,16.5,1.08,1,6.69,1.47,9.64.65,3.68-1,11.69-4.65,15.51-10.41,4.5-6.78,5.55-15.9.54-19.55C100.36,128.32,87.43,131.12,84.76,132.39Z" style="fill:#f0f0f0"></path><path d="M103.91,156.9l1.46,10.1h0c2.25.48,2.47,3.15,1.35,5.17l.52,2.84-15.4,2.83-1.73-14.13Z" style="fill:#f0f0f0"></path><path d="M82,163c1.31.72,4.19,1.26,8.1.71l-.23-2a25,25,0,0,1-3.82,1.1A14.08,14.08,0,0,1,82,163Z" style="fill:#e0e0e0"></path><path d="M81.05,135.32c-.13,3.56,2.1,4.68,3.69,5.38a7.61,7.61,0,0,0-.65,4.2c.35,1.81,1,3.29,2.82,3.88,1.08.37,1.4-.11,1.79-1,.55-1.22,1.24-3.09,3.86-2.73,3,.41,3.79,4.93,2,7.89a4.42,4.42,0,0,1-3.39,2.28,2.75,2.75,0,0,1-2-1s.2,3.94,5.27,6.28c0,0,5.12,2.88,10.37,1.33a101.89,101.89,0,0,0,6.68-8.22c5.53-8,6.64-22.64-2.8-25.27-.45-.12-9-1.32-13.15-.41C82.77,130.77,81.08,134.7,81.05,135.32Z" style="fill:#e0e0e0"></path><path d="M104.22,127.42a5.42,5.42,0,0,0-2.18,3.4,4,4,0,0,0,1.35,3.71c2.77,2.15,7-.35,7.53-3.52C111.51,127.25,107,125.36,104.22,127.42Z" style="fill:#e0e0e0"></path><path d="M104.22,127.42a5.42,5.42,0,0,0-2.18,3.4,4,4,0,0,0,1.35,3.71c2.77,2.15,7-.35,7.53-3.52C111.51,127.25,107,125.36,104.22,127.42Z" style="opacity:0.1"></path><path d="M106.45,128.61c-2.81,1.72-4.56,5.78-3.06,8.71.41.8,1,1.52,1.32,2.35,1.09,2.67-.49,5.61-.83,8.48a12.46,12.46,0,0,0,1.14,6.63c.92,1.51,3,1.9,3.81,3.5.56,1.09.17,2.43.39,3.64.48,2.63,3.57,3.89,6.24,4,2.26,0,4.71-.53,6.17-2.26a29,29,0,0,1,2-2.76c1.59-1.49,4.16-1.41,5.87-2.76a5.67,5.67,0,0,0,1.88-4.63,14.54,14.54,0,0,0-1.32-5c-1.14-2.79-.22-4.51.35-7.28a6.75,6.75,0,0,0-4-7.4c-1.94-.76-4.3-.63-5.86-2a32.59,32.59,0,0,1-2.08-2.69C115.54,125.88,109.75,126.59,106.45,128.61Z" style="fill:#e0e0e0"></path><path d="M117.48,175.25c-1.37-4.49-5.94-6.87-7.34-7.27s-4.77-1-4.77-1c.78,1.78-.54,2.95-2.85,3.49-3,.69-7.5.77-10.58-1.28l-1.27-.78a101.49,101.49,0,0,0-9.94,3c-.67.31-4.38,1.56-10.22,14.66-2.5,5.6-1.75,11.29,2.83,15.33.26,3.55-2,11.53-2,11.53a76,76,0,0,0-.78,20.2s2.76,7.26,24.46,7.18c16.81-.06,25.25-8.2,25.25-8.2-.2-4.14-6.66-18.54-6-23.38C115.22,201.66,121.7,189,117.48,175.25Z" style="fill:#e0e0e0"></path><path d="M117.48,175.25c-1.37-4.49-5.94-6.87-7.34-7.27s-4.77-1-4.77-1c.78,1.78-.54,2.95-2.85,3.49-3,.69-7.5.77-10.58-1.28l-1.27-.78a101.49,101.49,0,0,0-9.94,3c-.67.31-4.38,1.56-10.22,14.66-2.5,5.6-1.75,11.29,2.83,15.33.26,3.55-2,11.53-2,11.53a76,76,0,0,0-.78,20.2s2.76,7.26,24.46,7.18c16.81-.06,25.25-8.2,25.25-8.2-.2-4.14-6.66-18.54-6-23.38C115.22,201.66,121.7,189,117.48,175.25Z" style="opacity:0.15"></path><path id="freepik--arm--inject-3" d="M80.73,171.43c4.42,3.59,4.76,8.54,4.07,15.21s-7.36,27.51-8.73,32.05-3.33,6.12-6.78,9.78c-3.6,3.82-11.52,9.51-15.53,12.86-1.86,1.54-3.52,3.15-5.28,4.84a55.11,55.11,0,0,1-6.12,4.47A6.79,6.79,0,0,1,39,251.81c-.77.07-1.44-.36-2.17-.3s-1.31.64-2.16.5-1.59-1-2.45-1a21.42,21.42,0,0,1-2.76-.13,4.66,4.66,0,0,0-2.25-.24c-.71.15-1.8.84-2.46.26s-.31-1.53.13-2.23a7.59,7.59,0,0,1,3.89-2.69,43.9,43.9,0,0,1,4.72-1.64,10.49,10.49,0,0,0,4.16-2.15c.85-.64,1.54-1.76.13-2.05-1.68-.34-3.88-.11-5.2-1.46-.91-.93-.37-1.8.73-2A38.88,38.88,0,0,0,38.66,235c1.78-.68,3.47-1.55,5.27-2.17a22.07,22.07,0,0,1,2.9-.76c2.73-.56,4.32-2.87,6-4.86,2.38-2.77,6.47-8,9.26-11.73l4.2-20.35C69,184,70,174.76,80.73,171.43Z" style="fill:#f0f0f0"></path></g></g></g><g id="freepik--speech-bubble--inject-3"><g id="freepik--speech-bubble--inject-3"><g id="freepik--speech-bubble--inject-3"><path d="M337.9,67.82a33.82,33.82,0,1,0,0,47.83A33.86,33.86,0,0,0,337.9,67.82Zm-45.69,45.69a30.79,30.79,0,1,1,43.53,0A30.83,30.83,0,0,1,292.21,113.51Z" style="fill:#455a64"></path><path d="M335.74,113.5a30.78,30.78,0,1,1,0-43.53A30.81,30.81,0,0,1,335.74,113.5Z" style="fill:#fff"></path><path d="M282.18,121,287,110l8.72,8.71-11,4.85A2,2,0,0,1,282.18,121Z" style="fill:#455a64"></path></g><g id="freepik--Bulb--inject-3"><path d="M319.15,106H308.8a.78.78,0,1,1,0-1.56h10.35a.78.78,0,0,1,0,1.56Z" style="fill:#455a64"></path><path d="M314,114.11a6,6,0,0,1-6-6,.77.77,0,0,1,.78-.78h10.35a.77.77,0,0,1,.78.78A6,6,0,0,1,314,114.11Z" style="fill:#455a64"></path><path d="M325,73.93a15.89,15.89,0,0,0-11.83-4.4A16.23,16.23,0,0,0,298,85.27a16,16,0,0,0,7.88,14A4.25,4.25,0,0,1,308,103a.74.74,0,0,0,.2.5.72.72,0,0,0,.49.2h10.63a.7.7,0,0,0,.7-.7,4.27,4.27,0,0,1,2.12-3.65A16.11,16.11,0,0,0,330,85.53,15.9,15.9,0,0,0,325,73.93Z" style="fill:#6247EC"></path><g style="opacity:0.35000000000000003"><path d="M325,73.93a15.89,15.89,0,0,0-11.83-4.4A16.23,16.23,0,0,0,298,85.27a16,16,0,0,0,7.88,14A4.25,4.25,0,0,1,308,103a.74.74,0,0,0,.2.5.72.72,0,0,0,.49.2h10.63a.7.7,0,0,0,.7-.7,4.27,4.27,0,0,1,2.12-3.65A16.11,16.11,0,0,0,330,85.53,15.9,15.9,0,0,0,325,73.93Z" style="fill:#fff"></path></g><path d="M322.85,88.82a1.56,1.56,0,0,0-1.55-1.1,3.83,3.83,0,0,0-2.85,1.86l-.12.17-.2-.07a8.05,8.05,0,0,1-2.36-1.26,8.71,8.71,0,0,1-1.1-1l-.16-.16.13-.2a4.73,4.73,0,0,0,1-4,1.79,1.79,0,0,0-3.37,0,4.8,4.8,0,0,0,1,4l.14.2-.16.16a8.71,8.71,0,0,1-1.1,1,8.31,8.31,0,0,1-2.36,1.26l-.2.07-.13-.17a3.83,3.83,0,0,0-2.84-1.86,1.55,1.55,0,0,0-1.55,1.1,1.26,1.26,0,0,0,.56,1.47,3.69,3.69,0,0,0,2.13.55,6.75,6.75,0,0,0,1.24-.12l.21,0,.09.19a11.51,11.51,0,0,1,.89,2.08,28.45,28.45,0,0,1,.91,9.16c0,.52,0,1,0,1.55h.82c0-.52,0-1,0-1.57A28.65,28.65,0,0,0,311,92.7a12.18,12.18,0,0,0-.79-2l-.14-.28.3-.12a9.18,9.18,0,0,0,2.31-1.28,9.4,9.4,0,0,0,1.09-.95l.2-.21.21.21a11.24,11.24,0,0,0,1.09.95,9.18,9.18,0,0,0,2.31,1.28l.31.12-.14.28a12.17,12.17,0,0,0-.8,2,28.4,28.4,0,0,0-.94,9.4c0,.52,0,1,0,1.56h.82c0-.51,0-1,0-1.6a27.69,27.69,0,0,1,.91-9.11,11.51,11.51,0,0,1,.89-2.08l.09-.19.2,0a6.67,6.67,0,0,0,1.24.12,3.69,3.69,0,0,0,2.13-.55A1.26,1.26,0,0,0,322.85,88.82ZM308.2,90h-.36a3.13,3.13,0,0,1-1.7-.4.52.52,0,0,1-.26-.54.76.76,0,0,1,.78-.53,2.68,2.68,0,0,1,1.74,1l.41.44Zm5.77-3.4-.24-.41a3.79,3.79,0,0,1-.66-2.85,1,1,0,0,1,1.81,0,3.7,3.7,0,0,1-.66,2.85Zm7.85,3a3.2,3.2,0,0,1-1.71.4h-.36l-.6,0,.41-.44a2.63,2.63,0,0,1,1.74-1,.76.76,0,0,1,.77.52A.49.49,0,0,1,321.82,89.62Z" style="fill:#fafafa"></path></g></g></g></svg>