<svg width="20" height="20" viewBox="0 0 20 20" fill="none" xmlns="http://www.w3.org/2000/svg">
<path d="M17.5758 5.81676C16.8675 5.03343 15.6842 4.64176 13.9675 4.64176H13.7675V4.60843C13.7675 3.20843 13.7675 1.4751 10.6342 1.4751H9.36751C6.23418 1.4751 6.23418 3.21676 6.23418 4.60843V4.6501H6.03418C4.30918 4.6501 3.13418 5.04176 2.42585 5.8251C1.60085 6.74176 1.62584 7.9751 1.70918 8.81676L1.71751 8.8751L1.80085 9.7501C1.80918 9.75843 1.82585 9.7751 1.84251 9.78343C2.11751 9.96676 2.40084 10.1501 2.70085 10.3168C2.81751 10.3918 2.94251 10.4584 3.06751 10.5251C4.49251 11.3084 6.05918 11.8334 7.65085 12.0918C7.72584 12.8751 8.06751 13.7918 9.89251 13.7918C11.7175 13.7918 12.0758 12.8834 12.1342 12.0751C13.8342 11.8001 15.4758 11.2084 16.9592 10.3418C17.0092 10.3168 17.0425 10.2918 17.0842 10.2668C17.4675 10.0501 17.8258 9.81676 18.1758 9.55843C18.1925 9.5501 18.2092 9.53343 18.2175 9.51676L18.2508 9.21676L18.2925 8.8251C18.3008 8.7751 18.3008 8.73343 18.3092 8.6751C18.3758 7.83343 18.3592 6.68343 17.5758 5.81676ZM10.9092 11.5251C10.9092 12.4084 10.9092 12.5418 9.88418 12.5418C8.85918 12.5418 8.85918 12.3834 8.85918 11.5334V10.4834H10.9092V11.5251ZM7.42584 4.64176V4.60843C7.42584 3.19176 7.42584 2.66676 9.36751 2.66676H10.6342C12.5758 2.66676 12.5758 3.2001 12.5758 4.60843V4.6501H7.42584V4.64176Z" fill="white"/>
<path opacity="0.4" d="M17.0841 10.25C17.0424 10.275 17.0008 10.3 16.9591 10.325C15.4758 11.1917 13.8341 11.775 12.1341 12.0583C12.0674 12.8583 11.7174 13.775 9.89245 13.775C8.06745 13.775 7.71745 12.8667 7.65078 12.075C6.05912 11.825 4.49245 11.3 3.06745 10.5083C2.94245 10.4417 2.81745 10.375 2.70078 10.3C2.40078 10.1333 2.11745 9.95 1.84245 9.76667C1.82578 9.75833 1.80911 9.74167 1.80078 9.73333L2.30911 15.1583C2.48411 16.8167 3.16745 18.525 6.83412 18.525H13.1841C16.8508 18.525 17.5341 16.8167 17.7091 15.15L18.2341 9.5C18.2258 9.51667 18.2091 9.53333 18.1924 9.54167C17.8341 9.8 17.4675 10.0417 17.0841 10.25Z" fill="white"/>
</svg>
