<svg width="20" height="20" viewBox="0 0 20 20" fill="none" xmlns="http://www.w3.org/2000/svg">
<path d="M13.3332 18.9583H6.66653C2.81653 18.9583 2.09986 17.1666 1.91653 15.425L1.29153 8.74997C1.19986 7.87497 1.17486 6.5833 2.04153 5.61663C2.79153 4.7833 4.0332 4.3833 5.8332 4.3833H14.1665C15.9749 4.3833 17.2165 4.79163 17.9582 5.61663C18.8249 6.5833 18.7999 7.87497 18.7082 8.7583L18.0832 15.4166C17.8999 17.1666 17.1832 18.9583 13.3332 18.9583ZM5.8332 5.62497C4.42486 5.62497 3.4582 5.89997 2.96653 6.44997C2.5582 6.89997 2.42486 7.59163 2.5332 8.62497L3.1582 15.3C3.29986 16.6166 3.6582 17.7083 6.66653 17.7083H13.3332C16.3332 17.7083 16.6999 16.6166 16.8415 15.2916L17.4665 8.6333C17.5749 7.59163 17.4415 6.89997 17.0332 6.44997C16.5415 5.89997 15.5749 5.62497 14.1665 5.62497H5.8332Z" fill="#433F54"/>
<path d="M13.3327 5.62508C12.991 5.62508 12.7077 5.34175 12.7077 5.00008V4.33341C12.7077 2.85008 12.7077 2.29175 10.666 2.29175H9.33268C7.29102 2.29175 7.29102 2.85008 7.29102 4.33341V5.00008C7.29102 5.34175 7.00768 5.62508 6.66602 5.62508C6.32435 5.62508 6.04102 5.34175 6.04102 5.00008V4.33341C6.04102 2.86675 6.04102 1.04175 9.33268 1.04175H10.666C13.9577 1.04175 13.9577 2.86675 13.9577 4.33341V5.00008C13.9577 5.34175 13.6743 5.62508 13.3327 5.62508Z" fill="#433F54"/>
<path d="M10.0007 13.9583C7.70898 13.9583 7.70898 12.5417 7.70898 11.6917V10.8333C7.70898 9.65833 7.99232 9.375 9.16732 9.375H10.834C12.009 9.375 12.2923 9.65833 12.2923 10.8333V11.6667C12.2923 12.5333 12.2923 13.9583 10.0007 13.9583ZM8.95898 10.625C8.95898 10.6917 8.95898 10.7667 8.95898 10.8333V11.6917C8.95898 12.55 8.95898 12.7083 10.0007 12.7083C11.0423 12.7083 11.0423 12.575 11.0423 11.6833V10.8333C11.0423 10.7667 11.0423 10.6917 11.0423 10.625C10.9757 10.625 10.9007 10.625 10.834 10.625H9.16732C9.10065 10.625 9.02565 10.625 8.95898 10.625Z" fill="#433F54"/>
<path d="M11.6663 12.3084C11.3579 12.3084 11.0829 12.075 11.0496 11.7584C11.0079 11.4167 11.2496 11.1 11.5913 11.0584C13.7913 10.7834 15.8996 9.95004 17.6746 8.65837C17.9496 8.45004 18.3413 8.5167 18.5496 8.80004C18.7496 9.07504 18.6913 9.4667 18.4079 9.67504C16.4579 11.0917 14.1579 12 11.7413 12.3084C11.7163 12.3084 11.6913 12.3084 11.6663 12.3084Z" fill="#433F54"/>
<path d="M8.33394 12.3167C8.30894 12.3167 8.28394 12.3167 8.25894 12.3167C5.9756 12.0583 3.7506 11.225 1.8256 9.90833C1.54227 9.71667 1.46727 9.325 1.65894 9.04167C1.8506 8.75833 2.24227 8.68333 2.5256 8.875C4.28394 10.075 6.30894 10.8333 8.39227 11.075C8.73394 11.1167 8.98394 11.425 8.94227 11.7667C8.91727 12.0833 8.6506 12.3167 8.33394 12.3167Z" fill="#433F54"/>
</svg>
