<svg width="20" height="20" viewBox="0 0 20 20" fill="none" xmlns="http://www.w3.org/2000/svg">
<path opacity="0.4" d="M15.5576 1.66675H13.9742C12.1576 1.66675 11.1992 2.62508 11.1992 4.44175V6.02508C11.1992 7.84175 12.1576 8.80008 13.9742 8.80008H15.5576C17.3742 8.80008 18.3326 7.84175 18.3326 6.02508V4.44175C18.3326 2.62508 17.3742 1.66675 15.5576 1.66675Z" fill="white"/>
<path opacity="0.4" d="M6.03268 11.1917H4.44935C2.62435 11.1917 1.66602 12.15 1.66602 13.9667V15.55C1.66602 17.375 2.62435 18.3333 4.44102 18.3333H6.02435C7.84102 18.3333 8.79935 17.375 8.79935 15.5583V13.975C8.80768 12.15 7.84935 11.1917 6.03268 11.1917Z" fill="white"/>
<path d="M5.24102 8.81675C7.21543 8.81675 8.81602 7.21617 8.81602 5.24175C8.81602 3.26733 7.21543 1.66675 5.24102 1.66675C3.2666 1.66675 1.66602 3.26733 1.66602 5.24175C1.66602 7.21617 3.2666 8.81675 5.24102 8.81675Z" fill="white"/>
<path d="M14.7586 18.3334C16.733 18.3334 18.3336 16.7328 18.3336 14.7583C18.3336 12.7839 16.733 11.1833 14.7586 11.1833C12.7842 11.1833 11.1836 12.7839 11.1836 14.7583C11.1836 16.7328 12.7842 18.3334 14.7586 18.3334Z" fill="white"/>
</svg>
