<svg width="20" height="20" viewBox="0 0 20 20" fill="none" xmlns="http://www.w3.org/2000/svg">
<path d="M5.41602 18.9583C5.07435 18.9583 4.79102 18.675 4.79102 18.3333V12.5C4.79102 12.1583 5.07435 11.875 5.41602 11.875C5.75768 11.875 6.04102 12.1583 6.04102 12.5V18.3333C6.04102 18.675 5.75768 18.9583 5.41602 18.9583Z" fill="white"/>
<path d="M5.41602 4.79169C5.07435 4.79169 4.79102 4.50835 4.79102 4.16669V1.66669C4.79102 1.32502 5.07435 1.04169 5.41602 1.04169C5.75768 1.04169 6.04102 1.32502 6.04102 1.66669V4.16669C6.04102 4.50835 5.75768 4.79169 5.41602 4.79169Z" fill="white"/>
<path d="M14.584 18.9583C14.2423 18.9583 13.959 18.675 13.959 18.3333V15.8333C13.959 15.4916 14.2423 15.2083 14.584 15.2083C14.9257 15.2083 15.209 15.4916 15.209 15.8333V18.3333C15.209 18.675 14.9257 18.9583 14.584 18.9583Z" fill="white"/>
<path d="M14.584 8.12502C14.2423 8.12502 13.959 7.84169 13.959 7.50002V1.66669C13.959 1.32502 14.2423 1.04169 14.584 1.04169C14.9257 1.04169 15.209 1.32502 15.209 1.66669V7.50002C15.209 7.84169 14.9257 8.12502 14.584 8.12502Z" fill="white"/>
<path d="M6.24935 13.125H4.58268C3.14935 13.125 2.29102 12.2667 2.29102 10.8334V5.83335C2.29102 4.40002 3.14935 3.54169 4.58268 3.54169H6.24935C7.68268 3.54169 8.54102 4.40002 8.54102 5.83335V10.8334C8.54102 12.2667 7.68268 13.125 6.24935 13.125ZM4.58268 4.79169C3.84102 4.79169 3.54102 5.09169 3.54102 5.83335V10.8334C3.54102 11.575 3.84102 11.875 4.58268 11.875H6.24935C6.99102 11.875 7.29102 11.575 7.29102 10.8334V5.83335C7.29102 5.09169 6.99102 4.79169 6.24935 4.79169H4.58268Z" fill="white"/>
<path d="M15.4173 16.4583H13.7507C12.3173 16.4583 11.459 15.6 11.459 14.1667V9.16667C11.459 7.73333 12.3173 6.875 13.7507 6.875H15.4173C16.8507 6.875 17.709 7.73333 17.709 9.16667V14.1667C17.709 15.6 16.8507 16.4583 15.4173 16.4583ZM13.7507 8.125C13.009 8.125 12.709 8.425 12.709 9.16667V14.1667C12.709 14.9083 13.009 15.2083 13.7507 15.2083H15.4173C16.159 15.2083 16.459 14.9083 16.459 14.1667V9.16667C16.459 8.425 16.159 8.125 15.4173 8.125H13.7507Z" fill="white"/>
</svg>
