<svg width="25" height="24" viewBox="0 0 25 24" fill="none" xmlns="http://www.w3.org/2000/svg">
<path d="M8.66663 5.75C8.25663 5.75 7.91663 5.41 7.91663 5V2C7.91663 1.59 8.25663 1.25 8.66663 1.25C9.07663 1.25 9.41663 1.59 9.41663 2V5C9.41663 5.41 9.07663 5.75 8.66663 5.75Z" fill="#10A760"/>
<path d="M16.6666 5.75C16.2566 5.75 15.9166 5.41 15.9166 5V2C15.9166 1.59 16.2566 1.25 16.6666 1.25C17.0766 1.25 17.4166 1.59 17.4166 2V5C17.4166 5.41 17.0766 5.75 16.6666 5.75Z" fill="#10A760"/>
<path d="M21.1666 9.83984H4.16663C3.75663 9.83984 3.41663 9.49984 3.41663 9.08984C3.41663 8.67984 3.75663 8.33984 4.16663 8.33984H21.1666C21.5766 8.33984 21.9166 8.67984 21.9166 9.08984C21.9166 9.49984 21.5766 9.83984 21.1666 9.83984Z" fill="#10A760"/>
<path d="M16.6666 22.75H8.66663C5.01663 22.75 2.91663 20.65 2.91663 17V8.5C2.91663 4.85 5.01663 2.75 8.66663 2.75H16.6666C20.3166 2.75 22.4166 4.85 22.4166 8.5V17C22.4166 20.65 20.3166 22.75 16.6666 22.75ZM8.66663 4.25C5.80663 4.25 4.41663 5.64 4.41663 8.5V17C4.41663 19.86 5.80663 21.25 8.66663 21.25H16.6666C19.5266 21.25 20.9166 19.86 20.9166 17V8.5C20.9166 5.64 19.5266 4.25 16.6666 4.25H8.66663Z" fill="#10A760"/>
<path d="M9.16663 14.5C9.03663 14.5 8.90662 14.47 8.78662 14.42C8.66662 14.37 8.55663 14.3 8.45663 14.21C8.36663 14.11 8.29661 14 8.24661 13.88C8.19661 13.76 8.16663 13.63 8.16663 13.5C8.16663 13.24 8.27663 12.98 8.45663 12.79C8.55663 12.7 8.66662 12.63 8.78662 12.58C8.96662 12.5 9.16664 12.48 9.36664 12.52C9.42664 12.53 9.48663 12.55 9.54663 12.58C9.60663 12.6 9.66662 12.63 9.72662 12.67C9.77662 12.71 9.82662 12.75 9.87662 12.79C9.91662 12.84 9.96661 12.89 9.99661 12.94C10.0366 13 10.0666 13.06 10.0866 13.12C10.1166 13.18 10.1366 13.24 10.1466 13.3C10.1566 13.37 10.1666 13.43 10.1666 13.5C10.1666 13.76 10.0566 14.02 9.87662 14.21C9.68662 14.39 9.42663 14.5 9.16663 14.5Z" fill="#10A760"/>
<path d="M12.6666 14.5008C12.4066 14.5008 12.1466 14.3908 11.9566 14.2108C11.9166 14.1608 11.8766 14.1108 11.8366 14.0608C11.7966 14.0008 11.7666 13.9409 11.7466 13.8809C11.7166 13.8209 11.6966 13.7609 11.6866 13.7009C11.6766 13.6309 11.6666 13.5708 11.6666 13.5008C11.6666 13.3708 11.6966 13.2408 11.7466 13.1208C11.7966 13.0008 11.8666 12.8909 11.9566 12.7909C12.2366 12.5109 12.6866 12.4208 13.0466 12.5808C13.1766 12.6308 13.2766 12.7009 13.3766 12.7909C13.5566 12.9809 13.6666 13.2408 13.6666 13.5008C13.6666 13.5708 13.6566 13.6309 13.6466 13.7009C13.6366 13.7609 13.6166 13.8209 13.5866 13.8809C13.5666 13.9409 13.5366 14.0008 13.4966 14.0608C13.4566 14.1108 13.4166 14.1608 13.3766 14.2108C13.2766 14.3008 13.1766 14.3709 13.0466 14.4209C12.9266 14.4709 12.7966 14.5008 12.6666 14.5008Z" fill="#10A760"/>
<path d="M9.16663 18.0008C9.03663 18.0008 8.90662 17.9709 8.78662 17.9209C8.66662 17.8709 8.55663 17.8008 8.45663 17.7108C8.36663 17.6108 8.29661 17.5109 8.24661 17.3809C8.19661 17.2609 8.16663 17.1308 8.16663 17.0008C8.16663 16.7408 8.27663 16.4809 8.45663 16.2909C8.55663 16.2009 8.66662 16.1308 8.78662 16.0808C9.15662 15.9208 9.59662 16.0109 9.87662 16.2909C9.91662 16.3409 9.96661 16.3909 9.99661 16.4409C10.0366 16.5009 10.0666 16.5608 10.0866 16.6208C10.1166 16.6808 10.1366 16.7408 10.1466 16.8108C10.1566 16.8708 10.1666 16.9408 10.1666 17.0008C10.1666 17.2608 10.0566 17.5208 9.87662 17.7108C9.68662 17.8908 9.42663 18.0008 9.16663 18.0008Z" fill="#10A760"/>
</svg>
