<svg width="16" height="16" viewBox="0 0 16 16" fill="none" xmlns="http://www.w3.org/2000/svg">
<path d="M5.33331 3.8335C5.05998 3.8335 4.83331 3.60683 4.83331 3.3335V1.3335C4.83331 1.06016 5.05998 0.833496 5.33331 0.833496C5.60665 0.833496 5.83331 1.06016 5.83331 1.3335V3.3335C5.83331 3.60683 5.60665 3.8335 5.33331 3.8335Z" fill="#999999"/>
<path d="M10.6667 3.8335C10.3934 3.8335 10.1667 3.60683 10.1667 3.3335V1.3335C10.1667 1.06016 10.3934 0.833496 10.6667 0.833496C10.94 0.833496 11.1667 1.06016 11.1667 1.3335V3.3335C11.1667 3.60683 10.94 3.8335 10.6667 3.8335Z" fill="#999999"/>
<path d="M5.66667 9.66655C5.58 9.66655 5.49333 9.64656 5.41333 9.61322C5.32667 9.57989 5.26 9.53321 5.19333 9.47321C5.07333 9.34654 5 9.17988 5 8.99988C5 8.91322 5.02 8.82655 5.05333 8.74655C5.08667 8.66655 5.13333 8.59322 5.19333 8.52655C5.26 8.46655 5.32667 8.41987 5.41333 8.38654C5.65333 8.28654 5.95333 8.33989 6.14 8.52655C6.26 8.65322 6.33333 8.82655 6.33333 8.99988C6.33333 9.03988 6.32667 9.08656 6.32 9.13322C6.31333 9.17322 6.3 9.21322 6.28 9.25322C6.26667 9.29322 6.24667 9.33321 6.22 9.37321C6.2 9.40655 6.16667 9.43988 6.14 9.47321C6.01333 9.59321 5.84 9.66655 5.66667 9.66655Z" fill="#999999"/>
<path d="M7.99998 9.66658C7.91331 9.66658 7.82665 9.64659 7.74665 9.61326C7.65998 9.57992 7.59331 9.53324 7.52665 9.47324C7.40665 9.34658 7.33331 9.17992 7.33331 8.99992C7.33331 8.91325 7.35331 8.82658 7.38665 8.74658C7.41998 8.66658 7.46665 8.59325 7.52665 8.52659C7.59331 8.46659 7.65998 8.41991 7.74665 8.38657C7.98665 8.27991 8.28665 8.33992 8.47331 8.52659C8.59331 8.65325 8.66665 8.82658 8.66665 8.99992C8.66665 9.03992 8.65998 9.08659 8.65331 9.13326C8.64665 9.17326 8.63331 9.21325 8.61331 9.25325C8.59998 9.29325 8.57998 9.33325 8.55331 9.37325C8.53331 9.40658 8.49998 9.43991 8.47331 9.47324C8.34665 9.59324 8.17331 9.66658 7.99998 9.66658Z" fill="#999999"/>
<path d="M10.3334 9.66658C10.2467 9.66658 10.16 9.64659 10.08 9.61326C9.99335 9.57992 9.92669 9.53324 9.86002 9.47324C9.83335 9.43991 9.80669 9.40658 9.78002 9.37325C9.75335 9.33325 9.73335 9.29325 9.72002 9.25325C9.70002 9.21325 9.68669 9.17326 9.68002 9.13326C9.67335 9.08659 9.66669 9.03992 9.66669 8.99992C9.66669 8.82658 9.74002 8.65325 9.86002 8.52659C9.92669 8.46659 9.99335 8.41991 10.08 8.38657C10.3267 8.27991 10.62 8.33992 10.8067 8.52659C10.9267 8.65325 11 8.82658 11 8.99992C11 9.03992 10.9934 9.08659 10.9867 9.13326C10.98 9.17326 10.9667 9.21325 10.9467 9.25325C10.9334 9.29325 10.9134 9.33325 10.8867 9.37325C10.8667 9.40658 10.8334 9.43991 10.8067 9.47324C10.68 9.59324 10.5067 9.66658 10.3334 9.66658Z" fill="#999999"/>
<path d="M5.66667 11.9998C5.58 11.9998 5.49333 11.9798 5.41333 11.9465C5.33333 11.9131 5.26 11.8665 5.19333 11.8065C5.07333 11.6798 5 11.5065 5 11.3331C5 11.2465 5.02 11.1598 5.05333 11.0798C5.08667 10.9931 5.13333 10.9198 5.19333 10.8598C5.44 10.6131 5.89333 10.6131 6.14 10.8598C6.26 10.9865 6.33333 11.1598 6.33333 11.3331C6.33333 11.5065 6.26 11.6798 6.14 11.8065C6.01333 11.9265 5.84 11.9998 5.66667 11.9998Z" fill="#999999"/>
<path d="M7.99998 11.9998C7.82665 11.9998 7.65331 11.9265 7.52665 11.8065C7.40665 11.6798 7.33331 11.5065 7.33331 11.3331C7.33331 11.2465 7.35331 11.1598 7.38665 11.0798C7.41998 10.9931 7.46665 10.9198 7.52665 10.8598C7.77331 10.6131 8.22665 10.6131 8.47331 10.8598C8.53331 10.9198 8.57998 10.9931 8.61331 11.0798C8.64665 11.1598 8.66665 11.2465 8.66665 11.3331C8.66665 11.5065 8.59331 11.6798 8.47331 11.8065C8.34665 11.9265 8.17331 11.9998 7.99998 11.9998Z" fill="#999999"/>
<path d="M10.3334 11.9999C10.16 11.9999 9.98669 11.9266 9.86002 11.8066C9.80002 11.7466 9.75335 11.6733 9.72002 11.5866C9.68669 11.5066 9.66669 11.4199 9.66669 11.3333C9.66669 11.2466 9.68669 11.1599 9.72002 11.0799C9.75335 10.9933 9.80002 10.9199 9.86002 10.8599C10.0134 10.7066 10.2467 10.6333 10.46 10.6799C10.5067 10.6866 10.5467 10.6999 10.5867 10.7199C10.6267 10.7333 10.6667 10.7533 10.7067 10.78C10.74 10.8 10.7734 10.8333 10.8067 10.8599C10.9267 10.9866 11 11.1599 11 11.3333C11 11.5066 10.9267 11.6799 10.8067 11.8066C10.68 11.9266 10.5067 11.9999 10.3334 11.9999Z" fill="#999999"/>
<path d="M13.6666 6.56006H2.33331C2.05998 6.56006 1.83331 6.33339 1.83331 6.06006C1.83331 5.78673 2.05998 5.56006 2.33331 5.56006H13.6666C13.94 5.56006 14.1666 5.78673 14.1666 6.06006C14.1666 6.33339 13.94 6.56006 13.6666 6.56006Z" fill="#999999"/>
<path d="M10.6667 15.1668H5.33333C2.9 15.1668 1.5 13.7668 1.5 11.3335V5.66683C1.5 3.2335 2.9 1.8335 5.33333 1.8335H10.6667C13.1 1.8335 14.5 3.2335 14.5 5.66683V11.3335C14.5 13.7668 13.1 15.1668 10.6667 15.1668ZM5.33333 2.8335C3.42667 2.8335 2.5 3.76016 2.5 5.66683V11.3335C2.5 13.2402 3.42667 14.1668 5.33333 14.1668H10.6667C12.5733 14.1668 13.5 13.2402 13.5 11.3335V5.66683C13.5 3.76016 12.5733 2.8335 10.6667 2.8335H5.33333Z" fill="#999999"/>
</svg>
