<svg width="17" height="16" viewBox="0 0 17 16" fill="none" xmlns="http://www.w3.org/2000/svg">
<path d="M11.9666 15.1663C11.2133 15.1663 10.42 14.9863 9.59998 14.6397C8.79998 14.2997 7.99331 13.833 7.20665 13.2663C6.42665 12.693 5.67331 12.053 4.95998 11.353C4.25331 10.6397 3.61331 9.88634 3.04665 9.11301C2.47331 8.31301 2.01331 7.51301 1.68665 6.73967C1.33998 5.91301 1.16665 5.11301 1.16665 4.35967C1.16665 3.83967 1.25998 3.34634 1.43998 2.88634C1.62665 2.41301 1.92665 1.97301 2.33331 1.59301C2.84665 1.08634 3.43331 0.833008 4.05998 0.833008C4.31998 0.833008 4.58665 0.893008 4.81331 0.999674C5.07331 1.11967 5.29331 1.29967 5.45331 1.53967L6.99998 3.71967C7.13998 3.91301 7.24664 4.09967 7.31998 4.28634C7.40664 4.48634 7.45331 4.68634 7.45331 4.87967C7.45331 5.13301 7.37998 5.37967 7.23998 5.61301C7.13998 5.79301 6.98664 5.98634 6.79331 6.17968L6.33998 6.65301C6.34665 6.67301 6.35331 6.68634 6.35998 6.69967C6.43998 6.83967 6.59998 7.07967 6.90664 7.43967C7.23331 7.81301 7.53998 8.15301 7.84665 8.46634C8.23998 8.85301 8.56665 9.15967 8.87331 9.41301C9.25331 9.73301 9.49998 9.89301 9.64665 9.96634L9.63331 9.99967L10.12 9.51967C10.3266 9.31301 10.5266 9.15967 10.72 9.05968C11.0866 8.83301 11.5533 8.79301 12.02 8.98634C12.1933 9.05967 12.38 9.15967 12.58 9.29967L14.7933 10.873C15.04 11.0397 15.22 11.253 15.3266 11.5063C15.4266 11.7597 15.4733 11.993 15.4733 12.2263C15.4733 12.5463 15.4 12.8663 15.26 13.1663C15.12 13.4663 14.9466 13.7263 14.7266 13.9663C14.3466 14.3863 13.9333 14.6863 13.4533 14.8797C12.9933 15.0663 12.4933 15.1663 11.9666 15.1663ZM4.05998 1.83301C3.69331 1.83301 3.35331 1.99301 3.02665 2.31301C2.71998 2.59967 2.50665 2.91301 2.37331 3.25301C2.23331 3.59967 2.16665 3.96634 2.16665 4.35967C2.16665 4.97967 2.31331 5.65301 2.60665 6.34634C2.90665 7.05301 3.32665 7.78634 3.85998 8.51967C4.39331 9.25301 4.99998 9.96634 5.66665 10.6397C6.33331 11.2997 7.05331 11.913 7.79331 12.453C8.51331 12.9797 9.25331 13.4063 9.98664 13.713C11.1266 14.1997 12.1933 14.313 13.0733 13.9463C13.4133 13.8063 13.7133 13.593 13.9866 13.2863C14.14 13.1197 14.26 12.9397 14.36 12.7263C14.44 12.5597 14.48 12.3863 14.48 12.213C14.48 12.1063 14.46 11.9997 14.4066 11.8797C14.3866 11.8397 14.3466 11.7663 14.22 11.6797L12.0066 10.1063C11.8733 10.013 11.7533 9.94634 11.64 9.89968C11.4933 9.83967 11.4333 9.77967 11.2066 9.91967C11.0733 9.98634 10.9533 10.0863 10.82 10.2197L10.3133 10.7197C10.0533 10.973 9.65331 11.033 9.34665 10.9197L9.16665 10.8397C8.89331 10.693 8.57331 10.4663 8.21998 10.1663C7.89998 9.89301 7.55331 9.57301 7.13331 9.15967C6.80664 8.82634 6.47998 8.47301 6.13998 8.07967C5.82665 7.71301 5.59998 7.39967 5.45998 7.13967L5.37998 6.93967C5.33998 6.78634 5.32664 6.69967 5.32664 6.60634C5.32664 6.36634 5.41331 6.15301 5.57998 5.98634L6.07998 5.46634C6.21331 5.33301 6.31331 5.20634 6.37998 5.09301C6.43331 5.00634 6.45331 4.93301 6.45331 4.86634C6.45331 4.81301 6.43331 4.73301 6.39998 4.65301C6.35331 4.54634 6.27998 4.42634 6.18665 4.29967L4.63998 2.11301C4.57331 2.01967 4.49331 1.95301 4.39331 1.90634C4.28665 1.85967 4.17331 1.83301 4.05998 1.83301ZM9.63331 10.0063L9.52665 10.4597L9.70665 9.99301C9.67331 9.98634 9.64665 9.99301 9.63331 10.0063Z" fill="#140F29"/>
</svg>
