<svg width="21" height="20" viewBox="0 0 21 20" fill="none" xmlns="http://www.w3.org/2000/svg">
<path d="M16.3327 8.95817H14.666C12.6493 8.95817 11.541 7.84984 11.541 5.83317V4.1665C11.541 2.14984 12.6493 1.0415 14.666 1.0415H16.3327C18.3493 1.0415 19.4577 2.14984 19.4577 4.1665V5.83317C19.4577 7.84984 18.3493 8.95817 16.3327 8.95817ZM14.666 2.2915C13.3493 2.2915 12.791 2.84984 12.791 4.1665V5.83317C12.791 7.14984 13.3493 7.70817 14.666 7.70817H16.3327C17.6493 7.70817 18.2077 7.14984 18.2077 5.83317V4.1665C18.2077 2.84984 17.6493 2.2915 16.3327 2.2915H14.666Z" fill="#433F54"/>
<path d="M6.33268 18.9582H4.66602C2.64935 18.9582 1.54102 17.8498 1.54102 15.8332V14.1665C1.54102 12.1498 2.64935 11.0415 4.66602 11.0415H6.33268C8.34935 11.0415 9.45768 12.1498 9.45768 14.1665V15.8332C9.45768 17.8498 8.34935 18.9582 6.33268 18.9582ZM4.66602 12.2915C3.34935 12.2915 2.79102 12.8498 2.79102 14.1665V15.8332C2.79102 17.1498 3.34935 17.7082 4.66602 17.7082H6.33268C7.64935 17.7082 8.20768 17.1498 8.20768 15.8332V14.1665C8.20768 12.8498 7.64935 12.2915 6.33268 12.2915H4.66602Z" fill="#433F54"/>
<path d="M5.49935 8.95817C3.31602 8.95817 1.54102 7.18317 1.54102 4.99984C1.54102 2.8165 3.31602 1.0415 5.49935 1.0415C7.68268 1.0415 9.45768 2.8165 9.45768 4.99984C9.45768 7.18317 7.68268 8.95817 5.49935 8.95817ZM5.49935 2.2915C4.00768 2.2915 2.79102 3.50817 2.79102 4.99984C2.79102 6.4915 4.00768 7.70817 5.49935 7.70817C6.99102 7.70817 8.20768 6.4915 8.20768 4.99984C8.20768 3.50817 6.99102 2.2915 5.49935 2.2915Z" fill="#433F54"/>
<path d="M15.4993 18.9582C13.316 18.9582 11.541 17.1832 11.541 14.9998C11.541 12.8165 13.316 11.0415 15.4993 11.0415C17.6827 11.0415 19.4577 12.8165 19.4577 14.9998C19.4577 17.1832 17.6827 18.9582 15.4993 18.9582ZM15.4993 12.2915C14.0077 12.2915 12.791 13.5082 12.791 14.9998C12.791 16.4915 14.0077 17.7082 15.4993 17.7082C16.991 17.7082 18.2077 16.4915 18.2077 14.9998C18.2077 13.5082 16.991 12.2915 15.4993 12.2915Z" fill="#433F54"/>
</svg>
