<svg width="17" height="16" viewBox="0 0 17 16" fill="none" xmlns="http://www.w3.org/2000/svg">
<path d="M11.8332 15.1673C11.0799 15.1673 10.2865 14.9873 9.46654 14.6407C8.66654 14.3007 7.85987 13.834 7.0732 13.2673C6.2932 12.694 5.53987 12.054 4.82654 11.354C4.11987 10.6407 3.47987 9.88732 2.9132 9.11399C2.33987 8.31398 1.87987 7.51398 1.5532 6.74065C1.20654 5.91398 1.0332 5.11398 1.0332 4.36065C1.0332 3.84065 1.12654 3.34732 1.30654 2.88732C1.4932 2.41398 1.7932 1.97398 2.19987 1.59398C2.7132 1.08732 3.29987 0.833984 3.92654 0.833984C4.18654 0.833984 4.4532 0.893984 4.67987 1.00065C4.93987 1.12065 5.15987 1.30065 5.31987 1.54065L6.86654 3.72065C7.00654 3.91398 7.1132 4.10065 7.18654 4.28732C7.2732 4.48732 7.31987 4.68732 7.31987 4.88065C7.31987 5.13398 7.24654 5.38065 7.10654 5.61398C7.00654 5.79398 6.8532 5.98732 6.65987 6.18065L6.20654 6.65398C6.2132 6.67398 6.21987 6.68732 6.22654 6.70065C6.30654 6.84065 6.46654 7.08065 6.7732 7.44065C7.09987 7.81398 7.40654 8.15398 7.7132 8.46732C8.10654 8.85398 8.4332 9.16065 8.73987 9.41398C9.11987 9.73398 9.36654 9.89398 9.5132 9.96732L9.49987 10.0007L9.98654 9.52065C10.1932 9.31398 10.3932 9.16065 10.5865 9.06065C10.9532 8.83398 11.4199 8.79398 11.8865 8.98732C12.0599 9.06065 12.2465 9.16065 12.4465 9.30065L14.6599 10.874C14.9065 11.0407 15.0865 11.254 15.1932 11.5073C15.2932 11.7607 15.3399 11.994 15.3399 12.2273C15.3399 12.5473 15.2665 12.8673 15.1265 13.1673C14.9865 13.4673 14.8132 13.7273 14.5932 13.9673C14.2132 14.3873 13.7999 14.6873 13.3199 14.8807C12.8599 15.0673 12.3599 15.1673 11.8332 15.1673ZM3.92654 1.83398C3.55987 1.83398 3.21987 1.99398 2.8932 2.31398C2.58654 2.60065 2.3732 2.91398 2.23987 3.25398C2.09987 3.60065 2.0332 3.96732 2.0332 4.36065C2.0332 4.98065 2.17987 5.65399 2.4732 6.34732C2.7732 7.05398 3.1932 7.78732 3.72654 8.52065C4.25987 9.25398 4.86654 9.96732 5.5332 10.6407C6.19987 11.3007 6.91987 11.914 7.65987 12.454C8.37987 12.9807 9.11987 13.4073 9.8532 13.714C10.9932 14.2007 12.0599 14.314 12.9399 13.9473C13.2799 13.8073 13.5799 13.594 13.8532 13.2873C14.0065 13.1207 14.1265 12.9407 14.2265 12.7273C14.3065 12.5607 14.3465 12.3873 14.3465 12.214C14.3465 12.1073 14.3265 12.0007 14.2732 11.8807C14.2532 11.8407 14.2132 11.7673 14.0865 11.6807L11.8732 10.1073C11.7399 10.014 11.6199 9.94732 11.5065 9.90065C11.3599 9.84065 11.2999 9.78065 11.0732 9.92065C10.9399 9.98732 10.8199 10.0873 10.6865 10.2207L10.1799 10.7207C9.91987 10.974 9.51987 11.034 9.2132 10.9207L9.0332 10.8407C8.75987 10.694 8.43987 10.4673 8.08654 10.1673C7.76654 9.89398 7.41987 9.57398 6.99987 9.16065C6.6732 8.82732 6.34654 8.47398 6.00654 8.08065C5.6932 7.71398 5.46654 7.40065 5.32654 7.14065L5.24654 6.94065C5.20654 6.78732 5.1932 6.70065 5.1932 6.60732C5.1932 6.36732 5.27987 6.15398 5.44654 5.98732L5.94654 5.46732C6.07987 5.33398 6.17987 5.20732 6.24654 5.09398C6.29987 5.00732 6.31987 4.93398 6.31987 4.86732C6.31987 4.81398 6.29987 4.73398 6.26654 4.65398C6.21987 4.54732 6.14654 4.42732 6.0532 4.30065L4.50654 2.11398C4.43987 2.02065 4.35987 1.95398 4.25987 1.90732C4.1532 1.86065 4.03987 1.83398 3.92654 1.83398ZM9.49987 10.0073L9.3932 10.4607L9.5732 9.99398C9.53987 9.98732 9.5132 9.99399 9.49987 10.0073Z" fill="#140F29"/>
</svg>
