<svg width="153" height="152" viewBox="0 0 153 152" fill="none" xmlns="http://www.w3.org/2000/svg">
<g id="Illustration - Communication _ smartphone, mobile, phone, city, buildings, message, text">
<g id="Communication _ smartphone, mobile, phone, city, buildings, message, text">
<path id="Vector" d="M90 55.4876L99.9727 43.4629L109.945 55.4876V102.053" stroke="#CCDDE2" stroke-width="0.60952" stroke-miterlimit="10"/>
<g id="Group" opacity="0.81">
<path id="Vector_2" opacity="0.81" d="M106.258 57.5H103.578V60.1798H106.258V57.5Z" stroke="#CCDDE2" stroke-width="0.60952" stroke-miterlimit="10"/>
<path id="Vector_3" opacity="0.81" d="M101.189 57.5H98.5096V60.1798H101.189V57.5Z" stroke="#CCDDE2" stroke-width="0.60952" stroke-miterlimit="10"/>
<path id="Vector_4" opacity="0.81" d="M96.1231 57.5H93.4434V60.1798H96.1231V57.5Z" stroke="#CCDDE2" stroke-width="0.60952" stroke-miterlimit="10"/>
</g>
<g id="Group_2" opacity="0.46">
<path id="Vector_5" opacity="0.46" d="M106.258 63.7246H103.578V66.4044H106.258V63.7246Z" stroke="#CCDDE2" stroke-width="0.60952" stroke-miterlimit="10"/>
<path id="Vector_6" opacity="0.46" d="M101.189 63.7246H98.5096V66.4044H101.189V63.7246Z" stroke="#CCDDE2" stroke-width="0.60952" stroke-miterlimit="10"/>
<path id="Vector_7" opacity="0.46" d="M96.1231 63.7246H93.4434V66.4044H96.1231V63.7246Z" stroke="#CCDDE2" stroke-width="0.60952" stroke-miterlimit="10"/>
</g>
<g id="Group_3" opacity="0.25">
<path id="Vector_8" opacity="0.25" d="M106.258 70.209H103.578V72.8887H106.258V70.209Z" stroke="#CCDDE2" stroke-width="0.60952" stroke-miterlimit="10"/>
<path id="Vector_9" opacity="0.25" d="M101.189 70.209H98.5096V72.8887H101.189V70.209Z" stroke="#CCDDE2" stroke-width="0.60952" stroke-miterlimit="10"/>
<path id="Vector_10" opacity="0.25" d="M96.1231 70.209H93.4434V72.8887H96.1231V70.209Z" stroke="#CCDDE2" stroke-width="0.60952" stroke-miterlimit="10"/>
</g>
<g id="Group_4" opacity="0.25">
<path id="Vector_11" opacity="0.25" d="M106.258 75.7812H103.578V78.461H106.258V75.7812Z" stroke="#CCDDE2" stroke-width="0.60952" stroke-miterlimit="10"/>
<path id="Vector_12" opacity="0.25" d="M101.189 75.7812H98.5096V78.461H101.189V75.7812Z" stroke="#CCDDE2" stroke-width="0.60952" stroke-miterlimit="10"/>
<path id="Vector_13" opacity="0.25" d="M96.1231 75.7812H93.4434V78.461H96.1231V75.7812Z" stroke="#CCDDE2" stroke-width="0.60952" stroke-miterlimit="10"/>
</g>
<path id="Vector_14" d="M113.656 94.7551V38.2598H139.537V102.162" stroke="#CCDDE2" stroke-width="0.60952" stroke-miterlimit="10"/>
<path id="Vector_15" d="M116.229 43.463V46.769H119.535V40.7012H116.229V43.463ZM116.771 41.2438H118.99V43.463H116.771V41.2438ZM116.771 44.0072H118.99V46.2203H116.771V44.0072Z" fill="#D7E8F0"/>
<path id="Vector_16" d="M122.057 43.463V46.769H125.361V40.7012H122.057V43.463ZM122.599 41.2438H124.818V43.463H122.599V41.2438ZM122.599 44.0072H124.818V46.2203H122.599V44.0072Z" fill="#D7E8F0"/>
<path id="Vector_17" d="M127.729 43.463V46.769H131.033V40.7012H127.729V43.463ZM128.271 41.2438H130.49V43.463H128.271V41.2438ZM128.271 44.0072H130.49V46.2203H128.271V44.0072Z" fill="#D7E8F0"/>
<path id="Vector_18" d="M133.062 40.7012V46.769H136.367V40.7012H133.062ZM135.824 46.2203H133.605V44.0072H135.824V46.2203ZM135.824 43.4584H133.605V41.2392H135.824V43.4584Z" fill="#D7E8F0"/>
<path id="Vector_19" d="M116.229 51.6251V54.9311H119.535V48.8633H116.229V51.6251ZM116.771 49.4059H118.99V51.6251H116.771V49.4059ZM116.771 52.1678H118.99V54.3885H116.771V52.1678Z" fill="#D7E8F0"/>
<path id="Vector_20" d="M122.057 51.6251V54.9311H125.361V48.8633H122.057V51.6251ZM122.599 49.4059H124.818V51.6251H122.599V49.4059ZM122.599 52.1678H124.818V54.3885H122.599V52.1678Z" fill="#D7E8F0"/>
<path id="Vector_21" d="M127.729 51.6251V54.9311H131.033V48.8633H127.729V51.6251ZM128.271 49.4059H130.49V51.6251H128.271V49.4059ZM128.271 52.1678H130.49V54.3885H128.271V52.1678Z" fill="#D7E8F0"/>
<path id="Vector_22" d="M133.062 51.6251V54.9311H136.367V48.8633H133.062V51.6251ZM133.605 49.4059H135.824V51.6251H133.605V49.4059ZM133.605 52.1678H135.824V54.3885H133.605V52.1678Z" fill="#D7E8F0"/>
<path id="Vector_23" d="M116.229 59.7911V63.0956H119.535V57.0293H116.229V59.7911ZM116.771 57.5719H118.99V59.7911H116.771V57.5719ZM116.771 60.3353H118.99V62.5545H116.771V60.3353Z" fill="#D7E8F0"/>
<path id="Vector_24" d="M122.057 59.7911V63.0956H125.361V57.0293H122.057V59.7911ZM122.599 57.5719H124.818V59.7911H122.599V57.5719ZM122.599 60.3353H124.818V62.5545H122.599V60.3353Z" fill="#D7E8F0"/>
<path id="Vector_25" d="M127.729 59.7911V63.0956H131.033V57.0293H127.729V59.7911ZM128.271 57.5719H130.49V59.7911H128.271V57.5719ZM128.271 60.3353H130.49V62.5545H128.271V60.3353Z" fill="#D7E8F0"/>
<path id="Vector_26" d="M133.062 59.7911V63.0956H136.367V57.0293H133.062V59.7911ZM133.605 57.5719H135.824V59.7911H133.605V57.5719ZM133.605 60.3353H135.824V62.5545H133.605V60.3353Z" fill="#D7E8F0"/>
<path id="Vector_27" d="M116.229 67.9574V71.2619H119.535V65.1895H116.229V67.9574ZM116.771 65.7382H118.99V67.9574H116.771V65.7382ZM116.771 68.5H118.99V70.7192H116.771V68.5Z" fill="#D7E8F0"/>
<path id="Vector_28" d="M122.057 67.9574V71.2619H125.361V65.1895H122.057V67.9574ZM122.599 65.7382H124.818V67.9574H122.599V65.7382ZM122.599 68.5H124.818V70.7192H122.599V68.5Z" fill="#D7E8F0"/>
<path id="Vector_29" d="M127.729 67.9574V71.2619H131.033V65.1895H127.729V67.9574ZM128.271 65.7382H130.49V67.9574H128.271V65.7382ZM128.271 68.5H130.49V70.7192H128.271V68.5Z" fill="#D7E8F0"/>
<path id="Vector_30" d="M133.062 67.9574V71.2619H136.367V65.1895H133.062V67.9574ZM133.605 65.7382H135.824V67.9574H133.605V65.7382ZM133.605 68.5H135.824V70.7192H133.605V68.5Z" fill="#D7E8F0"/>
<path id="Vector_31" d="M116.229 76.1134V79.4194H119.535V73.3516H116.229V76.1134ZM116.771 73.8957H118.99V76.1134H116.771V73.8957ZM116.771 76.6576H118.99V78.8768H116.771V76.6576Z" fill="#D7E8F0"/>
<path id="Vector_32" d="M122.057 76.1134V79.4194H125.361V73.3516H122.057V76.1134ZM122.599 73.8957H124.818V76.1134H122.599V73.8957ZM122.599 76.6576H124.818V78.8768H122.599V76.6576Z" fill="#D7E8F0"/>
<path id="Vector_33" d="M127.729 76.1134V79.4194H131.033V73.3516H127.729V76.1134ZM128.271 73.8957H130.49V76.1134H128.271V73.8957ZM128.271 76.6576H130.49V78.8768H128.271V76.6576Z" fill="#D7E8F0"/>
<path id="Vector_34" d="M133.062 76.1134V79.4194H136.367V73.3516H133.062V76.1134ZM133.605 73.8957H135.824V76.1134H133.605V73.8957ZM133.605 76.6576H135.824V78.8768H133.605V76.6576Z" fill="#D7E8F0"/>
<path id="Vector_35" d="M54.4162 102.178V76.5983C54.4161 73.0323 53.1698 69.5784 50.8928 66.8339C50.4913 66.3499 49.9881 65.9603 49.4189 65.693C48.8497 65.4256 48.2286 65.2871 47.5998 65.2871C46.9709 65.2871 46.3499 65.4256 45.7806 65.693C45.2114 65.9603 44.7081 66.3499 44.3067 66.8339C42.0297 69.5784 40.7835 73.0323 40.7833 76.5983V102.226" stroke="#CCDDE2" stroke-width="0.60952" stroke-miterlimit="10"/>
<g id="Group_5" opacity="0.81">
<path id="Vector_36" opacity="0.81" d="M43.3047 74.2828H45.1363V72.4512H43.3047V74.2828Z" stroke="#CCDDE2" stroke-width="0.60952" stroke-miterlimit="10"/>
<path id="Vector_37" opacity="0.81" d="M46.7637 74.2828H48.5953V72.4512H46.7637V74.2828Z" stroke="#CCDDE2" stroke-width="0.60952" stroke-miterlimit="10"/>
<path id="Vector_38" opacity="0.81" d="M50.2285 74.2828H52.0601V72.4512H50.2285V74.2828Z" stroke="#CCDDE2" stroke-width="0.60952" stroke-miterlimit="10"/>
</g>
<g id="Group_6" opacity="0.46">
<path id="Vector_39" opacity="0.46" d="M43.3047 78.5347H45.1363V76.7031H43.3047V78.5347Z" stroke="#CCDDE2" stroke-width="0.60952" stroke-miterlimit="10"/>
<path id="Vector_40" opacity="0.46" d="M46.7637 78.5347H48.5953V76.7031H46.7637V78.5347Z" stroke="#CCDDE2" stroke-width="0.60952" stroke-miterlimit="10"/>
<path id="Vector_41" opacity="0.46" d="M50.2285 78.5347H52.0601V76.7031H50.2285V78.5347Z" stroke="#CCDDE2" stroke-width="0.60952" stroke-miterlimit="10"/>
</g>
<g id="Group_7" opacity="0.25">
<path id="Vector_42" opacity="0.25" d="M43.3047 82.9703H45.1363V81.1387H43.3047V82.9703Z" stroke="#CCDDE2" stroke-width="0.60952" stroke-miterlimit="10"/>
<path id="Vector_43" opacity="0.25" d="M46.7637 82.9703H48.5953V81.1387H46.7637V82.9703Z" stroke="#CCDDE2" stroke-width="0.60952" stroke-miterlimit="10"/>
<path id="Vector_44" opacity="0.25" d="M50.2285 82.9703H52.0601V81.1387H50.2285V82.9703Z" stroke="#CCDDE2" stroke-width="0.60952" stroke-miterlimit="10"/>
</g>
<g id="Group_8" opacity="0.25">
<path id="Vector_45" opacity="0.25" d="M43.3047 86.7808H45.1363V84.9492H43.3047V86.7808Z" stroke="#CCDDE2" stroke-width="0.60952" stroke-miterlimit="10"/>
<path id="Vector_46" opacity="0.25" d="M46.7637 86.7808H48.5953V84.9492H46.7637V86.7808Z" stroke="#CCDDE2" stroke-width="0.60952" stroke-miterlimit="10"/>
<path id="Vector_47" opacity="0.25" d="M50.2285 86.7808H52.0601V84.9492H50.2285V86.7808Z" stroke="#CCDDE2" stroke-width="0.60952" stroke-miterlimit="10"/>
</g>
<path id="Vector_48" d="M20.5586 102.296V59.3047H38.2484V102.236" stroke="#CCDDE2" stroke-width="0.60952" stroke-miterlimit="10"/>
<path id="Vector_49" d="M36.4911 62.8585V65.1173H34.2324V60.9707H36.4911V62.8585ZM36.1187 61.3385H34.6033V62.8585H36.1233L36.1187 61.3385ZM36.1187 63.2264H34.6033V64.7464H36.1233L36.1187 63.2264Z" fill="#D7E8F0"/>
<path id="Vector_50" d="M32.5068 62.8585V65.1173H30.248V60.9707H32.5068V62.8585ZM32.1359 61.3385H30.6159V62.8585H32.1359V61.3385ZM32.1359 63.2264H30.6159V64.7464H32.1359V63.2264Z" fill="#D7E8F0"/>
<path id="Vector_51" d="M28.6318 62.8585V65.1173H26.373V60.9707H28.6318V62.8585ZM28.2609 61.3385H26.7409V62.8585H28.2609V61.3385ZM28.2609 63.2264H26.7409V64.7464H28.2609V63.2264Z" fill="#D7E8F0"/>
<path id="Vector_52" d="M24.9833 60.9707V65.1173H22.7246V60.9707H24.9833ZM23.0955 64.7464H24.6155V63.2264H23.0955V64.7464ZM23.0955 62.8585H24.6155V61.3385H23.0955V62.8585Z" fill="#D7E8F0"/>
<path id="Vector_53" d="M36.4911 68.4391V70.6932H34.2324V66.5527H36.4911V68.4391ZM36.1187 66.9191H34.6033V68.4391H36.1233L36.1187 66.9191ZM36.1187 68.8069H34.6033V70.3269H36.1233L36.1187 68.8069Z" fill="#D7E8F0"/>
<path id="Vector_54" d="M32.5068 68.4391V70.6932H30.248V66.5527H32.5068V68.4391ZM32.1359 66.9191H30.6159V68.4391H32.1359V66.9191ZM32.1359 68.8069H30.6159V70.3269H32.1359V68.8069Z" fill="#D7E8F0"/>
<path id="Vector_55" d="M28.6318 68.4391V70.6932H26.373V66.5527H28.6318V68.4391ZM28.2609 66.9191H26.7409V68.4391H28.2609V66.9191ZM28.2609 68.8069H26.7409V70.3269H28.2609V68.8069Z" fill="#D7E8F0"/>
<path id="Vector_56" d="M24.9833 68.4391V70.6932H22.7246V66.5527H24.9833V68.4391ZM24.6124 66.9191H23.0924V68.4391H24.6124V66.9191ZM24.6124 68.8069H23.0924V70.3269H24.6124V68.8069Z" fill="#D7E8F0"/>
<path id="Vector_57" d="M36.4911 74.0187V76.2774H34.2324V72.1309H36.4911V74.0187ZM36.1187 72.4987H34.6033V74.0187H36.1233L36.1187 72.4987ZM36.1187 74.3865H34.6033V75.9065H36.1233L36.1187 74.3865Z" fill="#D7E8F0"/>
<path id="Vector_58" d="M32.5068 74.0187V76.2774H30.248V72.1309H32.5068V74.0187ZM32.1359 72.4987H30.6159V74.0187H32.1359V72.4987ZM32.1359 74.3865H30.6159V75.9065H32.1359V74.3865Z" fill="#D7E8F0"/>
<path id="Vector_59" d="M28.6318 74.0187V76.2774H26.373V72.1309H28.6318V74.0187ZM28.2609 72.4987H26.7409V74.0187H28.2609V72.4987ZM28.2609 74.3865H26.7409V75.9065H28.2609V74.3865Z" fill="#D7E8F0"/>
<path id="Vector_60" d="M24.9833 74.0187V76.2774H22.7246V72.1309H24.9833V74.0187ZM24.6124 72.4987H23.0924V74.0187H24.6124V72.4987ZM24.6124 74.3865H23.0924V75.9065H24.6124V74.3865Z" fill="#D7E8F0"/>
<path id="Vector_61" d="M36.4911 79.5988V81.8575H34.2324V77.7109H36.4911V79.5988ZM36.1187 78.0788H34.6033V79.5988H36.1233L36.1187 78.0788ZM36.1233 79.9666H34.6033V81.4866H36.1233V79.9666Z" fill="#D7E8F0"/>
<path id="Vector_62" d="M32.5068 79.5988V81.8575H30.248V77.7109H32.5068V79.5988ZM32.1359 78.0788H30.6159V79.5988H32.1359V78.0788ZM32.1359 79.9666H30.6159V81.4866H32.1359V79.9666Z" fill="#D7E8F0"/>
<path id="Vector_63" d="M28.6318 79.5988V81.8575H26.373V77.7109H28.6318V79.5988ZM28.2609 78.0788H26.7409V79.5988H28.2609V78.0788ZM28.2609 79.9666H26.7409V81.4866H28.2609V79.9666Z" fill="#D7E8F0"/>
<path id="Vector_64" d="M24.9831 79.5988V81.8575H22.7244V77.7109H24.9831V79.5988ZM24.6123 78.0788H23.0923V79.5988H24.6123V78.0788ZM24.6123 79.9666H23.0923V81.4866H24.6123V79.9666Z" fill="#D7E8F0"/>
<path id="Vector_65" d="M36.4911 85.1749V87.4337H34.2324V83.2871H36.4911V85.1749ZM36.1187 83.6549H34.6033V85.1749H36.1233L36.1187 83.6549ZM36.1187 85.5428H34.6033V87.0628H36.1233L36.1187 85.5428Z" fill="#D7E8F0"/>
<path id="Vector_66" d="M32.5068 85.1749V87.4337H30.248V83.2871H32.5068V85.1749ZM32.1359 83.6549H30.6159V85.1749H32.1359V83.6549ZM32.1359 85.5428H30.6159V87.0628H32.1359V85.5428Z" fill="#D7E8F0"/>
<path id="Vector_67" d="M28.6318 85.1749V87.4337H26.373V83.2871H28.6318V85.1749ZM28.2609 83.6549H26.7409V85.1749H28.2609V83.6549ZM28.2609 85.5428H26.7409V87.0628H28.2609V85.5428Z" fill="#D7E8F0"/>
<path id="Vector_68" d="M24.9833 85.1749V87.4337H22.7246V83.2871H24.9833V85.1749ZM24.6124 83.6549H23.0924V85.1749H24.6124V83.6549ZM24.6124 85.5428H23.0924V87.0628H24.6124V85.5428Z" fill="#D7E8F0"/>
<path id="Vector_72" d="M89.8398 44.7412V44.7837C89.8398 45.6707 89.4875 46.5211 88.8603 47.1482C88.2332 47.7754 87.3827 48.1277 86.4958 48.1277C85.9275 48.1303 85.3683 47.9841 84.874 47.7037C84.7317 47.6298 84.5964 47.5433 84.4697 47.4453C84.4177 47.4028 84.3768 47.3484 84.3505 47.2869C84.324 47.2252 84.3129 47.1581 84.318 47.0912C84.323 47.0245 84.3441 46.9598 84.3795 46.9029C84.4149 46.8459 84.4636 46.7983 84.5213 46.7643C85.2068 46.3509 85.8513 45.7489 86.0824 45.0011C86.1529 44.7716 86.1766 44.5302 86.1523 44.2913C86.1321 43.986 86.0321 43.6916 85.8621 43.4373C85.6922 43.183 85.4583 42.978 85.1841 42.8427C85.0979 42.81 85.008 42.788 84.9165 42.7773C84.6581 42.7348 84.3085 42.7393 84.2295 42.9293C84.6372 42.0234 84.7349 41.0084 84.5077 40.0413C84.3661 39.4412 84.0895 38.8814 83.699 38.4043C83.7046 38.5764 83.6723 38.7474 83.6042 38.9054C83.5361 39.0635 83.4339 39.2046 83.3049 39.3186C83.176 39.4326 83.0235 39.5166 82.8583 39.5648C82.6931 39.613 82.5192 39.6242 82.3493 39.5975C81.0284 39.4455 80.8824 38.1596 80.8824 38.1596C80.8824 38.1596 80.8733 38.1733 80.8733 38.1824C80.1772 39.5747 78.49 39.4759 77.3378 38.7372C76.9297 38.4835 76.5804 38.1456 76.3133 37.7461C76.0914 36.2413 77.4275 34.9159 78.8472 34.8262C78.9551 33.8914 79.7212 32.9414 80.6514 32.9414C80.9747 32.9405 81.2924 33.0264 81.5712 33.1899C81.8501 33.3535 82.0799 33.5889 82.2368 33.8717C82.2612 33.9159 82.2831 33.9616 82.3021 34.0085C82.7247 33.4917 83.3935 32.9445 84.0562 32.9445C84.5206 32.9451 84.9732 33.0904 85.3513 33.36C85.7294 33.6297 86.0141 34.0104 86.166 34.4493C86.166 34.3824 86.774 34.1665 86.8333 34.1453C87.0801 34.0735 87.3362 34.0387 87.5933 34.0419C88.0413 34.0536 88.4793 34.1776 88.867 34.4026C89.2548 34.6276 89.5797 34.9461 89.8124 35.3293C89.8359 35.4628 89.847 35.5981 89.8459 35.7337C89.8462 36.1387 89.7509 36.5382 89.5677 36.8995C89.7763 36.977 89.9683 37.0936 90.1332 37.243C90.4876 37.5528 90.7061 37.9895 90.7412 38.459C90.7412 38.5061 90.7412 38.5533 90.7412 38.6004C90.7419 38.9551 90.636 39.302 90.4372 39.596C90.6558 39.6787 90.8628 39.7896 91.0528 39.9258C91.619 40.3339 92.0014 40.9489 92.1168 41.6373C92.1423 41.788 92.1549 41.9406 92.1548 42.0933C92.1546 42.7401 91.9201 43.3648 91.4943 43.8518C91.0686 44.3387 90.4808 44.6547 89.8398 44.7412Z" fill="#88CDFF"/>
<path id="Vector_73" d="M89.8398 44.7412V44.7837C89.8398 45.6707 89.4875 46.5211 88.8603 47.1482C88.2332 47.7754 87.3827 48.1277 86.4958 48.1277C85.9275 48.1303 85.3683 47.9841 84.874 47.7037C85.5595 47.2902 86.204 46.6883 86.435 45.942C86.5174 45.6635 86.5349 45.3698 86.4858 45.0836C86.4368 44.7974 86.3227 44.5264 86.1523 44.2913C86.1321 43.986 86.0321 43.6916 85.8621 43.4373C85.6922 43.183 85.4583 42.978 85.1841 42.8427C85.0979 42.81 85.008 42.788 84.9165 42.7773C85.0815 41.8451 84.938 40.8846 84.5077 40.0413C84.3661 39.4412 84.0895 38.8814 83.699 38.4043C83.7046 38.5764 83.6723 38.7474 83.6042 38.9054C83.5361 39.0635 83.4339 39.2046 83.3049 39.3186C83.176 39.4326 83.0235 39.5166 82.8583 39.5648C82.6931 39.613 82.5192 39.6242 82.3493 39.5975C81.0284 39.4455 80.8824 38.1596 80.8824 38.1596C80.8824 38.1596 80.8733 38.1733 80.8733 38.1824C80.1772 39.5747 78.49 39.4759 77.3378 38.7372C76.9297 38.4835 76.5804 38.1456 76.3133 37.7461C76.0914 36.2413 77.4275 34.9159 78.8472 34.8262C78.9551 33.8914 79.7212 32.9414 80.6514 32.9414C80.9747 32.9405 81.2924 33.0264 81.5712 33.1899C81.8501 33.3535 82.0799 33.5889 82.2368 33.8717C82.2612 33.9159 82.2831 33.9616 82.3021 34.0085C82.7247 33.4917 83.3935 32.9445 84.0562 32.9445C84.5206 32.9451 84.9732 33.0904 85.3513 33.36C85.7294 33.6297 86.0141 34.0104 86.166 34.4493C86.166 34.3824 86.774 34.1665 86.8333 34.1453C87.0801 34.0735 87.3362 34.0387 87.5933 34.0419C88.0413 34.0536 88.4793 34.1776 88.867 34.4026C89.2548 34.6276 89.5797 34.9461 89.8124 35.3293C89.8359 35.4628 89.847 35.5981 89.8459 35.7337C89.8462 36.1387 89.7509 36.5382 89.5677 36.8995C89.7763 36.977 89.9683 37.0936 90.1332 37.243C90.0883 37.4505 90.0167 37.6513 89.9204 37.8404C90.2472 37.9643 90.5326 38.1777 90.7442 38.456C90.7442 38.5031 90.7442 38.5502 90.7442 38.5973C90.745 38.9521 90.639 39.299 90.4402 39.5929C90.6588 39.6756 90.8658 39.7866 91.0558 39.9228C91.0046 40.1394 90.9155 40.3452 90.7928 40.5308C91.349 40.7366 91.8193 41.1245 92.1274 41.6313C92.153 41.7819 92.1656 41.9345 92.1654 42.0873C92.1665 42.7366 91.931 43.3642 91.503 43.8527C91.075 44.3411 90.4837 44.657 89.8398 44.7412Z" fill="#88CDFF"/>
<path id="Vector_74" d="M81.2081 133.339H59.5938V132.921C59.5931 132.094 59.9131 131.3 60.4863 130.705C61.0595 130.109 61.8414 129.76 62.6672 129.729L67.7683 129.518H79.8128L81.2081 133.339Z" fill="#88CDFF"/>
<path id="Vector_75" d="M42.4375 102.223L23.5195 102.176V101.758C23.5189 100.931 23.8392 100.136 24.4127 99.5409C24.9862 98.9457 25.7684 98.5959 26.5945 98.5657L31.6956 98.3574L44.9637 98.5687L42.4375 102.223Z" fill="#88CDFF"/>
<path id="Vector_76" d="M73.748 102.112H83.7801C86.9404 102.104 89.99 100.947 92.3614 98.8578C94.7327 96.7686 96.2644 93.8889 96.6712 90.7549C96.7447 90.2139 96.7809 89.6684 96.7791 89.1224V78.5508" stroke="black" stroke-width="0.60952" stroke-miterlimit="10"/>
<path id="Vector_77" d="M77.3884 86.959L71.5075 87.1611H71.4088L67.6954 87.2356C66.8773 87.252 66.0628 87.3483 65.2634 87.5229C58.6347 88.9563 54.3984 95.5987 55.8135 102.171C56.0221 103.15 56.3487 104.101 56.7864 105.001L67.7653 129.519L62.6642 129.726C61.8384 129.756 61.0566 130.106 60.4834 130.702C59.9101 131.297 59.5901 132.091 59.5907 132.918V133.336H81.2051L79.8098 129.519L69.7656 102.078" stroke="black" stroke-width="0.60952" stroke-miterlimit="10"/>
<path id="Vector_78" d="M59.5922 77.3848L42.4375 102.22" stroke="black" stroke-width="0.60952" stroke-miterlimit="10"/>
<path id="Vector_79" d="M65.2625 87.5267L57.3691 80.6016" stroke="black" stroke-width="0.60952" stroke-miterlimit="10"/>
<path id="Vector_80" d="M81.8818 102.106L81.8301 102.059" stroke="black" stroke-width="0.60952" stroke-miterlimit="10"/>
<path id="Vector_81" d="M62.7157 67.0069L57.5918 56.5098" stroke="black" stroke-width="0.60952" stroke-miterlimit="10"/>
<path id="Vector_82" d="M124.996 102.076C124.996 102.085 125.005 102.09 125.01 102.1H120.672" stroke="black" stroke-width="0.60952" stroke-miterlimit="10"/>
<path id="Vector_83" d="M74.9108 102.124C74.9108 102.101 74.8971 102.077 74.8926 102.059" stroke="black" stroke-width="0.60952" stroke-miterlimit="10"/>
<path id="Vector_84" d="M88.9277 50.8846C90.5383 50.8416 92.1372 51.1704 93.6002 51.8452C97.0119 53.4336 99.8517 56.0342 101.734 59.2932C103.807 62.9093 105.485 66.8112 107.327 70.5412C109.636 75.2289 111.947 79.9145 114.262 84.5982C115.376 86.8589 116.491 89.1202 117.606 91.382L119.971 96.1715C120.457 96.9716 121.142 97.6325 121.959 98.0897C122.775 98.5451 123.695 98.7847 124.629 98.7859C125.566 98.7857 126.483 99.0534 127.273 99.5571C128.063 100.061 128.692 100.78 129.086 101.63L129.293 102.077H123.588" stroke="black" stroke-width="0.60952" stroke-miterlimit="10"/>
<path id="Vector_85" d="M71.5108 87.1607C70.8405 82.8621 70.9819 78.5347 71.3208 74.2118C71.9288 66.4857 74.2787 58.7443 80.5791 53.7465C80.7418 53.6173 80.9059 53.4897 81.0762 53.3711" stroke="black" stroke-width="0.60952" stroke-miterlimit="10"/>
<path id="Vector_86" d="M87.1023 61.1445C86.9837 65.6954 90.8673 70.3071 90.8673 70.3071C90.8673 70.3071 90.8764 70.3162 90.8764 70.3208C92.8463 73.0568 94.8132 75.8008 96.7771 78.5531C97.2847 79.2584 97.7879 79.9591 98.2971 80.6629C100.272 83.4089 102.243 86.1561 104.21 88.9043C105.891 91.2694 107.476 93.7516 109.244 96.0772C109.7 96.673 110.165 97.2567 110.655 97.8252C111.279 98.5548 111.924 99.3862 112.685 99.9745C113.447 100.563 114.33 101.111 115.117 101.732C115.777 102.285 116.342 102.943 116.789 103.679C117.279 104.515 117.331 105.46 117.749 106.296C118.481 107.774 120.291 107.529 120.912 106.118C121.772 104.162 119.892 99.9319 119.892 99.9319" stroke="black" stroke-width="0.60952" stroke-miterlimit="10"/>
<path id="Vector_87" d="M144.65 102.102H120.672" stroke="black" stroke-width="0.60952" stroke-miterlimit="10"/>
<path id="Vector_88" d="M71.4777 72.5445L62.7225 67.0057L62.5918 66.9205C61.3183 66.0926 59.8868 65.5381 58.3879 65.2917C56.889 65.0455 55.3554 65.113 53.8839 65.4898C52.4123 65.8666 51.0351 66.5448 49.8391 67.4813C48.6432 68.4177 47.6546 69.5921 46.9358 70.9303L31.7145 98.4089L26.4918 98.7569C25.6848 98.8117 24.9286 99.1707 24.3761 99.7615C23.8236 100.352 23.5161 101.131 23.5156 101.94V102.286" stroke="black" stroke-width="0.60952" stroke-miterlimit="10"/>
<path id="Vector_89" d="M55.4173 48.2653C56.1408 48.4067 56.4144 48.3596 56.9373 48.4629C56.9772 48.4692 57.0183 48.4622 57.054 48.4432C57.0896 48.4242 57.1181 48.3941 57.1353 48.3573C57.1525 48.3207 57.1572 48.2795 57.149 48.2398C57.1406 48.2001 57.1197 48.1644 57.0893 48.1376L55.3595 46.4656C54.8857 46.0621 54.5588 45.5134 54.4293 44.9046L54.4141 44.8438C54.4736 44.6369 54.5875 44.45 54.7439 44.3021C54.9003 44.1543 55.0935 44.0511 55.3033 44.0032C55.671 43.9437 56.0481 43.9923 56.3885 44.1431C56.9525 44.365 57.7094 44.5626 58.4299 44.8104C59.4264 45.1616 60.2636 45.859 60.7889 46.7757L60.8558 46.8943C62.9267 50.4929 65.296 53.9112 67.939 57.1132L73.563 64.0247" stroke="black" stroke-width="0.60952" stroke-miterlimit="10"/>
<path id="Vector_90" d="M56.3157 57.219C55.9933 57.219 55.6794 57.1156 55.4201 56.9241C55.1608 56.7326 54.9696 56.4631 54.8747 56.155L53.4277 51.6938L52.1509 47.4788L50.4865 42.0524C50.422 41.8419 50.4087 41.6192 50.4476 41.4026C50.4866 41.186 50.5768 40.9818 50.7105 40.8071C50.8444 40.6325 51.018 40.4922 51.217 40.3981C51.416 40.304 51.6345 40.2588 51.8545 40.2664C52.1389 40.2747 52.4138 40.3707 52.6415 40.5414C52.8694 40.712 53.0389 40.9488 53.1267 41.2195L55.4204 48.2647L57.7536 55.243C57.8273 55.4696 57.8463 55.7107 57.8089 55.9462C57.7715 56.1816 57.679 56.4049 57.5387 56.5976C57.3984 56.7905 57.2145 56.9472 57.0018 57.0553C56.7893 57.1632 56.5542 57.2193 56.3157 57.219Z" fill="#88CDFF"/>
<path id="Vector_91" d="M56.3157 57.219C55.9933 57.219 55.6794 57.1156 55.4201 56.9241C55.1608 56.7326 54.9696 56.4631 54.8747 56.155L53.4277 51.6938L52.1509 47.4788L50.4865 42.0524C50.422 41.8419 50.4087 41.6192 50.4476 41.4026C50.4866 41.186 50.5768 40.9818 50.7105 40.8071C50.8444 40.6325 51.018 40.4922 51.217 40.3981C51.416 40.304 51.6345 40.2588 51.8545 40.2664C52.1389 40.2747 52.4138 40.3707 52.6415 40.5414C52.8694 40.712 53.0389 40.9488 53.1267 41.2195L55.4204 48.2647L57.7536 55.243C57.8273 55.4696 57.8463 55.7107 57.8089 55.9462C57.7715 56.1816 57.679 56.4049 57.5387 56.5976C57.3984 56.7905 57.2145 56.9472 57.0018 57.0553C56.7893 57.1632 56.5542 57.2193 56.3157 57.219Z" stroke="black" stroke-width="0.60952" stroke-miterlimit="10"/>
<path id="Vector_92" d="M50.4019 50.3896C50.0403 50.375 49.69 50.259 49.3911 50.0552C49.2278 49.9339 49.0906 49.7812 48.9875 49.6061C48.8843 49.4308 48.8174 49.2367 48.7907 49.0351C48.7638 48.8336 48.7777 48.6287 48.8315 48.4328C48.8854 48.2367 48.9779 48.0534 49.1038 47.8938C49.3301 47.6147 49.6352 47.4103 49.9793 47.3071C50.4196 47.1625 50.8957 47.1689 51.3321 47.3253C51.7966 47.5265 52.1769 47.8827 52.4083 48.3331" stroke="black" stroke-width="0.60952" stroke-miterlimit="10"/>
<path id="Vector_93" d="M51.2995 53.2879C50.9362 53.2847 50.5813 53.1794 50.275 52.9839C50.1089 52.8669 49.9678 52.7175 49.8604 52.545C49.753 52.3723 49.6813 52.1799 49.6495 51.9791C49.6178 51.7783 49.6266 51.5731 49.6757 51.3758C49.7246 51.1783 49.8126 50.9929 49.9345 50.8301C50.1546 50.5452 50.4556 50.3334 50.7979 50.2221C51.2335 50.0668 51.7087 50.0614 52.1477 50.2069C52.5839 50.3589 53.014 50.6295 53.2253 51.0323" stroke="black" stroke-width="0.60952" stroke-miterlimit="10"/>
<path id="Vector_94" d="M54.0603 53.6554C53.7993 53.3093 53.4286 53.0623 53.0089 52.9545C52.5891 52.8469 52.1452 52.8849 51.7499 53.0626C51.4487 53.1921 51.1931 53.4085 51.0157 53.6842C50.9181 53.8409 50.8528 54.0157 50.8237 54.1981C50.7948 54.3807 50.8026 54.5671 50.8468 54.7464C50.8911 54.9258 50.9707 55.0945 51.0812 55.2425C51.1916 55.3906 51.3306 55.5151 51.4899 55.6086L51.6967 55.7195C51.6967 55.7195 52.937 56.2181 55.0057 56.4567" stroke="black" stroke-width="0.60952" stroke-miterlimit="10"/>
<path id="Vector_95" d="M67.8672 102.129C68.4402 102.129 74.3348 102.129 74.9124 102.129C77.2258 102.119 79.553 102.115 81.8801 102.11C93.4017 102.081 104.966 102.063 115.472 102.059" stroke="black" stroke-width="0.60952" stroke-miterlimit="10"/>
<path id="Vector_96" d="M120.658 102.055C124.166 102.055 126.117 102.055 129.286 102.055C134.454 102.064 139.111 102.077 143.06 102.097" stroke="black" stroke-width="0.60952" stroke-miterlimit="10"/>
<path id="Vector_97" d="M7.85156 102.351C8.1282 102.351 29.3778 102.256 55.8121 102.176" stroke="black" stroke-width="0.60952" stroke-miterlimit="10"/>
<path id="Vector_98" d="M88.9291 50.748C88.9899 51.3317 88.5947 51.8212 88.2801 52.268C87.2843 53.6745 86.0774 54.9188 84.702 55.9571C83.6258 56.7946 81.8398 58.2234 80.5281 57.0211C79.4002 55.9829 80.1283 54.0829 81.1999 53.2986L81.2136 53.2895" stroke="black" stroke-width="0.60952" stroke-miterlimit="10"/>
<path id="Vector_99" d="M78.3945 40.7656C78.3945 40.7656 80.3006 40.9495 80.6046 42.5896" stroke="black" stroke-width="0.60952" stroke-miterlimit="10"/>
<path id="Vector_100" d="M77.5085 45.546C77.0655 45.6169 76.613 45.6021 76.1755 45.5019C76.093 45.4817 76.0168 45.4415 75.9533 45.3853C75.8897 45.3289 75.8408 45.2579 75.8109 45.1784C75.7809 45.0989 75.7709 45.0134 75.7814 44.9291C75.792 44.8448 75.8229 44.7644 75.8715 44.6948C76.3275 44.0548 76.7835 43.4225 77.2866 42.8206C77.3643 42.7448 77.4172 42.6473 77.4386 42.5409C77.4386 42.5409 77.4189 40.536 77.9463 39.0449" stroke="black" stroke-width="0.60952" stroke-miterlimit="10"/>
<path id="Vector_101" d="M79.267 42.5432C79.3339 42.2252 79.169 41.9214 78.8987 41.8647C78.6283 41.8079 78.3552 42.0194 78.2883 42.3374C78.2214 42.6554 78.3864 42.9591 78.6566 43.0159C78.927 43.0728 79.2003 42.8611 79.267 42.5432Z" fill="black"/>
<path id="Vector_102" d="M88.9273 50.8849C88.2265 48.8526 87.9043 47.8145 87.9043 47.8145" stroke="black" stroke-width="0.60952" stroke-linecap="round" stroke-linejoin="round"/>
<path id="Vector_103" d="M81.2157 50.2051L81.2051 57.2184" stroke="black" stroke-width="0.60952" stroke-miterlimit="10"/>
<path id="Vector_104" d="M76.8105 45.5898C76.8105 45.5898 77.3 49.6239 79.2577 50.3885C81.2155 51.153 83.1596 48.794 83.1596 48.794" stroke="black" stroke-width="0.60952" stroke-linecap="round" stroke-linejoin="round"/>
<path id="Vector_105" d="M77.2109 47.4258C77.4646 47.6033 77.7586 47.7147 78.0662 47.75C78.3737 47.7853 78.6853 47.7433 78.9726 47.6279" stroke="black" stroke-width="0.60952" stroke-linecap="round" stroke-linejoin="round"/>
<path id="Vector_106" d="M82.12 33.8144C82.1206 33.5046 82.0399 33.2002 81.8859 32.9313C81.6863 32.5858 81.379 32.3152 81.011 32.1611C80.6428 32.007 80.2344 31.9778 79.8482 32.078C79.4619 32.1781 79.1193 32.4023 78.8726 32.7159C78.6259 33.0296 78.489 33.4154 78.4826 33.8144" stroke="black" stroke-width="0.60952" stroke-miterlimit="10" stroke-linecap="round"/>
<path id="Vector_107" d="M81.1151 36.4939C81.1133 36.0551 81.0043 35.6236 80.7977 35.2365C80.5912 34.8495 80.2931 34.5189 79.9295 34.2732C78.1055 33.0451 75.4774 34.9207 75.9988 37.0351C76.1812 37.7723 76.7117 38.3392 77.3364 38.739C78.4871 39.4777 80.1758 39.5795 80.8689 38.1857L80.8795 38.1629C80.8795 38.1629 81.0315 39.4458 82.3463 39.6008C82.5163 39.627 82.69 39.6154 82.8551 39.5669C83.02 39.5186 83.1724 39.4344 83.3013 39.3205C83.4302 39.2067 83.5325 39.0659 83.6011 38.9082C83.6695 38.7504 83.7025 38.5795 83.6976 38.4076C84.7418 39.6738 84.8969 41.4476 84.2311 42.9296C84.3512 42.6621 85.0079 42.767 85.1857 42.846C85.9791 43.1971 86.3348 44.1958 86.0855 45.0014C85.853 45.7523 85.2085 46.3496 84.526 46.7676C84.4682 46.8014 84.4195 46.8486 84.3839 46.9055C84.3483 46.9622 84.327 47.0266 84.3219 47.0934C84.3165 47.1601 84.3276 47.2271 84.3539 47.2888C84.3802 47.3504 84.421 47.4047 84.4728 47.4471C84.9685 47.8237 85.5596 48.0545 86.1793 48.1134C86.7992 48.1724 87.4231 48.0572 87.981 47.7807C88.5387 47.5042 89.0083 47.0776 89.3368 46.5486C89.6651 46.0196 89.8395 45.4097 89.8399 44.7871V44.7445C90.4315 44.6705 90.9813 44.4004 91.4013 43.9774C91.8214 43.5543 92.0877 43.0027 92.1578 42.4107C92.2277 41.8187 92.0974 41.2202 91.7875 40.7109C91.4776 40.2015 91.0059 39.8107 90.4479 39.6008C90.6467 39.3069 90.7527 38.96 90.7519 38.6052C90.7519 38.1214 90.5598 37.6575 90.2176 37.3155C89.8756 36.9734 89.4117 36.7812 88.9279 36.7812" stroke="black" stroke-width="0.60952" stroke-linecap="round" stroke-linejoin="round"/>
<path id="Vector_108" d="M82.1211 32.877C82.53 32.3131 82.9586 32 83.7065 32C84.1716 32.0005 84.625 32.1461 85.0032 32.4166C85.3815 32.6873 85.6657 33.0693 85.8162 33.5094C85.7965 33.4486 86.4242 33.2236 86.4865 33.2054C86.7334 33.1341 86.9895 33.0993 87.2465 33.102C87.9357 33.1212 88.5911 33.4052 89.0762 33.8954C89.561 34.3855 89.8384 35.0438 89.8503 35.7331C89.85 36.1382 89.7547 36.5375 89.5721 36.899" stroke="black" stroke-width="0.60952" stroke-linecap="square" stroke-linejoin="round"/>
<path id="Vector_109" d="M89.8398 44.7412V44.7837C89.8398 45.6707 89.4875 46.5211 88.8603 47.1482C88.2332 47.7754 87.3827 48.1277 86.4958 48.1277C85.9275 48.1303 85.3683 47.9841 84.874 47.7037C84.7317 47.6298 84.5964 47.5433 84.4697 47.4453C84.4177 47.4028 84.3768 47.3484 84.3505 47.2869C84.324 47.2252 84.3129 47.1581 84.318 47.0912C84.323 47.0245 84.3441 46.9598 84.3795 46.9029C84.4149 46.8459 84.4636 46.7983 84.5213 46.7643C85.2068 46.3509 85.8513 45.7489 86.0824 45.0011C86.1529 44.7716 86.1766 44.5302 86.1523 44.2913C86.1321 43.986 86.0321 43.6916 85.8621 43.4373C85.6922 43.183 85.4583 42.978 85.1841 42.8427C85.0979 42.81 85.008 42.788 84.9165 42.7773C84.6581 42.7348 84.3085 42.7393 84.2295 42.9293C84.6372 42.0234 84.7349 41.0084 84.5077 40.0413C84.3661 39.4412 84.0895 38.8814 83.699 38.4043C83.7046 38.5764 83.6723 38.7474 83.6042 38.9054C83.5361 39.0635 83.4339 39.2046 83.3049 39.3186C83.176 39.4326 83.0235 39.5166 82.8583 39.5648C82.6931 39.613 82.5192 39.6242 82.3493 39.5975C81.0284 39.4455 80.8824 38.1596 80.8824 38.1596C80.8824 38.1596 80.8733 38.1733 80.8733 38.1824C80.1772 39.5747 78.49 39.4759 77.3378 38.7372C76.9297 38.4835 76.5804 38.1456 76.3133 37.7461C76.0914 36.2413 77.4275 34.9159 78.8472 34.8262C78.9551 33.8914 79.7212 32.9414 80.6514 32.9414C80.9747 32.9405 81.2924 33.0264 81.5712 33.1899C81.8501 33.3535 82.0799 33.5889 82.2368 33.8717C82.2612 33.9159 82.2831 33.9616 82.3021 34.0085C82.7247 33.4917 83.3935 32.9445 84.0562 32.9445C84.5206 32.9451 84.9732 33.0904 85.3513 33.36C85.7294 33.6297 86.0141 34.0104 86.166 34.4493C86.166 34.3824 86.774 34.1665 86.8333 34.1453C87.0801 34.0735 87.3362 34.0387 87.5933 34.0419C88.0413 34.0536 88.4793 34.1776 88.867 34.4026C89.2548 34.6276 89.5797 34.9461 89.8124 35.3293C89.8359 35.4628 89.847 35.5981 89.8459 35.7337C89.8462 36.1387 89.7509 36.5382 89.5677 36.8995C89.7763 36.977 89.9683 37.0936 90.1332 37.243C90.4876 37.5528 90.7061 37.9895 90.7412 38.459C90.7412 38.5061 90.7412 38.5533 90.7412 38.6004C90.7419 38.9551 90.636 39.302 90.4372 39.596C90.6558 39.6787 90.8628 39.7896 91.0528 39.9258C91.619 40.3339 92.0014 40.9489 92.1168 41.6373C92.1423 41.788 92.1549 41.9406 92.1548 42.0933C92.1546 42.7401 91.9201 43.3648 91.4943 43.8518C91.0686 44.3387 90.4808 44.6547 89.8398 44.7412Z" fill="#88CDFF"/>
<path id="Vector_110" d="M89.8398 44.7412V44.7837C89.8398 45.6707 89.4875 46.5211 88.8603 47.1482C88.2332 47.7754 87.3827 48.1277 86.4958 48.1277C85.9275 48.1303 85.3683 47.9841 84.874 47.7037C85.5595 47.2902 86.204 46.6883 86.435 45.942C86.5174 45.6635 86.5349 45.3698 86.4858 45.0836C86.4368 44.7974 86.3227 44.5264 86.1523 44.2913C86.1321 43.986 86.0321 43.6916 85.8621 43.4373C85.6922 43.183 85.4583 42.978 85.1841 42.8427C85.0979 42.81 85.008 42.788 84.9165 42.7773C85.0815 41.8451 84.938 40.8846 84.5077 40.0413C84.3661 39.4412 84.0895 38.8814 83.699 38.4043C83.7046 38.5764 83.6723 38.7474 83.6042 38.9054C83.5361 39.0635 83.4339 39.2046 83.3049 39.3186C83.176 39.4326 83.0235 39.5166 82.8583 39.5648C82.6931 39.613 82.5192 39.6242 82.3493 39.5975C81.0284 39.4455 80.8824 38.1596 80.8824 38.1596C80.8824 38.1596 80.8733 38.1733 80.8733 38.1824C80.1772 39.5747 78.49 39.4759 77.3378 38.7372C76.9297 38.4835 76.5804 38.1456 76.3133 37.7461C76.0914 36.2413 77.4275 34.9159 78.8472 34.8262C78.9551 33.8914 79.7212 32.9414 80.6514 32.9414C80.9747 32.9405 81.2924 33.0264 81.5712 33.1899C81.8501 33.3535 82.0799 33.5889 82.2368 33.8717C82.2612 33.9159 82.2831 33.9616 82.3021 34.0085C82.7247 33.4917 83.3935 32.9445 84.0562 32.9445C84.5206 32.9451 84.9732 33.0904 85.3513 33.36C85.7294 33.6297 86.0141 34.0104 86.166 34.4493C86.166 34.3824 86.774 34.1665 86.8333 34.1453C87.0801 34.0735 87.3362 34.0387 87.5933 34.0419C88.0413 34.0536 88.4793 34.1776 88.867 34.4026C89.2548 34.6276 89.5797 34.9461 89.8124 35.3293C89.8359 35.4628 89.847 35.5981 89.8459 35.7337C89.8462 36.1387 89.7509 36.5382 89.5677 36.8995C89.7763 36.977 89.9683 37.0936 90.1332 37.243C90.0883 37.4505 90.0167 37.6513 89.9204 37.8404C90.2472 37.9643 90.5326 38.1777 90.7442 38.456C90.7442 38.5031 90.7442 38.5502 90.7442 38.5973C90.745 38.9521 90.639 39.299 90.4402 39.5929C90.6588 39.6756 90.8658 39.7866 91.0558 39.9228C91.0046 40.1394 90.9155 40.3452 90.7928 40.5308C91.349 40.7366 91.8193 41.1245 92.1274 41.6313C92.153 41.7819 92.1656 41.9345 92.1654 42.0873C92.1665 42.7366 91.931 43.3642 91.503 43.8527C91.075 44.3411 90.4837 44.657 89.8398 44.7412Z" fill="#88CDFF"/>
<path id="Vector_111" d="M78.3945 40.7656C78.3945 40.7656 80.3006 40.9495 80.6046 42.5896" stroke="black" stroke-width="0.60952" stroke-miterlimit="10"/>
<path id="Vector_112" d="M77.5085 45.546C77.0655 45.6169 76.613 45.6021 76.1755 45.5019C76.093 45.4817 76.0168 45.4415 75.9533 45.3853C75.8897 45.3289 75.8408 45.2579 75.8109 45.1784C75.7809 45.0989 75.7709 45.0134 75.7814 44.9291C75.792 44.8448 75.8229 44.7644 75.8715 44.6948C76.3275 44.0548 76.7835 43.4225 77.2866 42.8206C77.3643 42.7448 77.4172 42.6473 77.4386 42.5409C77.4386 42.5409 77.4189 40.536 77.9463 39.0449" stroke="black" stroke-width="0.60952" stroke-miterlimit="10"/>
<path id="Vector_113" d="M79.267 42.5432C79.3339 42.2252 79.169 41.9214 78.8987 41.8647C78.6283 41.8079 78.3552 42.0194 78.2883 42.3374C78.2214 42.6554 78.3864 42.9591 78.6566 43.0159C78.927 43.0728 79.2003 42.8611 79.267 42.5432Z" fill="black"/>
<path id="Vector_114" d="M88.9273 50.8849C88.2265 48.8526 87.9043 47.8145 87.9043 47.8145" stroke="black" stroke-width="0.60952" stroke-linecap="round" stroke-linejoin="round"/>
<path id="Vector_115" d="M81.2157 50.2051L81.2051 57.2184" stroke="black" stroke-width="0.60952" stroke-miterlimit="10"/>
<path id="Vector_116" d="M76.8105 45.5898C76.8105 45.5898 77.3 49.6239 79.2577 50.3885C81.2155 51.153 83.1596 48.794 83.1596 48.794" stroke="black" stroke-width="0.60952" stroke-linecap="round" stroke-linejoin="round"/>
<path id="Vector_117" d="M77.2109 47.4258C77.4646 47.6033 77.7586 47.7147 78.0662 47.75C78.3737 47.7853 78.6853 47.7433 78.9726 47.6279" stroke="black" stroke-width="0.60952" stroke-linecap="round" stroke-linejoin="round"/>
<path id="Vector_118" d="M82.12 33.8144C82.1206 33.5046 82.0399 33.2002 81.8859 32.9313C81.6863 32.5858 81.379 32.3152 81.011 32.1611C80.6428 32.007 80.2344 31.9778 79.8482 32.078C79.4619 32.1781 79.1193 32.4023 78.8726 32.7159C78.6259 33.0296 78.489 33.4154 78.4826 33.8144" stroke="black" stroke-width="0.60952" stroke-miterlimit="10" stroke-linecap="round"/>
<path id="Vector_119" d="M81.1151 36.4939C81.1133 36.0551 81.0043 35.6236 80.7977 35.2365C80.5912 34.8495 80.2931 34.5189 79.9295 34.2732C78.1055 33.0451 75.4774 34.9207 75.9988 37.0351C76.1812 37.7723 76.7117 38.3392 77.3364 38.739C78.4871 39.4777 80.1758 39.5795 80.8689 38.1857L80.8795 38.1629C80.8795 38.1629 81.0315 39.4458 82.3463 39.6008C82.5163 39.627 82.69 39.6154 82.8551 39.5669C83.02 39.5186 83.1724 39.4344 83.3013 39.3205C83.4302 39.2067 83.5325 39.0659 83.6011 38.9082C83.6695 38.7504 83.7025 38.5795 83.6976 38.4076C84.7418 39.6738 84.8969 41.4476 84.2311 42.9296C84.3512 42.6621 85.0079 42.767 85.1857 42.846C85.9791 43.1971 86.3348 44.1958 86.0855 45.0014C85.853 45.7523 85.2085 46.3496 84.526 46.7676C84.4682 46.8014 84.4195 46.8486 84.3839 46.9055C84.3483 46.9622 84.327 47.0266 84.3219 47.0934C84.3165 47.1601 84.3276 47.2271 84.3539 47.2888C84.3802 47.3504 84.421 47.4047 84.4728 47.4471C84.9685 47.8237 85.5596 48.0545 86.1793 48.1134C86.7992 48.1724 87.4231 48.0572 87.981 47.7807C88.5387 47.5042 89.0083 47.0776 89.3368 46.5486C89.6651 46.0196 89.8395 45.4097 89.8399 44.7871V44.7445C90.4315 44.6705 90.9813 44.4004 91.4013 43.9774C91.8214 43.5543 92.0877 43.0027 92.1578 42.4107C92.2277 41.8187 92.0974 41.2202 91.7875 40.7109C91.4776 40.2015 91.0059 39.8107 90.4479 39.6008C90.6467 39.3069 90.7527 38.96 90.7519 38.6052C90.7519 38.1214 90.5598 37.6575 90.2176 37.3155C89.8756 36.9734 89.4117 36.7812 88.9279 36.7812" stroke="black" stroke-width="0.60952" stroke-linecap="round" stroke-linejoin="round"/>
<path id="Vector_120" d="M82.1211 32.877C82.53 32.3131 82.9586 32 83.7065 32C84.1716 32.0005 84.625 32.1461 85.0032 32.4166C85.3815 32.6873 85.6657 33.0693 85.8162 33.5094C85.7965 33.4486 86.4242 33.2236 86.4865 33.2054C86.7334 33.1341 86.9895 33.0993 87.2465 33.102C87.9357 33.1212 88.5911 33.4052 89.0762 33.8954C89.561 34.3855 89.8384 35.0438 89.8503 35.7331C89.85 36.1382 89.7547 36.5375 89.5721 36.899" stroke="black" stroke-width="0.60952" stroke-linecap="square" stroke-linejoin="round"/>
</g>
</g>
</svg>
