<svg width="25" height="24" viewBox="0 0 25 24" fill="none" xmlns="http://www.w3.org/2000/svg">
<path d="M17.7833 22.75C16.6533 22.75 15.4633 22.48 14.2333 21.96C13.0333 21.45 11.8233 20.75 10.6433 19.9C9.47325 19.04 8.34325 18.08 7.27325 17.03C6.21325 15.96 5.25325 14.83 4.40325 13.67C3.54325 12.47 2.85325 11.27 2.36325 10.11C1.84325 8.87 1.58325 7.67 1.58325 6.54C1.58325 5.76 1.72325 5.02 1.99325 4.33C2.27325 3.62 2.72325 2.96 3.33325 2.39C4.10325 1.63 4.98325 1.25 5.92325 1.25C6.31325 1.25 6.71325 1.34 7.05325 1.5C7.44325 1.68 7.77325 1.95 8.01325 2.31L10.3333 5.58C10.5433 5.87 10.7033 6.15 10.8133 6.43C10.9433 6.73 11.0133 7.03 11.0133 7.32C11.0133 7.7 10.9033 8.07 10.6933 8.42C10.5433 8.69 10.3133 8.98 10.0233 9.27L9.34325 9.98C9.35325 10.01 9.36325 10.03 9.37325 10.05C9.49325 10.26 9.73325 10.62 10.1933 11.16C10.6833 11.72 11.1433 12.23 11.6033 12.7C12.1933 13.28 12.6833 13.74 13.1433 14.12C13.7133 14.6 14.0833 14.84 14.3033 14.95L14.2833 15L15.0133 14.28C15.3233 13.97 15.6233 13.74 15.9133 13.59C16.4633 13.25 17.1633 13.19 17.8633 13.48C18.1233 13.59 18.4033 13.74 18.7033 13.95L22.0233 16.31C22.3933 16.56 22.6633 16.88 22.8233 17.26C22.9733 17.64 23.0433 17.99 23.0433 18.34C23.0433 18.82 22.9333 19.3 22.7233 19.75C22.5133 20.2 22.2533 20.59 21.9233 20.95C21.3533 21.58 20.7333 22.03 20.0133 22.32C19.3233 22.6 18.5733 22.75 17.7833 22.75ZM5.92325 2.75C5.37325 2.75 4.86325 2.99 4.37325 3.47C3.91325 3.9 3.59325 4.37 3.39325 4.88C3.18325 5.4 3.08325 5.95 3.08325 6.54C3.08325 7.47 3.30325 8.48 3.74325 9.52C4.19325 10.58 4.82325 11.68 5.62325 12.78C6.42325 13.88 7.33325 14.95 8.33325 15.96C9.33325 16.95 10.4133 17.87 11.5233 18.68C12.6033 19.47 13.7133 20.11 14.8133 20.57C16.5233 21.3 18.1233 21.47 19.4433 20.92C19.9533 20.71 20.4033 20.39 20.8133 19.93C21.0433 19.68 21.2233 19.41 21.3733 19.09C21.4933 18.84 21.5533 18.58 21.5533 18.32C21.5533 18.16 21.5233 18 21.4433 17.82C21.4133 17.76 21.3533 17.65 21.1633 17.52L17.8433 15.16C17.6433 15.02 17.4633 14.92 17.2933 14.85C17.0733 14.76 16.9833 14.67 16.6433 14.88C16.4433 14.98 16.2633 15.13 16.0633 15.33L15.3033 16.08C14.9133 16.46 14.3133 16.55 13.8533 16.38L13.5833 16.26C13.1733 16.04 12.6933 15.7 12.1633 15.25C11.6833 14.84 11.1633 14.36 10.5333 13.74C10.0433 13.24 9.55325 12.71 9.04325 12.12C8.57325 11.57 8.23325 11.1 8.02325 10.71L7.90325 10.41C7.84325 10.18 7.82325 10.05 7.82325 9.91C7.82325 9.55 7.95325 9.23 8.20325 8.98L8.95325 8.2C9.15325 8 9.30325 7.81 9.40325 7.64C9.48325 7.51 9.51325 7.4 9.51325 7.3C9.51325 7.22 9.48325 7.1 9.43325 6.98C9.36325 6.82 9.25325 6.64 9.11325 6.45L6.79325 3.17C6.69325 3.03 6.57325 2.93 6.42325 2.86C6.26325 2.79 6.09325 2.75 5.92325 2.75ZM14.2833 15.01L14.1233 15.69L14.3933 14.99C14.3433 14.98 14.3033 14.99 14.2833 15.01Z" fill="#0067B1"/>
</svg>
