<svg width="32" height="32" viewBox="0 0 32 32" fill="none" xmlns="http://www.w3.org/2000/svg">
<path d="M24 8.00008C23.1867 8.00008 22.44 7.53341 22.0667 6.81342L21.1067 4.88008C20.4934 3.66675 18.8934 2.66675 17.5334 2.66675H14.48C13.1067 2.66675 11.5067 3.66675 10.8934 4.88008L9.93335 6.81342C9.56002 7.53341 8.81335 8.00008 8.00002 8.00008C5.10669 8.00008 2.81335 10.4401 3.00002 13.3201L3.69335 24.3334C3.85335 27.0801 5.33335 29.3334 9.01335 29.3334H22.9867C26.6667 29.3334 28.1334 27.0801 28.3067 24.3334L29 13.3201C29.1867 10.4401 26.8934 8.00008 24 8.00008ZM14 9.66675H18C18.5467 9.66675 19 10.1201 19 10.6667C19 11.2134 18.5467 11.6667 18 11.6667H14C13.4534 11.6667 13 11.2134 13 10.6667C13 10.1201 13.4534 9.66675 14 9.66675ZM16 24.1601C13.52 24.1601 11.4934 22.1467 11.4934 19.6534C11.4934 17.1601 13.5067 15.1467 16 15.1467C18.4934 15.1467 20.5067 17.1601 20.5067 19.6534C20.5067 22.1467 18.48 24.1601 16 24.1601Z" fill="#B6B5BD"/>
</svg>
