<svg width="152" height="152" viewBox="0 0 152 152" fill="none" xmlns="http://www.w3.org/2000/svg">
<g id="Illustration - Finance, e-commerce, startup, workflow _ account, information, user, profile, data">
<g id="Startup, Success, technology, growth _  innovation, idea, thought, woman, statistics">
<path id="Vector" d="M49.2227 49.6848C49.2227 49.6848 62.1738 28.1212 88.0622 36.5601C113.909 45.0004 107.802 77.0406 107.785 77.1246C107.898 76.5377 112.376 75.9783 112.85 75.9094C126.059 73.9571 135.883 86.2428 136.858 98.3507C138.067 113.368 126.451 124.005 113.222 128.585" stroke="#CCDDE2" stroke-width="0.757777" stroke-miterlimit="10"/>
<path id="Vector_2" d="M111.516 135.631C111.124 137.007 110.841 137.794 110.841 137.794H110.637C110.959 137.092 111.252 136.371 111.516 135.631Z" fill="#353642"/>
<path id="Vector_3" d="M75.4779 81.3063C75.4779 81.3063 75.0123 84.1335 74.53 86.6934C73.1523 86.7086 71.7745 86.7196 70.4119 86.7306C69.723 82.8535 70.4711 79.8169 71.3598 77.793C72.4799 80.3474 74.1718 81.1244 75.4779 81.3063Z" fill="#92DEBA"/>
<path id="Vector_4" d="M98.1224 91.5073C95.321 89.9989 92.335 88.8618 89.2399 88.1248L88.2258 87.9498C88.2258 87.9498 87.4708 86.2331 87.4667 86.2276C87.1126 85.3279 86.5256 84.1334 86.3438 83.1855C86.1222 82.0658 86.0684 80.9193 86.184 79.7838C86.3824 78.0974 87.1677 74.5303 88.5868 73.406C89.7703 72.4746 90.258 72.6703 90.929 71.214C91.4112 70.1751 91.6069 68.4295 90.67 67.6635C89.6312 66.823 89.1875 67.2501 87.9448 67.3796C83.2217 67.8481 80.5227 64.4491 78.7867 60.5211C78.5111 59.8831 78.2245 59.2094 77.774 58.6666C77.2573 58.0411 76.5423 57.9005 75.9567 57.3949C75.7073 57.1772 75.5365 56.8217 75.6564 56.5131C75.727 56.3655 75.8297 56.2356 75.9567 56.1328C77.0634 55.1134 78.3922 54.3657 79.8379 53.9491C82.1248 53.2879 84.5411 53.2125 86.8646 53.73C89.2895 54.5332 91.4691 56.0543 92.9364 58.3786C94.9604 61.5902 95.4481 64.9217 94.3142 68.2421C93.1528 71.6425 91.8563 75.6366 94.0387 78.9089C96.9444 83.2558 98.6955 86.313 98.1224 91.5073Z" fill="#92DEBA"/>
<path id="Vector_5" d="M74.5348 86.6934C73.157 86.7085 71.7793 86.7195 70.4166 86.7306C60.0337 86.7843 50.0958 86.6396 39.6798 88.5079" stroke="black" stroke-width="0.757777" stroke-miterlimit="10"/>
<path id="Vector_6" d="M88.0625 87.8477C88.4579 87.9345 88.8492 88.0254 89.2405 88.1232C90.7658 88.4919 92.2675 88.9519 93.7376 89.501C95.2458 90.0622 96.7114 90.7316 98.123 91.5043C98.1245 91.5029 98.1265 91.5022 98.1285 91.5022C98.1306 91.5022 98.1325 91.5029 98.134 91.5043C100.355 92.7076 102.408 94.1984 104.239 95.938C105.77 97.43 107.094 99.1209 108.175 100.965C108.185 100.973 108.192 100.982 108.196 100.993C109.073 102.465 109.834 104.003 110.473 105.593C112.38 110.29 113.462 115.698 113.627 121.08C113.777 126.162 113.108 131.223 111.523 135.629C111.26 136.369 110.967 137.09 110.644 137.792C110.624 137.846 110.596 137.894 110.575 137.948" stroke="black" stroke-width="0.757777" stroke-miterlimit="10"/>
<path id="Vector_7" d="M94.0488 137.88C94.0488 137.88 94.0488 137.869 94.0488 137.863C94.0576 137.84 94.0645 137.817 94.0695 137.793" stroke="black" stroke-width="0.757777" stroke-miterlimit="10"/>
<path id="Vector_8" d="M90.4122 106.896C90.4122 106.896 93.4102 108.353 95.3804 112.899C96.3711 115.185 97.1054 118.259 97.0627 122.323C97.0627 122.323 97.0627 122.323 97.0627 122.334C97.0406 124.926 96.699 127.919 95.9054 131.367V131.386" stroke="black" stroke-width="0.757777" stroke-miterlimit="10"/>
<path id="Vector_9" d="M33.6738 49.1773C34.2029 47.1753 35.0516 45.1114 35.6895 44.2434C36.6925 42.8932 38.0014 41.6064 39.6851 41.7221C40.7666 41.7924 41.8289 42.3903 41.8771 43.5752C41.9226 44.8607 40.5668 46.2881 40.1315 47.4964C39.7181 48.662 39.5294 50.0191 39.7471 51.2453C39.9648 52.4715 41.0656 53.4291 42.2532 53.6922C42.7038 53.8109 43.1828 53.746 43.5856 53.5117C44.7484 52.776 44.5045 50.8168 44.4577 49.6609C44.4026 48.3644 44.404 46.8984 45.5103 46.0111C46.3232 45.3594 47.5563 45.7921 48.1556 46.5085C49.1972 47.7485 49.2482 49.6154 49.3006 51.142C49.4563 55.741 48.6392 60.1499 45.9608 64.0214C44.5831 66.0206 43.164 67.8144 42.606 70.2669C40.87 77.8888 40.6771 83.1725 39.6796 90.9129" stroke="black" stroke-width="0.757777" stroke-miterlimit="10"/>
<path id="Vector_10" d="M60.711 138C55.3873 122.869 57.9086 106.339 57.9086 106.339L29.3115 107.245C28.0939 107.284 26.8822 107.061 25.7581 106.592C24.6339 106.122 23.6235 105.418 22.7946 104.525C21.9659 103.632 21.338 102.572 20.9534 101.416C20.5689 100.26 20.4366 99.0354 20.5653 97.824L27.57 72.28L29.0855 66.8309C29.5688 65.1163 29.4581 63.2887 28.7714 61.645L28.0577 59.942C28.0577 59.942 26.764 57.3036 29.6642 57.5516C31.2238 57.6894 32.7711 58.3521 34.08 59.1843C35.1078 59.8387 36.6757 61.1049 36.1907 62.5088C35.6176 64.1622 33.3704 64.5755 32.0505 63.6455" stroke="black" stroke-width="0.757777" stroke-miterlimit="10"/>
<path id="Vector_11" d="M28.6992 57.5376C28.6992 57.5376 26.2495 52.0265 32.9703 53.4525C39.6911 54.8785 41.3003 62.222 36.1708 61.3954" stroke="black" stroke-width="0.757777" stroke-miterlimit="10"/>
<path id="Vector_12" d="M30.9148 53.1377C30.9148 53.1377 28.7655 50.5268 31.9785 49.2799C35.1914 48.033 46.8585 53.9216 39.3744 59.7221" stroke="black" stroke-width="0.757777" stroke-miterlimit="10"/>
<path id="Vector_13" d="M77.4075 81.1823C76.7838 81.3534 76.1317 81.3957 75.491 81.3063C74.1793 81.1244 72.4874 80.3419 71.3728 77.793C71.1413 77.272 70.9533 76.7329 70.8107 76.181C70.243 74.0716 69.995 71.1369 70.3271 67.0449C70.3918 66.2582 70.4883 65.4591 70.6219 64.6614C70.8432 63.2737 71.1999 61.9109 71.6869 60.5928C71.6869 60.5928 71.6869 60.5818 71.698 60.5763C72.9132 57.3633 75.0501 54.6518 78.6433 53.6089C81.338 52.8315 84.2029 52.8728 86.8742 53.7273C89.2991 54.5306 91.4787 56.0517 92.946 58.376C94.97 61.5876 95.4577 64.919 94.3238 68.2395C93.1624 71.6398 91.8659 75.634 94.0483 78.9062C96.9499 83.26 98.701 86.3173 98.1389 91.5115" stroke="black" stroke-width="0.757777" stroke-miterlimit="10"/>
<path id="Vector_14" d="M69.3135 86.8905C68.2581 81.83 69.6827 78.1403 70.8015 76.1797" stroke="black" stroke-width="0.757777" stroke-miterlimit="10"/>
<path id="Vector_15" d="M70.6211 64.6544C70.6211 64.6544 72.9316 62.2391 75.6086 66.0542" stroke="black" stroke-width="0.757777" stroke-miterlimit="10"/>
<path id="Vector_16" d="M76.503 76.8161C77.4798 77.4485 78.8025 77.0558 79.5217 76.0817C80.3029 75.0249 80.6157 73.6141 80.7851 72.3341C80.7961 72.2418 80.8085 72.1509 80.8168 72.0586C79.625 73.931 77.3117 74.3801 75.2754 74.5758C75.3525 75.1882 75.5803 75.7718 75.9381 76.2746C76.0913 76.4886 76.2828 76.6721 76.503 76.8161Z" stroke="black" stroke-width="0.757777" stroke-linecap="round" stroke-linejoin="round"/>
<path id="Vector_17" d="M87.114 85.2468L87.1074 85.2402" stroke="black" stroke-width="0.757777" stroke-miterlimit="10"/>
<path id="Vector_18" d="M78.0254 63.9135C78.0254 63.9135 78.8107 62.6419 81.4946 63.5787C84.1785 64.5156 84.2102 66.0463 84.2102 66.0463" stroke="black" stroke-width="0.757777" stroke-miterlimit="10"/>
<path id="Vector_19" d="M71.9238 67.0735C71.9238 67.0735 73.1638 66.4467 74.1352 67.0735" stroke="black" stroke-width="0.757777" stroke-miterlimit="10"/>
<path id="Vector_20" d="M78.6055 67.6517C78.6055 67.6517 79.8455 67.0248 80.8099 67.6517" stroke="black" stroke-width="0.757777" stroke-miterlimit="10"/>
<path id="Vector_21" d="M75.4784 81.3058C75.4784 81.3058 75.0127 84.133 74.5305 86.6929C74.4602 87.0566 74.3927 87.4148 74.3321 87.7689C74.0165 89.4925 73.7644 91.0246 73.7534 91.4889C73.6735 95.3467 77.3205 97.5718 80.8434 97.5346C85.7869 97.4809 88.6775 92.8819 88.2118 88.276C87.9073 87.4355 87.5959 86.5951 87.2914 85.7546C86.9001 84.6772 86.3917 83.6287 86.1713 82.4934C85.9766 81.3749 85.9553 80.2332 86.1079 79.1082C86.3063 77.4273 86.6329 74.9212 88.052 73.7969C89.2355 72.8655 90.4713 72.2538 91.1464 70.7975C91.6287 69.7586 91.6066 68.4208 90.6697 67.6548C89.6309 66.8143 87.9872 66.9163 86.7445 67.0389C78.7285 67.8587 77.3949 59.745 75.2262 58.6055C73.4489 57.6673 72.1152 59.7725 71.6978 60.5537L71.6812 60.5868C71.6805 60.5946 71.6771 60.6019 71.6716 60.6074C71.5958 60.7452 71.5586 60.8375 71.5586 60.8375" stroke="black" stroke-width="0.757777" stroke-miterlimit="10"/>
<path id="Vector_22" d="M75.2726 68.0098C75.2726 68.0098 74.4349 70.7515 74.4997 71.1621C74.5644 71.5727 75.5413 71.2861 75.5413 71.2861" stroke="black" stroke-width="0.757777" stroke-miterlimit="10"/>
<path id="Vector_23" d="M81.8361 70.903C83.1195 69.622 83.0959 67.5177 81.7837 66.2031C80.4715 64.8886 78.3674 64.8615 77.0841 66.1427C75.8007 67.4237 75.8243 69.5279 77.1365 70.8424C78.4486 72.1569 80.5528 72.1841 81.8361 70.903Z" stroke="black" stroke-width="0.757777" stroke-miterlimit="10"/>
<path id="Vector_24" d="M73.4611 69.8834C74.7444 68.6023 74.721 66.4982 73.4088 65.1836C72.0964 63.8691 69.9924 63.8419 68.709 65.123C67.4258 66.4041 67.4492 68.5082 68.7615 69.8227C70.0737 71.1373 72.1779 71.1644 73.4611 69.8834Z" stroke="black" stroke-width="0.757777" stroke-miterlimit="10"/>
<path id="Vector_25" d="M71.0133 64.9525C71.3791 64.9509 71.7412 65.0258 72.0763 65.1727C72.4112 65.3196 72.7119 65.5351 72.9585 65.8052C73.2051 66.0753 73.3923 66.3942 73.5082 66.7412C73.6241 67.0881 73.666 67.4555 73.6311 67.8197C73.573 68.432 73.288 69.0005 72.8323 69.4135C72.3765 69.8264 71.7827 70.054 71.1676 70.0517C70.8019 70.0533 70.4398 69.9783 70.1047 69.8314C69.7698 69.6847 69.4691 69.4692 69.2225 69.199C68.9759 68.9288 68.7886 68.61 68.6728 68.2631C68.5569 67.916 68.515 67.5487 68.5499 67.1845C68.608 66.5723 68.8929 66.0038 69.3487 65.5907C69.8045 65.1778 70.3983 64.9501 71.0133 64.9525ZM71.0133 64.5723C70.3046 64.5705 69.6207 64.8336 69.0959 65.3099C68.5711 65.7864 68.2432 66.4416 68.1765 67.1473C68.1055 67.9262 68.3402 68.7022 68.8311 69.311C69.322 69.92 70.0304 70.314 70.8067 70.4099C70.9256 70.4241 71.0452 70.4314 71.1649 70.432C71.8745 70.4347 72.5593 70.1721 73.085 69.6955C73.6107 69.2191 73.9392 68.5633 74.0059 67.8569C74.0768 67.078 73.8422 66.3021 73.3513 65.6931C72.8604 65.0843 72.1519 64.6902 71.3757 64.5943C71.2568 64.5801 71.1372 64.5728 71.0175 64.5723H71.0133Z" fill="white"/>
<path id="Vector_26" d="M76.1526 68.1159L74.3945 67.9023" stroke="black" stroke-width="0.757777" stroke-miterlimit="10"/>
<path id="Vector_27" d="M81.5667 70.6329C82.7046 69.4969 82.6839 67.6314 81.5205 66.4661C80.3572 65.3007 78.4917 65.2768 77.3538 66.4128C76.2159 67.5486 76.2365 69.4143 77.3999 70.5796C78.5632 71.7449 80.4288 71.7689 81.5667 70.6329Z" fill="#92DEBA"/>
<path id="Vector_28" d="M73.192 69.6156C74.3305 68.4792 74.3099 66.6128 73.146 65.4469C71.9822 64.281 70.1157 64.2572 68.9772 65.3936C67.8388 66.5301 67.8595 68.3964 69.0233 69.5623C70.1872 70.7283 72.0535 70.7522 73.192 69.6156Z" fill="#92DEBA"/>
<path id="Vector_29" d="M44.2219 21.7394C40.2263 21.9433 36.9197 25.1452 36.6014 29.1298C36.5065 30.2415 36.6441 31.3608 37.0056 32.4164C37.3672 33.472 37.9446 34.4407 38.7011 35.2609C39.259 35.8745 39.9099 36.3967 40.63 36.8081C40.818 36.9165 40.9954 37.0419 41.1605 37.1829C42.2387 37.7272 43.4294 38.0117 44.6373 38.0137C45.8453 38.0156 47.0368 37.7348 48.1169 37.1939C48.2739 37.048 48.4484 36.9222 48.6363 36.8191C49.3859 36.3905 50.0634 35.8464 50.6437 35.2071C50.6584 35.1863 50.6746 35.1665 50.6919 35.1479C51.7447 33.9562 52.4221 32.4804 52.6393 30.9053C52.8566 29.3304 52.6039 27.7262 51.9131 26.2942C51.2222 24.8621 50.1239 23.6659 48.7559 22.8556C47.3879 22.0454 45.8112 21.657 44.2233 21.7394H44.2219ZM49.2232 34.3612C49.2079 34.3726 49.1954 34.3872 49.186 34.4039C48.7363 34.8956 48.2123 35.314 47.6333 35.6439C47.4891 35.7228 47.3558 35.8201 47.2365 35.9332C46.4037 36.35 45.4852 36.567 44.5539 36.567C43.6227 36.567 42.7041 36.35 41.8714 35.9332C41.7424 35.8231 41.6041 35.7245 41.4581 35.6384C40.3452 34.9983 39.4577 34.0297 38.917 32.8652C38.3765 31.7008 38.2094 30.3977 38.4388 29.1346C38.6681 27.8714 39.2827 26.7102 40.1981 25.8101C41.1135 24.9102 42.2849 24.3153 43.5517 24.1073C44.8185 23.8994 46.1187 24.0885 47.2738 24.6487C48.4289 25.2089 49.3823 26.1127 50.0035 27.2361C50.6246 28.3597 50.8829 29.6478 50.7429 30.924C50.6031 32.2001 50.0717 33.4017 49.2218 34.3639L49.2232 34.3612Z" fill="#92DEBA"/>
<path id="Vector_30" d="M48.1141 37.1932C47.797 37.4809 47.5439 37.8321 47.3711 38.2241C47.1983 38.6159 47.1097 39.0396 47.1111 39.4679V39.8372C47.1111 41.1268 46.177 42.2827 44.9067 42.4123C44.5633 42.4474 44.2166 42.4103 43.8884 42.3034C43.5603 42.1964 43.2583 42.0219 43.0016 41.7912C42.7451 41.5604 42.5397 41.2785 42.3987 40.9635C42.2576 40.6486 42.1841 40.3076 42.1828 39.9626V39.4679C42.1821 39.0373 42.0912 38.6115 41.9161 38.2182C41.741 37.8247 41.4855 37.4722 41.166 37.1836C42.2443 37.7263 43.4345 38.0098 44.6417 38.0115C45.8489 38.0132 47.0399 37.7329 48.1197 37.1932H48.1141Z" fill="#353642"/>
<path id="Vector_31" d="M48.1141 37.1932C47.797 37.4809 47.5439 37.8321 47.3711 38.2241C47.1983 38.6159 47.1097 39.0396 47.1111 39.4679V39.8372C47.1111 41.1268 46.177 42.2827 44.9067 42.4123C44.5633 42.4474 44.2166 42.4103 43.8884 42.3034C43.5603 42.1964 43.2583 42.0219 43.0016 41.7912C42.7451 41.5604 42.5397 41.2785 42.3987 40.9635C42.2576 40.6486 42.1841 40.3076 42.1828 39.9626V39.4679C42.1821 39.0373 42.0912 38.6115 41.9161 38.2182C41.741 37.8247 41.4855 37.4722 41.166 37.1836C42.2443 37.7263 43.4345 38.0098 44.6417 38.0115C45.8489 38.0132 47.0399 37.7329 48.1197 37.1932H48.1141Z" stroke="black" stroke-width="0.757777" stroke-miterlimit="10"/>
<path id="Vector_32" d="M52.7149 29.7991C52.7191 31.7704 51.9982 33.6745 50.6896 35.149C50.6732 35.1668 50.658 35.1857 50.6441 35.2055C50.0629 35.8459 49.3839 36.3904 48.6326 36.8189C48.4459 36.9232 48.2722 37.049 48.1145 37.1936C47.0348 37.7334 45.8438 38.0135 44.6366 38.0119C43.4294 38.0102 42.2393 37.7267 41.1609 37.184C40.9963 37.0408 40.8181 36.9139 40.6291 36.8051C39.2983 36.04 38.2129 34.9119 37.4997 33.5527C36.7865 32.1934 36.4751 30.6592 36.6018 29.1295C36.7696 27.0504 37.7359 25.1173 39.2979 23.7351C40.86 22.3529 42.8965 21.6293 44.9804 21.716C47.0643 21.8025 49.0338 22.6927 50.4758 24.1995C51.9178 25.7066 52.7202 27.7133 52.7149 29.7991Z" stroke="black" stroke-width="0.757777" stroke-miterlimit="10"/>
<path id="Vector_33" d="M42.3627 38.0117L40.5137 31.8834L40.0508 30.1474C40.0508 30.0952 40.068 30.0445 40.0997 30.003C40.1315 29.9617 40.176 29.9319 40.2264 29.9184C40.2769 29.9049 40.3303 29.9083 40.3786 29.9283C40.4268 29.9483 40.467 29.9837 40.493 30.0289C40.9064 30.7591 41.5594 31.6753 42.2098 31.6519C43.2886 31.6133 42.4026 28.3384 41.5209 28.6814C40.6391 29.0245 42.3296 31.189 44.0711 31.459C45.8126 31.7291 45.3359 28.8013 44.0711 28.6856C42.8063 28.5698 43.6785 31.0361 45.9518 31.459C48.2251 31.882 47.8008 29.3786 47.1849 28.8785C46.569 28.3783 46.7606 31.2661 48.1879 31.7291C48.6398 31.8765 48.9994 31.561 49.1758 31.1683C49.2778 30.9396 49.2254 29.7823 49.016 30.1391C48.5889 30.8707 48.5048 31.7842 48.2954 32.5916C47.8504 34.3 47.1698 35.9354 46.7798 37.659" stroke="black" stroke-width="0.757777" stroke-miterlimit="10"/>
<path id="Vector_34" d="M30.2108 138C31.1863 137.543 121.144 138 121.144 138" stroke="black" stroke-width="0.757777" stroke-miterlimit="10"/>
<path id="Vector_35" d="M44.6366 18.8539L44.5566 14" stroke="black" stroke-width="1.01129" stroke-miterlimit="10"/>
<path id="Vector_36" d="M35.38 23.3689L32.0196 19.8652" stroke="black" stroke-width="1.01129" stroke-miterlimit="10"/>
<path id="Vector_37" d="M53.9299 23.587L57.3647 20.1562" stroke="black" stroke-width="1.01129" stroke-miterlimit="10"/>
<path id="Vector_38" d="M105.422 131.377L105.539 131.388C105.476 131.399 105.402 131.41 105.337 131.425H105.238L95.9088 131.377H94.8548L79.1812 131.297C79.1219 131.297 79.0627 131.297 79.0035 131.297C78.9894 131.299 78.9749 131.299 78.9607 131.297C78.9607 131.297 78.9607 131.297 78.9511 131.297C78.8524 131.298 78.7538 131.291 78.6562 131.276C79.4945 131.181 80.2889 130.851 80.9475 130.324C81.0508 130.237 81.1569 130.155 81.2534 130.061L81.2644 130.05C81.2868 130.032 81.3081 130.012 81.3278 129.991C82.1244 129.203 82.6014 128.148 82.667 127.03C82.667 126.976 82.667 126.917 82.667 126.863V126.778C82.6621 125.734 82.2981 124.723 81.636 123.916C80.9739 123.108 80.054 122.553 79.031 122.344C79.0295 122.343 79.0276 122.342 79.0255 122.342C79.0234 122.342 79.0215 122.343 79.02 122.344C78.918 122.318 78.8009 122.301 78.6935 122.285L78.9235 122.27C78.9612 122.267 78.9989 122.267 79.0365 122.27C79.0999 122.27 79.1591 122.27 79.2184 122.27L92.4602 122.339L94.8975 122.35L97.0606 122.361H98.0678H98.1904C98.2069 122.361 98.2165 122.361 98.2331 122.361C99.3499 122.473 100.385 122.996 101.139 123.827C101.893 124.659 102.312 125.741 102.314 126.863C102.314 127.077 102.298 127.29 102.266 127.501C102.11 128.55 101.591 129.511 100.8 130.217C100.009 130.924 98.9953 131.33 97.9355 131.367C97.8873 131.367 97.839 131.367 97.7977 131.367H105.665C105.55 131.371 105.476 131.371 105.422 131.377Z" fill="white"/>
<path id="Vector_39" d="M84.355 136.855C84.6526 137.154 85.0064 137.392 85.396 137.553C85.7858 137.715 86.2037 137.798 86.6255 137.797H78.9403C77.4688 137.797 76.6697 137.439 76.0869 136.855C75.4848 136.252 75.146 135.436 75.1445 134.584C75.1445 132.824 76.5898 131.377 78.9403 131.377H86.6255C85.9904 131.376 85.3693 131.564 84.8409 131.916C84.3125 132.268 83.9006 132.77 83.6574 133.356C83.4142 133.943 83.3507 134.589 83.4748 135.212C83.5991 135.834 83.9054 136.406 84.355 136.855Z" fill="#D7E8F0"/>
<path id="Vector_40" d="M105.454 131.388C105.46 131.387 105.466 131.387 105.472 131.389C105.466 131.389 105.46 131.389 105.454 131.388C105.433 131.387 105.412 131.384 105.392 131.378H97.9355C98.9051 131.327 99.8322 130.964 100.58 130.344C100.692 130.252 100.8 130.154 100.902 130.05C100.987 129.967 101.068 129.879 101.143 129.787C101.201 129.723 101.254 129.655 101.303 129.584C101.335 129.546 101.362 129.509 101.388 129.471C101.439 129.403 101.485 129.331 101.526 129.257C101.589 129.169 101.644 129.077 101.693 128.981C101.744 128.889 101.79 128.794 101.831 128.697C101.851 128.654 101.868 128.606 101.895 128.559C101.932 128.463 101.964 128.367 101.996 128.27C102.04 128.132 102.083 127.986 102.114 127.843C102.134 127.765 102.148 127.687 102.157 127.607C102.163 127.588 102.167 127.568 102.168 127.548C102.174 127.533 102.178 127.517 102.179 127.5C102.179 127.446 102.194 127.398 102.2 127.344V127.312C102.22 127.163 102.229 127.013 102.227 126.862C102.229 126.793 102.226 126.723 102.216 126.654V126.606C102.216 126.537 102.211 126.469 102.2 126.402C102.163 126.03 102.079 125.665 101.948 125.315C101.875 125.105 101.783 124.902 101.672 124.71C101.571 124.516 101.453 124.332 101.319 124.159C101.285 124.108 101.247 124.06 101.206 124.014C101.19 123.998 101.175 123.976 101.153 123.955C101.081 123.861 101.002 123.773 100.917 123.692C100.854 123.628 100.779 123.564 100.715 123.495C100.65 123.426 100.542 123.344 100.451 123.28C100.36 123.215 100.301 123.168 100.221 123.115C100.103 123.028 99.9773 122.951 99.8465 122.884C99.7247 122.813 99.5977 122.752 99.4663 122.701C99.3141 122.636 99.1587 122.579 99.0006 122.53C98.9467 122.51 98.8908 122.496 98.8339 122.488C98.6864 122.446 98.5364 122.413 98.3847 122.391C98.3089 122.375 98.2345 122.369 98.1546 122.359H98.1436C98.1333 122.362 98.1222 122.362 98.1119 122.359H98.1436H98.1546C98.2345 122.369 98.3089 122.375 98.3847 122.391C98.5364 122.413 98.6864 122.446 98.8339 122.488C98.8908 122.496 98.9467 122.51 99.0006 122.53C99.1587 122.579 99.3141 122.636 99.4663 122.701C99.5977 122.752 99.7247 122.813 99.8465 122.884C99.9773 122.951 100.103 123.028 100.221 123.115C100.301 123.168 100.36 123.215 100.451 123.28C100.542 123.344 100.65 123.426 100.715 123.495C100.779 123.564 100.854 123.628 100.917 123.692C101.002 123.773 101.081 123.861 101.153 123.955C101.175 123.976 101.19 123.998 101.206 124.014C101.247 124.06 101.285 124.108 101.319 124.159C101.453 124.332 101.571 124.516 101.672 124.71C101.783 124.902 101.875 125.105 101.948 125.315C102.079 125.665 102.163 126.03 102.2 126.402C102.211 126.469 102.216 126.537 102.216 126.606V126.654C102.226 126.723 102.229 126.793 102.227 126.862C102.229 127.013 102.22 127.163 102.2 127.312V127.344C102.194 127.398 102.179 127.446 102.179 127.5C102.178 127.517 102.174 127.533 102.168 127.548C102.167 127.568 102.163 127.588 102.157 127.607C102.148 127.687 102.134 127.765 102.114 127.843C102.083 127.986 102.04 128.132 101.996 128.27C101.964 128.367 101.932 128.463 101.895 128.559C101.868 128.606 101.851 128.654 101.831 128.697C101.79 128.794 101.744 128.889 101.693 128.981C101.644 129.077 101.589 129.169 101.526 129.257C101.485 129.331 101.439 129.403 101.388 129.471C101.362 129.509 101.335 129.546 101.303 129.584C101.254 129.655 101.201 129.723 101.143 129.787C101.068 129.879 100.987 129.967 100.902 130.05C100.8 130.154 100.692 130.252 100.58 130.344C99.8322 130.964 98.9051 131.327 97.9355 131.378H105.392C105.41 131.376 105.428 131.376 105.446 131.378H105.392C105.412 131.384 105.433 131.387 105.454 131.388Z" fill="#92DEBA"/>
<path id="Vector_41" d="M109.759 126.93C109.759 127.015 109.759 127.106 109.748 127.192C109.737 127.336 109.722 127.476 109.7 127.615C109.689 127.689 109.674 127.765 109.657 127.839C109.626 127.977 109.589 128.129 109.546 128.268C109.498 128.421 109.44 128.572 109.374 128.718C109.352 128.776 109.325 128.831 109.294 128.884C109.294 128.9 109.283 128.911 109.272 128.926C109.24 128.997 109.203 129.064 109.166 129.13C109.106 129.238 109.042 129.344 108.973 129.446C108.891 129.57 108.8 129.681 108.709 129.794C108.617 129.907 108.519 130.014 108.415 130.115C108.306 130.226 108.19 130.33 108.067 130.427L107.93 130.538C107.773 130.657 107.608 130.764 107.436 130.859C107.357 130.902 107.271 130.946 107.186 130.989C107.178 130.995 107.168 130.998 107.158 130.999C107.062 131.047 106.965 131.085 106.869 131.123C106.772 131.16 106.676 131.197 106.575 131.229C106.473 131.256 106.371 131.288 106.269 131.31L106.185 131.325C106.105 131.343 106.026 131.358 105.944 131.371C105.8 131.395 105.655 131.412 105.509 131.422C105.42 131.431 105.331 131.434 105.242 131.433C105.242 131.433 105.225 131.433 105.22 131.433L95.9058 131.387L93.711 131.376L79.0818 131.302C79.0279 131.301 78.974 131.297 78.9206 131.291C78.7979 131.291 78.6794 131.28 78.5568 131.27C79.6167 131.144 80.5986 130.649 81.3315 129.873C82.0644 129.097 82.5018 128.089 82.5675 127.024C82.5675 126.97 82.5675 126.911 82.5675 126.851V126.794C82.5689 125.744 82.2068 124.726 81.5432 123.913C80.8793 123.1 79.9547 122.541 78.9261 122.332C78.8186 122.31 78.7111 122.295 78.5995 122.279C78.7062 122.266 78.8132 122.259 78.9206 122.258C78.9582 122.255 78.9959 122.255 79.0335 122.258H79.1245L93.7537 122.332L97.0604 122.349H98.1419H98.2329L105.26 122.386C105.49 122.387 105.72 122.405 105.948 122.44C106.531 122.535 107.089 122.742 107.592 123.05C107.657 123.087 107.715 123.13 107.774 123.167C107.953 123.289 108.122 123.424 108.282 123.57C108.336 123.618 108.384 123.666 108.438 123.72C108.846 124.133 109.173 124.62 109.402 125.154L109.484 125.363C109.511 125.431 109.534 125.501 109.553 125.571C109.69 126.011 109.76 126.469 109.759 126.93Z" stroke="black" stroke-width="0.757777" stroke-linecap="square" stroke-linejoin="round"/>
<path id="Vector_42" d="M102.22 126.848C102.221 126.999 102.214 127.149 102.198 127.299C102.198 127.31 102.198 127.32 102.198 127.331C102.187 127.401 102.178 127.468 102.167 127.535C102.166 127.555 102.162 127.575 102.156 127.594C102.146 127.673 102.132 127.752 102.113 127.829C102.081 127.967 102.039 128.117 101.994 128.256C101.963 128.353 101.931 128.449 101.894 128.546C101.866 128.594 101.85 128.642 101.829 128.684C101.789 128.781 101.743 128.876 101.691 128.967C101.643 129.063 101.587 129.156 101.525 129.243C101.484 129.318 101.438 129.39 101.387 129.458C101.361 129.495 101.333 129.532 101.301 129.571C101.253 129.642 101.199 129.709 101.142 129.773C101.066 129.866 100.986 129.954 100.901 130.037C100.798 130.138 100.69 130.234 100.578 130.325C99.8325 130.948 98.9058 131.314 97.9355 131.369C97.8873 131.369 97.8391 131.369 97.7978 131.369H79.1027C78.9319 131.369 78.7555 131.359 78.5778 131.343C78.6931 131.329 78.8076 131.309 78.9208 131.283C78.9298 131.287 78.9394 131.287 78.9484 131.283H78.958C79.8267 131.102 80.6235 130.671 81.2507 130.043L81.2617 130.032C82.0591 129.227 82.5252 128.151 82.5678 127.018C82.5678 126.964 82.5678 126.905 82.5678 126.846V126.84C82.5593 125.736 82.149 124.672 81.4138 123.848C80.6785 123.024 79.6684 122.496 78.5723 122.362C78.6908 122.347 78.8079 122.342 78.9264 122.336C78.9564 122.331 78.9872 122.331 79.0173 122.336C79.0188 122.335 79.0207 122.334 79.0228 122.334C79.0249 122.334 79.0268 122.335 79.0283 122.336C79.0512 122.333 79.0743 122.333 79.0972 122.336H97.6944C97.8239 122.336 97.9466 122.336 98.0706 122.353H98.1133C98.1236 122.355 98.1346 122.355 98.145 122.353H98.167L98.3861 122.384C98.5378 122.407 98.6878 122.439 98.8352 122.481C98.889 122.492 98.9482 122.507 99.0019 122.524C99.1601 122.572 99.3155 122.629 99.4676 122.694C99.5958 122.748 99.7253 122.813 99.8479 122.878C99.9774 122.947 100.103 123.023 100.223 123.108C100.303 123.161 100.378 123.214 100.453 123.273C100.527 123.332 100.629 123.411 100.716 123.488C100.803 123.565 100.854 123.626 100.918 123.685C101 123.772 101.08 123.857 101.154 123.948C101.176 123.969 101.191 123.991 101.208 124.007L101.321 124.152C101.45 124.328 101.567 124.512 101.673 124.703C101.777 124.899 101.87 125.101 101.949 125.308C102.075 125.659 102.16 126.024 102.201 126.395C102.201 126.465 102.212 126.533 102.218 126.599V126.647C102.22 126.709 102.22 126.779 102.22 126.848Z" stroke="black" stroke-width="0.757777" stroke-linecap="square" stroke-linejoin="round"/>
<path id="Vector_43" d="M105.658 137.793H78.9373C78.3418 137.809 77.7479 137.724 77.1806 137.542C77.0677 137.499 76.9616 137.457 76.8596 137.404C76.7577 137.351 76.6667 137.297 76.5758 137.243C76.4849 137.189 76.405 137.121 76.3237 137.056C76.2438 136.986 76.1694 136.918 76.0991 136.846C75.7323 136.48 75.4605 136.03 75.3069 135.535C75.2093 135.226 75.1605 134.905 75.1622 134.581C75.1612 134.456 75.1685 134.331 75.1842 134.207C75.2045 134.032 75.242 133.86 75.2958 133.693C75.3704 133.428 75.4862 133.177 75.6389 132.949C75.7261 132.799 75.8301 132.661 75.9489 132.535C76.0219 132.454 76.0991 132.377 76.1804 132.304C76.8334 131.721 77.7813 131.361 78.9538 131.361H105.658C105.55 131.361 105.476 131.361 105.422 131.361C105.405 131.359 105.386 131.359 105.369 131.361C105.315 131.361 105.326 131.361 105.352 131.361C105.354 131.363 105.355 131.364 105.358 131.364C105.36 131.364 105.362 131.363 105.363 131.361C105.375 131.364 105.388 131.364 105.4 131.361C105.411 131.361 105.417 131.361 105.428 131.361C105.369 131.372 105.309 131.378 105.25 131.393H105.238C105.238 131.393 105.221 131.393 105.216 131.393C104.485 131.538 103.828 131.932 103.354 132.507C102.881 133.081 102.621 133.802 102.619 134.547C102.623 135.332 102.913 136.089 103.434 136.676C103.955 137.264 104.672 137.641 105.451 137.739C105.32 137.789 105.198 137.793 105.658 137.793Z" stroke="black" stroke-width="0.757777" stroke-linecap="square" stroke-linejoin="round"/>
<path id="Vector_44" d="M105.443 137.778C105.32 137.789 105.198 137.793 105.074 137.793H86.6211C86.2 137.793 85.7832 137.71 85.3946 137.548C85.0059 137.386 84.6529 137.15 84.356 136.851C83.9894 136.485 83.7174 136.035 83.5638 135.539C83.4686 135.231 83.4221 134.909 83.426 134.586C83.4275 133.735 83.7656 132.92 84.3667 132.318C84.9677 131.716 85.7827 131.376 86.6335 131.373H105.074C105.165 131.373 105.261 131.373 105.349 131.384C105.365 131.387 105.381 131.387 105.397 131.384C105.408 131.384 105.414 131.384 105.425 131.384C105.366 131.395 105.306 131.401 105.247 131.416H105.238C105.238 131.416 105.221 131.416 105.216 131.416C104.485 131.561 103.828 131.954 103.354 132.529C102.881 133.104 102.621 133.825 102.618 134.569C102.623 135.355 102.912 136.112 103.434 136.699C103.955 137.286 104.672 137.664 105.451 137.762L105.443 137.778Z" stroke="black" stroke-width="0.757777" stroke-linecap="square" stroke-linejoin="round"/>
<path id="Vector_45" d="M83.4145 134.586C83.4145 135.437 83.7525 136.253 84.3539 136.854C84.9554 137.456 85.7714 137.793 86.622 137.793H78.9381C77.4708 137.793 76.6676 137.435 76.0834 136.851C75.7856 136.554 75.5496 136.201 75.3888 135.812C75.2281 135.423 75.1457 135.007 75.1465 134.586C75.1465 132.82 76.5876 131.373 78.9381 131.373H86.622C85.7712 131.376 84.9563 131.716 84.3553 132.318C83.7542 132.92 83.4159 133.735 83.4145 134.586Z" stroke="black" stroke-width="0.757777" stroke-linecap="square" stroke-linejoin="round"/>
<path id="Vector_46" d="M105.658 137.792H105.074C105.198 137.792 105.321 137.792 105.443 137.777C105.321 137.788 105.198 137.792 105.658 137.792Z" stroke="black" stroke-width="0.757777" stroke-linecap="square" stroke-linejoin="round"/>
<path id="Vector_47" d="M105.401 131.388C105.295 131.388 105.182 131.371 105.074 131.371H105.658C105.251 131.374 105.299 131.388 105.401 131.388Z" stroke="black" stroke-width="0.757777" stroke-linecap="square" stroke-linejoin="round"/>
<path id="Vector_48" opacity="0.54" d="M25.3265 125.709L15.762 101.206C15.6435 100.733 15.6346 100.238 15.736 99.7597C15.8373 99.2816 16.0463 98.833 16.347 98.4479C16.6477 98.0627 17.0322 97.7512 17.4713 97.5368C17.9105 97.3225 18.3927 97.2111 18.8813 97.2109H56.8776C57.7306 97.2108 58.5588 97.4978 59.2289 98.0256C59.899 98.5534 60.3719 99.2915 60.5714 100.121L71.0426 124.62C71.1561 125.093 71.1609 125.586 71.0567 126.061C70.9526 126.536 70.7419 126.981 70.4409 127.362C70.1398 127.744 69.7561 128.053 69.3187 128.265C68.8811 128.477 68.4012 128.587 67.915 128.587H29.0093C28.1624 128.587 27.3397 128.304 26.6723 127.782C26.0051 127.261 25.5313 126.531 25.3265 125.709Z" fill="white"/>
<path id="Vector_49" d="M25.3265 125.709L15.762 101.206C15.6435 100.733 15.6346 100.238 15.736 99.7597C15.8373 99.2816 16.0463 98.833 16.347 98.4479C16.6477 98.0627 17.0322 97.7512 17.4713 97.5368C17.9105 97.3225 18.3927 97.2111 18.8813 97.2109H56.8776C57.7306 97.2108 58.5588 97.4978 59.2289 98.0256C59.899 98.5534 60.3719 99.2915 60.5714 100.121L71.0426 124.62C71.1561 125.093 71.1609 125.586 71.0567 126.061C70.9526 126.536 70.7419 126.981 70.4409 127.362C70.1398 127.744 69.7561 128.053 69.3187 128.265C68.8811 128.477 68.4012 128.587 67.915 128.587H29.0093C28.1624 128.587 27.3397 128.304 26.6723 127.782C26.0051 127.261 25.5313 126.531 25.3265 125.709Z" fill="#92DEBA"/>
<path id="Vector_50" d="M25.3265 125.709L15.762 101.206C15.6435 100.733 15.6346 100.238 15.736 99.7597C15.8373 99.2816 16.0463 98.833 16.347 98.4479C16.6477 98.0627 17.0322 97.7512 17.4713 97.5368C17.9105 97.3225 18.3927 97.2111 18.8813 97.2109H56.8776C57.7306 97.2108 58.5588 97.4978 59.2289 98.0256C59.899 98.5534 60.3719 99.2915 60.5714 100.121L71.0426 124.62C71.1561 125.093 71.1609 125.586 71.0567 126.061C70.9526 126.536 70.7419 126.981 70.4409 127.362C70.1398 127.744 69.7561 128.053 69.3187 128.265C68.8811 128.477 68.4012 128.587 67.915 128.587H29.0093C28.1624 128.587 27.3397 128.304 26.6723 127.782C26.0051 127.261 25.5313 126.531 25.3265 125.709Z" stroke="black" stroke-width="0.757777" stroke-linecap="square" stroke-linejoin="round"/>
<path id="Vector_51" d="M26.723 124.716L17.9053 102.111C17.7958 101.674 17.7874 101.217 17.8806 100.777C17.9738 100.336 18.1662 99.9219 18.4432 99.5664C18.7203 99.2111 19.0746 98.9235 19.4794 98.7256C19.8841 98.5276 20.3287 98.4244 20.7793 98.4238H55.8272C56.6142 98.424 57.3782 98.6889 57.9962 99.176C58.6142 99.6631 59.0504 100.344 59.2344 101.109L68.894 123.705C68.9987 124.141 69.0033 124.595 68.9073 125.033C68.8111 125.472 68.617 125.882 68.3392 126.235C68.0616 126.587 67.7076 126.872 67.3039 127.068C66.9004 127.263 66.4576 127.365 66.009 127.365H30.1234C29.3425 127.366 28.5837 127.105 27.9677 126.625C27.3517 126.145 26.9137 125.473 26.723 124.716Z" fill="#92DEBA"/>
<path id="Vector_52" d="M53.296 102.58C52.8317 101.882 52.0726 101.572 51.5986 101.892C51.1247 102.211 51.1178 103.028 51.5821 103.727C51.6553 103.833 51.7374 103.933 51.8273 104.026L48.3829 111.296C47.8318 110.93 47.2297 110.839 46.7971 111.128C46.6574 111.23 46.5416 111.361 46.4581 111.512C46.3745 111.663 46.3252 111.831 46.3135 112.003L43.9602 111.208L41.9032 110.519L41.2309 110.299C41.1465 110.046 41.0294 109.806 40.8823 109.584C40.2292 108.603 39.1628 108.167 38.4973 108.61C37.8319 109.052 37.825 110.183 38.4601 111.157L34.5459 116.507C33.6917 115.806 32.6845 115.589 31.9873 116.052C31.0394 116.685 31.0229 118.331 31.9557 119.731C31.9929 119.786 32.0356 119.833 32.0741 119.885L29.4605 123.457L29.4371 123.491C29.3635 123.59 29.3107 123.704 29.2824 123.824C29.2538 123.944 29.2501 124.069 29.2715 124.191C29.2928 124.312 29.3387 124.429 29.4064 124.532C29.474 124.636 29.5619 124.724 29.665 124.792C29.7679 124.861 29.8838 124.907 30.0054 124.93C30.1269 124.952 30.2518 124.949 30.3723 124.921C30.4927 124.894 30.6064 124.842 30.7062 124.769C30.8059 124.696 30.8898 124.603 30.9526 124.497L33.2769 120.999C34.0099 121.424 34.7925 121.506 35.3615 121.125C36.2681 120.522 36.3108 118.995 35.4993 117.64L39.2537 111.973C39.8049 112.349 40.4193 112.445 40.8575 112.155C41.1024 111.982 41.2693 111.72 41.3218 111.424L41.5973 111.503L43.6902 112.075L46.3686 112.797C46.45 113.117 46.585 113.422 46.7681 113.698C47.4198 114.677 48.4876 115.114 49.1531 114.672C49.8185 114.23 49.8268 113.076 49.1751 112.097C49.0789 111.954 48.9711 111.82 48.8527 111.696L52.1304 104.285C52.5259 104.56 52.9571 104.622 53.2754 104.414C53.7562 104.107 53.7631 103.28 53.296 102.58Z" fill="white"/>
<path id="Vector_53" d="M28.3596 102.982H23.2825C23.0489 102.983 22.8202 102.916 22.6244 102.789C22.4285 102.662 22.2742 102.48 22.1802 102.266C22.1513 102.2 22.1359 102.13 22.1348 102.058C22.1363 101.919 22.1921 101.787 22.2903 101.69C22.3887 101.592 22.5214 101.537 22.6597 101.537H28.0592C27.8085 101.966 27.9462 102.561 28.3596 102.982Z" fill="#D7E8F0"/>
<path id="Vector_54" d="M31.6456 102.462C31.6449 102.6 31.5895 102.732 31.4918 102.83C31.394 102.927 31.2616 102.982 31.1234 102.982H28.3582C27.9366 102.561 27.8071 101.966 28.062 101.537H30.5006C30.7338 101.536 30.9622 101.603 31.1578 101.729C31.3536 101.856 31.5084 102.036 31.6029 102.249C31.6314 102.317 31.6459 102.389 31.6456 102.462Z" fill="#92DEBA"/>
<path id="Vector_55" d="M30.3764 102.981C30.3615 103.009 30.345 103.035 30.3268 103.061C29.9631 103.556 29.1778 103.603 28.5674 103.156C28.4944 103.104 28.4256 103.045 28.3621 102.981C27.9405 102.56 27.811 101.964 28.0659 101.536C28.0797 101.508 28.0963 101.481 28.1155 101.456C28.4751 100.959 29.2604 100.916 29.8708 101.358C29.9449 101.411 30.0146 101.471 30.0788 101.536C30.4977 101.959 30.6272 102.549 30.3764 102.981Z" fill="white"/>
<path id="Vector_56" d="M32.9225 105.649C32.9214 105.788 32.8656 105.92 32.7673 106.018C32.6689 106.115 32.536 106.17 32.3975 106.17H27.0669C27.3245 105.737 27.1964 105.148 26.7734 104.725H31.7803C32.0138 104.724 32.2425 104.791 32.4383 104.918C32.6342 105.045 32.7885 105.227 32.8825 105.441C32.9095 105.507 32.9231 105.578 32.9225 105.649Z" fill="#92DEBA"/>
<path id="Vector_57" d="M27.0654 106.174H24.5579C24.3247 106.175 24.0963 106.108 23.9007 105.982C23.7049 105.855 23.5501 105.674 23.4556 105.461C23.4267 105.395 23.4113 105.323 23.4102 105.251C23.4098 105.182 23.423 105.114 23.449 105.051C23.4751 104.987 23.5134 104.93 23.5619 104.881C23.6102 104.833 23.6678 104.794 23.7311 104.768C23.7944 104.742 23.8624 104.728 23.931 104.729H26.7719C27.1949 105.147 27.3231 105.737 27.0654 106.174Z" fill="#D7E8F0"/>
<path id="Vector_58" d="M27.0653 106.173C27.0539 106.202 27.0386 106.229 27.0199 106.253C26.6603 106.752 25.8736 106.794 25.2632 106.352C25.1877 106.298 25.1163 106.238 25.0496 106.173C24.6363 105.751 24.4985 105.16 24.7534 104.728C24.7669 104.7 24.7836 104.673 24.803 104.649C25.1654 104.153 25.9507 104.108 26.5624 104.553C26.6348 104.606 26.703 104.664 26.7664 104.728C27.1948 105.147 27.323 105.736 27.0653 106.173Z" fill="white"/>
<path id="Vector_59" d="M28.8425 109.343H25.6516C25.4185 109.344 25.1902 109.277 24.9945 109.15C24.7989 109.023 24.6442 108.842 24.5494 108.629C24.5204 108.564 24.505 108.493 24.5039 108.421C24.5043 108.282 24.5597 108.149 24.6581 108.051C24.7565 107.952 24.8897 107.897 25.0288 107.896H28.5394C28.2942 108.322 28.4237 108.913 28.8425 109.343Z" fill="#92DEBA"/>
<path id="Vector_60" d="M34.0152 108.817C34.0145 108.955 33.9591 109.087 33.8611 109.184C33.7633 109.281 33.6309 109.336 33.493 109.335H28.843C28.4297 108.912 28.2919 108.321 28.5454 107.889H32.873C33.1054 107.889 33.3329 107.956 33.5276 108.083C33.7221 108.211 33.8753 108.392 33.9683 108.605C33.9982 108.672 34.0142 108.744 34.0152 108.817Z" fill="#D7E8F0"/>
<path id="Vector_61" d="M30.8559 109.341C30.8424 109.369 30.8258 109.395 30.8063 109.419C30.4467 109.918 29.6614 109.961 29.051 109.519C28.9777 109.464 28.9083 109.405 28.843 109.341C28.4297 108.918 28.2919 108.327 28.5454 107.894C28.5599 107.867 28.5765 107.841 28.595 107.816C28.9587 107.321 29.7441 107.277 30.3544 107.719C30.4269 107.773 30.4955 107.831 30.5597 107.894C30.9758 108.31 31.1136 108.904 30.8559 109.341Z" fill="white"/>
<path id="Vector_62" d="M49.4742 124.269H46.2819C46.0488 124.27 45.8205 124.202 45.6248 124.076C45.429 123.949 45.2744 123.768 45.1797 123.555C45.1496 123.49 45.1336 123.419 45.1328 123.347C45.1332 123.208 45.1886 123.075 45.287 122.976C45.3854 122.878 45.5186 122.823 45.6577 122.822H49.1697C48.9258 123.258 49.0553 123.846 49.4742 124.269Z" fill="#92DEBA"/>
<path id="Vector_63" d="M62.1425 123.751C62.1424 123.819 62.1287 123.887 62.1024 123.95C62.0763 124.013 62.0378 124.07 61.9895 124.118C61.9411 124.166 61.8836 124.204 61.8205 124.23C61.7576 124.256 61.6899 124.269 61.6217 124.269H49.4739C49.0605 123.846 48.9227 123.255 49.1763 122.822H61.0003C61.2328 122.822 61.4602 122.89 61.6549 123.017C61.8495 123.144 62.0027 123.326 62.0957 123.539C62.1256 123.606 62.1416 123.678 62.1425 123.751Z" fill="#D7E8F0"/>
<path id="Vector_64" d="M51.4868 124.269C51.4733 124.296 51.4566 124.323 51.4372 124.347C51.0776 124.846 50.2923 124.889 49.6819 124.446C49.6083 124.392 49.5389 124.333 49.4739 124.269C49.0605 123.846 48.9227 123.254 49.1763 122.822C49.1907 122.794 49.2074 122.768 49.2259 122.743C49.5896 122.249 50.3749 122.205 50.9853 122.647C51.0578 122.7 51.1264 122.759 51.1906 122.822C51.6122 123.245 51.7417 123.839 51.4868 124.269Z" fill="white"/>
</g>
</g>
</svg>
