<svg width="56" height="56" viewBox="0 0 56 56" fill="none" xmlns="http://www.w3.org/2000/svg">
<path opacity="0.4" d="M39.1286 44.2864H16.8686C15.8886 44.2864 15.0019 43.6564 14.6753 42.7464L4.96861 15.5631C4.19861 13.3931 6.67194 11.5498 8.51527 12.8798L17.8486 19.5531C19.0853 20.4398 20.8586 19.9031 21.3953 18.4798L25.8053 6.71977C26.5519 4.68977 29.4219 4.68977 30.1686 6.71977L34.5786 18.4798C35.1153 19.9264 36.8653 20.4398 38.1253 19.5531L47.4586 12.8798C49.3253 11.5498 51.7753 13.4164 51.0053 15.5631L41.2986 42.7464C40.9953 43.6564 40.1086 44.2864 39.1286 44.2864Z" fill="#F79009"/>
<path d="M39.6654 51.334H16.332C15.3754 51.334 14.582 50.5407 14.582 49.584C14.582 48.6273 15.3754 47.834 16.332 47.834H39.6654C40.622 47.834 41.4154 48.6273 41.4154 49.584C41.4154 50.5407 40.622 51.334 39.6654 51.334Z" fill="#F79009"/>
<path d="M33.8346 34.416H22.168C21.2113 34.416 20.418 33.6227 20.418 32.666C20.418 31.7093 21.2113 30.916 22.168 30.916H33.8346C34.7913 30.916 35.5846 31.7093 35.5846 32.666C35.5846 33.6227 34.7913 34.416 33.8346 34.416Z" fill="#F79009"/>
</svg>
