<svg width="24" height="24" viewBox="0 0 24 24" fill="none" xmlns="http://www.w3.org/2000/svg">
<path d="M12 12.2496C11.56 12.2496 11.12 12.1396 10.72 11.9296L4.21 8.41961C3.62 8.09961 3.25 7.46961 3.25 6.76961C3.25 6.06961 3.62 5.43961 4.21 5.11961L10.72 1.60961C11.52 1.17961 12.48 1.17961 13.27 1.60961L19.78 5.11961C20.37 5.43961 20.74 6.06961 20.74 6.76961C20.74 7.46961 20.37 8.09961 19.78 8.41961L13.27 11.9296C12.88 12.1496 12.44 12.2496 12 12.2496ZM12 2.77961C11.81 2.77961 11.61 2.82961 11.43 2.92961L4.93 6.42961C4.76 6.51961 4.75 6.70961 4.75 6.76961C4.75 6.82961 4.76 7.01961 4.93 7.09961L11.44 10.6096C11.8 10.7996 12.21 10.7996 12.57 10.6096L19.08 7.09961C19.24 7.00961 19.26 6.81961 19.26 6.76961C19.26 6.70961 19.25 6.51961 19.08 6.43961L12.57 2.92961C12.39 2.82961 12.19 2.77961 12 2.77961Z" fill="#DA3E33"/>
<path d="M9.78 22.7198C9.5 22.7198 9.21 22.6498 8.95 22.5198L2.89 19.4998C1.88 18.9898 1.25 17.9698 1.25 16.8398V11.1198C1.25 10.4698 1.58 9.87977 2.13 9.53977C2.69 9.19977 3.36 9.16977 3.94 9.45977L10 12.4798C11.01 12.9898 11.64 13.9998 11.64 15.1398V20.8598C11.64 21.5098 11.31 22.0998 10.76 22.4398C10.46 22.6298 10.12 22.7198 9.78 22.7198ZM3.11 10.7598C3.03 10.7598 2.96 10.7898 2.92 10.8098C2.86 10.8498 2.75 10.9398 2.75 11.1198V16.8398C2.75 17.3998 3.06 17.9098 3.56 18.1598L9.61 21.1898C9.77 21.2698 9.9 21.2098 9.96 21.1798C10.02 21.1398 10.13 21.0498 10.13 20.8698V15.1498C10.13 14.5898 9.82 14.0798 9.32 13.8298L3.27 10.7998C3.21 10.7698 3.16 10.7598 3.11 10.7598Z" fill="#DA3E33"/>
<path d="M14.22 22.72C13.88 22.72 13.54 22.63 13.24 22.44C12.69 22.1 12.36 21.51 12.36 20.86V15.14C12.36 14.01 12.99 12.99 14 12.48L20.05 9.45C20.63 9.16 21.31 9.19 21.86 9.53C22.41 9.87 22.74 10.46 22.74 11.11V16.83C22.74 17.96 22.11 18.98 21.1 19.49L15.05 22.52C14.79 22.66 14.5 22.72 14.22 22.72ZM20.89 10.76C20.84 10.76 20.79 10.77 20.73 10.8L14.68 13.83C14.18 14.08 13.87 14.58 13.87 15.15V20.87C13.87 21.05 13.98 21.14 14.04 21.18C14.1 21.22 14.23 21.27 14.39 21.19L20.44 18.16C20.94 17.91 21.25 17.4 21.25 16.84V11.12C21.25 10.94 21.14 10.85 21.08 10.81C21.04 10.79 20.97 10.76 20.89 10.76Z" fill="#DA3E33"/>
</svg>
