<svg width="153" height="152" viewBox="0 0 153 152" fill="none" xmlns="http://www.w3.org/2000/svg">
<g id="Illustration - Business, analytics, sucess, startup, Technology _ account, setting, options, preferences">
<g id="Business, analytics, sucess, startup, Technology _ account, setting, options, preferences">
<path id="Vector" d="M59.6672 136C57.6863 136 55.7602 135.913 53.8885 135.739C41.2522 134.592 31.2613 129.687 24.6173 122.839C21.1028 119.269 18.445 114.97 16.8393 110.257C15.327 105.795 14.8859 101.049 15.5507 96.3909C20.142 64.2824 58.7025 79.8962 42.5372 60.3672C26.3718 40.8381 58.0177 16 70.1606 21.8783C82.3035 27.7566 68.9125 40.3288 98.92 34.3853C128.927 28.4417 122.718 54.5559 122.718 54.5559" stroke="#CCDDE2" stroke-width="0.73264" stroke-miterlimit="10"/>
<path id="Vector_3" d="M120.502 106.701V113.824" stroke="black" stroke-width="0.73264" stroke-miterlimit="10"/>
<path id="Vector_4" d="M88.4238 110.263C81.7282 113.82 63.2237 121.087 62.5671 93.136C62.5671 93.136 63.3636 85.7959 61.2873 84.8383C59.211 83.8807 55.8624 80.8483 60.1746 73.5067L57.3611 70.6993C56.981 70.308 56.7718 69.7818 56.7796 69.2363C56.7875 68.6909 57.0117 68.1709 57.4029 67.7907C57.7942 67.4106 58.3204 67.2014 58.8658 67.2092C59.4113 67.2171 59.9313 67.4413 60.3114 67.8325L65.9035 73.7605C65.9035 73.7605 66.7137 72.2405 68.1501 73.0325C69.5865 73.8244 74.8548 77.1851 72.4623 84.2029L78.6852 102.078" stroke="black" stroke-width="0.73264" stroke-miterlimit="10"/>
<path id="Vector_5" d="M65.9131 73.7578C65.9131 73.7578 64.4219 76.0272 67.5957 78.3467" stroke="black" stroke-width="0.73264" stroke-miterlimit="10"/>
<path id="Vector_6" d="M59.257 75.2715C59.257 75.2715 58.3283 78.1884 62.0751 80.0701C63.4005 80.7359 64.8552 79.3344 64.2289 77.9892C64.2183 77.9695 64.2092 77.9482 64.1985 77.9269" stroke="black" stroke-width="0.73264" stroke-miterlimit="10"/>
<path id="Vector_7" d="M58.1224 78.873C58.1224 78.873 58.9417 81.7215 61.1837 81.8583C63.1673 81.9784 62.8344 79.9553 62.8344 79.9553" stroke="black" stroke-width="0.73264" stroke-miterlimit="10"/>
<path id="Vector_8" d="M96.4789 77.09C96.6309 77.1296 96.7266 77.0034 96.868 77.0277C98.9002 76.6568 100.411 75.0517 100.581 74.2796C100.524 74.7006 99.7514 74.658 99.8822 75.0882C99.9065 75.1703 99.9551 75.1384 99.9946 75.2174C100.058 75.3694 100.057 75.1612 100.147 75.298C100.645 74.5608 100.934 74.1944 101.022 73.7886C100.962 74.2242 100.998 74.6676 101.126 75.0882C101.149 75.1704 101.18 75.2504 101.218 75.3268C101.522 76.0443 102.156 76.6507 103.216 76.8012C103.481 76.8348 103.749 76.8435 104.017 76.8271C104.777 76.783 105.433 76.7389 105.993 76.7146C107.862 76.631 108.532 76.7723 108.323 77.9792C108.207 78.5251 108.043 79.0598 107.833 79.5768C107.462 80.5526 107.204 82.2428 107.584 84.0836V84.0942C108.025 86.2374 109.42 87.8942 112.41 89.4507C112.94 89.7241 113.486 89.9641 114.046 90.1696C119.233 92.094 131.643 96.9686 136.786 114.844C137.333 116.748 137.742 118.481 138.031 120.063L138.172 119.981C141.685 117.876 143.976 113.154 143.28 109.091C142.933 107.074 141.62 105.666 139.936 104.607C138.753 103.874 137.488 103.274 136.429 102.369C132.918 99.3702 135.725 94.7068 133.781 91.1212C131.589 87.0871 128.157 84.6004 123.676 84.3952C122.548 84.4438 121.279 84.576 120.048 84.5168C118.26 84.5806 116.433 84.4347 115.125 83.2628C114.094 82.3508 113.88 80.8642 113.489 79.6239C113.049 78.2252 112.683 76.8046 112.39 75.3679C112.123 74.0056 111.624 72.6994 110.916 71.5056C110.151 70.2119 109.073 69.1318 107.78 68.3652C106.653 67.7288 105.395 67.3561 104.103 67.2754C102.926 67.3447 101.782 67.6861 100.759 68.2725C100.41 68.4789 100.08 68.7159 99.7727 68.9808C97.5094 70.9112 96.4257 74.1792 96.4789 77.09Z" fill="#88CDFF"/>
<path id="Vector_9" d="M62.1389 81.6875C62.1389 81.6875 62.864 82.5873 62.4673 83.4416C62.0705 84.2958 61.0856 84.4949 60.128 84.121" stroke="black" stroke-width="0.73264" stroke-miterlimit="10"/>
<path id="Vector_10" d="M60.1802 73.5078L62.1836 75.5096" stroke="black" stroke-width="0.73264" stroke-miterlimit="10"/>
<path id="Vector_11" d="M113.545 108.27L111.914 94.2102C111.848 93.6413 111.575 93.1166 111.148 92.7357C110.72 92.3547 110.167 92.1444 109.594 92.1445H94.6164C94.2887 92.1444 93.9646 92.2132 93.6651 92.3465C93.3659 92.4798 93.0979 92.6747 92.8789 92.9185C92.6597 93.1623 92.4944 93.4494 92.3937 93.7612C92.2929 94.0731 92.2588 94.4026 92.2938 94.7285L94.4765 114.989C94.5384 115.561 94.8097 116.091 95.2385 116.476C95.6671 116.861 96.223 117.074 96.7991 117.074H102.159" stroke="black" stroke-width="0.73264" stroke-miterlimit="10"/>
<path id="Vector_12" d="M95.8401 95.726C95.5027 95.726 95.2291 95.4525 95.2291 95.1149C95.2291 94.7775 95.5027 94.5039 95.8401 94.5039C96.1776 94.5039 96.4512 94.7775 96.4512 95.1149C96.4512 95.4525 96.1776 95.726 95.8401 95.726Z" fill="black"/>
<path id="Vector_13" d="M105.929 111.534C104.348 111.89 104.032 111.896 102.498 112.124C101.532 112.268 99.3217 112.388 99.2821 110.888C99.2457 109.57 100.725 108.796 101.769 108.375C102.974 107.917 104.235 107.622 105.519 107.498C106.048 107.437 106.579 107.396 107.113 107.374C110.814 107.222 115.084 108.117 117.633 111.013C123.538 117.713 131.391 122.02 131.391 122.02" stroke="black" stroke-width="0.73264" stroke-miterlimit="10"/>
<path id="Vector_14" d="M101.692 112.195C100.932 112.518 99.6451 113.205 100.172 114.521C100.413 115.129 100.849 115.345 101.448 115.433C102.741 115.62 104.129 115.345 105.4 115.079C105.869 114.98 106.702 114.799 107.166 114.671" stroke="black" stroke-width="0.73264" stroke-miterlimit="10"/>
<path id="Vector_15" d="M103.047 115.465C103.047 115.465 101.665 115.448 101.998 116.733C102.547 118.861 106.81 117.897 108.805 117.45" stroke="black" stroke-width="0.73264" stroke-miterlimit="10"/>
<path id="Vector_16" d="M102.959 88.9551C96.4625 89.2393 86.5627 91.1439 77.5856 98.9096" stroke="black" stroke-width="0.73264" stroke-miterlimit="10"/>
<path id="Vector_17" d="M53.797 135.438L131.045 135.553" stroke="black" stroke-width="0.73264" stroke-miterlimit="10"/>
<path id="Vector_18" d="M88.4238 107.357C88.4238 107.357 86.9038 121.504 88.4238 135.436" stroke="black" stroke-width="0.73264" stroke-miterlimit="10"/>
<path id="Vector_19" opacity="0.54" d="M21.343 100.897L7.98376 66.665C7.81808 66.0026 7.8056 65.3113 7.94727 64.6434C8.08878 63.9755 8.38063 63.3487 8.80076 62.8104C9.22089 62.2723 9.75805 61.8369 10.3715 61.5374C10.9851 61.2378 11.6588 61.0822 12.3416 61.082H65.4124C66.6039 61.0819 67.7609 61.4829 68.6968 62.2205C69.6327 62.958 70.293 63.9893 70.5713 65.148L85.1997 99.3724C85.3586 100.033 85.3654 100.721 85.2201 101.384C85.0747 102.048 84.7805 102.67 84.3601 103.204C83.9397 103.737 83.4036 104.169 82.7924 104.465C82.1812 104.762 81.5106 104.916 80.8313 104.916H26.4913C25.3078 104.916 24.1584 104.52 23.2256 103.792C22.2927 103.064 21.6302 102.045 21.343 100.897Z" fill="white"/>
<path id="Vector_20" d="M21.343 100.897L7.98376 66.665C7.81808 66.0026 7.8056 65.3113 7.94727 64.6434C8.08878 63.9755 8.38063 63.3487 8.80076 62.8104C9.22089 62.2723 9.75805 61.8369 10.3715 61.5374C10.9851 61.2378 11.6588 61.0822 12.3416 61.082H65.4124C66.6039 61.0819 67.7609 61.4829 68.6968 62.2205C69.6327 62.958 70.293 63.9893 70.5713 65.148L85.1997 99.3724C85.3586 100.033 85.3654 100.721 85.2201 101.384C85.0747 102.048 84.7805 102.67 84.3601 103.204C83.9397 103.737 83.4036 104.169 82.7924 104.465C82.1812 104.762 81.5106 104.916 80.8313 104.916H26.4913C25.3078 104.916 24.1584 104.52 23.2256 103.792C22.2927 103.064 21.6302 102.045 21.343 100.897Z" fill="#88CDFF"/>
<path id="Vector_21" d="M21.343 100.897L7.98376 66.665C7.81808 66.0026 7.8056 65.3113 7.94727 64.6434C8.08878 63.9755 8.38063 63.3487 8.80076 62.8104C9.22088 62.2723 9.75805 61.8369 10.3715 61.5374C10.9851 61.2378 11.6588 61.0822 12.3416 61.082H65.4124C66.6039 61.0819 67.7609 61.4829 68.6968 62.2205C69.6327 62.958 70.293 63.9893 70.5713 65.148L85.1997 99.3724C85.3586 100.033 85.3654 100.721 85.2201 101.384C85.0747 102.048 84.7805 102.67 84.3601 103.204C83.9397 103.737 83.4036 104.169 82.7924 104.465C82.1812 104.762 81.5106 104.916 80.8313 104.916H26.4913C25.3078 104.916 24.1584 104.52 23.2256 103.792C22.2927 103.064 21.6302 102.045 21.343 100.897Z" stroke="black" stroke-width="0.73264" stroke-linecap="square" stroke-linejoin="round"/>
<path id="Vector_22" d="M23.2992 99.5101L10.9735 67.9291C10.8209 67.3182 10.8095 66.6805 10.9401 66.0646C11.0706 65.4486 11.3398 64.8705 11.7271 64.3741C12.1146 63.8778 12.6099 63.4761 13.1757 63.1997C13.7414 62.9234 14.3628 62.7796 14.9924 62.7793H63.9562C65.0556 62.779 66.1229 63.149 66.9864 63.8295C67.8498 64.5101 68.4588 65.4615 68.7153 66.5307L82.2114 98.1041C82.3577 98.7135 82.3641 99.3481 82.2297 99.9603C82.0955 100.572 81.8242 101.146 81.4362 101.638C81.0481 102.131 80.5535 102.529 79.9896 102.802C79.4256 103.075 78.807 103.217 78.1803 103.217H28.0477C26.9563 103.217 25.8963 102.852 25.0359 102.18C24.1758 101.508 23.5644 100.569 23.2992 99.5101Z" fill="#88CDFF"/>
<path id="Vector_23" d="M60.4234 68.5851C59.7744 67.6108 58.7119 67.1776 58.0507 67.6169C57.3895 68.0562 57.3804 69.2038 58.0294 70.1781C58.1302 70.3278 58.244 70.4683 58.3699 70.5976L53.5591 80.7543C52.7991 80.242 51.9479 80.1159 51.3429 80.5187C50.9523 80.7786 50.7349 81.2209 50.6665 81.7347L47.3803 80.6251L44.506 79.6644C44.202 79.5595 43.8813 79.4592 43.5681 79.3604C43.45 79.0075 43.286 78.6717 43.0802 78.3618C42.1682 76.9938 40.6771 76.3858 39.7499 76.9938C38.8227 77.6018 38.8105 79.1932 39.6967 80.5536L34.2247 88.0366C33.0315 87.0577 31.6255 86.7552 30.6512 87.4027C29.3257 88.2843 29.306 90.5856 30.6071 92.5419C30.6588 92.6194 30.7181 92.6832 30.7728 92.7577L27.1248 97.7418C27.1141 97.757 27.1004 97.7752 27.0913 97.7904C26.9991 97.9295 26.9352 98.0854 26.9033 98.2493C26.8712 98.413 26.872 98.5816 26.9051 98.7451C26.9383 98.9088 27.0033 99.0642 27.0967 99.2027C27.1898 99.3411 27.3095 99.4598 27.4485 99.5521C27.5876 99.6442 27.7436 99.7082 27.9074 99.7401C28.0713 99.772 28.2398 99.7714 28.4034 99.7383C28.5669 99.7052 28.7224 99.6401 28.8609 99.5468C28.9992 99.4536 29.1179 99.334 29.2102 99.1949L32.4493 94.3081C33.4738 94.9024 34.5621 95.0164 35.3601 94.4844C36.6278 93.6423 36.6886 91.5083 35.5593 89.6204L40.8048 81.7058C41.5785 82.2317 42.4327 82.3655 43.0453 81.9596C43.3874 81.7182 43.6206 81.3518 43.6943 80.9397C43.825 80.9747 43.9542 81.0127 44.0849 81.0491L47.0079 81.8471L50.7486 82.8549C50.8632 83.3033 51.0523 83.7292 51.308 84.115C52.22 85.483 53.7096 86.091 54.6383 85.4754C55.567 84.8598 55.5807 83.2471 54.6702 81.8775C54.5345 81.6789 54.3819 81.4922 54.2142 81.3197L58.794 70.9639C59.3457 71.3394 59.9553 71.4367 60.3915 71.1463C61.0618 70.7086 61.0725 69.561 60.4234 68.5851Z" fill="white"/>
<path id="Vector_24" d="M25.584 69.1451H18.4871C18.1624 69.1451 17.8448 69.0504 17.573 68.8728C17.3012 68.6952 17.0869 68.4422 16.9565 68.1449C16.9148 68.0537 16.8925 67.9549 16.8911 67.8546C16.8926 67.6608 16.9707 67.4755 17.1082 67.3389C17.2456 67.2022 17.4315 67.1255 17.6253 67.125H25.1751C24.8149 67.7254 24.9942 68.5553 25.584 69.1451Z" fill="#D7E8F0"/>
<path id="Vector_25" d="M30.1738 68.417C30.1734 68.6103 30.0963 68.7955 29.9595 68.932C29.8229 69.0685 29.6374 69.1451 29.4442 69.1451H25.5849C24.9952 68.5553 24.8158 67.7254 25.17 67.125H28.5778C28.9022 67.1248 29.2196 67.2191 29.4913 67.396C29.7631 67.5731 29.9776 67.8254 30.1085 68.1221C30.1498 68.2151 30.172 68.3153 30.1738 68.417Z" fill="#88CDFF"/>
<path id="Vector_26" d="M28.3982 69.1469C28.3781 69.186 28.3547 69.2231 28.3282 69.2579C27.8221 69.9495 26.7246 70.0179 25.8704 69.3917C25.7693 69.3172 25.6739 69.2354 25.5846 69.1469C24.9949 68.5572 24.8155 67.7273 25.1697 67.1269C25.1897 67.0884 25.2131 67.0518 25.2396 67.0174C25.7412 66.3213 26.8386 66.2574 27.6929 66.8791C27.7953 66.9548 27.8923 67.0376 27.9832 67.1269C28.5684 67.7181 28.7478 68.5435 28.3982 69.1469Z" fill="white"/>
<path id="Vector_27" d="M31.9609 72.8725C31.9594 73.0662 31.8813 73.2513 31.7437 73.3876C31.6063 73.524 31.4204 73.6006 31.2268 73.6006H23.7788C24.139 72.9926 23.9597 72.1718 23.3684 71.582H30.3604C30.6851 71.582 31.0027 71.6767 31.2745 71.8543C31.5463 72.0319 31.7606 72.2849 31.891 72.5822C31.9336 72.6732 31.9573 72.772 31.9609 72.8725Z" fill="#88CDFF"/>
<path id="Vector_28" d="M23.7791 73.6006H20.2831C19.9588 73.6009 19.6416 73.507 19.3698 73.3302C19.0981 73.1534 18.8836 72.9014 18.7524 72.605C18.7105 72.5123 18.6881 72.4118 18.6871 72.3101C18.6869 72.2144 18.7056 72.1197 18.7421 72.0312C18.7786 71.9427 18.8322 71.8625 18.8999 71.7948C18.9675 71.7272 19.0479 71.6735 19.1364 71.6371C19.2247 71.6004 19.3195 71.5817 19.4151 71.582H23.3687C23.9615 72.1718 24.1393 72.9972 23.7791 73.6006Z" fill="#D7E8F0"/>
<path id="Vector_29" d="M23.7791 73.6017C23.7634 73.6415 23.7418 73.6789 23.7152 73.7127C23.2121 74.4088 22.1147 74.4727 21.2619 73.851C21.1586 73.7759 21.0615 73.6926 20.9716 73.6017C20.3864 73.0119 20.2116 72.1866 20.5567 71.5831C20.5761 71.5441 20.5991 71.507 20.6251 71.4722C21.1327 70.7806 22.2302 70.7122 23.0829 71.3384C23.1846 71.4121 23.2802 71.4939 23.3687 71.5831C23.9615 72.1729 24.1393 72.9983 23.7791 73.6017Z" fill="white"/>
<path id="Vector_30" d="M26.2578 78.022H21.7997C21.4753 78.0222 21.1579 77.9279 20.8861 77.7509C20.6144 77.5739 20.3999 77.3216 20.269 77.0249C20.2271 76.9337 20.2047 76.8348 20.2036 76.7346C20.2044 76.5402 20.2821 76.3541 20.4196 76.2169C20.5572 76.0796 20.7436 76.0023 20.9378 76.002H25.8429C25.4933 76.6054 25.6726 77.4308 26.2578 78.022Z" fill="#88CDFF"/>
<path id="Vector_31" d="M33.4824 77.297C33.4817 77.4897 33.4045 77.6744 33.2677 77.8103C33.1309 77.9463 32.9457 78.0223 32.7528 78.022H26.2563C25.6711 77.4308 25.4963 76.6054 25.8414 76.002H31.8864C32.2111 76.002 32.5288 76.0967 32.8006 76.2742C33.0725 76.4519 33.2866 76.7047 33.4171 77.0021C33.4587 77.0948 33.4811 77.1952 33.4824 77.297Z" fill="#D7E8F0"/>
<path id="Vector_32" d="M29.0721 78.0253C29.052 78.0638 29.0286 78.1004 29.0021 78.1348C28.5005 78.8309 27.4031 78.8948 26.5489 78.2731C26.4464 78.1974 26.3494 78.1146 26.2585 78.0253C25.6733 77.4341 25.4985 76.6087 25.8436 76.0053C25.8636 75.9662 25.887 75.9291 25.9135 75.8943C26.4196 75.2027 27.5171 75.1434 28.3713 75.7605C28.4724 75.835 28.5679 75.9168 28.6571 76.0053C29.2469 76.595 29.4323 77.4249 29.0721 78.0253Z" fill="white"/>
<path id="Vector_33" d="M55.0801 98.8854H50.6219C50.2975 98.8857 49.9802 98.7915 49.7084 98.6144C49.4366 98.4373 49.2223 98.1852 49.0913 97.8883C49.0404 97.7773 49.0185 97.6553 49.0276 97.5335C49.0366 97.4118 49.0764 97.2944 49.1433 97.1921C49.21 97.09 49.3017 97.0064 49.4096 96.9492C49.5175 96.8921 49.638 96.8632 49.7601 96.8653H54.6636C54.3155 97.4688 54.4949 98.2941 55.0801 98.8854Z" fill="#88CDFF"/>
<path id="Vector_34" d="M72.7795 98.1603C72.7793 98.2556 72.7603 98.3501 72.7235 98.4381C72.6869 98.5263 72.6332 98.6062 72.5656 98.6736C72.498 98.7409 72.4179 98.7943 72.3295 98.8306C72.2414 98.8669 72.1468 98.8855 72.0514 98.8853H55.0806C54.4954 98.294 54.3206 97.4687 54.6656 96.8652H71.1835C71.5081 96.8652 71.8258 96.9599 72.0976 97.1375C72.3695 97.3152 72.5837 97.5679 72.7141 97.8654C72.7559 97.9581 72.7781 98.0584 72.7795 98.1603Z" fill="#D7E8F0"/>
<path id="Vector_35" d="M57.8951 98.8847C57.875 98.9232 57.8516 98.9598 57.8251 98.9942C57.3235 99.6918 56.2261 99.7542 55.3719 99.1325C55.2694 99.0568 55.1724 98.9739 55.0815 98.8847C54.4963 98.2934 54.3215 97.4681 54.6666 96.8646C54.6865 96.8256 54.7099 96.7885 54.7365 96.7537C55.2442 96.0621 56.3416 96.0028 57.1943 96.6199C57.2954 96.6944 57.3909 96.7762 57.4801 96.8646C58.0699 97.4544 58.2492 98.2843 57.8951 98.8847Z" fill="white"/>
<path id="Vector_36" d="M137.778 120.78C138.344 120.557 138.891 120.289 139.415 119.979C142.93 117.874 145.221 113.152 144.523 109.088C144.175 107.071 142.862 105.665 141.172 104.604C139.991 103.871 138.72 103.272 137.665 102.368C134.154 99.3691 136.963 94.7042 135.019 91.12C132.655 86.7728 128.855 84.2238 123.848 84.3895C121.445 84.4685 118.325 85.0203 116.362 83.2616C115.332 82.3496 115.116 80.8631 114.725 79.6227C114.285 78.224 113.918 76.8034 113.625 75.3667C113.362 74.0047 112.866 72.6982 112.159 71.5044C111.395 70.2094 110.316 69.1279 109.024 68.3595C106.592 66.9566 103.201 66.8274 100.756 68.2699C100.408 68.4767 100.079 68.7133 99.7714 68.9767C97.5097 70.9162 96.4274 74.1827 96.4791 77.095" stroke="black" stroke-width="0.73264" stroke-miterlimit="10"/>
<path id="Vector_37" d="M101.07 73.5312C100.944 74.3885 100.423 75.1789 99.4973 75.4161C98.4515 75.6821 97.8967 76.7005 97.6018 77.7234C97.1828 79.2243 97.2901 80.8231 97.9058 82.2545C98.4773 83.6013 99.4957 85.1425 101.218 85.3842C104.369 85.8402 105.938 84.5057 105.938 84.5057" stroke="black" stroke-width="0.73264" stroke-miterlimit="10"/>
<path id="Vector_38" d="M103.697 78.1096C103.399 78.1096 103.156 77.8673 103.156 77.5685C103.156 77.2696 103.399 77.0273 103.697 77.0273C103.996 77.0273 104.239 77.2696 104.239 77.5685C104.239 77.8673 103.996 78.1096 103.697 78.1096Z" fill="black"/>
<path id="Vector_39" d="M98.9374 77.7522C98.6386 77.7522 98.3963 77.51 98.3963 77.211C98.3963 76.9122 98.6386 76.6699 98.9374 76.6699C99.2362 76.6699 99.4785 76.9122 99.4785 77.211C99.4785 77.51 99.2362 77.7522 98.9374 77.7522Z" fill="black"/>
<path id="Vector_40" d="M104.954 118.055C104.167 118.538 104.802 119.335 105.374 119.604C106.356 120.06 107.625 120.141 108.695 120.268C116.831 121.226 119.548 132.395 124.655 134.471C129.762 136.547 143.468 138.064 136.783 114.842C131.636 96.9696 119.227 92.095 114.039 90.1707C113.481 89.9655 112.936 89.7258 112.407 89.4532C109.417 87.8998 108.017 86.2369 107.578 84.0922C107.578 84.0922 107.578 84.0922 107.578 84.0831C107.198 82.2424 107.453 80.5521 107.825 79.5748C108.039 79.0586 108.205 78.5238 108.321 77.9772C108.598 76.4223 107.397 76.6412 104.025 76.8266C102.478 76.9178 101.603 76.2186 101.226 75.3279C101.189 75.2507 101.159 75.1703 101.136 75.0877C100.977 74.5834 100.958 74.0455 101.081 73.5312" stroke="black" stroke-width="0.73264" stroke-miterlimit="10"/>
<path id="Vector_41" d="M101.367 77.7012C101.367 77.7012 100.799 79.779 100.857 80.0861C100.915 80.3931 101.643 80.156 101.643 80.156" stroke="black" stroke-width="0.73264" stroke-miterlimit="10"/>
<path id="Vector_42" d="M101.759 82.0588C102.849 82.6455 104.109 82.2762 104.602 81.2988" stroke="black" stroke-width="0.73264" stroke-miterlimit="10"/>
<path id="Vector_43" d="M102.829 79.78C101.814 78.8216 101.749 77.2416 102.684 76.2508C103.619 75.2601 105.201 75.2338 106.216 76.1922C107.231 77.1505 107.296 78.7306 106.36 79.7213C105.425 80.712 103.844 80.7383 102.829 79.78Z" stroke="black" stroke-width="0.73264" stroke-miterlimit="10"/>
<path id="Vector_44" d="M96.5162 79.2038C95.501 78.2454 95.4363 76.6654 96.3715 75.6747C97.3068 74.6839 98.8879 74.6576 99.9031 75.616C100.918 76.5743 100.983 78.1544 100.048 79.1451C99.1126 80.1359 97.5313 80.1622 96.5162 79.2038Z" stroke="black" stroke-width="0.73264" stroke-miterlimit="10"/>
<path id="Vector_45" d="M98.1561 75.6791C97.729 75.6763 97.3169 75.8371 97.0046 76.1285C96.6922 76.4199 96.5033 76.8198 96.4765 77.2462C96.4493 77.7105 96.6033 78.1671 96.9061 78.5202C97.2089 78.8732 97.6369 79.095 98.0999 79.1386C98.1531 79.1386 98.2078 79.1386 98.261 79.1386C98.6857 79.1416 99.0956 78.9829 99.4077 78.6947C99.7196 78.4064 99.9101 78.0103 99.9406 77.5867C99.9699 77.1211 99.8169 76.6625 99.5138 76.3079C99.2109 75.9531 98.7816 75.7304 98.3172 75.6867C98.264 75.6867 98.2093 75.6867 98.1561 75.6867V75.6791ZM98.1561 75.3203C98.22 75.3203 98.2853 75.3203 98.3507 75.3295C98.9085 75.3825 99.424 75.6496 99.7888 76.0749C100.154 76.5 100.339 77.0501 100.307 77.6095C100.273 78.1281 100.042 78.6143 99.6621 78.9688C99.2818 79.3233 98.7808 79.5193 98.261 79.5171C98.1972 79.5171 98.1318 79.5171 98.0664 79.5079C97.5085 79.4558 96.9927 79.1887 96.6281 78.7633C96.2633 78.3378 96.0781 77.7873 96.1117 77.2279C96.1421 76.707 96.3709 76.2174 96.7512 75.8601C97.1315 75.5027 97.6343 75.3047 98.1561 75.3067V75.3203Z" fill="white"/>
<path id="Vector_46" d="M102.031 77.7603L100.706 77.6387" stroke="black" stroke-width="0.73264" stroke-miterlimit="10"/>
<path id="Vector_47" d="M104.469 76.204C104.028 76.1997 103.603 76.3647 103.282 76.6649C102.96 76.9649 102.765 77.3773 102.739 77.8167C102.71 78.2951 102.869 78.7658 103.181 79.1297C103.493 79.4936 103.934 79.722 104.411 79.7669C104.465 79.7669 104.522 79.7669 104.576 79.7669C105.017 79.7708 105.442 79.6056 105.764 79.3051C106.086 79.0048 106.281 78.5922 106.308 78.1526C106.336 77.6745 106.177 77.2042 105.865 76.8406C105.553 76.4771 105.113 76.2488 104.636 76.204C104.58 76.1984 104.524 76.1959 104.469 76.1964V76.204ZM104.469 75.8301C104.535 75.8301 104.602 75.8331 104.669 75.8392C105.244 75.8925 105.775 76.1686 106.149 76.6082C106.524 77.0478 106.711 77.6161 106.673 78.1922C106.638 78.7235 106.401 79.2218 106.012 79.5849C105.622 79.9482 105.109 80.1492 104.576 80.1469C104.511 80.1469 104.444 80.1469 104.377 80.1378C103.805 80.084 103.276 79.8099 102.902 79.3733C102.529 78.9368 102.339 78.3721 102.374 77.7985C102.408 77.2671 102.644 76.769 103.034 76.4057C103.423 76.0424 103.936 75.8415 104.469 75.8438V75.8301Z" fill="white"/>
<path id="Vector_48" d="M96.756 78.9504C95.8856 78.1286 95.8306 76.7731 96.6333 75.9228C97.436 75.0724 98.7925 75.0493 99.663 75.871C100.533 76.6927 100.588 78.0482 99.7856 78.8985C98.9829 79.749 97.6265 79.7721 96.756 78.9504Z" fill="#88CDFF"/>
<path id="Vector_49" d="M102.611 79.6134C101.733 78.7833 101.678 77.4155 102.488 76.5582C103.299 75.7008 104.668 75.6787 105.546 76.5088C106.424 77.3387 106.479 78.7067 105.669 79.564C104.858 80.4213 103.49 80.4435 102.611 79.6134Z" fill="#88CDFF"/>
<path id="Vector_50" d="M109.881 92.1638C110.55 91.4661 111.13 90.4401 111.512 88.9551" stroke="black" stroke-width="0.73264" stroke-miterlimit="10"/>
<path id="Vector_51" d="M103.697 92.1444L102.96 88.9539L102.159 85.5156" stroke="black" stroke-width="0.73264" stroke-miterlimit="10"/>
<path id="Vector_52" d="M100.684 104.85C100.401 103.459 101.167 102.129 102.396 101.879C103.625 101.628 104.851 102.552 105.134 103.942C105.418 105.333 104.651 106.663 103.422 106.913C102.193 107.163 100.968 106.24 100.684 104.85Z" fill="#D7E8F0"/>
<path id="Vector_53" d="M53.6656 127.467L54.912 134.431C54.947 134.627 55.0496 134.804 55.2019 134.932C55.354 135.059 55.5463 135.129 55.745 135.129H62.2642C62.4649 135.129 62.6591 135.058 62.8123 134.928C62.9654 134.799 63.0674 134.619 63.1002 134.421L64.2402 127.467H53.6656Z" stroke="#CCDDE2" stroke-width="0.73264" stroke-miterlimit="10"/>
<path id="Vector_54" d="M52.4789 126.69C52.4964 126.902 52.5929 127.1 52.7492 127.244C52.9053 127.388 53.11 127.468 53.3225 127.468H64.5705C64.7803 127.468 64.9824 127.391 65.1382 127.25C65.294 127.11 65.3924 126.917 65.4141 126.708C65.4254 126.591 65.4118 126.472 65.3746 126.36C65.3374 126.248 65.277 126.145 65.1975 126.058C65.1182 125.971 65.0214 125.901 64.9133 125.853C64.8054 125.806 64.6886 125.781 64.5705 125.781H53.3225C53.2062 125.781 53.091 125.805 52.9845 125.852C52.8778 125.899 52.7819 125.967 52.7027 126.052C52.6236 126.137 52.5628 126.238 52.5244 126.348C52.4858 126.458 52.4704 126.574 52.4789 126.69Z" stroke="#CCDDE2" stroke-width="0.73264" stroke-miterlimit="10"/>
<path id="Vector_55" d="M58.5939 125.768C58.5939 125.411 57.6819 120.962 58.4419 117.018C58.8553 114.853 59.7674 112.842 61.6035 111.74" stroke="#CCDDE2" stroke-width="0.73264" stroke-miterlimit="10"/>
<path id="Vector_56" d="M58.4375 117.023C58.4375 117.023 58.2293 114.025 55.6392 113.818" stroke="#CCDDE2" stroke-width="0.73264" stroke-miterlimit="10"/>
<path id="Vector_57" d="M58.1602 121.598C57.4233 121.081 56.5357 120.825 55.637 120.868" stroke="#CCDDE2" stroke-width="0.73264" stroke-miterlimit="10"/>
<path id="Vector_58" d="M58.1605 119.47C58.1605 119.47 60.0423 117.242 63.0488 119.005" stroke="#CCDDE2" stroke-width="0.73264" stroke-miterlimit="10"/>
<path id="Vector_59" d="M59.487 118.572C59.487 118.572 63.7248 114.702 64.5547 119.94C64.5547 119.94 63.3615 120.717 61.5998 119.94C59.8381 119.163 59.487 118.572 59.487 118.572Z" stroke="#CCDDE2" stroke-width="0.73264" stroke-miterlimit="10"/>
<path id="Vector_60" d="M57.5072 114.732C57.5072 114.732 57.6592 112.99 55.6406 112.42C53.622 111.85 52.4775 114.235 52.4775 114.235C52.4775 114.235 54.0355 115.957 57.5072 114.732Z" stroke="#CCDDE2" stroke-width="0.73264" stroke-miterlimit="10"/>
<path id="Vector_61" d="M57.0371 120.868C57.0371 120.868 57.107 119.106 54.7571 119.469C52.4072 119.833 52.0211 121.837 52.0211 121.837C52.0211 121.837 55.8697 123.248 57.0371 121.053" stroke="#CCDDE2" stroke-width="0.73264" stroke-miterlimit="10"/>
<path id="Vector_62" d="M59.8713 113.375C59.8713 113.499 61.6375 113.223 61.75 113.183C62.6057 112.928 63.2137 112.335 63.6135 111.551C63.7366 111.307 64.4495 109.944 64.2473 109.707C64.2413 109.707 60.043 108.354 59.8713 113.375Z" stroke="#CCDDE2" stroke-width="0.73264" stroke-miterlimit="10"/>
<path id="Vector_63" d="M18.25 114C19.5934 117.885 21.8172 121.428 24.7581 124.369C30.3204 130.013 38.68 134.054 49.25 135V114H18.25Z" stroke="#CCDDE2" stroke-width="0.73264" stroke-miterlimit="10"/>
<path id="Vector_64" d="M24.25 124C29.9277 129.839 38.4607 134.022 49.25 135V124H24.25Z" stroke="#CCDDE2" stroke-width="0.73264" stroke-miterlimit="10"/>
<path id="Vector_65" d="M28.0301 119.336C28.0301 118.484 28.7211 117.793 29.5736 117.793C30.426 117.793 31.1172 118.484 31.1172 119.336C31.1172 120.189 30.426 120.88 29.5736 120.88C28.7211 120.88 28.0301 120.189 28.0301 119.336Z" stroke="#CCDDE2" stroke-width="0.73264" stroke-miterlimit="10"/>
</g>
<path id="Vector_54_2" d="M52.7477 47.9212C51.3856 50.2402 51.4478 51.8916 51.8018 54.5683C51.9434 55.5875 50.8461 56.2771 49.9563 55.7644C42.0948 51.2484 34.7568 54.8197 25.383 52.6057C21.9411 51.7977 17.6497 50.1231 14.7081 47.4305C13.7321 45.9813 13.2105 44.2737 13.2105 42.5264C13.2105 35.2031 23.219 29.2578 35.5624 29.2578C43.4728 29.2578 50.4226 31.6989 54.3954 35.3764C54.3954 35.3764 54.3955 35.3764 54.4064 35.3874C55.4146 36.8972 55.9687 38.5474 55.9687 40.2696C55.9748 42.8974 54.0207 45.7462 52.7477 47.9212Z" fill="#88CDFF"/>
<path id="Vector_55_2" d="M55.9395 40.272C55.9395 40.333 55.9395 40.3941 55.9395 40.4575C55.8955 43.0207 54.6091 45.4093 53.0858 47.4757C52.0654 48.8573 50.8547 50.3928 51.1415 52.0869C51.2635 52.8339 51.6846 53.5113 51.7896 54.2607C51.8946 55.0101 51.4954 55.945 50.7387 55.9841C50.2578 56.0085 49.8489 55.6668 49.4681 55.3738C47.2162 53.6284 44.2893 52.9755 41.443 52.8607C38.5967 52.746 35.754 53.1219 32.9065 53.2025C28.8006 53.3245 24.63 52.807 20.8377 51.2325C17.4397 49.824 14.3261 47.5123 12.2817 44.4243C10.2727 41.3925 11.4603 36.99 13.6036 34.3536C15.6126 31.8795 18.5236 30.2965 21.509 29.1809C29.539 26.1832 38.7041 26.2516 46.623 29.5361C48.9738 30.5125 51.2477 31.7819 53.0101 33.6188C54.7275 35.4081 55.9211 37.7931 55.9395 40.272Z" stroke="black" stroke-width="0.883676" stroke-miterlimit="10"/>
<path id="Vector 5" d="M28.25 41.2778L32.25 44L39.25 37" stroke="black" stroke-linecap="round"/>
</g>
</svg>
