<svg width="153" height="152" viewBox="0 0 153 152" fill="none" xmlns="http://www.w3.org/2000/svg">
<g id="Illustration - Business, analytics, sucess, startup, Technology _ account, setting, options, preferences">
<g id="Business, analytics, sucess, startup, Technology _ account, setting, options, preferences">
<path id="Vector" d="M59.9172 136C57.9363 136 56.0102 135.913 54.1385 135.739C41.5022 134.592 31.5113 129.687 24.8673 122.839C21.3528 119.269 18.695 114.97 17.0893 110.257C15.577 105.795 15.1359 101.049 15.8007 96.3909C20.392 64.2824 58.9525 79.8962 42.7872 60.3672C26.6218 40.8381 58.2677 16 70.4106 21.8783C82.5535 27.7566 69.1625 40.3288 99.17 34.3853C129.177 28.4417 122.968 54.5559 122.968 54.5559" stroke="#CCDDE2" stroke-width="0.73264" stroke-miterlimit="10"/>
<path id="Vector_3" d="M120.752 106.701V113.824" stroke="black" stroke-width="0.73264" stroke-miterlimit="10"/>
<path id="Vector_4" d="M88.6738 110.263C81.9782 113.82 63.4737 121.087 62.8171 93.136C62.8171 93.136 63.6136 85.7959 61.5373 84.8383C59.461 83.8807 56.1124 80.8483 60.4246 73.5067L57.6111 70.6993C57.231 70.308 57.0218 69.7818 57.0296 69.2363C57.0375 68.6909 57.2617 68.1709 57.6529 67.7907C58.0442 67.4106 58.5704 67.2014 59.1158 67.2092C59.6613 67.2171 60.1813 67.4413 60.5614 67.8325L66.1535 73.7605C66.1535 73.7605 66.9637 72.2405 68.4001 73.0325C69.8365 73.8244 75.1048 77.1851 72.7123 84.2029L78.9352 102.078" stroke="black" stroke-width="0.73264" stroke-miterlimit="10"/>
<path id="Vector_5" d="M66.1631 73.7578C66.1631 73.7578 64.6719 76.0272 67.8457 78.3467" stroke="black" stroke-width="0.73264" stroke-miterlimit="10"/>
<path id="Vector_6" d="M59.507 75.2715C59.507 75.2715 58.5783 78.1884 62.3251 80.0701C63.6505 80.7359 65.1052 79.3344 64.4789 77.9892C64.4683 77.9695 64.4592 77.9482 64.4485 77.9269" stroke="black" stroke-width="0.73264" stroke-miterlimit="10"/>
<path id="Vector_7" d="M58.3724 78.873C58.3724 78.873 59.1917 81.7215 61.4337 81.8583C63.4173 81.9784 63.0844 79.9553 63.0844 79.9553" stroke="black" stroke-width="0.73264" stroke-miterlimit="10"/>
<path id="Vector_8" d="M96.7289 77.09C96.8809 77.1296 96.9766 77.0034 97.118 77.0277C99.1502 76.6568 100.661 75.0517 100.831 74.2796C100.774 74.7006 100.001 74.658 100.132 75.0882C100.156 75.1703 100.205 75.1384 100.245 75.2174C100.308 75.3694 100.307 75.1612 100.397 75.298C100.895 74.5608 101.184 74.1944 101.272 73.7886C101.212 74.2242 101.248 74.6676 101.376 75.0882C101.399 75.1704 101.43 75.2504 101.468 75.3268C101.772 76.0443 102.406 76.6507 103.466 76.8012C103.731 76.8348 103.999 76.8435 104.267 76.8271C105.027 76.783 105.683 76.7389 106.243 76.7146C108.112 76.631 108.782 76.7723 108.573 77.9792C108.457 78.5251 108.293 79.0598 108.083 79.5768C107.712 80.5526 107.454 82.2428 107.834 84.0836V84.0942C108.275 86.2374 109.67 87.8942 112.66 89.4507C113.19 89.7241 113.736 89.9641 114.296 90.1696C119.483 92.094 131.893 96.9686 137.036 114.844C137.583 116.748 137.992 118.481 138.281 120.063L138.422 119.981C141.935 117.876 144.226 113.154 143.53 109.091C143.183 107.074 141.87 105.666 140.186 104.607C139.003 103.874 137.738 103.274 136.679 102.369C133.168 99.3702 135.975 94.7068 134.031 91.1212C131.839 87.0871 128.407 84.6004 123.926 84.3952C122.798 84.4438 121.529 84.576 120.298 84.5168C118.51 84.5806 116.683 84.4347 115.375 83.2628C114.344 82.3508 114.13 80.8642 113.739 79.6239C113.299 78.2252 112.933 76.8046 112.64 75.3679C112.373 74.0056 111.874 72.6994 111.166 71.5056C110.401 70.2119 109.323 69.1318 108.03 68.3652C106.903 67.7288 105.645 67.3561 104.353 67.2754C103.176 67.3447 102.032 67.6861 101.009 68.2725C100.66 68.4789 100.33 68.7159 100.023 68.9808C97.7594 70.9112 96.6757 74.1792 96.7289 77.09Z" fill="#92DEBA"/>
<path id="Vector_9" d="M62.3889 81.6875C62.3889 81.6875 63.114 82.5873 62.7173 83.4416C62.3205 84.2958 61.3356 84.4949 60.378 84.121" stroke="black" stroke-width="0.73264" stroke-miterlimit="10"/>
<path id="Vector_10" d="M60.4302 73.5078L62.4336 75.5096" stroke="black" stroke-width="0.73264" stroke-miterlimit="10"/>
<path id="Vector_11" d="M113.795 108.27L112.164 94.2102C112.098 93.6413 111.825 93.1166 111.398 92.7357C110.97 92.3547 110.417 92.1444 109.844 92.1445H94.8664C94.5387 92.1444 94.2146 92.2132 93.9151 92.3465C93.6159 92.4798 93.3479 92.6747 93.1289 92.9185C92.9097 93.1623 92.7444 93.4494 92.6437 93.7612C92.5429 94.0731 92.5088 94.4026 92.5438 94.7285L94.7265 114.989C94.7884 115.561 95.0597 116.091 95.4885 116.476C95.9171 116.861 96.473 117.074 97.0491 117.074H102.409" stroke="black" stroke-width="0.73264" stroke-miterlimit="10"/>
<path id="Vector_12" d="M96.0901 95.726C95.7527 95.726 95.4791 95.4525 95.4791 95.1149C95.4791 94.7775 95.7527 94.5039 96.0901 94.5039C96.4276 94.5039 96.7012 94.7775 96.7012 95.1149C96.7012 95.4525 96.4276 95.726 96.0901 95.726Z" fill="black"/>
<path id="Vector_13" d="M106.179 111.534C104.598 111.89 104.282 111.896 102.748 112.124C101.782 112.268 99.5717 112.388 99.5321 110.888C99.4957 109.57 100.975 108.796 102.019 108.375C103.224 107.917 104.485 107.622 105.769 107.498C106.298 107.437 106.829 107.396 107.363 107.374C111.064 107.222 115.334 108.117 117.883 111.013C123.788 117.713 131.641 122.02 131.641 122.02" stroke="black" stroke-width="0.73264" stroke-miterlimit="10"/>
<path id="Vector_14" d="M101.942 112.195C101.182 112.518 99.8951 113.205 100.422 114.521C100.663 115.129 101.099 115.345 101.698 115.433C102.991 115.62 104.379 115.345 105.65 115.079C106.119 114.98 106.952 114.799 107.416 114.671" stroke="black" stroke-width="0.73264" stroke-miterlimit="10"/>
<path id="Vector_15" d="M103.297 115.465C103.297 115.465 101.915 115.448 102.248 116.733C102.797 118.861 107.06 117.897 109.055 117.45" stroke="black" stroke-width="0.73264" stroke-miterlimit="10"/>
<path id="Vector_16" d="M103.209 88.9551C96.7125 89.2393 86.8127 91.1439 77.8356 98.9096" stroke="black" stroke-width="0.73264" stroke-miterlimit="10"/>
<path id="Vector_17" d="M54.047 135.438L131.295 135.553" stroke="black" stroke-width="0.73264" stroke-miterlimit="10"/>
<path id="Vector_18" d="M88.6738 107.357C88.6738 107.357 87.1538 121.504 88.6738 135.436" stroke="black" stroke-width="0.73264" stroke-miterlimit="10"/>
<path id="Vector_19" opacity="0.54" d="M21.593 100.897L8.23376 66.665C8.06808 66.0026 8.0556 65.3113 8.19727 64.6434C8.33878 63.9755 8.63063 63.3487 9.05076 62.8104C9.47089 62.2723 10.008 61.8369 10.6215 61.5374C11.2351 61.2378 11.9088 61.0822 12.5916 61.082H65.6624C66.8539 61.0819 68.0109 61.4829 68.9468 62.2205C69.8827 62.958 70.543 63.9893 70.8213 65.148L85.4497 99.3724C85.6086 100.033 85.6154 100.721 85.4701 101.384C85.3247 102.048 85.0305 102.67 84.6101 103.204C84.1897 103.737 83.6536 104.169 83.0424 104.465C82.4312 104.762 81.7606 104.916 81.0813 104.916H26.7413C25.5578 104.916 24.4084 104.52 23.4756 103.792C22.5427 103.064 21.8802 102.045 21.593 100.897Z" fill="white"/>
<path id="Vector_20" d="M21.593 100.897L8.23376 66.665C8.06808 66.0026 8.0556 65.3113 8.19727 64.6434C8.33878 63.9755 8.63063 63.3487 9.05076 62.8104C9.47089 62.2723 10.008 61.8369 10.6215 61.5374C11.2351 61.2378 11.9088 61.0822 12.5916 61.082H65.6624C66.8539 61.0819 68.0109 61.4829 68.9468 62.2205C69.8827 62.958 70.543 63.9893 70.8213 65.148L85.4497 99.3724C85.6086 100.033 85.6154 100.721 85.4701 101.384C85.3247 102.048 85.0305 102.67 84.6101 103.204C84.1897 103.737 83.6536 104.169 83.0424 104.465C82.4312 104.762 81.7606 104.916 81.0813 104.916H26.7413C25.5578 104.916 24.4084 104.52 23.4756 103.792C22.5427 103.064 21.8802 102.045 21.593 100.897Z" fill="#92DEBA"/>
<path id="Vector_21" d="M21.593 100.897L8.23376 66.665C8.06808 66.0026 8.0556 65.3113 8.19727 64.6434C8.33878 63.9755 8.63063 63.3487 9.05076 62.8104C9.47088 62.2723 10.008 61.8369 10.6215 61.5374C11.2351 61.2378 11.9088 61.0822 12.5916 61.082H65.6624C66.8539 61.0819 68.0109 61.4829 68.9468 62.2205C69.8827 62.958 70.543 63.9893 70.8213 65.148L85.4497 99.3724C85.6086 100.033 85.6154 100.721 85.4701 101.384C85.3247 102.048 85.0305 102.67 84.6101 103.204C84.1897 103.737 83.6536 104.169 83.0424 104.465C82.4312 104.762 81.7606 104.916 81.0813 104.916H26.7413C25.5578 104.916 24.4084 104.52 23.4756 103.792C22.5427 103.064 21.8802 102.045 21.593 100.897Z" stroke="black" stroke-width="0.73264" stroke-linecap="square" stroke-linejoin="round"/>
<path id="Vector_22" d="M23.5492 99.5101L11.2235 67.9291C11.0709 67.3182 11.0595 66.6805 11.1901 66.0646C11.3206 65.4486 11.5898 64.8705 11.9771 64.3741C12.3646 63.8778 12.8599 63.4761 13.4257 63.1997C13.9914 62.9234 14.6128 62.7796 15.2424 62.7793H64.2062C65.3056 62.779 66.3729 63.149 67.2364 63.8295C68.0998 64.5101 68.7088 65.4615 68.9653 66.5307L82.4614 98.1041C82.6077 98.7135 82.6141 99.3481 82.4797 99.9603C82.3455 100.572 82.0742 101.146 81.6862 101.638C81.2981 102.131 80.8035 102.529 80.2396 102.802C79.6756 103.075 79.057 103.217 78.4303 103.217H28.2977C27.2063 103.217 26.1463 102.852 25.2859 102.18C24.4258 101.508 23.8144 100.569 23.5492 99.5101Z" fill="#92DEBA"/>
<path id="Vector_23" d="M60.6734 68.5851C60.0244 67.6108 58.9619 67.1776 58.3007 67.6169C57.6395 68.0562 57.6304 69.2038 58.2794 70.1781C58.3802 70.3278 58.494 70.4683 58.6199 70.5976L53.8091 80.7543C53.0491 80.242 52.1979 80.1159 51.5929 80.5187C51.2023 80.7786 50.9849 81.2209 50.9165 81.7347L47.6303 80.6251L44.756 79.6644C44.452 79.5595 44.1313 79.4592 43.8181 79.3604C43.7 79.0075 43.536 78.6717 43.3302 78.3618C42.4182 76.9938 40.9271 76.3858 39.9999 76.9938C39.0727 77.6018 39.0605 79.1932 39.9467 80.5536L34.4747 88.0366C33.2815 87.0577 31.8755 86.7552 30.9012 87.4027C29.5757 88.2843 29.556 90.5856 30.8571 92.5419C30.9088 92.6194 30.9681 92.6832 31.0228 92.7577L27.3748 97.7418C27.3641 97.757 27.3504 97.7752 27.3413 97.7904C27.2491 97.9295 27.1852 98.0854 27.1533 98.2493C27.1212 98.413 27.122 98.5816 27.1551 98.7451C27.1883 98.9088 27.2533 99.0642 27.3467 99.2027C27.4398 99.3411 27.5595 99.4598 27.6985 99.5521C27.8376 99.6442 27.9936 99.7082 28.1574 99.7401C28.3213 99.772 28.4898 99.7714 28.6534 99.7383C28.8169 99.7052 28.9724 99.6401 29.1109 99.5468C29.2492 99.4536 29.3679 99.334 29.4602 99.1949L32.6993 94.3081C33.7238 94.9024 34.8121 95.0164 35.6101 94.4844C36.8778 93.6423 36.9386 91.5083 35.8093 89.6204L41.0548 81.7058C41.8285 82.2317 42.6827 82.3655 43.2953 81.9596C43.6374 81.7182 43.8706 81.3518 43.9443 80.9397C44.075 80.9747 44.2042 81.0127 44.3349 81.0491L47.2579 81.8471L50.9986 82.8549C51.1132 83.3033 51.3023 83.7292 51.558 84.115C52.47 85.483 53.9596 86.091 54.8883 85.4754C55.817 84.8598 55.8307 83.2471 54.9202 81.8775C54.7845 81.6789 54.6319 81.4922 54.4642 81.3197L59.044 70.9639C59.5957 71.3394 60.2053 71.4367 60.6415 71.1463C61.3118 70.7086 61.3225 69.561 60.6734 68.5851Z" fill="white"/>
<path id="Vector_24" d="M25.834 69.1451H18.7371C18.4124 69.1451 18.0948 69.0504 17.823 68.8728C17.5512 68.6952 17.3369 68.4422 17.2065 68.1449C17.1648 68.0537 17.1425 67.9549 17.1411 67.8546C17.1426 67.6608 17.2207 67.4755 17.3582 67.3389C17.4956 67.2022 17.6815 67.1255 17.8753 67.125H25.4251C25.0649 67.7254 25.2442 68.5553 25.834 69.1451Z" fill="#D7E8F0"/>
<path id="Vector_25" d="M30.4238 68.417C30.4234 68.6103 30.3463 68.7955 30.2095 68.932C30.0729 69.0685 29.8874 69.1451 29.6942 69.1451H25.8349C25.2452 68.5553 25.0658 67.7254 25.42 67.125H28.8278C29.1522 67.1248 29.4696 67.2191 29.7413 67.396C30.0131 67.5731 30.2276 67.8254 30.3585 68.1221C30.3998 68.2151 30.422 68.3153 30.4238 68.417Z" fill="#92DEBA"/>
<path id="Vector_26" d="M28.6482 69.1469C28.6281 69.186 28.6047 69.2231 28.5782 69.2579C28.0721 69.9495 26.9746 70.0179 26.1204 69.3917C26.0193 69.3172 25.9239 69.2354 25.8346 69.1469C25.2449 68.5572 25.0655 67.7273 25.4197 67.1269C25.4397 67.0884 25.4631 67.0518 25.4896 67.0174C25.9912 66.3213 27.0886 66.2574 27.9429 66.8791C28.0453 66.9548 28.1423 67.0376 28.2332 67.1269C28.8184 67.7181 28.9978 68.5435 28.6482 69.1469Z" fill="white"/>
<path id="Vector_27" d="M32.2109 72.8725C32.2094 73.0662 32.1313 73.2513 31.9937 73.3876C31.8563 73.524 31.6704 73.6006 31.4768 73.6006H24.0288C24.389 72.9926 24.2097 72.1718 23.6184 71.582H30.6104C30.9351 71.582 31.2527 71.6767 31.5245 71.8543C31.7963 72.0319 32.0106 72.2849 32.141 72.5822C32.1836 72.6732 32.2073 72.772 32.2109 72.8725Z" fill="#92DEBA"/>
<path id="Vector_28" d="M24.0291 73.6006H20.5331C20.2088 73.6009 19.8916 73.507 19.6198 73.3302C19.3481 73.1534 19.1336 72.9014 19.0024 72.605C18.9605 72.5123 18.9381 72.4118 18.9371 72.3101C18.9369 72.2144 18.9556 72.1197 18.9921 72.0312C19.0286 71.9427 19.0822 71.8625 19.1499 71.7948C19.2175 71.7272 19.2979 71.6735 19.3864 71.6371C19.4747 71.6004 19.5695 71.5817 19.6651 71.582H23.6187C24.2115 72.1718 24.3893 72.9972 24.0291 73.6006Z" fill="#D7E8F0"/>
<path id="Vector_29" d="M24.0291 73.6017C24.0134 73.6415 23.9918 73.6789 23.9652 73.7127C23.4621 74.4088 22.3647 74.4727 21.5119 73.851C21.4086 73.7759 21.3115 73.6926 21.2216 73.6017C20.6364 73.0119 20.4616 72.1866 20.8067 71.5831C20.8261 71.5441 20.8491 71.507 20.8751 71.4722C21.3827 70.7806 22.4802 70.7122 23.3329 71.3384C23.4346 71.4121 23.5302 71.4939 23.6187 71.5831C24.2115 72.1729 24.3893 72.9983 24.0291 73.6017Z" fill="white"/>
<path id="Vector_30" d="M26.5078 78.022H22.0497C21.7253 78.0222 21.4079 77.9279 21.1361 77.7509C20.8644 77.5739 20.6499 77.3216 20.519 77.0249C20.4771 76.9337 20.4547 76.8348 20.4536 76.7346C20.4544 76.5402 20.5321 76.3541 20.6696 76.2169C20.8072 76.0796 20.9936 76.0023 21.1878 76.002H26.0929C25.7433 76.6054 25.9226 77.4308 26.5078 78.022Z" fill="#92DEBA"/>
<path id="Vector_31" d="M33.7324 77.297C33.7317 77.4897 33.6545 77.6744 33.5177 77.8103C33.3809 77.9463 33.1957 78.0223 33.0028 78.022H26.5063C25.9211 77.4308 25.7463 76.6054 26.0914 76.002H32.1364C32.4611 76.002 32.7788 76.0967 33.0506 76.2742C33.3225 76.4519 33.5366 76.7047 33.6671 77.0021C33.7087 77.0948 33.7311 77.1952 33.7324 77.297Z" fill="#D7E8F0"/>
<path id="Vector_32" d="M29.3221 78.0253C29.302 78.0638 29.2786 78.1004 29.2521 78.1348C28.7505 78.8309 27.6531 78.8948 26.7989 78.2731C26.6964 78.1974 26.5994 78.1146 26.5085 78.0253C25.9233 77.4341 25.7485 76.6087 26.0936 76.0053C26.1136 75.9662 26.137 75.9291 26.1635 75.8943C26.6696 75.2027 27.7671 75.1434 28.6213 75.7605C28.7224 75.835 28.8179 75.9168 28.9071 76.0053C29.4969 76.595 29.6823 77.4249 29.3221 78.0253Z" fill="white"/>
<path id="Vector_33" d="M55.3301 98.8854H50.8719C50.5475 98.8857 50.2302 98.7915 49.9584 98.6144C49.6866 98.4373 49.4723 98.1852 49.3413 97.8883C49.2904 97.7773 49.2685 97.6553 49.2776 97.5335C49.2866 97.4118 49.3264 97.2944 49.3933 97.1921C49.46 97.09 49.5517 97.0064 49.6596 96.9492C49.7675 96.8921 49.888 96.8632 50.0101 96.8653H54.9136C54.5655 97.4688 54.7449 98.2941 55.3301 98.8854Z" fill="#92DEBA"/>
<path id="Vector_34" d="M73.0295 98.1603C73.0293 98.2556 73.0103 98.3501 72.9735 98.4381C72.9369 98.5263 72.8832 98.6062 72.8156 98.6736C72.748 98.7409 72.6679 98.7943 72.5795 98.8306C72.4914 98.8669 72.3968 98.8855 72.3014 98.8853H55.3306C54.7454 98.294 54.5706 97.4687 54.9156 96.8652H71.4335C71.7581 96.8652 72.0758 96.9599 72.3476 97.1375C72.6195 97.3152 72.8337 97.5679 72.9641 97.8654C73.0059 97.9581 73.0281 98.0584 73.0295 98.1603Z" fill="#D7E8F0"/>
<path id="Vector_35" d="M58.1451 98.8847C58.125 98.9232 58.1016 98.9598 58.0751 98.9942C57.5735 99.6918 56.4761 99.7542 55.6219 99.1325C55.5194 99.0568 55.4224 98.9739 55.3315 98.8847C54.7463 98.2934 54.5715 97.4681 54.9166 96.8646C54.9365 96.8256 54.9599 96.7885 54.9865 96.7537C55.4942 96.0621 56.5916 96.0028 57.4443 96.6199C57.5454 96.6944 57.6409 96.7762 57.7301 96.8646C58.3199 97.4544 58.4992 98.2843 58.1451 98.8847Z" fill="white"/>
<path id="Vector_36" d="M138.028 120.78C138.594 120.557 139.141 120.289 139.665 119.979C143.18 117.874 145.471 113.152 144.773 109.088C144.425 107.071 143.112 105.665 141.422 104.604C140.241 103.871 138.97 103.272 137.915 102.368C134.404 99.3691 137.213 94.7042 135.269 91.12C132.905 86.7728 129.105 84.2238 124.098 84.3895C121.695 84.4685 118.575 85.0203 116.612 83.2616C115.582 82.3496 115.366 80.8631 114.975 79.6227C114.535 78.224 114.168 76.8034 113.875 75.3667C113.612 74.0047 113.116 72.6982 112.409 71.5044C111.645 70.2094 110.566 69.1279 109.274 68.3595C106.842 66.9566 103.451 66.8274 101.006 68.2699C100.658 68.4767 100.329 68.7133 100.021 68.9767C97.7597 70.9162 96.6774 74.1827 96.7291 77.095" stroke="black" stroke-width="0.73264" stroke-miterlimit="10"/>
<path id="Vector_37" d="M101.32 73.5312C101.194 74.3885 100.673 75.1789 99.7473 75.4161C98.7015 75.6821 98.1467 76.7005 97.8518 77.7234C97.4328 79.2243 97.5401 80.8231 98.1558 82.2545C98.7273 83.6013 99.7457 85.1425 101.468 85.3842C104.619 85.8402 106.188 84.5057 106.188 84.5057" stroke="black" stroke-width="0.73264" stroke-miterlimit="10"/>
<path id="Vector_38" d="M103.947 78.1096C103.649 78.1096 103.406 77.8673 103.406 77.5685C103.406 77.2696 103.649 77.0273 103.947 77.0273C104.246 77.0273 104.489 77.2696 104.489 77.5685C104.489 77.8673 104.246 78.1096 103.947 78.1096Z" fill="black"/>
<path id="Vector_39" d="M99.1874 77.7522C98.8886 77.7522 98.6463 77.51 98.6463 77.211C98.6463 76.9122 98.8886 76.6699 99.1874 76.6699C99.4862 76.6699 99.7285 76.9122 99.7285 77.211C99.7285 77.51 99.4862 77.7522 99.1874 77.7522Z" fill="black"/>
<path id="Vector_40" d="M105.204 118.055C104.417 118.538 105.052 119.335 105.624 119.604C106.606 120.06 107.875 120.141 108.945 120.268C117.081 121.226 119.798 132.395 124.905 134.471C130.012 136.547 143.718 138.064 137.033 114.842C131.886 96.9696 119.477 92.095 114.289 90.1707C113.731 89.9655 113.186 89.7258 112.657 89.4532C109.667 87.8998 108.267 86.2369 107.828 84.0922C107.828 84.0922 107.828 84.0922 107.828 84.0831C107.448 82.2424 107.703 80.5521 108.075 79.5748C108.289 79.0586 108.455 78.5238 108.571 77.9772C108.848 76.4223 107.647 76.6412 104.275 76.8266C102.728 76.9178 101.853 76.2186 101.476 75.3279C101.439 75.2507 101.409 75.1703 101.386 75.0877C101.227 74.5834 101.208 74.0455 101.331 73.5312" stroke="black" stroke-width="0.73264" stroke-miterlimit="10"/>
<path id="Vector_41" d="M101.617 77.7012C101.617 77.7012 101.049 79.779 101.107 80.0861C101.165 80.3931 101.893 80.156 101.893 80.156" stroke="black" stroke-width="0.73264" stroke-miterlimit="10"/>
<path id="Vector_42" d="M102.009 82.0588C103.099 82.6455 104.359 82.2762 104.852 81.2988" stroke="black" stroke-width="0.73264" stroke-miterlimit="10"/>
<path id="Vector_43" d="M103.079 79.78C102.064 78.8216 101.999 77.2416 102.934 76.2508C103.869 75.2601 105.451 75.2338 106.466 76.1922C107.481 77.1505 107.546 78.7306 106.61 79.7213C105.675 80.712 104.094 80.7383 103.079 79.78Z" stroke="black" stroke-width="0.73264" stroke-miterlimit="10"/>
<path id="Vector_44" d="M96.7662 79.2038C95.751 78.2454 95.6863 76.6654 96.6215 75.6747C97.5568 74.6839 99.1379 74.6576 100.153 75.616C101.168 76.5743 101.233 78.1544 100.298 79.1451C99.3626 80.1359 97.7813 80.1622 96.7662 79.2038Z" stroke="black" stroke-width="0.73264" stroke-miterlimit="10"/>
<path id="Vector_45" d="M98.4061 75.6791C97.979 75.6763 97.5669 75.8371 97.2546 76.1285C96.9422 76.4199 96.7533 76.8198 96.7265 77.2462C96.6993 77.7105 96.8533 78.1671 97.1561 78.5202C97.4589 78.8732 97.8869 79.095 98.3499 79.1386C98.4031 79.1386 98.4578 79.1386 98.511 79.1386C98.9357 79.1416 99.3456 78.9829 99.6577 78.6947C99.9696 78.4064 100.16 78.0103 100.191 77.5867C100.22 77.1211 100.067 76.6625 99.7638 76.3079C99.4609 75.9531 99.0316 75.7304 98.5672 75.6867C98.514 75.6867 98.4593 75.6867 98.4061 75.6867V75.6791ZM98.4061 75.3203C98.47 75.3203 98.5353 75.3203 98.6007 75.3295C99.1585 75.3825 99.674 75.6496 100.039 76.0749C100.404 76.5 100.589 77.0501 100.557 77.6095C100.523 78.1281 100.292 78.6143 99.9121 78.9688C99.5318 79.3233 99.0308 79.5193 98.511 79.5171C98.4472 79.5171 98.3818 79.5171 98.3164 79.5079C97.7585 79.4558 97.2427 79.1887 96.8781 78.7633C96.5133 78.3378 96.3281 77.7873 96.3617 77.2279C96.3921 76.707 96.6209 76.2174 97.0012 75.8601C97.3815 75.5027 97.8843 75.3047 98.4061 75.3067V75.3203Z" fill="white"/>
<path id="Vector_46" d="M102.281 77.7603L100.956 77.6387" stroke="black" stroke-width="0.73264" stroke-miterlimit="10"/>
<path id="Vector_47" d="M104.719 76.204C104.278 76.1997 103.853 76.3647 103.532 76.6649C103.21 76.9649 103.015 77.3773 102.989 77.8167C102.96 78.2951 103.119 78.7658 103.431 79.1297C103.743 79.4936 104.184 79.722 104.661 79.7669C104.715 79.7669 104.772 79.7669 104.826 79.7669C105.267 79.7708 105.692 79.6056 106.014 79.3051C106.336 79.0048 106.531 78.5922 106.558 78.1526C106.586 77.6745 106.427 77.2042 106.115 76.8406C105.803 76.4771 105.363 76.2488 104.886 76.204C104.83 76.1984 104.774 76.1959 104.719 76.1964V76.204ZM104.719 75.8301C104.785 75.8301 104.852 75.8331 104.919 75.8392C105.494 75.8925 106.025 76.1686 106.399 76.6082C106.774 77.0478 106.961 77.6161 106.923 78.1922C106.888 78.7235 106.651 79.2218 106.262 79.5849C105.872 79.9482 105.359 80.1492 104.826 80.1469C104.761 80.1469 104.694 80.1469 104.627 80.1378C104.055 80.084 103.526 79.8099 103.152 79.3733C102.779 78.9368 102.589 78.3721 102.624 77.7985C102.658 77.2671 102.894 76.769 103.284 76.4057C103.673 76.0424 104.186 75.8415 104.719 75.8438V75.8301Z" fill="white"/>
<path id="Vector_48" d="M97.006 78.9504C96.1356 78.1286 96.0806 76.7731 96.8833 75.9228C97.686 75.0724 99.0425 75.0493 99.913 75.871C100.783 76.6927 100.838 78.0482 100.036 78.8985C99.2329 79.749 97.8765 79.7721 97.006 78.9504Z" fill="#92DEBA"/>
<path id="Vector_49" d="M102.861 79.6134C101.983 78.7833 101.928 77.4155 102.738 76.5582C103.549 75.7008 104.918 75.6787 105.796 76.5088C106.674 77.3387 106.729 78.7067 105.919 79.564C105.108 80.4213 103.74 80.4435 102.861 79.6134Z" fill="#92DEBA"/>
<path id="Vector_50" d="M110.131 92.1638C110.8 91.4661 111.38 90.4401 111.762 88.9551" stroke="black" stroke-width="0.73264" stroke-miterlimit="10"/>
<path id="Vector_51" d="M103.947 92.1444L103.21 88.9539L102.409 85.5156" stroke="black" stroke-width="0.73264" stroke-miterlimit="10"/>
<path id="Vector_52" d="M100.934 104.85C100.651 103.459 101.417 102.129 102.646 101.879C103.875 101.628 105.101 102.552 105.384 103.942C105.668 105.333 104.901 106.663 103.672 106.913C102.443 107.163 101.218 106.24 100.934 104.85Z" fill="#D7E8F0"/>
<path id="Vector_53" d="M53.9156 127.467L55.162 134.431C55.197 134.627 55.2996 134.804 55.4519 134.932C55.604 135.059 55.7963 135.129 55.995 135.129H62.5142C62.7149 135.129 62.9091 135.058 63.0623 134.928C63.2154 134.799 63.3174 134.619 63.3502 134.421L64.4902 127.467H53.9156Z" stroke="#CCDDE2" stroke-width="0.73264" stroke-miterlimit="10"/>
<path id="Vector_54" d="M52.7289 126.69C52.7464 126.902 52.8429 127.1 52.9992 127.244C53.1553 127.388 53.36 127.468 53.5725 127.468H64.8205C65.0303 127.468 65.2324 127.391 65.3882 127.25C65.544 127.11 65.6424 126.917 65.6641 126.708C65.6754 126.591 65.6618 126.472 65.6246 126.36C65.5874 126.248 65.527 126.145 65.4475 126.058C65.3682 125.971 65.2714 125.901 65.1633 125.853C65.0554 125.806 64.9386 125.781 64.8205 125.781H53.5725C53.4562 125.781 53.341 125.805 53.2345 125.852C53.1278 125.899 53.0319 125.967 52.9527 126.052C52.8736 126.137 52.8128 126.238 52.7744 126.348C52.7358 126.458 52.7204 126.574 52.7289 126.69Z" stroke="#CCDDE2" stroke-width="0.73264" stroke-miterlimit="10"/>
<path id="Vector_55" d="M58.8439 125.768C58.8439 125.411 57.9319 120.962 58.6919 117.018C59.1053 114.853 60.0174 112.842 61.8535 111.74" stroke="#CCDDE2" stroke-width="0.73264" stroke-miterlimit="10"/>
<path id="Vector_56" d="M58.6875 117.023C58.6875 117.023 58.4793 114.025 55.8892 113.818" stroke="#CCDDE2" stroke-width="0.73264" stroke-miterlimit="10"/>
<path id="Vector_57" d="M58.4102 121.598C57.6733 121.081 56.7857 120.825 55.887 120.868" stroke="#CCDDE2" stroke-width="0.73264" stroke-miterlimit="10"/>
<path id="Vector_58" d="M58.4105 119.47C58.4105 119.47 60.2923 117.242 63.2988 119.005" stroke="#CCDDE2" stroke-width="0.73264" stroke-miterlimit="10"/>
<path id="Vector_59" d="M59.737 118.572C59.737 118.572 63.9748 114.702 64.8047 119.94C64.8047 119.94 63.6115 120.717 61.8498 119.94C60.0881 119.163 59.737 118.572 59.737 118.572Z" stroke="#CCDDE2" stroke-width="0.73264" stroke-miterlimit="10"/>
<path id="Vector_60" d="M57.7572 114.732C57.7572 114.732 57.9092 112.99 55.8906 112.42C53.872 111.85 52.7275 114.235 52.7275 114.235C52.7275 114.235 54.2855 115.957 57.7572 114.732Z" stroke="#CCDDE2" stroke-width="0.73264" stroke-miterlimit="10"/>
<path id="Vector_61" d="M57.2871 120.868C57.2871 120.868 57.357 119.106 55.0071 119.469C52.6572 119.833 52.2711 121.837 52.2711 121.837C52.2711 121.837 56.1197 123.248 57.2871 121.053" stroke="#CCDDE2" stroke-width="0.73264" stroke-miterlimit="10"/>
<path id="Vector_62" d="M60.1213 113.375C60.1213 113.499 61.8875 113.223 62 113.183C62.8557 112.928 63.4637 112.335 63.8635 111.551C63.9866 111.307 64.6995 109.944 64.4973 109.707C64.4913 109.707 60.293 108.354 60.1213 113.375Z" stroke="#CCDDE2" stroke-width="0.73264" stroke-miterlimit="10"/>
<path id="Vector_63" d="M18.5 114C19.8434 117.885 22.0672 121.428 25.0081 124.369C30.5704 130.013 38.93 134.054 49.5 135V114H18.5Z" stroke="#CCDDE2" stroke-width="0.73264" stroke-miterlimit="10"/>
<path id="Vector_64" d="M24.5 124C30.1777 129.839 38.7107 134.022 49.5 135V124H24.5Z" stroke="#CCDDE2" stroke-width="0.73264" stroke-miterlimit="10"/>
<path id="Vector_65" d="M28.2801 119.336C28.2801 118.484 28.9711 117.793 29.8236 117.793C30.676 117.793 31.3672 118.484 31.3672 119.336C31.3672 120.189 30.676 120.88 29.8236 120.88C28.9711 120.88 28.2801 120.189 28.2801 119.336Z" stroke="#CCDDE2" stroke-width="0.73264" stroke-miterlimit="10"/>
</g>
</g>
</svg>
