<svg width="56" height="56" viewBox="0 0 56 56" fill="none" xmlns="http://www.w3.org/2000/svg">
<path d="M48.2067 18.7598C48.2067 19.2964 48.0667 19.8564 47.7167 20.2998L25.8301 48.1598C25.0367 49.1631 24.1034 49.5131 23.3101 49.2331L23.3334 48.9998L25.6667 23.3331L46.7601 19.1098L48.2067 18.7598Z" fill="#D1BEC8"/>
<path opacity="0.4" d="M48.2066 18.7592L46.76 19.1092L25.6666 23.3326L39.55 9.44922C39.83 9.56589 40.0633 9.72922 40.2266 9.89255L47.53 17.1959C47.95 17.6159 48.1833 18.1759 48.2066 18.7592Z" fill="#D1BEC8"/>
<path d="M39.55 9.45062L25.6667 23.3339L7.02333 6.76728L6.20667 5.97395V5.95062C6.67333 5.34395 7.51333 5.04062 8.63333 5.20395L38.8733 9.24062C39.0833 9.26395 39.3167 9.33395 39.55 9.45062Z" fill="#D1BEC8"/>
<path opacity="0.4" d="M25.6666 23.3327L23.3333 48.9993L23.31 49.2327C22.7266 49.0227 22.19 48.4627 21.84 47.576L6.15996 8.37599C5.76329 7.39599 5.80996 6.55599 6.20663 5.97266L7.02329 6.76599L25.6666 23.3327Z" fill="#D1BEC8"/>
</svg>
