<svg width="17" height="16" viewBox="0 0 17 16" fill="none" xmlns="http://www.w3.org/2000/svg">
<path d="M8.80042 6.49967C8.52708 6.49967 8.30042 6.273 8.30042 5.99967V2.53967L7.82042 3.01967C7.62708 3.213 7.30708 3.213 7.11375 3.01967C6.92042 2.82633 6.92042 2.50633 7.11375 2.313L8.44708 0.979667C8.58708 0.839667 8.80708 0.793 8.99375 0.873C9.18042 0.946334 9.30042 1.133 9.30042 1.333V5.99967C9.30042 6.273 9.07375 6.49967 8.80042 6.49967Z" fill="#140F29"/>
<path d="M10.1344 3.1676C10.0077 3.1676 9.88107 3.12094 9.78107 3.02094L8.44773 1.6876C8.2544 1.49427 8.2544 1.17427 8.44773 0.980938C8.64107 0.787604 8.96107 0.787604 9.1544 0.980938L10.4877 2.31427C10.6811 2.5076 10.6811 2.8276 10.4877 3.02094C10.3877 3.12094 10.2611 3.1676 10.1344 3.1676Z" fill="#140F29"/>
<path d="M9.97443 11.8327H7.62109C6.92109 11.8327 6.29443 11.446 5.98109 10.8193L5.20109 9.25935C5.17443 9.19935 5.11443 9.16602 5.05443 9.16602H2.12109C1.84776 9.16602 1.62109 8.93935 1.62109 8.66602C1.62109 8.39268 1.84776 8.16602 2.12109 8.16602H5.06109C5.50776 8.16602 5.90776 8.41268 6.10776 8.81268L6.88776 10.3727C7.02776 10.6593 7.31443 10.8327 7.63443 10.8327H9.98776C10.3078 10.8327 10.5944 10.6593 10.7344 10.3727L11.5144 8.81268C11.7144 8.41268 12.1144 8.16602 12.5611 8.16602H15.4678C15.7411 8.16602 15.9678 8.39268 15.9678 8.66602C15.9678 8.93935 15.7411 9.16602 15.4678 9.16602H12.5611C12.4944 9.16602 12.4411 9.19935 12.4144 9.25935L11.6344 10.8193C11.3011 11.446 10.6744 11.8327 9.97443 11.8327Z" fill="#140F29"/>
<path d="M10.8014 15.1673H6.80143C3.18143 15.1673 1.63477 13.6206 1.63477 10.0006V8.0006C1.63477 4.87394 2.79477 3.30727 5.39477 2.92727C5.67477 2.88727 5.92143 3.07394 5.96143 3.34727C6.00143 3.6206 5.81477 3.87394 5.54143 3.91394C3.4481 4.2206 2.63477 5.36727 2.63477 8.0006V10.0006C2.63477 13.0739 3.7281 14.1673 6.80143 14.1673H10.8014C13.8748 14.1673 14.9681 13.0739 14.9681 10.0006V8.0006C14.9681 5.36727 14.1548 4.2206 12.0614 3.91394C11.7881 3.87394 11.6014 3.6206 11.6414 3.34727C11.6814 3.07394 11.9348 2.88727 12.2081 2.92727C14.8081 3.30727 15.9681 4.87394 15.9681 8.0006V10.0006C15.9681 13.6206 14.4214 15.1673 10.8014 15.1673Z" fill="#140F29"/>
</svg>
