<svg width="17" height="16" viewBox="0 0 17 16" fill="none" xmlns="http://www.w3.org/2000/svg">
<path d="M10.6003 15.1673H6.60026C2.98026 15.1673 1.43359 13.6207 1.43359 10.0007V6.00065C1.43359 2.38065 2.98026 0.833984 6.60026 0.833984H7.93359C8.20693 0.833984 8.43359 1.06065 8.43359 1.33398C8.43359 1.60732 8.20693 1.83398 7.93359 1.83398H6.60026C3.52693 1.83398 2.43359 2.92732 2.43359 6.00065V10.0007C2.43359 13.074 3.52693 14.1673 6.60026 14.1673H10.6003C13.6736 14.1673 14.7669 13.074 14.7669 10.0007V8.66732C14.7669 8.39398 14.9936 8.16732 15.2669 8.16732C15.5403 8.16732 15.7669 8.39398 15.7669 8.66732V10.0007C15.7669 13.6207 14.2203 15.1673 10.6003 15.1673Z" fill="#140F29"/>
<path d="M6.26649 11.7924C5.85983 11.7924 5.48649 11.6457 5.21316 11.3791C4.88649 11.0524 4.74649 10.5791 4.81983 10.0791L5.10649 8.0724C5.15983 7.68573 5.41316 7.18573 5.68649 6.9124L10.9398 1.65906C12.2665 0.332396 13.6132 0.332396 14.9398 1.65906C15.6665 2.38573 15.9932 3.12573 15.9265 3.86573C15.8665 4.46573 15.5465 5.0524 14.9398 5.6524L9.68649 10.9057C9.41316 11.1791 8.91316 11.4324 8.52649 11.4857L6.51983 11.7724C6.43316 11.7924 6.34649 11.7924 6.26649 11.7924ZM11.6465 2.36573L6.39316 7.61906C6.26649 7.74573 6.11982 8.03906 6.09316 8.2124L5.80649 10.2191C5.77983 10.4124 5.81983 10.5724 5.91983 10.6724C6.01983 10.7724 6.17983 10.8124 6.37316 10.7857L8.37983 10.4991C8.55316 10.4724 8.85316 10.3257 8.97316 10.1991L14.2265 4.94573C14.6598 4.5124 14.8865 4.12573 14.9198 3.76573C14.9598 3.3324 14.7332 2.8724 14.2265 2.35906C13.1598 1.2924 12.4265 1.5924 11.6465 2.36573Z" fill="#140F29"/>
<path d="M13.8327 6.55416C13.786 6.55416 13.7393 6.5475 13.6993 6.53417C11.946 6.04083 10.5527 4.6475 10.0593 2.89417C9.98599 2.6275 10.1393 2.35416 10.406 2.27416C10.6727 2.20083 10.946 2.35416 11.0193 2.62083C11.4193 4.04083 12.546 5.1675 13.966 5.5675C14.2327 5.64083 14.386 5.92083 14.3127 6.1875C14.2527 6.41417 14.0527 6.55416 13.8327 6.55416Z" fill="#140F29"/>
</svg>
