<svg width="20" height="20" viewBox="0 0 20 20" fill="none" xmlns="http://www.w3.org/2000/svg">
<path d="M9.99896 13.6092C8.00729 13.6092 6.39062 11.9926 6.39062 10.0009C6.39062 8.00924 8.00729 6.39258 9.99896 6.39258C11.9906 6.39258 13.6073 8.00924 13.6073 10.0009C13.6073 11.9926 11.9906 13.6092 9.99896 13.6092ZM9.99896 7.64258C8.69896 7.64258 7.64062 8.70091 7.64062 10.0009C7.64062 11.3009 8.69896 12.3592 9.99896 12.3592C11.299 12.3592 12.3573 11.3009 12.3573 10.0009C12.3573 8.70091 11.299 7.64258 9.99896 7.64258Z" fill="#93919D"/>
<path d="M9.99844 17.5158C6.8651 17.5158 3.90677 15.6824 1.87344 12.4991C0.990104 11.1241 0.990104 8.88242 1.87344 7.49909C3.9151 4.31576 6.87344 2.48242 9.99844 2.48242C13.1234 2.48242 16.0818 4.31576 18.1151 7.49909C18.9984 8.87409 18.9984 11.1158 18.1151 12.4991C16.0818 15.6824 13.1234 17.5158 9.99844 17.5158ZM9.99844 3.73242C7.30677 3.73242 4.73177 5.34909 2.93177 8.17409C2.30677 9.14909 2.30677 10.8491 2.93177 11.8241C4.73177 14.6491 7.30677 16.2658 9.99844 16.2658C12.6901 16.2658 15.2651 14.6491 17.0651 11.8241C17.6901 10.8491 17.6901 9.14909 17.0651 8.17409C15.2651 5.34909 12.6901 3.73242 9.99844 3.73242Z" fill="#93919D"/>
</svg>
