<svg width="152" height="152" viewBox="0 0 152 152" fill="none" xmlns="http://www.w3.org/2000/svg">
<path d="M120.755 86.288L120.46 89.1045C119.692 90.939 118.925 92.7722 118.158 94.6043C117.89 95.2476 117.622 95.89 117.352 96.5309C117.229 96.8309 117.055 97.1072 116.838 97.3476C116.827 97.3637 116.813 97.3772 116.797 97.3871C116.78 97.3969 116.761 97.4027 116.742 97.4042C116.677 97.4042 116.653 97.3176 116.648 97.2526C116.611 96.5579 116.529 95.8664 116.4 95.1826C115.682 91.8811 111.849 90.6711 108.842 90.7461C107.639 90.7645 106.454 91.039 105.365 91.5511C103.795 92.3111 103.184 94.4243 103.101 94.5027L103.034 94.7743L101.957 99.2592C101.731 100.259 101.557 100.787 100.634 101.054C100.604 101.064 99.684 101.554 99.654 101.554C99.2973 101.654 100.274 101.439 99.8873 101.374L98.6623 101.182L98.1407 101.062L90.5293 99.2608C90.8243 99.3108 91.1259 99.3658 91.4326 99.4275L93.1992 99.8491L92.7325 97.6092C91.5176 90.6361 93.5308 84.3097 96.9607 80.8748C97.864 79.9715 98.3123 79.7399 99.3656 79.1382L99.9573 80.5398C99.9573 80.5398 106.01 82.3448 107.437 76.8066C108.014 76.8566 109.122 76.8483 109.694 76.9733C112.673 77.5981 115.365 79.1864 117.352 81.4931C117.527 81.6931 117.698 81.8998 117.868 82.1098L117.958 82.2198C118.063 82.3514 118.175 82.4864 118.28 82.6214L118.355 82.7281C119.226 83.8652 120.028 85.054 120.755 86.288Z" fill="#FEF4E6"/>
<path d="M48.832 57.1364C49.792 52.3366 53.8685 47.6868 65.5114 46.6218C91.3905 44.2569 77.401 37.1222 85.8273 29.3141C94.2537 21.5061 126.114 34.3523 117.78 54.4149C109.445 74.4775 136.959 52.2099 148.612 77.6223C150.3 81.31 151.113 85.3381 150.987 89.3919C150.84 93.6751 149.737 97.8713 147.758 101.673C144.037 108.943 137.124 115.419 127.126 119.432C125.65 120.034 124.106 120.574 122.493 121.054" stroke="#FADBAD" stroke-width="0.753306" stroke-miterlimit="10"/>
<path d="M130.807 96.6101C130.605 98.965 129.009 99.3483 129.009 99.3483C127.659 100.147 125.586 99.2883 125.167 97.7917C125.161 97.7757 125.158 97.7589 125.157 97.7417C124.824 96.4601 124.174 94.8135 123.301 93.0119C121.617 88.9387 119.429 84.8322 116.623 81.584C114.635 79.2774 111.944 77.6891 108.965 77.0641C108.955 77.0641 108.95 77.0541 108.94 77.0541C104.988 75.8642 103.065 73.4343 102.232 71.1043C102.232 71.1043 102.232 71.1044 102.232 71.0943C101.875 69.6227 101.512 68.1878 101.707 67.3195C102.04 65.7979 102.207 64.1529 101.792 63.8196C101.27 63.383 100.327 63.7063 97.9267 64.1896C95.8484 64.6163 94.7401 64.3746 94.4901 63.1046C94.4506 62.9076 94.4305 62.7072 94.4301 62.5063C94.4201 62.633 93.9302 62.1297 93.9068 62.2497C93.7502 62.898 93.4368 63.158 92.7535 63.443C91.7386 63.8646 91.3236 65.4929 91.1736 66.5779C91.0169 67.7328 91.5369 69.3261 91.9486 70.411C91.4219 69.8094 90.8186 69.8794 89.8753 70.2444C89.6387 70.3344 89.042 70.3094 88.5704 70.1444C88.637 70.0872 88.7155 70.0456 88.8004 70.0227C88.952 69.9727 87.852 69.4261 88.012 69.3911C89.6137 69.0294 90.512 67.6945 90.322 66.5195C89.8503 63.5613 90.4786 60.0814 92.4769 57.7765C94.6801 55.2416 98.275 54.7149 101.318 55.8749C103.708 56.7832 105.968 58.6465 106.796 61.1314C106.796 61.1414 106.796 61.1514 106.806 61.1614C106.912 61.4774 106.993 61.8012 107.048 62.1297C107.353 63.9779 106.701 65.8512 106.34 67.6778C106.21 68.3361 106.54 69.0544 106.61 69.5761C107.011 72.7093 110.628 73.5943 113.489 74.9242C119.504 77.7258 124.416 82.5156 127.719 88.3404C129.912 92.1969 130.695 94.8268 130.807 96.6101Z" fill="#FFDCAE"/>
<path d="M99.0969 78.5156C99.0319 78.5506 98.9669 78.5856 98.9069 78.6256C97.8268 79.2448 96.8337 80.0047 95.9537 80.8855C92.5255 84.3204 90.5122 90.6468 91.7272 97.6199L92.1938 99.8482" stroke="black" stroke-width="0.753306" stroke-miterlimit="10"/>
<path d="M129.435 125.306C129.435 120.101 128.985 114.905 128.09 109.777C127.491 106.297 126.666 102.861 125.62 99.4889C124.992 97.4406 124.223 95.2307 123.31 93.0124C122.462 90.9365 121.482 88.9169 120.377 86.966C119.305 85.0556 118.051 83.2533 116.632 81.5845C114.645 79.2779 111.954 77.6895 108.974 77.0647C108.402 76.9435 107.824 76.8567 107.242 76.8047" stroke="black" stroke-width="0.753306" stroke-miterlimit="10"/>
<path d="M67.8292 80.0021L67.7442 79.9871C66.7264 79.8166 65.6822 79.9043 64.707 80.2419C63.7319 80.5797 62.8571 81.1569 62.1628 81.9204L56.463 88.1301L55.7963 88.8634C55.7548 88.9084 55.7159 88.9558 55.6797 89.0051" stroke="black" stroke-width="0.753306" stroke-miterlimit="10"/>
<path d="M59.5996 90.6253L62.7278 87.1554L62.7328 87.1504" stroke="black" stroke-width="0.753306" stroke-miterlimit="10"/>
<path d="M86.8105 108.548L101.525 113.732C102.942 114.232 104.45 114.42 105.947 114.285C107.443 114.149 108.893 113.693 110.197 112.948C111.501 112.202 112.63 111.184 113.506 109.963C114.382 108.742 114.984 107.347 115.273 105.873L118.754 88.1001C118.933 87.1875 118.924 86.2483 118.73 85.3389C118.536 84.4296 118.16 83.5689 117.624 82.8086C117.475 82.5945 117.312 82.3896 117.138 82.1953" stroke="black" stroke-width="0.753306" stroke-miterlimit="10"/>
<path d="M77.0735 107.833C75.2002 109.098 73.8236 112.939 73.092 115.461C72.9667 115.884 72.7075 116.255 72.3535 116.518C71.9995 116.781 71.5699 116.923 71.1287 116.921C70.8301 116.921 70.5349 116.856 70.2638 116.731C69.8476 116.536 69.5094 116.206 69.304 115.795C69.0983 115.384 69.0371 114.916 69.1305 114.466C70.3554 108.476 74.6786 96.6516 89.5297 99.2582C89.8264 99.3082 90.128 99.3632 90.433 99.4249L92.1963 99.8498L97.1411 101.055L98.4744 101.376C98.9802 101.499 99.5102 101.48 100.006 101.321C100.037 101.315 100.067 101.307 100.096 101.296C100.553 101.14 100.962 100.87 101.287 100.513C101.612 100.156 101.842 99.7227 101.954 99.2532L103.079 94.5734L103.144 94.3017L104.617 88.1836" stroke="black" stroke-width="0.753306" stroke-miterlimit="10"/>
<path d="M69.8294 88.6554H64.7896C64.215 88.6554 63.664 88.4271 63.2577 88.021C62.8514 87.6146 62.623 87.0635 62.623 86.4889C62.623 85.9142 62.8514 85.3632 63.2577 84.9569C63.664 84.5506 64.215 84.3223 64.7896 84.3223H71.9294" stroke="black" stroke-width="0.753306" stroke-miterlimit="10"/>
<path d="M65.9642 88.6543C65.8925 89.5376 65.5559 90.1909 65.0592 90.6426C63.7793 91.8092 61.4343 91.6758 59.8027 90.8775" stroke="black" stroke-width="0.753306" stroke-miterlimit="10"/>
<path d="M56.4714 88.1273C55.0265 86.3807 55.3214 84.0125 56.4431 82.1825C59.6246 76.9894 66.8944 77.986 71.6092 80.1443C75.429 81.8876 78.7756 84.5075 82.0338 87.1207C83.6254 88.3973 85.1887 89.7273 86.7003 91.1206C86.9778 91.3717 87.3086 91.5567 87.6679 91.6614C88.0272 91.7662 88.4056 91.788 88.7746 91.7255C89.1435 91.663 89.4935 91.5175 89.7982 91.3002C90.1028 91.0829 90.3543 90.7992 90.5335 90.4706C91.3668 88.9323 92.2684 87.254 92.4384 86.789" stroke="black" stroke-width="0.753306" stroke-miterlimit="10"/>
<path d="M65.0605 90.6426C65.0605 90.6426 72.5786 94.7208 78.1634 100.581" stroke="black" stroke-width="0.753306" stroke-miterlimit="10"/>
<path d="M75.2395 110.045C74.4062 111.469 75.1228 113.559 76.6978 114.059C78.7092 114.707 80.8358 114.921 82.9359 114.683C85.2275 114.417 86.7507 112.525 87.754 110.359C87.8267 110.197 87.8645 110.023 87.8652 109.846C87.8659 109.669 87.8294 109.494 87.758 109.333C87.6867 109.171 87.582 109.026 87.451 108.907C87.3199 108.788 87.1654 108.699 86.9974 108.644C86.6942 108.544 86.3646 108.562 86.0741 108.695C85.7838 108.827 85.5539 109.064 85.4308 109.359C85.0975 110.129 84.5825 111.092 83.8992 111.525" stroke="black" stroke-width="0.753306" stroke-miterlimit="10"/>
<path d="M79.1642 109.779C79.1642 109.779 77.1059 111.993 78.7292 114.336C78.8005 114.434 78.8845 114.523 78.9792 114.599" stroke="black" stroke-width="0.753306" stroke-miterlimit="10"/>
<path d="M81.8783 110.145C81.8783 110.145 79.975 114.428 82.4166 114.741" stroke="black" stroke-width="0.753306" stroke-miterlimit="10"/>
<path d="M149.449 125.311H31.5801" stroke="black" stroke-width="0.753306" stroke-miterlimit="10"/>
<path d="M77.9524 117.239H66.1978C66.0785 118.349 65.5529 119.375 64.7221 120.12C63.8913 120.866 62.8141 121.277 61.698 121.276H22.1895C22.1916 122.344 22.6171 123.368 23.3727 124.124C24.1282 124.879 25.1523 125.305 26.221 125.307H77.9524C79.0227 125.307 80.0493 124.882 80.8073 124.127C81.5655 123.371 81.9933 122.346 81.9973 121.276V118.566C81.9973 118.212 81.8568 117.873 81.6068 117.623C81.3568 117.373 81.0176 117.232 80.664 117.232L77.9524 117.239Z" stroke="black" stroke-width="0.753306" stroke-miterlimit="10"/>
<path d="M59.7978 90.8755C60.1442 91.3547 60.3933 91.8971 60.5312 92.4721L66.0993 115.695C66.2223 116.199 66.2544 116.721 66.1943 117.236C66.075 118.346 65.5493 119.372 64.7185 120.117C63.8877 120.863 62.8106 121.274 61.6944 121.273H21.4526C20.4363 121.273 19.4495 120.93 18.6517 120.301C17.8537 119.671 17.2911 118.791 17.0544 117.803L11.4963 94.582C11.3364 93.9171 11.3296 93.2248 11.4761 92.5568C11.6226 91.8888 11.9186 91.2628 12.3421 90.7259C12.7654 90.1889 13.305 89.7549 13.9203 89.4567C14.5357 89.1584 15.2106 89.0036 15.8944 89.0039H56.133C56.794 89.0026 57.4473 89.1472 58.0459 89.4276C58.6446 89.7079 59.1739 90.1169 59.5962 90.6255L59.7978 90.8755Z" stroke="black" stroke-width="0.753306" stroke-miterlimit="10"/>
<path d="M53.5001 61.9766C53.2434 61.675 52.9735 61.385 52.6918 61.1033C51.1114 59.5174 49.2331 58.2593 47.165 57.4011C45.0969 56.5432 42.8797 56.1022 40.6406 56.1035H19.5447C17.3063 56.1025 15.0895 56.5428 13.0212 57.3991C10.953 58.2554 9.07387 59.5109 7.49111 61.0938C5.90835 62.6768 4.65307 64.556 3.797 66.6243C2.94093 68.6927 2.50086 70.9093 2.50196 73.1479V73.2696C2.49981 74.8577 2.90431 76.4201 3.67692 77.8077C4.54514 78.6919 5.58147 79.3935 6.72491 79.8711C7.86835 80.349 9.0958 80.593 10.335 80.5893H31.0176C31.6487 80.5893 32.254 80.8399 32.7004 81.2863C33.1467 81.7326 33.3975 82.3379 33.3975 82.9692C33.3983 83.6012 33.65 84.2068 34.0971 84.6535C34.5443 85.1 35.1504 85.3508 35.7824 85.3508H35.8341L40.9406 85.2208C40.9406 85.1708 40.9306 85.1258 40.9306 85.0808C40.4891 84.929 40.1061 84.643 39.8351 84.263C39.5641 83.8828 39.4186 83.4277 39.4189 82.9609V82.8509C39.4194 82.2197 39.6703 81.6147 40.1164 81.1684C40.5627 80.7223 41.1679 80.4713 41.7989 80.471H46.8337C49.3089 80.471 51.6828 79.4877 53.4331 77.7374C55.1834 75.9871 56.1667 73.6132 56.1667 71.138C56.1753 67.8916 55.2497 64.7112 53.5001 61.9766ZM16.9681 71.8513C16.161 71.8516 15.3718 71.6124 14.7007 71.1643C14.0294 70.716 13.5062 70.0787 13.1972 69.333C12.8884 68.5874 12.8076 67.7669 12.9651 66.9753C13.1226 66.1836 13.5112 65.4565 14.0822 64.8859C14.653 64.3152 15.3803 63.9269 16.172 63.7696C16.9636 63.6124 17.7841 63.6936 18.5297 64.0029C19.2752 64.3122 19.9122 64.8355 20.3601 65.507C20.8081 66.1783 21.047 66.9676 21.0463 67.7748C21.045 68.8557 20.6148 69.8922 19.8503 70.6563C19.0857 71.4206 18.0491 71.8503 16.9681 71.8513ZM30.2793 71.8513C29.4723 71.8509 28.6835 71.6113 28.0127 71.1626C27.3419 70.714 26.8192 70.0765 26.5109 69.3307C26.2024 68.5851 26.1221 67.7646 26.2799 66.9731C26.4378 66.1818 26.8269 65.455 27.3979 64.8847C27.9689 64.3144 28.696 63.9262 29.4876 63.7694C30.2793 63.6124 31.0996 63.6939 31.8449 64.0032C32.5902 64.3125 33.2272 64.836 33.675 65.5073C34.1228 66.1786 34.3615 66.9678 34.3608 67.7748C34.3608 68.3104 34.2551 68.8409 34.05 69.3359C33.8448 69.8308 33.5442 70.2803 33.165 70.659C32.786 71.0376 32.336 71.3378 31.8409 71.5423C31.3457 71.7469 30.8151 71.8519 30.2793 71.8513ZM42.9571 71.8513C42.1502 71.8506 41.3617 71.6106 40.6911 71.1618C40.0204 70.713 39.4981 70.0753 39.19 69.3295C38.8818 68.5839 38.8016 67.7634 38.9596 66.9721C39.1178 66.1808 39.5069 65.4542 40.0779 64.8842C40.6491 64.314 41.3762 63.9261 42.1678 63.7692C42.9593 63.6126 43.7796 63.6939 44.5249 64.0034C45.2701 64.3127 45.9069 64.8362 46.3545 65.5075C46.8023 66.1788 47.041 66.9678 47.0403 67.7748C47.0403 68.3106 46.9347 68.8412 46.7294 69.3362C46.5242 69.8313 46.2232 70.281 45.8441 70.6596C45.4647 71.0383 45.0146 71.3383 44.5193 71.5428C44.0238 71.7473 43.493 71.8521 42.9571 71.8513Z" fill="#FFDCAE"/>
<path d="M56.1647 71.1396C56.1647 73.6148 55.1814 75.9887 53.4311 77.739C51.6808 79.4893 49.3069 80.4725 46.8317 80.4725H41.8002C41.1694 80.4729 40.5646 80.7235 40.1184 81.1695C39.6723 81.6153 39.4211 82.22 39.4203 82.8508V82.9608C39.4199 83.4276 39.5654 83.8828 39.8364 84.2629C40.1074 84.6429 40.4904 84.9289 40.9319 85.0807C41.1644 85.1615 41.409 85.202 41.6552 85.2007L40.9419 85.2207L35.8321 85.3507H35.7771C35.1454 85.3507 34.5396 85.1 34.0925 84.6539C33.6453 84.2077 33.3935 83.6024 33.3922 82.9708C33.3922 82.3395 33.1415 81.7342 32.695 81.2879C32.2487 80.8415 31.6434 80.5909 31.0122 80.5909H10.333C7.85773 80.5909 5.48385 79.6076 3.73357 77.8573C1.9833 76.107 1 73.7331 1 71.2579V71.1362C1.00022 68.8991 1.44105 66.6842 2.2973 64.6175C3.15355 62.5509 4.40849 60.6731 5.99044 59.0915C7.57238 57.5099 9.45036 56.2553 11.5171 55.3995C13.5839 54.5437 15.7991 54.1032 18.036 54.1035H39.1253C43.6436 54.1038 47.977 55.8988 51.1723 59.0935C54.3676 62.2882 56.1633 66.6211 56.1647 71.1396Z" stroke="black" stroke-width="0.753306" stroke-miterlimit="10"/>
<path d="M108.967 77.0571C108.957 77.0571 108.952 77.0471 108.942 77.0471C104.991 75.8571 103.067 73.4272 102.234 71.0973C102.234 71.0973 102.234 71.0973 102.234 71.0873C101.582 69.2707 101.597 67.5125 101.832 66.4625C101.973 65.9063 102.062 65.3385 102.099 64.7659C102.154 63.1443 100.964 63.5409 97.5608 64.2192C95.9976 64.5359 94.9976 63.9426 94.4976 63.0993C94.4489 63.0258 94.4066 62.9483 94.3709 62.8676C94.1376 62.3768 94.041 61.8322 94.091 61.291" stroke="black" stroke-width="0.753306" stroke-miterlimit="10"/>
<path d="M92.1317 70.63C92.0717 70.545 92.0101 70.4633 91.9501 70.3983C91.4234 69.7967 90.8201 69.8667 89.8768 70.2317C89.6401 70.3216 89.0435 70.2967 88.5718 70.1317C88.1752 69.99 87.8785 69.745 88.0135 69.3784C88.0482 69.3029 88.0999 69.2365 88.1642 69.1842C88.2287 69.1319 88.3042 69.095 88.3852 69.0767C88.5424 69.037 88.7015 69.0052 88.8618 68.9817C90.4801 68.62 90.1185 66.7468 89.9218 65.5718C89.4451 62.6153 90.0785 59.1354 92.0967 56.8305C94.32 54.2956 97.9565 53.7672 101.028 54.9272C103.73 55.9472 106.271 58.1604 106.798 61.1187C106.798 61.1287 106.798 61.1387 106.808 61.1486C106.818 61.1586 106.808 61.1737 106.808 61.1837C107.12 63.0319 106.808 65.0352 106.446 66.8634C106.23 67.9467 106.311 68.8317 106.613 69.5633C107.558 71.9583 110.746 72.7932 113.316 73.9782C119.397 76.7798 124.352 81.5696 127.692 87.3944C130.329 92.0142 130.954 94.8558 130.809 96.609C130.607 98.9639 129.01 99.3473 129.01 99.3473C127.66 100.146 125.585 99.2873 125.169 97.7906C125.163 97.7746 125.159 97.7576 125.159 97.7407C124.826 96.459 124.176 94.8124 123.302 93.0108" stroke="black" stroke-width="0.753306" stroke-miterlimit="10"/>
<path d="M94.0863 61.291C94.0863 62.1826 93.6664 63.0626 92.7531 63.4376C91.7264 63.8609 91.3098 64.9759 91.1598 66.0608C90.9501 67.6496 91.2919 69.2621 92.1281 70.629C92.9031 71.9156 94.1647 73.3339 95.9513 73.3339C99.2245 73.3339 100.628 71.7556 100.628 71.7556" stroke="black" stroke-width="0.753306" stroke-miterlimit="10"/>
<path d="M97.4785 66.5742C97.786 66.5742 98.0352 66.3251 98.0352 66.0176C98.0352 65.7103 97.786 65.4609 97.4785 65.4609C97.171 65.4609 96.9219 65.7103 96.9219 66.0176C96.9219 66.3251 97.171 66.5742 97.4785 66.5742Z" fill="black"/>
<path d="M92.584 66.9004C92.8915 66.9004 93.1406 66.6512 93.1406 66.3437C93.1406 66.0364 92.8915 65.7871 92.584 65.7871C92.2765 65.7871 92.0273 66.0364 92.0273 66.3437C92.0273 66.6512 92.2765 66.9004 92.584 66.9004Z" fill="black"/>
<path d="M94.988 65.4922C94.988 65.4922 94.7097 67.6904 94.8213 67.9921C94.933 68.2938 95.6296 67.9488 95.6296 67.9488" stroke="black" stroke-width="0.753306" stroke-miterlimit="10"/>
<path d="M96.0176 69.8733C97.2092 70.3116 98.4392 69.7533 98.7991 68.6816" stroke="black" stroke-width="0.753306" stroke-miterlimit="10"/>
<path d="M100.362 66.8204C101.171 65.6761 100.876 64.0775 99.7038 63.2494C98.5318 62.4214 96.9264 62.6777 96.1181 63.822C95.3098 64.9662 95.6046 66.5649 96.7766 67.3929C97.9485 68.2209 99.554 67.9645 100.362 66.8204Z" stroke="black" stroke-width="0.753306" stroke-miterlimit="10"/>
<path d="M93.8525 67.1466C94.6608 66.0023 94.366 64.4035 93.194 63.5756C92.0221 62.7476 90.4166 63.0039 89.6083 64.1482C88.8 65.2923 89.0949 66.8911 90.2668 67.7191C91.4388 68.547 93.0442 68.2907 93.8525 67.1466Z" stroke="black" stroke-width="0.753306" stroke-miterlimit="10"/>
<path d="M91.686 63.8861C92.149 63.8848 92.5951 64.0586 92.9353 64.3726C93.2753 64.6868 93.4839 65.1178 93.5193 65.5794C93.5378 65.8087 93.5099 66.0394 93.4373 66.2575C93.3644 66.4757 93.2484 66.677 93.0959 66.8494C92.9418 67.024 92.7541 67.1657 92.5438 67.2658C92.3336 67.3662 92.1053 67.4228 91.8726 67.4327H91.7793C91.3162 67.434 90.8697 67.26 90.5295 66.9455C90.1895 66.631 89.981 66.1995 89.946 65.7377C89.9279 65.5084 89.9562 65.2776 90.0292 65.0594C90.1022 64.8413 90.2185 64.6399 90.371 64.4678C90.5252 64.2936 90.7127 64.1523 90.9227 64.052C91.1325 63.9518 91.3603 63.8948 91.5927 63.8845H91.686V63.8861ZM91.686 63.5078H91.5743C91.2933 63.5203 91.0178 63.5893 90.764 63.7103C90.5102 63.8315 90.2834 64.0023 90.0967 64.2128C89.9102 64.4233 89.7679 64.6691 89.6782 64.9356C89.5884 65.2021 89.5531 65.4839 89.5744 65.7644C89.6196 66.32 89.8717 66.8384 90.281 67.2168C90.6904 67.5953 91.2268 67.8062 91.7843 67.8077H91.896C92.177 67.795 92.4525 67.7262 92.7063 67.605C92.9601 67.484 93.1869 67.313 93.3736 67.1027C93.5601 66.8922 93.7024 66.6464 93.7921 66.3799C93.8819 66.1134 93.9172 65.8314 93.8959 65.5511C93.8507 64.9954 93.5986 64.4771 93.1893 64.0986C92.7799 63.7201 92.2435 63.5093 91.686 63.5078Z" fill="white"/>
<path d="M95.6674 65.459L94.3008 65.529" stroke="black" stroke-width="0.753306" stroke-miterlimit="10"/>
<path opacity="0.53" d="M100.038 66.5913C100.723 65.6223 100.474 64.2684 99.4813 63.5674C98.4888 62.8664 97.1296 63.0836 96.4449 64.0526C95.7603 65.0217 96.0098 66.3755 97.0021 67.0766C97.9945 67.7776 99.3538 67.5604 100.038 66.5913Z" fill="white"/>
<path opacity="0.53" d="M93.5326 66.9195C94.2172 65.9505 93.9677 64.5966 92.9754 63.8956C91.9831 63.1945 90.6237 63.4118 89.9391 64.3807C89.2544 65.3499 89.5039 66.7037 90.4964 67.4046C91.4887 68.1058 92.8479 67.8884 93.5326 66.9195Z" fill="white"/>
<path d="M96.9219 73.3359L99.9568 80.5457C99.9568 80.5457 105.812 82.1206 107.235 76.5808" stroke="black" stroke-width="0.753306" stroke-miterlimit="10"/>
<path d="M39.3393 110.702C41.6314 109.979 42.8312 107.305 42.019 104.73C41.2069 102.154 38.6905 100.652 36.3986 101.375C34.1065 102.097 32.9067 104.771 33.7189 107.347C34.5308 109.922 37.0472 111.424 39.3393 110.702Z" fill="#FFDCAE"/>
<path d="M96.1118 125.304C96.0468 119.436 95.0118 113.638 94.5352 111.271" stroke="black" stroke-width="0.753306" stroke-miterlimit="10"/>
</svg>
