<svg width="21" height="20" viewBox="0 0 21 20" fill="none" xmlns="http://www.w3.org/2000/svg">
<path d="M15.7667 10.6249H13C10.925 10.6249 9.875 9.44989 9.875 7.12489V4.73322C9.875 3.88322 9.975 2.66655 10.8583 1.99989C11.6 1.44989 12.6667 1.40822 14.2417 1.86655C16.3083 2.46655 18.0333 4.19155 18.6333 6.25822C19.0917 7.82489 19.05 8.89989 18.5 9.63322C17.8333 10.5249 16.6167 10.6249 15.7667 10.6249ZM12.4 2.79989C12.0583 2.79989 11.7917 2.86655 11.6167 2.99989C11.2917 3.24155 11.1333 3.80822 11.1333 4.73322V7.13322C11.1333 8.99989 11.85 9.38322 13.0083 9.38322H15.775C16.6917 9.38322 17.2583 9.22489 17.5083 8.89989C17.8 8.51655 17.775 7.74989 17.45 6.62489C16.9667 4.98322 15.55 3.55822 13.9083 3.08322C13.2917 2.89155 12.7917 2.79989 12.4 2.79989Z" fill="#373636"/>
<path d="M9.72466 18.9583C9.28299 18.9583 8.83299 18.9249 8.38299 18.8499C4.97466 18.2999 2.19966 15.5333 1.64966 12.1249C0.941325 7.74161 3.76632 3.60828 8.09132 2.72494C8.43299 2.65828 8.75799 2.87494 8.83299 3.20828C8.89966 3.54994 8.68299 3.87494 8.34966 3.94994C4.69133 4.69994 2.29132 8.19994 2.89966 11.9249C3.36632 14.8083 5.70799 17.1499 8.59133 17.6166C12.333 18.2166 15.8247 15.8083 16.5663 12.1333C16.633 11.7916 16.9663 11.5749 17.2997 11.6416C17.6413 11.7083 17.858 12.0416 17.7913 12.3749C16.9997 16.2666 13.5997 18.9583 9.72466 18.9583Z" fill="#373636"/>
</svg>
