<svg width="220" height="53" viewBox="0 0 220 53" fill="none" xmlns="http://www.w3.org/2000/svg">
<g id="HB-Logo-registered 1" clip-path="url(#clip0_878_16531)">
<path id="Vector" fill-rule="evenodd" clip-rule="evenodd" d="M2.67505 0H49.5807C51.0566 0 52.2558 1.21068 52.2558 2.70075V50.057C52.2558 51.5471 51.0566 52.7578 49.5807 52.7578H2.67505C1.19916 52.7578 0 51.5471 0 50.057V2.70075C0 1.21068 1.19916 0 2.67505 0Z" fill="#0071BC"/>
<path id="Vector_2" fill-rule="evenodd" clip-rule="evenodd" d="M7.88672 39.9524H11.6226V23.7944V19.883V12.8052H7.88672V39.9524Z" fill="white"/>
<path id="Vector_3" fill-rule="evenodd" clip-rule="evenodd" d="M7.88792 19.8828H15.9592C20.7097 20.1622 24.2611 22.5836 24.2611 29.2423V39.9988H21.2632C20.7558 39.8125 20.5252 39.4865 20.5252 39.0209V29.2889C20.5252 26.3553 19.9257 23.9805 15.7286 23.9339H11.5315L7.8418 19.9294L7.88792 19.8828Z" fill="white"/>
<path id="Vector_4" fill-rule="evenodd" clip-rule="evenodd" d="M28.5485 39.9521H35.6512C37.5422 39.9521 44.1837 39.5796 44.3682 30.3132C44.4604 25.517 41.6009 19.8361 33.0223 19.9758C33.0223 19.9758 30.9929 19.9758 30.9468 19.9758V23.8873H33.0223C38.1418 23.9804 40.3556 26.3552 40.4017 29.9872C40.4017 32.5017 40.2172 35.901 35.4667 35.9475H30.9468V12.7583H27.2109V38.5086C27.2109 39.2071 27.995 39.9521 28.5946 39.9521H28.5485Z" fill="white"/>
<path id="Vector_5" fill-rule="evenodd" clip-rule="evenodd" d="M60.4648 32.2222H211.421V33.9916H60.4648V32.2222Z" fill="#006DB7"/>
<path id="Vector_6" d="M60.9258 27.8459V6.33301H63.278V15.6459H75.5463V6.33301H77.8985V27.8459H75.5463V17.8811H63.278V27.8459H60.9258ZM93.0264 21.5597V18.952C93.0264 17.0429 92.7958 15.8322 92.2885 15.2734C91.8272 14.7612 90.8126 14.4818 89.2444 14.4818H88.1836C86.6616 14.4818 85.647 14.7612 85.1857 15.2734C84.7245 15.7856 84.4939 17.0429 84.4939 18.952V21.5597C84.4939 23.5154 84.7245 24.7261 85.1857 25.2383C85.647 25.7505 86.6616 26.0299 88.1836 26.0299H89.2444C90.7665 26.0299 91.7811 25.7505 92.2885 25.2383C92.7497 24.7261 93.0264 23.4688 93.0264 21.5597ZM88.2298 28.0787C85.9698 28.0787 84.4017 27.6131 83.5254 26.7283C82.6491 25.8436 82.1878 24.307 82.1878 22.0719V18.4398C82.1878 16.2047 82.6491 14.6681 83.5254 13.7368C84.4017 12.8521 85.9698 12.3864 88.2298 12.3864H89.2906C91.5505 12.3864 93.1186 12.8521 94.0411 13.7368C94.9174 14.6215 95.3786 16.2047 95.3786 18.4398V22.0719C95.3786 24.307 94.9174 25.8436 94.0411 26.7283C93.1648 27.6131 91.5505 28.0322 89.3367 28.0322H88.2759L88.2298 28.0787ZM98.7916 23.3291H101.052V23.6551C101.052 24.5864 101.328 25.2383 101.928 25.6108C102.481 25.9833 103.634 26.123 105.387 26.123C107.324 26.123 108.523 25.9367 108.984 25.5642C109.446 25.1917 109.676 24.5398 109.676 23.5154C109.676 22.491 109.492 21.839 109.123 21.5131C108.754 21.1871 107.831 20.9543 106.356 20.9078C105.802 20.9078 105.064 20.8612 104.142 20.8146C102.112 20.7681 100.913 20.6284 100.544 20.3955C99.9908 20.0696 99.5757 19.6505 99.3451 19.0917C99.1145 18.533 98.9761 17.7414 98.9761 16.7169C98.9761 15.0406 99.3912 13.8765 100.267 13.2711C101.098 12.6658 102.989 12.3864 105.894 12.3864C108.154 12.3864 109.63 12.6658 110.46 13.2246C111.244 13.7834 111.66 14.8078 111.66 16.2047H109.446V16.065C109.446 15.3666 109.169 14.9475 108.569 14.6681C107.97 14.3887 106.817 14.2956 105.11 14.2956C103.404 14.2956 102.389 14.4353 101.928 14.7612C101.467 15.0872 101.236 15.6925 101.236 16.7169C101.236 17.3223 101.236 17.7414 101.374 17.9742C101.467 18.207 101.605 18.3933 101.836 18.533C102.297 18.7658 103.265 18.9055 104.834 18.952C105.203 18.952 105.525 18.952 105.756 18.952C107.001 18.9986 108.016 19.0452 108.708 19.1383C109.446 19.2314 109.953 19.3246 110.23 19.4642C110.922 19.7902 111.383 20.2093 111.66 20.8146C111.936 21.42 112.075 22.2581 112.075 23.3291C112.075 24.4001 111.936 25.2848 111.66 25.8902C111.383 26.449 110.875 26.9612 110.184 27.4268C109.861 27.6596 109.307 27.7993 108.616 27.8925C107.878 27.9856 106.863 28.0322 105.525 28.0322C102.85 28.0322 101.098 27.7062 100.221 27.1009C99.3451 26.4955 98.93 25.3314 98.93 23.7016V23.2826L98.7916 23.3291ZM114.934 14.575V12.6658H116.779V9.22002H118.993V12.6658H126.372V14.575H118.993V22.9566C118.993 24.1673 119.177 24.9589 119.592 25.378C119.961 25.797 120.699 26.0299 121.806 26.0299C122.913 26.0299 123.605 25.8436 123.974 25.4245C124.343 25.0054 124.527 24.2138 124.527 22.9566V22.491H126.787V22.6306C126.787 24.7726 126.418 26.2161 125.727 26.9612C125.035 27.7062 123.559 28.0787 121.345 28.0787C119.639 28.0787 118.439 27.7062 117.748 26.9146C117.056 26.123 116.733 24.7261 116.733 22.6772V14.6215H114.888L114.934 14.575ZM133.521 15.6459H141.223C142.469 15.6459 143.299 15.4131 143.76 14.9475C144.175 14.4818 144.406 13.504 144.406 11.9673C144.406 10.4307 144.175 9.59254 143.714 9.17345C143.253 8.80094 142.1 8.61468 140.209 8.61468H133.567V15.6459H133.521ZM133.521 25.6108H141.27C142.699 25.6108 143.622 25.378 144.129 24.9589C144.59 24.5398 144.867 23.3757 144.867 21.5131C144.867 19.9765 144.59 18.952 144.037 18.4864C143.483 18.0207 142.1 17.7879 139.794 17.7879H133.475V25.5642L133.521 25.6108ZM131.215 27.8459V6.33301H141.131C143.437 6.33301 144.959 6.70553 145.697 7.404C146.435 8.10247 146.804 9.54597 146.804 11.7345C146.804 13.4108 146.62 14.575 146.251 15.2269C145.882 15.8788 145.236 16.3444 144.314 16.6238C145.421 16.9032 146.205 17.4154 146.666 18.1604C147.127 18.9055 147.312 20.1162 147.312 21.8856C147.312 24.2604 146.85 25.8436 145.928 26.6818C145.005 27.5199 143.161 27.8925 140.347 27.8925H131.169L131.215 27.8459ZM161.701 21.5597V18.952C161.701 17.0429 161.471 15.8322 160.964 15.2734C160.502 14.7612 159.488 14.4818 157.92 14.4818H156.859C155.337 14.4818 154.322 14.7612 153.861 15.2734C153.4 15.7856 153.169 17.0429 153.169 18.952V21.5597C153.169 23.5154 153.4 24.7261 153.861 25.2383C154.322 25.7505 155.337 26.0299 156.859 26.0299H157.92C159.442 26.0299 160.456 25.7505 160.964 25.2383C161.425 24.7261 161.701 23.4688 161.701 21.5597ZM156.905 28.0787C154.645 28.0787 153.077 27.6131 152.2 26.7283C151.324 25.8436 150.863 24.307 150.863 22.0719V18.4398C150.863 16.2047 151.324 14.6681 152.2 13.7368C153.077 12.8521 154.645 12.3864 156.905 12.3864H157.966C160.226 12.3864 161.794 12.8521 162.716 13.7368C163.592 14.6215 164.054 16.2047 164.054 18.4398V22.0719C164.054 24.307 163.592 25.8436 162.716 26.7283C161.84 27.6131 160.226 28.0322 158.012 28.0322H156.951L156.905 28.0787ZM178.259 21.5597V18.952C178.259 17.0429 178.029 15.8322 177.521 15.2734C177.06 14.7612 176.045 14.4818 174.477 14.4818H173.416C171.894 14.4818 170.88 14.7612 170.418 15.2734C169.957 15.7856 169.727 17.0429 169.727 18.952V21.5597C169.727 23.5154 169.957 24.7261 170.418 25.2383C170.88 25.7505 171.894 26.0299 173.416 26.0299H174.477C175.999 26.0299 177.014 25.7505 177.521 25.2383C177.982 24.7261 178.259 23.4688 178.259 21.5597ZM173.462 28.0787C171.203 28.0787 169.634 27.6131 168.758 26.7283C167.882 25.8436 167.421 24.307 167.421 22.0719V18.4398C167.421 16.2047 167.882 14.6681 168.758 13.7368C169.634 12.8521 171.203 12.3864 173.462 12.3864H174.523C176.783 12.3864 178.351 12.8521 179.274 13.7368C180.15 14.6215 180.611 16.2047 180.611 18.4398V22.0719C180.611 24.307 180.15 25.8436 179.274 26.7283C178.397 27.6131 176.783 28.0322 174.569 28.0322H173.509L173.462 28.0787ZM184.578 27.8925V6.33301H186.792V18.5795H187.483L192.418 12.6658H194.955L189.282 19.4642L196.108 27.8925H193.295L187.53 20.6749H186.838V27.8925H184.624H184.578ZM198.23 23.3757H200.49V23.7016C200.49 24.6329 200.766 25.2848 201.366 25.6574C201.919 26.0299 203.073 26.1696 204.825 26.1696C206.762 26.1696 207.961 25.9833 208.423 25.6108C208.884 25.2383 209.114 24.5864 209.114 23.5619C209.114 22.5375 208.93 21.8856 208.561 21.5597C208.192 21.2337 207.27 21.0009 205.794 20.9543C205.24 20.9543 204.502 20.9078 203.58 20.8612C201.551 20.8146 200.351 20.6749 199.982 20.4421C199.429 20.1162 199.014 19.6971 198.783 19.1383C198.553 18.5795 198.414 17.7879 198.414 16.7635C198.414 15.0872 198.829 13.9231 199.706 13.3177C200.536 12.7124 202.427 12.433 205.332 12.433C207.592 12.433 209.068 12.7124 209.899 13.2711C210.683 13.8299 211.098 14.8543 211.098 16.2513H208.884V16.1116C208.884 15.4131 208.607 14.994 208.008 14.7147C207.408 14.4353 206.255 14.3421 204.548 14.3421C202.842 14.3421 201.827 14.4818 201.366 14.8078C200.905 15.1337 200.674 15.7391 200.674 16.7635C200.674 17.3688 200.674 17.7879 200.813 18.0207C200.905 18.2536 201.043 18.4398 201.274 18.5795C201.735 18.8123 202.704 18.952 204.272 18.9986C204.641 18.9986 204.964 18.9986 205.194 18.9986C206.439 19.0452 207.454 19.0917 208.146 19.1849C208.884 19.278 209.391 19.3711 209.668 19.5108C210.36 19.8368 210.821 20.2559 211.098 20.8612C211.374 21.4665 211.513 22.3047 211.513 23.3757C211.513 24.4467 211.374 25.3314 211.098 25.9367C210.821 26.4955 210.314 27.0077 209.622 27.4734C209.299 27.7062 208.745 27.8459 208.054 27.939C207.316 28.0322 206.301 28.0787 204.964 28.0787C202.288 28.0787 200.536 27.7528 199.66 27.1474C198.783 26.5421 198.368 25.378 198.368 23.7482V23.3291L198.23 23.3757Z" fill="black"/>
<path id="Vector_7" d="M60.4648 39.0679V38.1366H67.1525V39.0679H64.2929V47.1236H63.2783V39.0679H60.4648ZM67.8443 47.1236V38.1366H68.7206V41.629C68.859 41.303 69.1357 41.0702 69.4586 40.8839C69.7814 40.7443 70.2426 40.6511 70.7961 40.6511C71.6263 40.6511 72.1797 40.8374 72.5487 41.1633C72.8716 41.4893 73.056 42.0946 73.056 42.9328V47.1236H72.1336V43.1656C72.1336 42.5137 72.0414 42.0481 71.8569 41.8618C71.6724 41.6755 71.3034 41.5359 70.75 41.5359C70.1043 41.5359 69.5969 41.6755 69.3202 42.0015C68.9973 42.2809 68.859 42.7931 68.859 43.445V47.1236H67.9365H67.8443ZM75.5005 43.3053H79.0518V43.0725C79.0518 42.4671 78.9596 42.0946 78.729 41.8618C78.4984 41.629 78.0833 41.5359 77.4837 41.5359H77.0686C76.4229 41.5359 76.0078 41.629 75.8233 41.8618C75.6389 42.0946 75.5005 42.4671 75.5005 43.0725V43.3053ZM77.0686 47.1702C76.1462 47.1702 75.4544 46.9839 75.0854 46.6114C74.7164 46.2389 74.5319 45.587 74.5319 44.6557V43.1656C74.5319 42.2343 74.7164 41.5824 75.0854 41.2099C75.4544 40.8374 76.1001 40.6511 77.0686 40.6511H77.4837C78.4061 40.6511 79.098 40.8374 79.4669 41.2099C79.8359 41.5824 80.0204 42.2343 80.0204 43.1656V44.1435H75.5005C75.5005 44.1435 75.5005 44.2832 75.5005 44.3763C75.5005 44.4694 75.5005 44.5626 75.5005 44.7023C75.5005 45.3542 75.5927 45.8198 75.8233 46.0061C76.0078 46.2389 76.469 46.332 77.0686 46.332H77.4837C78.0372 46.332 78.4523 46.2389 78.6368 46.0992C78.8674 45.9595 79.0057 45.6335 79.0057 45.261H79.9743C79.9282 45.9595 79.6976 46.4717 79.3286 46.7511C78.9135 47.0771 78.3139 47.2167 77.4837 47.2167H77.0686V47.1702ZM87.6305 47.0771V38.0901H88.5529V47.0771H87.6305ZM94.4565 45.4473V44.7954C94.4565 44.4694 94.3181 44.2832 93.9952 44.1435C93.6724 44.0038 93.2112 43.9107 92.5194 43.9107C91.9198 43.9107 91.5047 44.0038 91.3202 44.1435C91.1357 44.2832 90.9973 44.6091 90.9973 45.0282C90.9973 45.5404 91.0896 45.8664 91.3202 46.0061C91.5508 46.1923 91.9659 46.2389 92.6116 46.2389C93.2112 46.2389 93.6263 46.1458 93.9491 46.0061C94.272 45.8664 94.4103 45.6801 94.4103 45.4007L94.4565 45.4473ZM94.5026 46.3786C94.3642 46.658 94.1336 46.8442 93.8108 46.9374C93.4879 47.0771 93.0728 47.1236 92.5194 47.1236C91.5508 47.1236 90.859 46.9839 90.5361 46.7045C90.2133 46.4251 90.0288 45.9129 90.0288 45.1213C90.0288 44.6557 90.0288 44.3297 90.1672 44.0503C90.2594 43.8175 90.3516 43.5847 90.5361 43.445C90.6745 43.3053 90.9051 43.2122 91.1818 43.1656C91.4586 43.1191 91.9198 43.0725 92.4271 43.0725C92.9345 43.0725 93.4418 43.1191 93.7185 43.2122C94.0414 43.3053 94.2259 43.445 94.4103 43.6778V42.5603C94.4103 42.0481 94.3181 41.7221 94.1336 41.5359C93.9491 41.3962 93.4418 41.303 92.6116 41.303C92.012 41.303 91.643 41.3496 91.4586 41.4893C91.2741 41.629 91.1818 41.8618 91.1818 42.1878H90.2594V42.0481C90.2594 41.4893 90.4439 41.1168 90.7667 40.8839C91.1357 40.6511 91.7353 40.558 92.5655 40.558C93.2112 40.558 93.7185 40.558 94.0875 40.6511C94.4565 40.6977 94.6871 40.7908 94.8716 40.9305C95.056 41.0702 95.1944 41.2565 95.2405 41.4893C95.3328 41.7221 95.3328 42.0481 95.3328 42.6068V47.0771H94.5026V46.4251V46.3786ZM97.1315 47.0305V40.6511H98.0078V41.5359C98.1462 41.2099 98.4229 40.9771 98.7458 40.7908C99.0686 40.6511 99.5298 40.558 100.083 40.558C100.913 40.558 101.467 40.7443 101.836 41.0702C102.159 41.3962 102.343 42.0015 102.343 42.8397V47.0305H101.421V43.0725C101.421 42.4206 101.329 41.9549 101.144 41.7687C100.96 41.5824 100.591 41.4427 100.037 41.4427C99.3915 41.4427 98.8841 41.5824 98.6074 41.9084C98.2845 42.2343 98.1462 42.7 98.1462 43.3519V47.0305H97.2238H97.1315ZM108.385 44.3763V43.3519C108.385 42.7 108.247 42.1878 107.924 41.9084C107.601 41.629 107.14 41.4427 106.448 41.4427C105.848 41.4427 105.433 41.5359 105.249 41.7687C105.064 42.0015 104.926 42.5137 104.926 43.3053V44.3763C104.926 45.1679 105.018 45.6801 105.249 45.9129C105.433 46.1458 105.848 46.2389 106.448 46.2389C107.14 46.2389 107.601 46.0992 107.924 45.7732C108.247 45.4939 108.385 44.9816 108.385 44.3297V44.3763ZM109.308 40.6511V46.9374C109.308 47.8687 109.123 48.5206 108.754 48.8931C108.385 49.2656 107.739 49.4519 106.817 49.4519H106.402C105.572 49.4519 104.972 49.3122 104.603 48.9862C104.234 48.6603 104.004 48.1946 103.958 47.4961H104.926C104.926 47.9152 105.111 48.1946 105.295 48.3343C105.526 48.474 105.895 48.5671 106.448 48.5671H106.863C107.417 48.5671 107.786 48.474 108.062 48.2877C108.293 48.1015 108.431 47.8221 108.431 47.403V46.0992C108.247 46.4717 108.016 46.7045 107.693 46.8442C107.371 46.9839 106.955 47.0771 106.448 47.0771C105.572 47.0771 104.926 46.8908 104.557 46.5183C104.188 46.1458 104.004 45.4939 104.004 44.5626V43.0725C104.004 42.1412 104.188 41.4893 104.557 41.1168C104.926 40.7443 105.572 40.558 106.448 40.558C107.002 40.558 107.417 40.6511 107.739 40.8374C108.062 41.0236 108.293 41.303 108.431 41.6755V40.6977H109.308V40.6511ZM116.226 40.6511V47.0305H115.35V46.1458C115.211 46.4717 114.981 46.7045 114.612 46.8442C114.289 46.9839 113.828 47.0771 113.274 47.0771C112.444 47.0771 111.89 46.8908 111.521 46.5648C111.199 46.2389 111.014 45.6335 111.014 44.7954V40.6046H111.937V44.5626C111.937 45.2145 112.029 45.6801 112.213 45.8664C112.398 46.0526 112.767 46.1923 113.366 46.1923C114.012 46.1923 114.519 46.0526 114.796 45.7267C115.119 45.4473 115.257 44.9351 115.257 44.2832V40.558H116.18L116.226 40.6511ZM122.129 45.4007V44.7488C122.129 44.4229 121.991 44.2366 121.668 44.0969C121.345 43.9572 120.884 43.8641 120.192 43.8641C119.593 43.8641 119.178 43.9572 118.993 44.0969C118.809 44.2366 118.67 44.5626 118.67 44.9816C118.67 45.4939 118.763 45.8198 118.993 45.9595C119.224 46.1458 119.639 46.1923 120.285 46.1923C120.884 46.1923 121.299 46.0992 121.622 45.9595C121.945 45.8198 122.083 45.6335 122.083 45.3542L122.129 45.4007ZM122.176 46.332C122.037 46.6114 121.807 46.7977 121.484 46.8908C121.161 47.0305 120.746 47.0771 120.192 47.0771C119.224 47.0771 118.532 46.9374 118.209 46.658C117.886 46.3786 117.702 45.8664 117.702 45.0748C117.702 44.6091 117.702 44.2832 117.84 44.0038C117.932 43.771 118.025 43.5381 118.209 43.3984C118.347 43.2587 118.578 43.1656 118.855 43.1191C119.132 43.0725 119.593 43.0259 120.1 43.0259C120.607 43.0259 121.115 43.0725 121.391 43.1656C121.714 43.2587 121.899 43.3984 122.083 43.6313V42.5137C122.083 42.0015 121.991 41.6755 121.807 41.4893C121.622 41.3496 121.115 41.2565 120.285 41.2565C119.685 41.2565 119.316 41.303 119.132 41.4427C118.947 41.5824 118.855 41.8152 118.855 42.1412H117.932V42.0015C117.932 41.4427 118.117 41.0702 118.44 40.8374C118.809 40.6046 119.408 40.5114 120.238 40.5114C120.884 40.5114 121.391 40.5114 121.76 40.6046C122.129 40.6511 122.36 40.7443 122.545 40.8839C122.729 41.0236 122.867 41.2099 122.913 41.4427C123.006 41.6755 123.006 42.0015 123.006 42.5603V47.0305H122.176V46.3786V46.332ZM129.14 44.3297V43.3053C129.14 42.6534 129.002 42.1412 128.679 41.8618C128.356 41.5824 127.895 41.3962 127.203 41.3962C126.603 41.3962 126.188 41.4893 126.004 41.7221C125.819 41.9549 125.681 42.4671 125.681 43.2587V44.3297C125.681 45.1213 125.773 45.6335 126.004 45.8664C126.188 46.0992 126.603 46.1923 127.203 46.1923C127.895 46.1923 128.356 46.0526 128.679 45.7267C129.002 45.4473 129.14 44.9351 129.14 44.2832V44.3297ZM130.062 40.6046V46.8908C130.062 47.8221 129.878 48.474 129.509 48.8465C129.14 49.219 128.494 49.4053 127.572 49.4053H127.157C126.326 49.4053 125.727 49.2656 125.358 48.9396C124.989 48.6137 124.758 48.148 124.712 47.4496H125.681C125.681 47.8686 125.865 48.148 126.05 48.2877C126.28 48.4274 126.649 48.5206 127.203 48.5206H127.618C128.171 48.5206 128.54 48.4274 128.817 48.2412C129.048 48.0549 129.186 47.7755 129.186 47.3564V46.0526C129.002 46.4251 128.771 46.658 128.448 46.7977C128.125 46.9374 127.71 47.0305 127.203 47.0305C126.326 47.0305 125.681 46.8442 125.312 46.4717C124.943 46.0992 124.758 45.4473 124.758 44.516V43.0259C124.758 42.0946 124.943 41.4427 125.312 41.0702C125.681 40.6977 126.326 40.5114 127.203 40.5114C127.756 40.5114 128.171 40.6046 128.494 40.7908C128.817 40.9771 129.048 41.2565 129.186 41.629V40.6511H130.062V40.6046ZM132.553 43.1656H136.104V42.9328C136.104 42.3275 136.012 41.9549 135.781 41.7221C135.551 41.4893 135.136 41.3962 134.536 41.3962H134.121C133.475 41.3962 133.06 41.4893 132.876 41.7221C132.691 41.9549 132.553 42.3275 132.553 42.9328V43.1656ZM134.121 47.0305C133.199 47.0305 132.507 46.8442 132.138 46.4717C131.769 46.0992 131.584 45.4473 131.584 44.516V43.0259C131.584 42.0946 131.769 41.4427 132.138 41.0702C132.507 40.6977 133.152 40.5114 134.121 40.5114H134.536C135.459 40.5114 136.15 40.6977 136.519 41.0702C136.888 41.4427 137.073 42.0946 137.073 43.0259V44.0038H132.553C132.553 44.0038 132.553 44.1435 132.553 44.2366C132.553 44.3297 132.553 44.4229 132.553 44.5626C132.553 45.2145 132.645 45.6801 132.876 45.8664C133.06 46.0992 133.521 46.1923 134.121 46.1923H134.536C135.09 46.1923 135.505 46.0992 135.689 45.9595C135.92 45.8198 136.058 45.4939 136.058 45.1213H137.027C136.981 45.8198 136.75 46.332 136.381 46.6114C135.966 46.9374 135.366 47.0771 134.536 47.0771H134.121V47.0305ZM148.926 44.3297V43.2587C148.926 42.4671 148.834 41.9549 148.603 41.7221C148.419 41.4893 147.958 41.3962 147.312 41.3962H146.897C146.251 41.3962 145.836 41.4893 145.651 41.7221C145.467 41.9549 145.375 42.4671 145.375 43.2587V44.3297C145.375 45.1213 145.467 45.6335 145.651 45.8664C145.836 46.0992 146.251 46.1923 146.897 46.1923H147.312C147.958 46.1923 148.373 46.0992 148.603 45.8664C148.788 45.6335 148.926 45.1213 148.926 44.3297ZM146.943 47.0305C146.02 47.0305 145.329 46.8442 144.96 46.4717C144.591 46.0992 144.406 45.4473 144.406 44.516V43.0259C144.406 42.0946 144.591 41.4427 144.96 41.0702C145.329 40.6977 145.974 40.5114 146.943 40.5114H147.358C148.28 40.5114 148.972 40.6977 149.341 41.0702C149.71 41.4427 149.895 42.0946 149.895 43.0259V44.516C149.895 45.4473 149.71 46.0992 149.341 46.4717C148.972 46.8442 148.326 47.0305 147.358 47.0305H146.943ZM150.771 41.3962V40.6046H151.647C151.647 40.6046 151.647 40.5114 151.647 40.4183C151.647 40.3717 151.647 40.2786 151.647 40.1389C151.647 39.3473 151.786 38.742 152.062 38.416C152.339 38.0901 152.846 37.9038 153.538 37.9038C153.723 37.9038 153.907 37.9038 154.046 37.9038C154.23 37.9038 154.368 37.9038 154.553 37.9038V38.742C154.553 38.742 154.415 38.742 154.322 38.742C154.046 38.742 153.861 38.742 153.769 38.742C153.308 38.742 152.985 38.8351 152.8 38.9748C152.662 39.1145 152.57 39.487 152.57 40.0923V40.5114H154.553V41.303H152.57V46.8442H151.647V41.303H150.771V41.3962ZM162.44 43.2587V44.2832C162.44 44.9351 162.578 45.4007 162.901 45.7267C163.224 46.0061 163.685 46.1923 164.377 46.1923C164.976 46.1923 165.391 46.0992 165.576 45.8664C165.76 45.6335 165.899 45.1213 165.899 44.3297V43.2587C165.899 42.4671 165.807 41.9549 165.576 41.7221C165.391 41.4893 164.976 41.3962 164.377 41.3962C163.685 41.3962 163.224 41.5359 162.901 41.8618C162.578 42.1412 162.44 42.6534 162.44 43.3053V43.2587ZM161.517 46.9374V37.9504H162.44V41.4893C162.624 41.1168 162.855 40.8839 163.178 40.7443C163.5 40.6046 163.916 40.5114 164.423 40.5114C165.299 40.5114 165.945 40.6977 166.314 41.0702C166.683 41.4427 166.867 42.0946 166.867 43.0259V44.516C166.867 45.4473 166.683 46.0992 166.314 46.4717C165.945 46.8442 165.299 47.0305 164.423 47.0305C163.869 47.0305 163.454 46.9374 163.132 46.7511C162.809 46.5648 162.578 46.332 162.44 45.9595V46.9374H161.563H161.517ZM173.555 40.558V46.9374H172.679V46.0526C172.54 46.3786 172.31 46.6114 171.941 46.7511C171.618 46.8908 171.157 46.9839 170.603 46.9839C169.773 46.9839 169.22 46.7977 168.851 46.4717C168.528 46.1458 168.343 45.5404 168.343 44.7023V40.5114H169.266V44.4694C169.266 45.1213 169.358 45.587 169.542 45.7732C169.727 45.9595 170.096 46.0992 170.695 46.0992C171.341 46.0992 171.848 45.9595 172.125 45.6335C172.448 45.3542 172.586 44.8419 172.586 44.19V40.4649H173.509L173.555 40.558ZM175.123 45.0282H176.046V45.1679C176.046 45.5404 176.184 45.8198 176.415 45.9595C176.645 46.0992 177.152 46.1923 177.844 46.1923C178.674 46.1923 179.136 46.0992 179.32 45.9595C179.505 45.8198 179.597 45.5404 179.597 45.0748C179.597 44.6091 179.505 44.3763 179.366 44.2366C179.228 44.0969 178.813 44.0038 178.213 43.9572C177.983 43.9572 177.66 43.9572 177.291 43.9572C176.461 43.9572 175.953 43.8641 175.769 43.771C175.538 43.6313 175.354 43.445 175.261 43.2122C175.169 42.9794 175.123 42.6534 175.123 42.2343C175.123 41.5359 175.308 41.0702 175.677 40.7908C176.046 40.558 176.83 40.4183 178.029 40.4183C178.951 40.4183 179.597 40.558 179.92 40.7908C180.243 41.0236 180.427 41.4427 180.427 42.0481H179.505C179.505 41.7221 179.366 41.4893 179.136 41.3962C178.905 41.303 178.398 41.2565 177.706 41.2565C177.014 41.2565 176.553 41.303 176.368 41.4427C176.184 41.5824 176.092 41.8618 176.092 42.2343C176.092 42.4671 176.092 42.6534 176.138 42.7465C176.138 42.8397 176.23 42.9328 176.322 42.9794C176.507 43.0725 176.922 43.1191 177.568 43.1656C177.752 43.1656 177.844 43.1656 177.937 43.1656C178.444 43.1656 178.859 43.2122 179.182 43.2587C179.505 43.2587 179.689 43.3519 179.828 43.3984C180.104 43.5381 180.289 43.7244 180.427 43.9572C180.565 44.19 180.612 44.5626 180.612 45.0282C180.612 45.4939 180.565 45.8664 180.427 46.0992C180.289 46.332 180.104 46.5648 179.781 46.7511C179.643 46.8442 179.412 46.8908 179.136 46.9374C178.813 46.9374 178.398 46.9839 177.844 46.9839C176.737 46.9839 175.999 46.8442 175.63 46.6114C175.262 46.332 175.077 45.8664 175.077 45.1679V44.9816L175.123 45.0282ZM182.364 38.9748V37.9038H183.287V38.9748H182.364ZM182.364 46.8908V40.5114H183.287V46.8908H182.364ZM185.085 46.8908V40.5114H185.962V41.3962C186.1 41.0702 186.377 40.8374 186.7 40.6511C187.022 40.5114 187.484 40.4183 188.037 40.4183C188.867 40.4183 189.421 40.6046 189.79 40.9305C190.113 41.2565 190.297 41.8618 190.297 42.7V46.8908H189.375V42.9328C189.375 42.2809 189.282 41.8152 189.098 41.629C188.913 41.4427 188.545 41.303 187.991 41.303C187.345 41.303 186.838 41.4427 186.561 41.7687C186.238 42.0946 186.1 42.5603 186.1 43.2122V46.8908H185.178H185.085ZM192.742 43.0725H196.293V42.8397C196.293 42.2343 196.201 41.8618 195.97 41.629C195.739 41.3962 195.324 41.303 194.725 41.303H194.31C193.664 41.303 193.249 41.3962 193.064 41.629C192.88 41.8618 192.742 42.2343 192.742 42.8397V43.0725ZM194.31 46.9374C193.387 46.9374 192.695 46.7511 192.326 46.3786C191.958 46.0061 191.773 45.3542 191.773 44.4229V42.9328C191.773 42.0015 191.958 41.3496 192.326 40.9771C192.695 40.6046 193.341 40.4183 194.31 40.4183H194.725C195.647 40.4183 196.339 40.6046 196.708 40.9771C197.077 41.3496 197.262 42.0015 197.262 42.9328V43.9107H192.742C192.742 43.9107 192.742 44.0503 192.742 44.1435C192.742 44.2366 192.742 44.3297 192.742 44.4694C192.742 45.1213 192.834 45.587 193.064 45.7732C193.249 46.0061 193.71 46.0992 194.31 46.0992H194.725C195.278 46.0992 195.693 46.0061 195.878 45.8664C196.108 45.7267 196.247 45.4007 196.247 45.0282H197.215C197.169 45.7267 196.939 46.2389 196.57 46.5183C196.155 46.8442 195.555 46.9839 194.725 46.9839H194.31V46.9374ZM198.599 44.9351H199.521V45.0748C199.521 45.4473 199.66 45.7267 199.89 45.8664C200.121 46.0061 200.628 46.0992 201.32 46.0992C202.15 46.0992 202.612 46.0061 202.796 45.8664C202.981 45.7267 203.073 45.4473 203.073 44.9816C203.073 44.516 202.981 44.2832 202.842 44.1435C202.704 44.0038 202.289 43.9107 201.689 43.8641C201.459 43.8641 201.136 43.8641 200.767 43.8641C199.937 43.8641 199.429 43.771 199.245 43.6778C199.014 43.5381 198.83 43.3519 198.737 43.1191C198.645 42.8862 198.599 42.5603 198.599 42.1412C198.599 41.4427 198.784 40.9771 199.152 40.6977C199.521 40.4649 200.306 40.3252 201.505 40.3252C202.427 40.3252 203.073 40.4649 203.396 40.6977C203.719 40.9305 203.903 41.3496 203.903 41.9549H202.981C202.981 41.629 202.842 41.3962 202.612 41.303C202.381 41.2099 201.874 41.1633 201.182 41.1633C200.49 41.1633 200.029 41.2099 199.844 41.3496C199.66 41.4893 199.568 41.7687 199.568 42.1412C199.568 42.374 199.568 42.5603 199.614 42.6534C199.614 42.7465 199.706 42.8397 199.798 42.8862C199.983 42.9794 200.398 43.0259 201.043 43.0725C201.228 43.0725 201.32 43.0725 201.412 43.0725C201.92 43.0725 202.335 43.1191 202.658 43.1656C202.981 43.1656 203.165 43.2587 203.303 43.3053C203.58 43.445 203.765 43.6313 203.903 43.8641C204.041 44.0969 204.087 44.4694 204.087 44.9351C204.087 45.4007 204.041 45.7732 203.903 46.0061C203.765 46.2389 203.58 46.4717 203.257 46.658C203.119 46.7511 202.888 46.7977 202.612 46.8442C202.289 46.8442 201.874 46.8908 201.32 46.8908C200.213 46.8908 199.475 46.7511 199.106 46.5183C198.737 46.2389 198.553 45.7732 198.553 45.0748V44.8885L198.599 44.9351ZM205.61 44.9351H206.532V45.0748C206.532 45.4473 206.67 45.7267 206.901 45.8664C207.132 46.0061 207.639 46.0992 208.331 46.0992C209.161 46.0992 209.622 46.0061 209.807 45.8664C209.991 45.7267 210.083 45.4473 210.083 44.9816C210.083 44.516 209.991 44.2832 209.853 44.1435C209.714 44.0038 209.299 43.9107 208.7 43.8641C208.469 43.8641 208.146 43.8641 207.777 43.8641C206.947 43.8641 206.44 43.771 206.255 43.6778C206.025 43.5381 205.84 43.3519 205.748 43.1191C205.656 42.8862 205.61 42.5603 205.61 42.1412C205.61 41.4427 205.794 40.9771 206.163 40.6977C206.532 40.4649 207.316 40.3252 208.515 40.3252C209.438 40.3252 210.083 40.4649 210.406 40.6977C210.729 40.9305 210.913 41.3496 210.913 41.9549H209.991C209.991 41.629 209.853 41.3962 209.622 41.303C209.391 41.2099 208.884 41.1633 208.192 41.1633C207.5 41.1633 207.039 41.2099 206.855 41.3496C206.67 41.4893 206.578 41.7687 206.578 42.1412C206.578 42.374 206.578 42.5603 206.624 42.6534C206.624 42.7465 206.716 42.8397 206.809 42.8862C206.993 42.9794 207.408 43.0259 208.054 43.0725C208.238 43.0725 208.331 43.0725 208.423 43.0725C208.93 43.0725 209.345 43.1191 209.668 43.1656C209.991 43.1656 210.176 43.2587 210.314 43.3053C210.591 43.445 210.775 43.6313 210.913 43.8641C211.052 44.0969 211.098 44.4694 211.098 44.9351C211.098 45.4007 211.052 45.7732 210.913 46.0061C210.775 46.2389 210.591 46.4717 210.268 46.658C210.129 46.7511 209.899 46.7977 209.622 46.8442C209.299 46.8442 208.884 46.8908 208.331 46.8908C207.224 46.8908 206.486 46.7511 206.117 46.5183C205.748 46.2389 205.563 45.7732 205.563 45.0748V44.8885L205.61 44.9351Z" fill="black"/>
<path id="Vector_8" d="M214.465 1.30371C217.371 1.30371 219.723 3.67851 219.723 6.61209C219.723 9.54566 217.371 11.9205 214.465 11.9205C211.559 11.9205 209.207 9.54566 209.207 6.61209C209.207 3.67851 211.559 1.30371 214.465 1.30371V1.30371Z" stroke="black" stroke-width="0.0527578" stroke-miterlimit="10"/>
<path id="Vector_9" d="M212.48 10.1042H213.403V6.98441H214.279C215.109 6.98441 215.524 7.40349 215.709 8.38135C215.893 9.26608 216.078 9.87142 216.17 10.1042H217.139C217 9.82486 216.816 9.12639 216.585 8.14853C216.401 7.40349 216.078 6.89128 215.524 6.70502C216.262 6.42563 216.862 5.77373 216.862 4.84244C216.862 4.28366 216.631 3.77145 216.309 3.49206C215.847 3.07298 215.202 2.88672 214.233 2.88672C213.587 2.88672 212.942 2.93328 212.48 3.02641V10.1042ZM213.403 3.67832C213.403 3.67832 213.864 3.58519 214.325 3.58519C215.294 3.58519 215.986 4.00427 215.986 4.93556C215.986 5.77373 215.34 6.28594 214.371 6.28594H213.449V3.67832H213.403Z" fill="black"/>
</g>
<defs>
<clipPath id="clip0_878_16531">
<rect width="220" height="52.7578" fill="white"/>
</clipPath>
</defs>
</svg>
