<svg width="59" height="60" viewBox="0 0 59 60" fill="none" xmlns="http://www.w3.org/2000/svg">
<g clip-path="url(#clip0_800_17071)">
<path fill-rule="evenodd" clip-rule="evenodd" d="M2.9407 0H56.2852C57.9637 0 59.3275 1.37688 59.3275 3.07149V56.9285C59.3275 58.6231 57.9637 60 56.2852 60H2.9407C1.26221 60 -0.101562 58.6231 -0.101562 56.9285V3.07149C-0.101562 1.37688 1.26221 0 2.9407 0Z" fill="#0071BC"/>
<path fill-rule="evenodd" clip-rule="evenodd" d="M8.87109 45.4373H13.1198V27.0613V22.6129V14.5635H8.87109V45.4373Z" fill="white"/>
<path fill-rule="evenodd" clip-rule="evenodd" d="M8.86886 22.6123H18.0481C23.4507 22.93 27.4896 25.6838 27.4896 33.2566V45.4896H24.0802C23.5032 45.2778 23.2409 44.9071 23.2409 44.3775V33.3096C23.2409 29.9733 22.559 27.2725 17.7858 27.2195H13.0126L8.81641 22.6653L8.86886 22.6123Z" fill="white"/>
<path fill-rule="evenodd" clip-rule="evenodd" d="M32.3688 45.4365H40.4465C42.5971 45.4365 50.1503 45.0129 50.3601 34.4745C50.465 29.0199 47.2129 22.5592 37.4567 22.7181C37.4567 22.7181 35.1488 22.7181 35.0963 22.7181V27.1664H37.4567C43.279 27.2723 45.7967 29.9731 45.8492 34.1038C45.8492 36.9634 45.6394 40.8293 40.2367 40.8822H35.0963V14.5098H30.8477V43.7949C30.8477 44.5892 31.7394 45.4365 32.4212 45.4365H32.3688Z" fill="white"/>
</g>
<defs>
<clipPath id="clip0_800_17071">
<rect width="59" height="60" fill="white"/>
</clipPath>
</defs>
</svg>
