<svg width="252" height="60" viewBox="0 0 252 60" fill="none" xmlns="http://www.w3.org/2000/svg">
<g clip-path="url(#clip0_800_27411)">
<path fill-rule="evenodd" clip-rule="evenodd" d="M3.94265 0H57.2872C58.9657 0 60.3294 1.37688 60.3294 3.07149V56.9285C60.3294 58.6231 58.9657 60 57.2872 60H3.94265C2.26416 60 0.900391 58.6231 0.900391 56.9285V3.07149C0.900391 1.37688 2.26416 0 3.94265 0Z" fill="#0071BC"/>
<path fill-rule="evenodd" clip-rule="evenodd" d="M9.86914 45.4368H14.1178V27.0608V22.6124V14.563H9.86914V45.4368Z" fill="white"/>
<path fill-rule="evenodd" clip-rule="evenodd" d="M9.87081 22.6123H19.0501C24.4527 22.93 28.4916 25.6838 28.4916 33.2566V45.4896H25.0821C24.5052 45.2778 24.2429 44.9071 24.2429 44.3775V33.3096C24.2429 29.9733 23.561 27.2725 18.7878 27.2195H14.0146L9.81836 22.6653L9.87081 22.6123Z" fill="white"/>
<path fill-rule="evenodd" clip-rule="evenodd" d="M33.3668 45.4365H41.4446C43.5951 45.4365 51.1483 45.0129 51.3582 34.4745C51.4631 29.0199 48.211 22.5592 38.4548 22.7181C38.4548 22.7181 36.1468 22.7181 36.0944 22.7181V27.1664H38.4548C44.277 27.2723 46.7948 29.9731 46.8472 34.1038C46.8472 36.9634 46.6374 40.8293 41.2348 40.8822H36.0944V14.5098H31.8457V43.7949C31.8457 44.5892 32.7374 45.4365 33.4193 45.4365H33.3668Z" fill="white"/>
<path fill-rule="evenodd" clip-rule="evenodd" d="M69.666 36.6458H241.344V38.6581H69.666V36.6458Z" fill="#006DB7"/>
<path d="M70.1895 31.6682V7.20215H72.8645V17.7935H86.817V7.20215H89.4921V31.6682H86.817V20.3354H72.8645V31.6682H70.1895ZM106.697 24.519V21.5534C106.697 19.3822 106.434 18.0053 105.857 17.3698C105.333 16.7873 104.179 16.4696 102.395 16.4696H101.189C99.4581 16.4696 98.3042 16.7873 97.7796 17.3698C97.2551 17.9524 96.9928 19.3822 96.9928 21.5534V24.519C96.9928 26.7432 97.2551 28.1201 97.7796 28.7026C98.3042 29.2851 99.4581 29.6029 101.189 29.6029H102.395C104.126 29.6029 105.28 29.2851 105.857 28.7026C106.382 28.1201 106.697 26.6902 106.697 24.519ZM101.242 31.933C98.6713 31.933 96.8879 31.4034 95.8913 30.3972C94.8947 29.391 94.3702 27.6435 94.3702 25.1015V20.9709C94.3702 18.429 94.8947 16.6814 95.8913 15.6223C96.8879 14.6161 98.6713 14.0865 101.242 14.0865H102.448C105.018 14.0865 106.802 14.6161 107.851 15.6223C108.847 16.6285 109.372 18.429 109.372 20.9709V25.1015C109.372 27.6435 108.847 29.391 107.851 30.3972C106.854 31.4034 105.018 31.88 102.5 31.88H101.294L101.242 31.933ZM113.253 26.5314H115.823V26.9021C115.823 27.9612 116.138 28.7026 116.82 29.1262C117.449 29.5499 118.761 29.7088 120.754 29.7088C122.957 29.7088 124.321 29.4969 124.845 29.0733C125.37 28.6496 125.632 27.9082 125.632 26.7432C125.632 25.5781 125.422 24.8367 125.003 24.466C124.583 24.0954 123.534 23.8306 121.855 23.7776C121.226 23.7776 120.387 23.7247 119.338 23.6717C117.03 23.6187 115.666 23.4599 115.246 23.1951C114.617 22.8244 114.145 22.3478 113.883 21.7123C113.62 21.0768 113.463 20.1766 113.463 19.0115C113.463 17.1051 113.935 15.7811 114.932 15.0927C115.876 14.4043 118.026 14.0865 121.331 14.0865C123.901 14.0865 125.58 14.4043 126.524 15.0397C127.415 15.6752 127.888 16.8403 127.888 18.429H125.37V18.2701C125.37 17.4758 125.055 16.9991 124.373 16.6814C123.691 16.3637 122.38 16.2578 120.439 16.2578C118.499 16.2578 117.345 16.4166 116.82 16.7873C116.295 17.158 116.033 17.8465 116.033 19.0115C116.033 19.6999 116.033 20.1766 116.191 20.4413C116.295 20.7061 116.453 20.9179 116.715 21.0768C117.24 21.3416 118.341 21.5005 120.125 21.5534C120.544 21.5534 120.911 21.5534 121.174 21.5534C122.59 21.6064 123.744 21.6593 124.531 21.7653C125.37 21.8712 125.947 21.9771 126.262 22.136C127.048 22.5066 127.573 22.9833 127.888 23.6717C128.202 24.3601 128.36 25.3134 128.36 26.5314C128.36 27.7494 128.202 28.7555 127.888 29.444C127.573 30.0795 126.996 30.662 126.209 31.1916C125.842 31.4563 125.212 31.6152 124.426 31.7211C123.586 31.827 122.432 31.88 120.911 31.88C117.869 31.88 115.876 31.5093 114.879 30.8209C113.883 30.1324 113.411 28.8085 113.411 26.955V26.4784L113.253 26.5314ZM131.612 16.5755V14.4043H133.71V10.4855H136.228V14.4043H144.62V16.5755H136.228V26.1077C136.228 27.4846 136.437 28.3848 136.909 28.8615C137.329 29.3381 138.168 29.6029 139.427 29.6029C140.686 29.6029 141.473 29.391 141.892 28.9144C142.312 28.4378 142.522 27.5375 142.522 26.1077V25.5781H145.092V25.737C145.092 28.173 144.672 29.8147 143.886 30.662C143.099 31.5093 141.42 31.933 138.903 31.933C136.962 31.933 135.598 31.5093 134.811 30.609C134.025 29.7088 133.657 28.1201 133.657 25.79V16.6285H131.559L131.612 16.5755ZM152.75 17.7935H161.51C162.926 17.7935 163.87 17.5287 164.395 16.9991C164.867 16.4696 165.129 15.3575 165.129 13.6099C165.129 11.8623 164.867 10.9091 164.342 10.4325C163.818 10.0089 162.506 9.79703 160.356 9.79703H152.803V17.7935H152.75ZM152.75 29.1262H161.562C163.188 29.1262 164.237 28.8615 164.814 28.3848C165.339 27.9082 165.654 26.5843 165.654 24.466C165.654 22.7185 165.339 21.5534 164.709 21.0239C164.08 20.4943 162.506 20.2295 159.884 20.2295H152.698V29.0733L152.75 29.1262ZM150.128 31.6682V7.20215H161.405C164.028 7.20215 165.759 7.6258 166.598 8.42015C167.437 9.21451 167.857 10.8562 167.857 13.3451C167.857 15.2516 167.647 16.5755 167.227 17.3169C166.808 18.0583 166.073 18.5879 165.024 18.9056C166.283 19.2233 167.175 19.8059 167.699 20.6532C168.224 21.5005 168.434 22.8773 168.434 24.8897C168.434 27.5905 167.909 29.391 166.86 30.3442C165.811 31.2975 163.713 31.7211 160.513 31.7211H150.075L150.128 31.6682ZM184.799 24.519V21.5534C184.799 19.3822 184.537 18.0053 183.96 17.3698C183.435 16.7873 182.281 16.4696 180.498 16.4696H179.291C177.56 16.4696 176.406 16.7873 175.882 17.3698C175.357 17.9524 175.095 19.3822 175.095 21.5534V24.519C175.095 26.7432 175.357 28.1201 175.882 28.7026C176.406 29.2851 177.56 29.6029 179.291 29.6029H180.498C182.229 29.6029 183.383 29.2851 183.96 28.7026C184.484 28.1201 184.799 26.6902 184.799 24.519ZM179.344 31.933C176.774 31.933 174.99 31.4034 173.994 30.3972C172.997 29.391 172.472 27.6435 172.472 25.1015V20.9709C172.472 18.429 172.997 16.6814 173.994 15.6223C174.99 14.6161 176.774 14.0865 179.344 14.0865H180.55C183.12 14.0865 184.904 14.6161 185.953 15.6223C186.949 16.6285 187.474 18.429 187.474 20.9709V25.1015C187.474 27.6435 186.949 29.391 185.953 30.3972C184.956 31.4034 183.12 31.88 180.603 31.88H179.396L179.344 31.933ZM203.629 24.519V21.5534C203.629 19.3822 203.367 18.0053 202.79 17.3698C202.266 16.7873 201.112 16.4696 199.328 16.4696H198.122C196.391 16.4696 195.237 16.7873 194.712 17.3698C194.188 17.9524 193.926 19.3822 193.926 21.5534V24.519C193.926 26.7432 194.188 28.1201 194.712 28.7026C195.237 29.2851 196.391 29.6029 198.122 29.6029H199.328C201.059 29.6029 202.213 29.2851 202.79 28.7026C203.315 28.1201 203.629 26.6902 203.629 24.519ZM198.174 31.933C195.604 31.933 193.821 31.4034 192.824 30.3972C191.828 29.391 191.303 27.6435 191.303 25.1015V20.9709C191.303 18.429 191.828 16.6814 192.824 15.6223C193.821 14.6161 195.604 14.0865 198.174 14.0865H199.381C201.951 14.0865 203.734 14.6161 204.783 15.6223C205.78 16.6285 206.305 18.429 206.305 20.9709V25.1015C206.305 27.6435 205.78 29.391 204.783 30.3972C203.787 31.4034 201.951 31.88 199.433 31.88H198.227L198.174 31.933ZM210.816 31.7211V7.20215H213.333V21.1298H214.12L219.732 14.4043H222.617L216.166 22.136L223.929 31.7211H220.729L214.172 23.5128H213.386V31.7211H210.868H210.816ZM226.342 26.5843H228.912V26.955C228.912 28.0142 229.226 28.7555 229.908 29.1792C230.538 29.6029 231.849 29.7617 233.842 29.7617C236.045 29.7617 237.409 29.5499 237.934 29.1262C238.458 28.7026 238.72 27.9612 238.72 26.7961C238.72 25.6311 238.511 24.8897 238.091 24.519C237.671 24.1483 236.622 23.8835 234.944 23.8306C234.314 23.8306 233.475 23.7776 232.426 23.7247C230.118 23.6717 228.754 23.5128 228.335 23.248C227.705 22.8773 227.233 22.4007 226.971 21.7653C226.709 21.1298 226.551 20.2295 226.551 19.0645C226.551 17.158 227.023 15.8341 228.02 15.1457C228.964 14.4572 231.115 14.1395 234.419 14.1395C236.989 14.1395 238.668 14.4572 239.612 15.0927C240.504 15.7282 240.976 16.8932 240.976 18.4819H238.458V18.3231C238.458 17.5287 238.143 17.0521 237.462 16.7344C236.78 16.4166 235.468 16.3107 233.528 16.3107C231.587 16.3107 230.433 16.4696 229.908 16.8403C229.384 17.211 229.122 17.8994 229.122 19.0645C229.122 19.7529 229.122 20.2295 229.279 20.4943C229.384 20.7591 229.541 20.9709 229.803 21.1298C230.328 21.3946 231.429 21.5534 233.213 21.6064C233.632 21.6064 234 21.6064 234.262 21.6064C235.678 21.6593 236.832 21.7123 237.619 21.8182C238.458 21.9241 239.035 22.03 239.35 22.1889C240.137 22.5596 240.661 23.0362 240.976 23.7247C241.291 24.4131 241.448 25.3663 241.448 26.5843C241.448 27.8023 241.291 28.8085 240.976 29.4969C240.661 30.1324 240.084 30.7149 239.297 31.2445C238.93 31.5093 238.301 31.6682 237.514 31.7741C236.675 31.88 235.521 31.933 234 31.933C230.957 31.933 228.964 31.5623 227.968 30.8738C226.971 30.1854 226.499 28.8615 226.499 27.008V26.5314L226.342 26.5843Z" fill="black"/>
<path d="M69.666 44.4309V43.3717H77.2717V44.4309H74.0196V53.5924H72.8656V44.4309H69.666ZM78.0585 53.5924V43.3717H79.0551V47.3435C79.2124 46.9728 79.5272 46.708 79.8943 46.4962C80.2615 46.3373 80.786 46.2314 81.4155 46.2314C82.3596 46.2314 82.989 46.4432 83.4087 46.8139C83.7758 47.1846 83.9856 47.873 83.9856 48.8263V53.5924H82.9366V49.091C82.9366 48.3497 82.8317 47.8201 82.6219 47.6083C82.4121 47.3964 81.9924 47.2376 81.363 47.2376C80.6287 47.2376 80.0517 47.3964 79.737 47.7671C79.3698 48.0849 79.2124 48.6674 79.2124 49.4088V53.5924H78.1634H78.0585ZM86.7656 49.2499H90.8045V48.9851C90.8045 48.2967 90.6996 47.873 90.4373 47.6083C90.1751 47.3435 89.703 47.2376 89.0211 47.2376H88.549C87.8147 47.2376 87.3426 47.3435 87.1328 47.6083C86.923 47.873 86.7656 48.2967 86.7656 48.9851V49.2499ZM88.549 53.6453C87.5 53.6453 86.7132 53.4335 86.2936 53.0098C85.8739 52.5862 85.6641 51.8448 85.6641 50.7857V49.091C85.6641 48.0319 85.8739 47.2905 86.2936 46.8669C86.7132 46.4432 87.4475 46.2314 88.549 46.2314H89.0211C90.0702 46.2314 90.857 46.4432 91.2766 46.8669C91.6962 47.2905 91.906 48.0319 91.906 49.091V50.2031H86.7656C86.7656 50.2031 86.7656 50.362 86.7656 50.4679C86.7656 50.5738 86.7656 50.6797 86.7656 50.8386C86.7656 51.58 86.8705 52.1096 87.1328 52.3214C87.3426 52.5862 87.8671 52.6921 88.549 52.6921H89.0211C89.6505 52.6921 90.1226 52.5862 90.3324 52.4273C90.5947 52.2684 90.7521 51.8978 90.7521 51.4741H91.8536C91.8011 52.2685 91.5389 52.851 91.1192 53.1687C90.6472 53.5394 89.9653 53.6983 89.0211 53.6983H88.549V53.6453ZM100.561 53.5394V43.3188H101.61V53.5394H100.561ZM108.324 51.6859V50.9445C108.324 50.5738 108.166 50.362 107.799 50.2031C107.432 50.0443 106.908 49.9384 106.121 49.9384C105.439 49.9384 104.967 50.0443 104.757 50.2031C104.547 50.362 104.39 50.7327 104.39 51.2093C104.39 51.7918 104.495 52.1625 104.757 52.3214C105.019 52.5332 105.491 52.5862 106.226 52.5862C106.908 52.5862 107.38 52.4803 107.747 52.3214C108.114 52.1625 108.271 51.9507 108.271 51.633L108.324 51.6859ZM108.376 52.7451C108.219 53.0628 107.957 53.2746 107.589 53.3805C107.222 53.5394 106.75 53.5924 106.121 53.5924C105.019 53.5924 104.232 53.4335 103.865 53.1158C103.498 52.798 103.288 52.2155 103.288 51.3152C103.288 50.7857 103.288 50.415 103.446 50.0972C103.551 49.8324 103.655 49.5677 103.865 49.4088C104.023 49.2499 104.285 49.144 104.6 49.091C104.914 49.0381 105.439 48.9851 106.016 48.9851C106.593 48.9851 107.17 49.0381 107.485 49.144C107.852 49.2499 108.061 49.4088 108.271 49.6736V48.4026C108.271 47.8201 108.166 47.4494 107.957 47.2376C107.747 47.0787 107.17 46.9728 106.226 46.9728C105.544 46.9728 105.124 47.0257 104.914 47.1846C104.705 47.3435 104.6 47.6083 104.6 47.979H103.551V47.8201C103.551 47.1846 103.76 46.7609 104.128 46.4962C104.547 46.2314 105.229 46.1255 106.173 46.1255C106.908 46.1255 107.485 46.1255 107.904 46.2314C108.324 46.2843 108.586 46.3903 108.796 46.5491C109.006 46.708 109.163 46.9198 109.215 47.1846C109.32 47.4494 109.32 47.8201 109.32 48.4556V53.5394H108.376V52.798V52.7451ZM111.366 53.4865V46.2314H112.363V47.2376C112.52 46.8669 112.835 46.6021 113.202 46.3903C113.569 46.2314 114.094 46.1255 114.723 46.1255C115.667 46.1255 116.297 46.3373 116.716 46.708C117.083 47.0787 117.293 47.7671 117.293 48.7203V53.4865H116.244V48.9851C116.244 48.2437 116.139 47.7142 115.929 47.5023C115.72 47.2905 115.3 47.1316 114.671 47.1316C113.936 47.1316 113.359 47.2905 113.045 47.6612C112.677 48.0319 112.52 48.5615 112.52 49.3029V53.4865H111.471H111.366ZM124.165 50.4679V49.3029C124.165 48.5615 124.007 47.979 123.64 47.6612C123.273 47.3435 122.748 47.1316 121.961 47.1316C121.28 47.1316 120.808 47.2376 120.598 47.5023C120.388 47.7671 120.231 48.3497 120.231 49.2499V50.4679C120.231 51.3682 120.335 51.9507 120.598 52.2155C120.808 52.4803 121.28 52.5862 121.961 52.5862C122.748 52.5862 123.273 52.4273 123.64 52.0566C124.007 51.7389 124.165 51.1564 124.165 50.415V50.4679ZM125.214 46.2314V53.3805C125.214 54.4397 125.004 55.1811 124.584 55.6047C124.165 56.0284 123.43 56.2402 122.381 56.2402H121.909C120.965 56.2402 120.283 56.0813 119.863 55.7106C119.444 55.3399 119.181 54.8104 119.129 54.016H120.231C120.231 54.4926 120.44 54.8104 120.65 54.9692C120.912 55.1281 121.332 55.234 121.961 55.234H122.434C123.063 55.234 123.483 55.1281 123.797 54.9163C124.06 54.7045 124.217 54.3867 124.217 53.9101V52.4273C124.007 52.851 123.745 53.1158 123.378 53.2746C123.011 53.4335 122.538 53.5394 121.961 53.5394C120.965 53.5394 120.231 53.3276 119.811 52.9039C119.391 52.4803 119.181 51.7389 119.181 50.6797V48.9851C119.181 47.926 119.391 47.1846 119.811 46.7609C120.231 46.3373 120.965 46.1255 121.961 46.1255C122.591 46.1255 123.063 46.2314 123.43 46.4432C123.797 46.655 124.06 46.9728 124.217 47.3964V46.2843H125.214V46.2314ZM133.081 46.2314V53.4865H132.085V52.4803C131.928 52.851 131.665 53.1158 131.246 53.2746C130.878 53.4335 130.354 53.5394 129.725 53.5394C128.78 53.5394 128.151 53.3276 127.731 52.9569C127.364 52.5862 127.154 51.8978 127.154 50.9445V46.1784H128.203V50.6797C128.203 51.4211 128.308 51.9507 128.518 52.1625C128.728 52.3744 129.148 52.5332 129.829 52.5332C130.564 52.5332 131.141 52.3744 131.455 52.0037C131.823 51.6859 131.98 51.1034 131.98 50.362V46.1255H133.029L133.081 46.2314ZM139.795 51.633V50.8916C139.795 50.5209 139.638 50.3091 139.271 50.1502C138.904 49.9913 138.379 49.8854 137.592 49.8854C136.911 49.8854 136.438 49.9913 136.229 50.1502C136.019 50.3091 135.861 50.6797 135.861 51.1564C135.861 51.7389 135.966 52.1096 136.229 52.2684C136.491 52.4803 136.963 52.5332 137.697 52.5332C138.379 52.5332 138.851 52.4273 139.218 52.2684C139.586 52.1096 139.743 51.8978 139.743 51.58L139.795 51.633ZM139.848 52.6921C139.691 53.0098 139.428 53.2217 139.061 53.3276C138.694 53.4865 138.222 53.5394 137.592 53.5394C136.491 53.5394 135.704 53.3805 135.337 53.0628C134.97 52.7451 134.76 52.1625 134.76 51.2623C134.76 50.7327 134.76 50.362 134.917 50.0443C135.022 49.7795 135.127 49.5147 135.337 49.3558C135.494 49.197 135.757 49.091 136.071 49.0381C136.386 48.9851 136.911 48.9322 137.488 48.9322C138.065 48.9322 138.641 48.9851 138.956 49.091C139.323 49.197 139.533 49.3558 139.743 49.6206V48.3497C139.743 47.7671 139.638 47.3964 139.428 47.1846C139.218 47.0257 138.641 46.9198 137.697 46.9198C137.015 46.9198 136.596 46.9728 136.386 47.1316C136.176 47.2905 136.071 47.5553 136.071 47.926H135.022V47.7671C135.022 47.1316 135.232 46.708 135.599 46.4432C136.019 46.1784 136.701 46.0725 137.645 46.0725C138.379 46.0725 138.956 46.0725 139.376 46.1784C139.795 46.2314 140.058 46.3373 140.268 46.4962C140.477 46.655 140.635 46.8669 140.687 47.1316C140.792 47.3964 140.792 47.7671 140.792 48.4026V53.4865H139.848V52.7451V52.6921ZM147.768 50.415V49.2499C147.768 48.5085 147.611 47.926 147.244 47.6083C146.877 47.2905 146.352 47.0787 145.565 47.0787C144.883 47.0787 144.411 47.1846 144.201 47.4494C143.992 47.7142 143.834 48.2967 143.834 49.197V50.415C143.834 51.3152 143.939 51.8978 144.201 52.1625C144.411 52.4273 144.883 52.5332 145.565 52.5332C146.352 52.5332 146.877 52.3744 147.244 52.0037C147.611 51.6859 147.768 51.1034 147.768 50.362V50.415ZM148.817 46.1784V53.3276C148.817 54.3867 148.608 55.1281 148.188 55.5518C147.768 55.9754 147.034 56.1872 145.985 56.1872H145.513C144.569 56.1872 143.887 56.0284 143.467 55.6577C143.048 55.287 142.785 54.7574 142.733 53.9631H143.834C143.834 54.4397 144.044 54.7574 144.254 54.9163C144.516 55.0752 144.936 55.1811 145.565 55.1811H146.037C146.667 55.1811 147.086 55.0752 147.401 54.8633C147.663 54.6515 147.821 54.3338 147.821 53.8572V52.3744C147.611 52.798 147.349 53.0628 146.981 53.2217C146.614 53.3805 146.142 53.4865 145.565 53.4865C144.569 53.4865 143.834 53.2746 143.415 52.851C142.995 52.4273 142.785 51.6859 142.785 50.6268V48.9322C142.785 47.873 142.995 47.1316 143.415 46.708C143.834 46.2843 144.569 46.0725 145.565 46.0725C146.195 46.0725 146.667 46.1784 147.034 46.3903C147.401 46.6021 147.663 46.9198 147.821 47.3435V46.2314H148.817V46.1784ZM151.65 49.091H155.689V48.8263C155.689 48.1378 155.584 47.7142 155.321 47.4494C155.059 47.1846 154.587 47.0787 153.905 47.0787H153.433C152.699 47.0787 152.227 47.1846 152.017 47.4494C151.807 47.7142 151.65 48.1378 151.65 48.8263V49.091ZM153.433 53.4865C152.384 53.4865 151.597 53.2746 151.178 52.851C150.758 52.4273 150.548 51.6859 150.548 50.6268V48.9322C150.548 47.873 150.758 47.1316 151.178 46.708C151.597 46.2843 152.332 46.0725 153.433 46.0725H153.905C154.954 46.0725 155.741 46.2843 156.161 46.708C156.58 47.1316 156.79 47.873 156.79 48.9322V50.0443H151.65C151.65 50.0443 151.65 50.2031 151.65 50.3091C151.65 50.415 151.65 50.5209 151.65 50.6797C151.65 51.4211 151.755 51.9507 152.017 52.1625C152.227 52.4273 152.751 52.5332 153.433 52.5332H153.905C154.535 52.5332 155.007 52.4273 155.217 52.2684C155.479 52.1096 155.636 51.7389 155.636 51.3152H156.738C156.685 52.1096 156.423 52.6921 156.003 53.0098C155.531 53.3805 154.849 53.5394 153.905 53.5394H153.433V53.4865ZM170.271 50.415V49.197C170.271 48.2967 170.166 47.7142 169.903 47.4494C169.694 47.1846 169.169 47.0787 168.435 47.0787H167.963C167.228 47.0787 166.756 47.1846 166.546 47.4494C166.337 47.7142 166.232 48.2967 166.232 49.197V50.415C166.232 51.3152 166.337 51.8978 166.546 52.1625C166.756 52.4273 167.228 52.5332 167.963 52.5332H168.435C169.169 52.5332 169.641 52.4273 169.903 52.1625C170.113 51.8978 170.271 51.3152 170.271 50.415ZM168.015 53.4865C166.966 53.4865 166.179 53.2746 165.76 52.851C165.34 52.4273 165.13 51.6859 165.13 50.6268V48.9322C165.13 47.873 165.34 47.1316 165.76 46.708C166.179 46.2843 166.914 46.0725 168.015 46.0725H168.487C169.536 46.0725 170.323 46.2843 170.743 46.708C171.162 47.1316 171.372 47.873 171.372 48.9322V50.6268C171.372 51.6859 171.162 52.4273 170.743 52.851C170.323 53.2746 169.589 53.4865 168.487 53.4865H168.015ZM172.369 47.0787V46.1784H173.365C173.365 46.1784 173.365 46.0725 173.365 45.9666C173.365 45.9136 173.365 45.8077 173.365 45.6489C173.365 44.7486 173.523 44.0602 173.837 43.6895C174.152 43.3188 174.729 43.1069 175.516 43.1069C175.726 43.1069 175.935 43.1069 176.093 43.1069C176.303 43.1069 176.46 43.1069 176.67 43.1069V44.0602C176.67 44.0602 176.512 44.0602 176.408 44.0602C176.093 44.0602 175.883 44.0602 175.778 44.0602C175.254 44.0602 174.886 44.1661 174.677 44.3249C174.519 44.4838 174.414 44.9075 174.414 45.5959V46.0725H176.67V46.9728H174.414V53.2746H173.365V46.9728H172.369V47.0787ZM185.639 49.197V50.362C185.639 51.1034 185.797 51.633 186.164 52.0037C186.531 52.3214 187.055 52.5332 187.842 52.5332C188.524 52.5332 188.996 52.4273 189.206 52.1625C189.416 51.8978 189.573 51.3152 189.573 50.415V49.197C189.573 48.2967 189.468 47.7142 189.206 47.4494C188.996 47.1846 188.524 47.0787 187.842 47.0787C187.055 47.0787 186.531 47.2376 186.164 47.6083C185.797 47.926 185.639 48.5085 185.639 49.2499V49.197ZM184.59 53.3805V43.1599H185.639V47.1846C185.849 46.7609 186.111 46.4962 186.478 46.3373C186.846 46.1784 187.318 46.0725 187.895 46.0725C188.891 46.0725 189.626 46.2843 190.045 46.708C190.465 47.1316 190.675 47.873 190.675 48.9322V50.6268C190.675 51.6859 190.465 52.4273 190.045 52.851C189.626 53.2746 188.891 53.4865 187.895 53.4865C187.265 53.4865 186.793 53.3805 186.426 53.1687C186.059 52.9569 185.797 52.6921 185.639 52.2684V53.3805H184.643H184.59ZM198.28 46.1255V53.3805H197.284V52.3744C197.126 52.7451 196.864 53.0098 196.444 53.1687C196.077 53.3276 195.553 53.4335 194.923 53.4335C193.979 53.4335 193.35 53.2217 192.93 52.851C192.563 52.4803 192.353 51.7918 192.353 50.8386V46.0725H193.402V50.5738C193.402 51.3152 193.507 51.8448 193.717 52.0566C193.927 52.2684 194.346 52.4273 195.028 52.4273C195.763 52.4273 196.34 52.2685 196.654 51.8978C197.021 51.58 197.179 50.9975 197.179 50.2561V46.0196H198.228L198.28 46.1255ZM200.064 51.2093H201.113V51.3682C201.113 51.7918 201.27 52.1096 201.532 52.2684C201.795 52.4273 202.372 52.5332 203.158 52.5332C204.103 52.5332 204.627 52.4273 204.837 52.2684C205.047 52.1096 205.152 51.7918 205.152 51.2623C205.152 50.7327 205.047 50.4679 204.889 50.3091C204.732 50.1502 204.26 50.0443 203.578 49.9913C203.316 49.9913 202.949 49.9913 202.529 49.9913C201.585 49.9913 201.008 49.8854 200.798 49.7795C200.536 49.6206 200.326 49.4088 200.221 49.144C200.116 48.8792 200.064 48.5085 200.064 48.0319C200.064 47.2376 200.274 46.708 200.693 46.3903C201.113 46.1255 202.005 45.9666 203.368 45.9666C204.417 45.9666 205.152 46.1255 205.519 46.3903C205.886 46.655 206.096 47.1316 206.096 47.8201H205.047C205.047 47.4494 204.889 47.1846 204.627 47.0787C204.365 46.9728 203.788 46.9198 203.001 46.9198C202.214 46.9198 201.69 46.9728 201.48 47.1316C201.27 47.2905 201.165 47.6083 201.165 48.0319C201.165 48.2967 201.165 48.5085 201.218 48.6144C201.218 48.7203 201.323 48.8263 201.428 48.8792C201.637 48.9851 202.109 49.0381 202.844 49.091C203.054 49.091 203.158 49.091 203.263 49.091C203.84 49.091 204.312 49.144 204.68 49.197C205.047 49.197 205.257 49.3029 205.414 49.3558C205.729 49.5147 205.938 49.7265 206.096 49.9913C206.253 50.2561 206.306 50.6797 206.306 51.2093C206.306 51.7389 206.253 52.1625 206.096 52.4273C205.938 52.6921 205.729 52.9569 205.361 53.1687C205.204 53.2746 204.942 53.3276 204.627 53.3805C204.26 53.3805 203.788 53.4335 203.158 53.4335C201.9 53.4335 201.06 53.2746 200.641 53.0098C200.221 52.6921 200.011 52.1625 200.011 51.3682V51.1564L200.064 51.2093ZM208.299 44.3249V43.1069H209.348V44.3249H208.299ZM208.299 53.3276V46.0725H209.348V53.3276H208.299ZM211.394 53.3276V46.0725H212.39V47.0787C212.548 46.708 212.862 46.4432 213.229 46.2314C213.597 46.0725 214.121 45.9666 214.751 45.9666C215.695 45.9666 216.324 46.1784 216.744 46.5491C217.111 46.9198 217.321 47.6083 217.321 48.5615V53.3276H216.272V48.8263C216.272 48.0849 216.167 47.5553 215.957 47.3435C215.747 47.1316 215.328 46.9728 214.698 46.9728C213.964 46.9728 213.387 47.1316 213.072 47.5023C212.705 47.873 212.548 48.4026 212.548 49.144V53.3276H211.498H211.394ZM220.101 48.9851H224.14V48.7203C224.14 48.0319 224.035 47.6083 223.772 47.3435C223.51 47.0787 223.038 46.9728 222.356 46.9728H221.884C221.15 46.9728 220.678 47.0787 220.468 47.3435C220.258 47.6083 220.101 48.0319 220.101 48.7203V48.9851ZM221.884 53.3805C220.835 53.3805 220.048 53.1687 219.629 52.7451C219.209 52.3214 218.999 51.58 218.999 50.5209V48.8263C218.999 47.7671 219.209 47.0257 219.629 46.6021C220.048 46.1784 220.783 45.9666 221.884 45.9666H222.356C223.405 45.9666 224.192 46.1784 224.612 46.6021C225.031 47.0257 225.241 47.7671 225.241 48.8263V49.9384H220.101C220.101 49.9384 220.101 50.0972 220.101 50.2031C220.101 50.309 220.101 50.415 220.101 50.5738C220.101 51.3152 220.206 51.8448 220.468 52.0566C220.678 52.3214 221.202 52.4273 221.884 52.4273H222.356C222.986 52.4273 223.458 52.3214 223.668 52.1625C223.93 52.0037 224.087 51.633 224.087 51.2093H225.189C225.136 52.0037 224.874 52.5862 224.454 52.9039C223.982 53.2746 223.3 53.4335 222.356 53.4335H221.884V53.3805ZM226.762 51.1034H227.811V51.2623C227.811 51.6859 227.969 52.0037 228.231 52.1625C228.493 52.3214 229.07 52.4273 229.857 52.4273C230.801 52.4273 231.326 52.3214 231.535 52.1625C231.745 52.0037 231.85 51.6859 231.85 51.1564C231.85 50.6268 231.745 50.362 231.588 50.2031C231.431 50.0443 230.958 49.9384 230.277 49.8854C230.014 49.8854 229.647 49.8854 229.228 49.8854C228.283 49.8854 227.706 49.7795 227.497 49.6736C227.234 49.5147 227.025 49.3029 226.92 49.0381C226.815 48.7733 226.762 48.4026 226.762 47.926C226.762 47.1316 226.972 46.6021 227.392 46.2843C227.811 46.0196 228.703 45.8607 230.067 45.8607C231.116 45.8607 231.85 46.0196 232.217 46.2843C232.585 46.5491 232.794 47.0257 232.794 47.7142H231.745C231.745 47.3435 231.588 47.0787 231.326 46.9728C231.063 46.8669 230.486 46.8139 229.7 46.8139C228.913 46.8139 228.388 46.8669 228.178 47.0257C227.969 47.1846 227.864 47.5023 227.864 47.926C227.864 48.1908 227.864 48.4026 227.916 48.5085C227.916 48.6144 228.021 48.7203 228.126 48.7733C228.336 48.8792 228.808 48.9322 229.542 48.9851C229.752 48.9851 229.857 48.9851 229.962 48.9851C230.539 48.9851 231.011 49.0381 231.378 49.091C231.745 49.091 231.955 49.197 232.112 49.2499C232.427 49.4088 232.637 49.6206 232.794 49.8854C232.952 50.1502 233.004 50.5738 233.004 51.1034C233.004 51.633 232.952 52.0566 232.794 52.3214C232.637 52.5862 232.427 52.851 232.06 53.0628C231.903 53.1687 231.64 53.2217 231.326 53.2746C230.958 53.2746 230.486 53.3276 229.857 53.3276C228.598 53.3276 227.759 53.1687 227.339 52.9039C226.92 52.5862 226.71 52.0566 226.71 51.2623V51.0504L226.762 51.1034ZM234.735 51.1034H235.784V51.2623C235.784 51.6859 235.941 52.0037 236.204 52.1625C236.466 52.3214 237.043 52.4273 237.83 52.4273C238.774 52.4273 239.298 52.3214 239.508 52.1625C239.718 52.0037 239.823 51.6859 239.823 51.1564C239.823 50.6268 239.718 50.362 239.561 50.2031C239.403 50.0443 238.931 49.9384 238.249 49.8854C237.987 49.8854 237.62 49.8854 237.2 49.8854C236.256 49.8854 235.679 49.7795 235.469 49.6736C235.207 49.5147 234.997 49.3029 234.892 49.0381C234.788 48.7733 234.735 48.4026 234.735 47.926C234.735 47.1316 234.945 46.6021 235.365 46.2843C235.784 46.0196 236.676 45.8607 238.04 45.8607C239.089 45.8607 239.823 46.0196 240.19 46.2843C240.557 46.5491 240.767 47.0257 240.767 47.7142H239.718C239.718 47.3435 239.561 47.0787 239.298 46.9728C239.036 46.8669 238.459 46.8139 237.672 46.8139C236.886 46.8139 236.361 46.8669 236.151 47.0257C235.941 47.1846 235.837 47.5023 235.837 47.926C235.837 48.1908 235.837 48.4026 235.889 48.5085C235.889 48.6144 235.994 48.7203 236.099 48.7733C236.309 48.8792 236.781 48.9322 237.515 48.9851C237.725 48.9851 237.83 48.9851 237.935 48.9851C238.512 48.9851 238.984 49.0381 239.351 49.091C239.718 49.091 239.928 49.197 240.085 49.2499C240.4 49.4088 240.61 49.6206 240.767 49.8854C240.924 50.1502 240.977 50.5738 240.977 51.1034C240.977 51.633 240.924 52.0566 240.767 52.3214C240.61 52.5862 240.4 52.851 240.033 53.0628C239.875 53.1687 239.613 53.2217 239.298 53.2746C238.931 53.2746 238.459 53.3276 237.83 53.3276C236.571 53.3276 235.732 53.1687 235.312 52.9039C234.892 52.5862 234.683 52.0566 234.683 51.2623V51.0504L234.735 51.1034Z" fill="black"/>
<path d="M244.806 1.48291C248.11 1.48291 250.785 4.1837 250.785 7.51998C250.785 10.8563 248.11 13.557 244.806 13.557C241.501 13.557 238.826 10.8563 238.826 7.51998C238.826 4.1837 241.501 1.48291 244.806 1.48291V1.48291Z" stroke="black" stroke-width="0.06" stroke-miterlimit="10"/>
<path d="M242.549 11.4915H243.598V7.9434H244.594C245.539 7.9434 246.011 8.42001 246.221 9.5321C246.43 10.5383 246.64 11.2267 246.745 11.4915H247.847C247.689 11.1738 247.479 10.3794 247.217 9.26731C247.007 8.42001 246.64 7.83748 246.011 7.62566C246.85 7.30792 247.532 6.56652 247.532 5.50739C247.532 4.87191 247.27 4.28938 246.902 3.97164C246.378 3.49503 245.644 3.2832 244.542 3.2832C243.808 3.2832 243.073 3.33616 242.549 3.44207V11.4915ZM243.598 4.18347C243.598 4.18347 244.122 4.07755 244.647 4.07755C245.748 4.07755 246.535 4.55416 246.535 5.6133C246.535 6.56652 245.801 7.14905 244.699 7.14905H243.65V4.18347H243.598Z" fill="black"/>
</g>
<defs>
<clipPath id="clip0_800_27411">
<rect width="250.2" height="60" fill="white" transform="translate(0.900391)"/>
</clipPath>
</defs>
</svg>
