<svg width="1152" height="1117" viewBox="0 0 1152 1117" fill="none" xmlns="http://www.w3.org/2000/svg">
<g clip-path="url(#clip0_868_8672)">
<rect width="1152" height="1117" fill="url(#paint0_linear_868_8672)"/>
<circle cx="1159" cy="221" r="74" fill="white"/>
<path d="M1321 221.5C1321 189.361 1311.47 157.943 1293.61 131.22C1275.76 104.497 1250.38 83.6688 1220.69 71.3696C1190.99 59.0703 1158.32 55.8523 1126.8 62.1224C1095.28 68.3925 1066.32 83.8691 1043.6 106.595C1020.87 129.321 1005.39 158.276 999.122 189.798C992.852 221.32 996.07 253.993 1008.37 283.686C1020.67 313.379 1041.5 338.758 1068.22 356.614C1094.94 374.47 1126.36 384 1158.5 384L1158.5 335.25C1136 335.25 1114.01 328.579 1095.3 316.08C1076.6 303.581 1062.02 285.815 1053.41 265.03C1044.8 244.245 1042.55 221.374 1046.94 199.308C1051.32 177.243 1062.16 156.975 1078.07 141.067C1093.97 125.158 1114.24 114.325 1136.31 109.936C1158.37 105.547 1181.25 107.799 1202.03 116.409C1222.82 125.018 1240.58 139.598 1253.08 158.304C1265.58 177.01 1272.25 199.002 1272.25 221.5H1321Z" fill="#34DCE8"/>
<path d="M289 918C289 900.496 282.099 883.708 269.815 871.331C257.532 858.954 240.872 852 223.5 852C206.128 852 189.468 858.954 177.185 871.331C164.901 883.708 158 900.496 158 918L223.5 918H289Z" fill="white"/>
<path d="M451 919C451 936.504 457.901 953.292 470.184 965.669C482.468 978.046 499.128 985 516.5 985C533.872 985 550.532 978.046 562.815 965.669C575.099 953.292 582 936.504 582 919L516.5 919L451 919Z" fill="white"/>
<path d="M366 918.5C366 880.707 350.934 844.461 324.116 817.737C297.299 791.013 260.926 776 223 776C185.074 776 148.701 791.013 121.884 817.737C95.066 844.461 80 880.707 80 918.5L122.9 918.5C122.9 892.045 133.446 866.673 152.219 847.966C170.991 829.259 196.452 818.75 223 818.75C249.548 818.75 275.009 829.259 293.781 847.966C312.554 866.673 323.1 892.045 323.1 918.5H366Z" fill="#34DCE8"/>
<path d="M374 918.5C374 956.293 389.066 992.539 415.884 1019.26C442.701 1045.99 479.074 1061 517 1061C554.926 1061 591.299 1045.99 618.116 1019.26C644.934 992.539 660 956.293 660 918.5L617.1 918.5C617.1 944.955 606.554 970.327 587.781 989.034C569.009 1007.74 543.548 1018.25 517 1018.25C490.452 1018.25 464.991 1007.74 446.219 989.034C427.446 970.327 416.9 944.955 416.9 918.5L374 918.5Z" fill="#34DCE8"/>
</g>
<defs>
<linearGradient id="paint0_linear_868_8672" x1="-277" y1="-208.5" x2="1137" y2="1205.5" gradientUnits="userSpaceOnUse">
<stop stop-color="#5A92BA"/>
<stop offset="1" stop-color="#00508A"/>
</linearGradient>
<clipPath id="clip0_868_8672">
<rect width="1152" height="1117" fill="white"/>
</clipPath>
</defs>
</svg>
