<svg width="14" height="14" viewBox="0 0 14 14" fill="none" xmlns="http://www.w3.org/2000/svg">
<path d="M6.99969 8.26503C5.75719 8.26503 4.74219 7.25586 4.74219 6.00753C4.74219 4.75919 5.75719 3.75586 6.99969 3.75586C8.24219 3.75586 9.25719 4.76503 9.25719 6.01336C9.25719 7.26169 8.24219 8.26503 6.99969 8.26503ZM6.99969 4.63086C6.24135 4.63086 5.61719 5.24919 5.61719 6.01336C5.61719 6.77753 6.23552 7.39586 6.99969 7.39586C7.76385 7.39586 8.38219 6.77753 8.38219 6.01336C8.38219 5.24919 7.75802 4.63086 6.99969 4.63086Z" fill="#DA3E33"/>
<path d="M7.00096 13.276C6.13762 13.276 5.26846 12.9493 4.59179 12.3018C2.87096 10.6452 0.969291 8.00268 1.68679 4.85852C2.33429 2.00602 4.82512 0.728516 7.00096 0.728516C7.00096 0.728516 7.00096 0.728516 7.00679 0.728516C9.18262 0.728516 11.6735 2.00602 12.321 4.86435C13.0326 8.00852 11.131 10.6452 9.41012 12.3018C8.73346 12.9493 7.86429 13.276 7.00096 13.276ZM7.00096 1.60352C5.30346 1.60352 3.12179 2.50768 2.54429 5.05102C1.91429 7.79852 3.64096 10.1668 5.20429 11.666C6.21346 12.6402 7.79429 12.6402 8.80346 11.666C10.361 10.1668 12.0876 7.79852 11.4693 5.05102C10.886 2.50768 8.69846 1.60352 7.00096 1.60352Z" fill="#DA3E33"/>
</svg>
