<svg width="56" height="56" viewBox="0 0 56 56" fill="none" xmlns="http://www.w3.org/2000/svg">
<path opacity="0.6" d="M38.1718 43.1429C38.1485 43.1662 38.1484 43.1895 38.1484 43.1895C35.3718 46.1295 32.0352 48.9062 27.9985 51.3329C27.9985 51.3329 7.37177 41.0195 4.89844 16.5195C12.1551 40.0162 27.9985 23.3329 27.9985 23.3329C43.7718 30.0995 38.5451 42.3262 38.1718 43.1429Z" fill="#88C4EC"/>
<path opacity="0.4" d="M38.1734 43.1434C38.5467 42.3267 43.7734 30.1001 28.0001 23.3334C25.6668 9.33341 37.4968 6.86008 37.4968 6.86008L38.8734 6.58008H38.8967C42.9567 7.53674 47.1334 9.14674 51.3334 11.6667C51.3334 11.6667 51.3334 29.1667 38.1734 43.1434Z" fill="#88C4EC"/>
<path d="M38.8746 6.5808L37.498 6.8608C37.498 6.8608 25.668 9.33414 28.0013 23.3341C28.0013 23.3341 12.1579 40.0175 4.90125 16.5208V16.4975C4.76125 14.9575 4.66797 13.3241 4.66797 11.6675C4.66797 11.6675 20.3479 2.26414 38.8746 6.5808Z" fill="#88C4EC"/>
</svg>
