<svg width="154" height="152" viewBox="0 0 154 152" fill="none" xmlns="http://www.w3.org/2000/svg">
<g id="Illustration - Business, Startup, workflow, error _ exhaustion, exhausted, work, laptop, computer, support" clip-path="url(#clip0_348_10063)">
<g id="Business, Startup, workflow, error _ exhaustion, exhausted, work, laptop, computer, support">
<path id="Vector_2" d="M70.6752 101.071C70.4103 101.592 69.9767 102.009 69.4452 102.253C68.9912 102.482 68.5105 102.652 68.0141 102.76C67.1963 102.897 66.9074 102.38 66.3853 101.873C66.0876 101.586 65.7452 101.348 65.3715 101.17C65.1475 101.06 64.902 101.001 64.6526 100.998C64.403 100.994 64.1558 101.045 63.9286 101.148C63.7748 101.217 63.644 101.329 63.5523 101.47C63.4605 101.611 63.4117 101.776 63.4115 101.944C63.4453 102.564 64.3003 103.054 64.7835 103.311C65.4144 103.609 66.0702 103.851 66.7435 104.034C68.3942 104.541 65.6452 105.597 65.0674 105.663C63.8314 105.83 62.5769 105.801 61.3502 105.575C61.7023 106.362 61.9725 107.183 62.1562 108.025C62.3471 108.831 62.5701 109.801 62.413 110.612C62.2221 111.565 61.5783 112.273 60.7842 112.753L57.6973 99.8743C58.8356 99.3321 60.0735 99.031 61.3337 98.9897C62.5938 98.9484 63.8488 99.1679 65.0201 99.6344C65.4107 99.7785 65.8343 99.8073 66.2408 99.7174C66.6473 99.6275 67.0194 99.4229 67.3129 99.1275L67.6288 98.8217C68.0688 98.7261 68.5274 98.7624 68.9467 98.9265C69.6952 99.2086 71.0807 100.116 70.6752 101.071Z" fill="#DA3E33"/>
<path id="Vector_3" d="M73.8405 115.469H61.094C60.9651 116.671 60.3962 117.783 59.4967 118.592C58.5971 119.4 57.4304 119.847 56.2212 119.847H13.3691C13.3718 121.005 13.8334 122.116 14.6529 122.935C15.4724 123.755 16.583 124.217 17.7419 124.219H73.8371C74.996 124.215 76.1065 123.753 76.9264 122.934C77.7466 122.115 78.2095 121.005 78.2149 119.847V116.907C78.2149 116.525 78.0634 116.159 77.7939 115.89C77.5242 115.62 77.1584 115.469 76.7771 115.469H73.8405Z" stroke="black" stroke-width="0.817542" stroke-miterlimit="10"/>
<path id="Vector_4" d="M54.1586 86.8878C54.5352 87.4065 54.8055 87.9945 54.9544 88.618L60.9931 113.793C61.1266 114.34 61.1614 114.906 61.0962 115.464C60.9672 116.667 60.3983 117.779 59.4988 118.587C58.5992 119.395 57.4326 119.842 56.2233 119.842H12.5754C11.4735 119.841 10.4036 119.47 9.53844 118.787C8.67321 118.105 8.06287 117.151 7.80566 116.079L1.77373 90.904C1.59951 90.1829 1.59133 89.4315 1.74982 88.7067C1.90829 87.982 2.2293 87.3026 2.68862 86.72C3.14794 86.1373 3.73358 85.6666 4.40135 85.3433C5.06912 85.02 5.80159 84.8525 6.54351 84.8535H50.1846C50.9015 84.8525 51.6098 85.0096 52.259 85.3136C52.9083 85.6176 53.4824 86.0611 53.9406 86.6124L54.1586 86.8878Z" stroke="black" stroke-width="0.817542" stroke-miterlimit="10"/>
<path id="Vector_5" d="M32.9844 109.247C35.47 108.463 36.771 105.563 35.8902 102.769C35.0094 99.9758 32.2804 98.3465 29.7946 99.1302C27.309 99.914 26.008 102.814 26.8888 105.607C27.7696 108.401 30.4987 110.03 32.9844 109.247Z" fill="#FFB5AF"/>
<path id="Vector_7" d="M26.6191 84.8551C29.6926 80.8836 33.9306 77.9724 38.7404 76.5287C38.0997 74.8078 37.5915 73.0403 37.2198 71.2418C33.2289 51.8315 45.7101 32.8554 65.1154 28.8527C84.5206 24.85 103.503 37.3262 107.504 56.7314C107.952 58.906 108.201 61.1166 108.248 63.3361C109.634 62.8443 111.053 62.4491 112.494 62.1534C129.453 58.6474 146.045 69.559 149.546 86.521C150.534 91.2903 150.395 96.2243 149.142 100.931C147.889 105.637 145.555 109.986 142.326 113.633" stroke="#FFD0D0" stroke-width="0.817542" stroke-miterlimit="10"/>
<path id="Vector_8" d="M68.9199 115.473H70.1179C70.4622 115.481 70.8038 115.409 71.1156 115.262C71.4273 115.116 71.7007 114.898 71.9139 114.628C71.9195 114.622 71.9235 114.614 71.9257 114.606C72.3554 114.018 72.5511 113.292 72.4749 112.568L72.3769 111.806L72.2958 111.191L72.5898 111.022L77.1957 108.305L77.5065 108.126C79.7554 106.803 79.9176 104.336 79.0357 102C79.0204 101.957 79.0086 101.919 78.9934 101.88C78.9546 101.782 78.9157 101.69 78.8785 101.597C78.653 101.078 78.3868 100.578 78.0827 100.1C76.9186 98.2808 75.2306 96.8007 73.6238 96.4137C73.1737 96.3112 72.7134 96.2602 72.2518 96.2617C71.2888 96.2617 70.2243 96.4458 69.665 97.0017C75.6395 91.1235 82.6193 85.607 91.015 83.8954C97.6689 82.5237 104.55 82.7064 111.121 84.4293C118.799 86.472 125.72 90.7182 131.203 96.446C131.491 96.7468 131.774 97.0507 132.047 97.3616C138.919 104.914 143.302 114.454 146.071 124.216" stroke="black" stroke-width="0.817542" stroke-miterlimit="10"/>
<path id="Vector_9" d="M71.0273 124.223H153.7" stroke="black" stroke-width="0.817542" stroke-miterlimit="10"/>
<path id="Vector_10" d="M91.8398 124.219H101.221" stroke="black" stroke-width="0.545028" stroke-miterlimit="10"/>
<path id="Vector_11" d="M99.683 103.167C95.3305 101.185 93.0191 95.7192 94.7594 91.1961C96.8343 85.8046 103.412 85.1777 108.276 86.5497C109.27 86.828 110.257 87.1422 111.238 87.4925C122.175 91.3786 132.113 99.4465 137.541 109.669C137.998 110.534 138.363 111.423 138.733 112.328C139.232 113.545 139.438 114.862 139.334 116.173C139.23 117.484 138.819 118.751 138.135 119.874C137.45 120.997 136.511 121.943 135.394 122.636C134.276 123.329 133.011 123.749 131.701 123.863L101.222 124.22H91.8415C91.0127 124.22 90.2047 123.961 89.5307 123.478C88.8569 122.996 88.3509 122.314 88.0837 121.53C87.0548 118.489 88.3845 116.194 90.0657 114.631C91.8195 113.002 94.1072 112.071 96.4862 111.831L113.609 110.101C113.773 110.085 113.928 110.018 114.053 109.911C114.178 109.803 114.267 109.66 114.309 109.501C114.351 109.342 114.343 109.173 114.286 109.018C114.23 108.864 114.127 108.73 113.992 108.635L99.683 103.167Z" stroke="black" stroke-width="0.817542" stroke-miterlimit="10"/>
<path id="Vector_12" d="M94.5772 115.154C93.0143 116.053 91.4075 117.461 90.8702 119.243C90.2518 121.296 91.7031 123.161 93.3522 124.229" stroke="black" stroke-width="0.817542" stroke-miterlimit="10"/>
<path id="Vector_13" d="M96.2552 117.508C94.7971 118.895 93.5333 120.654 94.3764 122.746C94.6175 123.32 94.9929 123.827 95.4713 124.226" stroke="black" stroke-width="0.817542" stroke-miterlimit="10"/>
<path id="Vector_14" d="M99.1156 120.219C99.1156 120.219 95.7583 122.714 97.8906 124.211" stroke="black" stroke-width="0.817542" stroke-miterlimit="10"/>
<path id="Vector_15" d="M90.4945 123.98L90.5536 124.22H85.1367C83.366 124.22 80.9127 123.948 81.1442 121.971C81.3756 119.994 87.7168 119.455 87.7168 119.455" stroke="black" stroke-width="0.817542" stroke-miterlimit="10"/>
<path id="Vector_16" d="M80.7794 61.8188L69.2512 63.5439L71.2601 64.9598L75.0179 67.969C75.6058 68.383 75.4588 69.3596 75.7849 69.9526C75.9088 70.8478 75.768 71.7595 75.3803 72.5758C74.9925 73.3919 74.3744 74.0768 73.6023 74.5462C72.8301 75.0158 71.9375 75.2491 71.0344 75.2177C70.1315 75.1861 69.2573 74.8912 68.5196 74.3693L59.4548 67.9927C58.4542 67.3018 57.6511 66.3619 57.1248 65.2656C56.3831 61.5738 58.659 57.4681 63.0385 56.8176L75.6396 54.9252L73.7811 53.4823L68.0583 49.0284C67.5682 48.6489 67.1591 48.1748 66.8553 47.6345C66.7281 46.7197 66.8769 45.7878 67.2828 44.958C67.6888 44.1284 68.3332 43.4388 69.1338 42.9779C69.9341 42.517 70.854 42.3056 71.7753 42.371C72.6967 42.4362 73.5775 42.7753 74.3048 43.3446L84.5135 51.2858C85.3483 51.927 86.0232 52.7527 86.4853 53.6985C87.1814 57.267 84.9545 61.192 80.7794 61.8188Z" fill="#DA3E33"/>
<path id="Vector_17" d="M72.2986 111.188C72.2986 111.188 71.9472 108.096 70.756 107.006" stroke="black" stroke-width="0.817542" stroke-miterlimit="10"/>
<path id="Vector_18" d="M57.5762 100.089C58.7265 99.524 59.9824 99.2065 61.2629 99.157C62.5435 99.1075 63.8201 99.3271 65.0105 99.8017C65.4016 99.946 65.8259 99.9749 66.2329 99.8851C66.64 99.7952 67.0127 99.5904 67.3067 99.2949L69.6603 96.9902" stroke="black" stroke-width="0.817542" stroke-miterlimit="10"/>
<path id="Vector_19" d="M65.0586 113.224L67.0236 114.107C67.0674 114.125 67.1143 114.134 67.1617 114.133C67.209 114.131 67.2554 114.12 67.2982 114.1C67.3408 114.079 67.3788 114.05 67.4094 114.014C67.4401 113.978 67.4629 113.936 67.4764 113.891L67.7856 113.191" stroke="black" stroke-width="0.817542" stroke-miterlimit="10"/>
<path id="Vector_20" d="M65.3796 109.32C65.5444 109.698 65.6015 110.114 65.5449 110.523C65.4881 110.931 65.32 111.316 65.0586 111.635" stroke="black" stroke-width="0.545028" stroke-miterlimit="10"/>
<path id="Vector_21" d="M69.8375 115.469C70.1467 115.011 70.145 113.904 70.0656 113.46C70.0149 113.178 69.5401 113.077 69.4894 113.36C69.3509 114.153 68.4571 115.371 67.6309 115.469" stroke="black" stroke-width="0.817542" stroke-miterlimit="10"/>
<path id="Vector_22" d="M65.8664 112.485C67.2596 112.485 68.3889 111.355 68.3889 109.962C68.3889 108.569 67.2596 107.439 65.8664 107.439C64.4731 107.439 63.3438 108.569 63.3438 109.962C63.3438 111.355 64.4731 112.485 65.8664 112.485Z" stroke="black" stroke-width="0.817542" stroke-miterlimit="10"/>
<path id="Vector_23" d="M65.0251 112.336L64.5756 113.6C64.2635 113.489 63.9325 113.44 63.6017 113.457C63.2709 113.473 62.9465 113.555 62.6473 113.697C62.348 113.84 62.0797 114.039 61.8577 114.285C61.6357 114.531 61.4644 114.818 61.3535 115.131" stroke="black" stroke-width="0.817542" stroke-miterlimit="10"/>
<path id="Vector_24" opacity="0.53" d="M65.87 112.096C67.0495 112.096 68.0057 111.139 68.0057 109.96C68.0057 108.78 67.0495 107.824 65.87 107.824C64.6905 107.824 63.7343 108.78 63.7343 109.96C63.7343 111.139 64.6905 112.096 65.87 112.096Z" fill="white"/>
<path id="Vector_25" d="M60.7715 112.919C61.5656 112.439 62.2077 111.736 62.3986 110.779C62.5574 109.967 62.3344 108.999 62.1435 108.193C61.96 107.35 61.69 106.529 61.3375 105.743C62.5642 105.968 63.8189 105.997 65.0547 105.829C65.6308 105.765 68.3815 104.714 66.7308 104.202C66.0576 104.019 65.4024 103.777 64.7725 103.477C64.2859 103.225 63.4326 102.735 63.4022 102.113C63.4002 101.945 63.447 101.78 63.5369 101.638C63.6269 101.497 63.7562 101.384 63.9091 101.314C64.1365 101.212 64.3839 101.161 64.6334 101.165C64.8828 101.169 65.1283 101.229 65.352 101.34C65.7268 101.516 66.0694 101.753 66.3658 102.042C66.8896 102.549 67.1751 103.056 67.9963 102.926C68.492 102.819 68.9719 102.649 69.424 102.419C69.9567 102.175 70.3915 101.759 70.6574 101.237C71.0663 100.285 69.6775 99.3779 68.9239 99.1059C68.5052 98.9415 68.0475 98.9038 67.6077 98.9978" stroke="black" stroke-width="0.817542" stroke-miterlimit="10"/>
<path id="Vector_26" d="M80.7791 61.8201L69.2509 63.5452L71.2598 64.9611L73.8585 66.7859C74.3686 67.1314 74.8046 67.5751 75.1416 68.0909C75.4783 68.6068 75.7089 69.1846 75.8199 69.7905C75.9308 70.3966 75.92 71.0185 75.788 71.6204C75.6559 72.222 75.4053 72.7915 75.0507 73.2953C74.6962 73.7991 74.2447 74.2273 73.723 74.5547C73.201 74.8822 72.6193 75.1023 72.0114 75.2025C71.4034 75.3026 70.7817 75.2806 70.1825 75.1378C69.5832 74.9949 69.0184 74.7342 68.521 74.3706L59.4562 67.994C58.4556 67.3031 57.6525 66.3631 57.1262 65.2669C55.1983 61.2642 57.4523 55.9335 62.489 55.1816L72.4865 53.6846L73.7807 53.4835L68.058 49.0297C67.5775 48.6558 67.1754 48.1908 66.8746 47.6614C66.5738 47.1321 66.3802 46.5485 66.3049 45.9443C66.2297 45.3402 66.2741 44.7271 66.4356 44.1399C66.5973 43.553 66.8731 43.0035 67.247 42.523C67.6209 42.0426 68.0859 41.6405 68.6154 41.3396C69.1448 41.0388 69.7282 40.8452 70.3324 40.77C70.9366 40.6946 71.5498 40.7391 72.1367 40.9008C72.7237 41.0623 73.2732 41.3381 73.7537 41.712L83.9624 49.6532C85.2691 50.647 86.1644 52.0867 86.4782 53.6981C87.1811 57.2683 84.9542 61.1932 80.7791 61.8201Z" stroke="black" stroke-width="0.817542" stroke-miterlimit="10"/>
<path id="Vector_27" d="M55.4766 81.4172L55.3651 78.4722L54.059 79.8103C53.8375 80.0367 53.5351 80.166 53.2184 80.1699C52.9016 80.1736 52.5963 80.0516 52.3694 79.8306C52.143 79.6091 52.0137 79.3067 52.0098 78.99C52.0061 78.6732 52.1281 78.3679 52.3491 78.141L54.6892 75.7519C54.9304 75.505 55.2387 75.3344 55.5758 75.261C55.913 75.1877 56.2643 75.2147 56.5862 75.3391C56.908 75.4633 57.1865 75.6792 57.3869 75.9602C57.5873 76.241 57.7008 76.5745 57.7137 76.9194L57.8235 79.9235L58.7866 78.8371C58.8906 78.7192 59.017 78.623 59.1584 78.5543C59.2997 78.4853 59.4533 78.4449 59.6103 78.4355C59.7672 78.426 59.9245 78.4478 60.0732 78.4993C60.2217 78.5509 60.3588 78.6311 60.4762 78.7357C60.5939 78.8398 60.6901 78.9662 60.759 79.1074C60.828 79.2487 60.8683 79.4023 60.878 79.5592C60.8874 79.716 60.866 79.8733 60.8148 80.022C60.7636 80.1706 60.6835 80.3078 60.5792 80.4254L58.6818 82.5661C58.4397 82.8423 58.1202 83.0394 57.7645 83.1314C57.409 83.2237 57.0339 83.2066 56.6881 83.0826C56.3424 82.9588 56.0419 82.7335 55.8258 82.4365C55.6097 82.1395 55.4881 81.7843 55.4766 81.4172Z" fill="#FFB5AF"/>
<path id="Vector_28" d="M65.2661 86.7314L66.6566 86.4206L65.9048 85.9137C65.7774 85.8277 65.6892 85.6949 65.6594 85.5443C65.6297 85.3936 65.6608 85.2371 65.7459 85.1094C65.8318 84.9818 65.9647 84.8936 66.1155 84.8642C66.2663 84.8348 66.4226 84.8664 66.5502 84.9523L67.8917 85.8495C68.0308 85.9422 68.1394 86.0738 68.2043 86.2279C68.2692 86.382 68.2875 86.5518 68.2567 86.7161C68.2258 86.8805 68.1476 87.032 68.0313 87.1523C67.9151 87.2725 67.766 87.3558 67.6028 87.3921L66.1785 87.7131L66.7817 88.0764C66.8467 88.1156 66.9035 88.1673 66.9484 88.2283C66.9935 88.2894 67.0262 88.3589 67.0444 88.4327C67.0625 88.5066 67.066 88.5831 67.0545 88.6583C67.0432 88.7333 67.017 88.8054 66.9777 88.8705C66.8984 89.0018 66.7704 89.0964 66.6215 89.1334C66.4726 89.1704 66.3152 89.1469 66.1835 89.0682L65.0008 88.3535C64.8487 88.2626 64.7274 88.1279 64.6528 87.9672C64.5781 87.8065 64.5534 87.6271 64.582 87.4522C64.6105 87.2774 64.6911 87.115 64.8131 86.9866C64.9351 86.858 65.0929 86.7691 65.2661 86.7314Z" fill="#FFB5AF"/>
<path id="Vector_29" d="M61.7513 94.8531L61.8645 93.9238L61.3863 94.2786C61.3463 94.3085 61.3008 94.3302 61.2523 94.3423C61.2038 94.3547 61.1535 94.3572 61.1041 94.3501C61.0546 94.3428 61.0072 94.3259 60.9642 94.3003C60.9213 94.2747 60.884 94.2409 60.8541 94.2009C60.7943 94.1198 60.7688 94.0184 60.7833 93.9187C60.7978 93.8191 60.8512 93.7292 60.9318 93.6687L61.7766 93.0351C61.8646 92.9695 61.9699 92.9312 62.0796 92.9247C62.189 92.9185 62.2982 92.9445 62.3932 92.9994C62.4881 93.0545 62.5648 93.1363 62.6138 93.2344C62.6628 93.3326 62.6819 93.4431 62.6687 93.5521L62.5538 94.5017L62.9103 94.2077C62.9489 94.1759 62.9935 94.1521 63.0413 94.1374C63.0891 94.1228 63.1393 94.118 63.189 94.1227C63.2388 94.1276 63.2871 94.1423 63.3312 94.1658C63.3752 94.1894 63.4142 94.2214 63.446 94.26C63.4777 94.2986 63.5015 94.343 63.5161 94.3908C63.5308 94.4386 63.5357 94.489 63.5308 94.5387C63.526 94.5885 63.5113 94.6367 63.4879 94.6808C63.4642 94.7249 63.4323 94.7639 63.3936 94.7957L62.6907 95.3735C62.6008 95.445 62.4917 95.4884 62.3771 95.4979C62.2625 95.5075 62.1476 95.4828 62.0471 95.4271C61.9466 95.3715 61.8648 95.2872 61.8121 95.1849C61.7595 95.0827 61.7383 94.9673 61.7513 94.8531Z" fill="#FFB5AF"/>
<path id="Vector_30" d="M116.842 89.8066L116.771 89.9271C116.717 89.8932 116.66 89.8638 116.602 89.8389L116.842 89.8066Z" fill="#B19898"/>
</g>
</g>
<defs>
<clipPath id="clip0_348_10063">
<rect width="153" height="152" fill="white" transform="translate(0.5)"/>
</clipPath>
</defs>
</svg>
