<svg width="153" height="152" viewBox="0 0 153 152" fill="none" xmlns="http://www.w3.org/2000/svg">
<g clip-path="url(#clip0_800_21416)">
<path d="M121.005 86.288L120.71 89.1045C119.942 90.939 119.175 92.7722 118.408 94.6043C118.14 95.2476 117.872 95.89 117.602 96.5309C117.479 96.8309 117.305 97.1072 117.088 97.3476C117.077 97.3637 117.063 97.3772 117.047 97.3871C117.03 97.3969 117.011 97.4027 116.992 97.4042C116.927 97.4042 116.903 97.3176 116.898 97.2526C116.861 96.5579 116.779 95.8664 116.65 95.1826C115.932 91.8811 112.099 90.6711 109.092 90.7461C107.889 90.7645 106.704 91.039 105.615 91.5511C104.045 92.3111 103.434 94.4243 103.351 94.5027L103.284 94.7743L102.207 99.2592C101.981 100.259 101.807 100.787 100.884 101.054C100.854 101.064 99.934 101.554 99.904 101.554C99.5473 101.654 100.524 101.439 100.137 101.374L98.9123 101.182L98.3907 101.062L90.7793 99.2608C91.0743 99.3108 91.3759 99.3658 91.6826 99.4275L93.4492 99.8491L92.9825 97.6092C91.7676 90.6361 93.7808 84.3097 97.2107 80.8748C98.114 79.9715 98.5623 79.7399 99.6156 79.1382L100.207 80.5398C100.207 80.5398 106.26 82.3448 107.687 76.8066C108.264 76.8566 109.372 76.8483 109.944 76.9733C112.923 77.5981 115.615 79.1864 117.602 81.4931C117.777 81.6931 117.948 81.8998 118.118 82.1098L118.208 82.2198C118.313 82.3514 118.425 82.4864 118.53 82.6214L118.605 82.7281C119.476 83.8652 120.278 85.054 121.005 86.288Z" fill="#FEF4E6"/>
<path d="M49.082 57.1364C50.042 52.3366 54.1185 47.6868 65.7614 46.6218C91.6405 44.2569 77.651 37.1222 86.0773 29.3141C94.5037 21.5061 126.364 34.3523 118.03 54.4149C109.695 74.4775 137.209 52.2099 148.862 77.6223C150.55 81.31 151.363 85.3381 151.237 89.3919C151.09 93.6751 149.987 97.8713 148.008 101.673C144.287 108.943 137.374 115.419 127.376 119.432C125.9 120.034 124.356 120.574 122.743 121.054" stroke="#FADBAD" stroke-width="0.753306" stroke-miterlimit="10"/>
<path d="M131.057 96.6101C130.855 98.965 129.259 99.3483 129.259 99.3483C127.909 100.147 125.836 99.2883 125.417 97.7917C125.411 97.7757 125.408 97.7589 125.407 97.7417C125.074 96.4601 124.424 94.8135 123.551 93.0119C121.867 88.9387 119.679 84.8322 116.873 81.584C114.885 79.2774 112.194 77.6891 109.215 77.0641C109.205 77.0641 109.2 77.0541 109.19 77.0541C105.238 75.8642 103.315 73.4343 102.482 71.1043C102.482 71.1043 102.482 71.1044 102.482 71.0943C102.125 69.6227 101.762 68.1878 101.957 67.3195C102.29 65.7979 102.457 64.1529 102.042 63.8196C101.52 63.383 100.577 63.7063 98.1767 64.1896C96.0984 64.6163 94.9901 64.3746 94.7401 63.1046C94.7006 62.9076 94.6805 62.7072 94.6801 62.5063C94.6701 62.633 94.1802 62.1297 94.1568 62.2497C94.0002 62.898 93.6868 63.158 93.0035 63.443C91.9886 63.8646 91.5736 65.4929 91.4236 66.5779C91.2669 67.7328 91.7869 69.3261 92.1986 70.411C91.6719 69.8094 91.0686 69.8794 90.1253 70.2444C89.8887 70.3344 89.292 70.3094 88.8204 70.1444C88.887 70.0872 88.9655 70.0456 89.0504 70.0227C89.202 69.9727 88.102 69.4261 88.262 69.3911C89.8637 69.0294 90.762 67.6945 90.572 66.5195C90.1003 63.5613 90.7286 60.0814 92.7269 57.7765C94.9301 55.2416 98.525 54.7149 101.568 55.8749C103.958 56.7832 106.218 58.6465 107.046 61.1314C107.046 61.1414 107.046 61.1514 107.056 61.1614C107.162 61.4774 107.243 61.8012 107.298 62.1297C107.603 63.9779 106.951 65.8512 106.59 67.6778C106.46 68.3361 106.79 69.0544 106.86 69.5761C107.261 72.7093 110.878 73.5943 113.739 74.9242C119.754 77.7258 124.666 82.5156 127.969 88.3404C130.162 92.1969 130.945 94.8268 131.057 96.6101Z" fill="#FFDCAE"/>
<path d="M99.3469 78.5156C99.2819 78.5506 99.2169 78.5856 99.1569 78.6256C98.0768 79.2448 97.0837 80.0047 96.2037 80.8855C92.7755 84.3204 90.7622 90.6468 91.9772 97.6199L92.4438 99.8482" stroke="black" stroke-width="0.753306" stroke-miterlimit="10"/>
<path d="M129.685 125.306C129.685 120.101 129.235 114.905 128.34 109.777C127.741 106.297 126.916 102.861 125.87 99.4889C125.242 97.4406 124.473 95.2307 123.56 93.0124C122.712 90.9365 121.732 88.9169 120.627 86.966C119.555 85.0556 118.301 83.2533 116.882 81.5845C114.895 79.2779 112.204 77.6895 109.224 77.0647C108.652 76.9435 108.074 76.8567 107.492 76.8047" stroke="black" stroke-width="0.753306" stroke-miterlimit="10"/>
<path d="M68.0792 80.0021L67.9942 79.9871C66.9764 79.8166 65.9322 79.9043 64.957 80.2419C63.9819 80.5797 63.1071 81.1569 62.4128 81.9204L56.713 88.1301L56.0463 88.8634C56.0048 88.9084 55.9659 88.9558 55.9297 89.0051" stroke="black" stroke-width="0.753306" stroke-miterlimit="10"/>
<path d="M59.8496 90.6253L62.9778 87.1554L62.9828 87.1504" stroke="black" stroke-width="0.753306" stroke-miterlimit="10"/>
<path d="M87.0605 108.548L101.775 113.732C103.192 114.232 104.7 114.42 106.197 114.285C107.693 114.149 109.143 113.693 110.447 112.948C111.751 112.202 112.88 111.184 113.756 109.963C114.632 108.742 115.234 107.347 115.523 105.873L119.004 88.1001C119.183 87.1875 119.174 86.2483 118.98 85.3389C118.786 84.4296 118.41 83.5689 117.874 82.8086C117.725 82.5945 117.562 82.3896 117.388 82.1953" stroke="black" stroke-width="0.753306" stroke-miterlimit="10"/>
<path d="M77.3235 107.833C75.4502 109.098 74.0736 112.939 73.342 115.461C73.2167 115.884 72.9575 116.255 72.6035 116.518C72.2495 116.781 71.8199 116.923 71.3787 116.921C71.0801 116.921 70.7849 116.856 70.5138 116.731C70.0976 116.536 69.7594 116.206 69.554 115.795C69.3483 115.384 69.2871 114.916 69.3805 114.466C70.6054 108.476 74.9286 96.6516 89.7797 99.2582C90.0764 99.3082 90.378 99.3632 90.683 99.4249L92.4463 99.8498L97.3911 101.055L98.7244 101.376C99.2302 101.499 99.7602 101.48 100.256 101.321C100.287 101.315 100.317 101.307 100.346 101.296C100.803 101.14 101.212 100.87 101.537 100.513C101.862 100.156 102.092 99.7227 102.204 99.2532L103.329 94.5734L103.394 94.3017L104.867 88.1836" stroke="black" stroke-width="0.753306" stroke-miterlimit="10"/>
<path d="M70.0794 88.6554H65.0396C64.465 88.6554 63.914 88.4271 63.5077 88.021C63.1014 87.6146 62.873 87.0635 62.873 86.4889C62.873 85.9142 63.1014 85.3632 63.5077 84.9569C63.914 84.5506 64.465 84.3223 65.0396 84.3223H72.1794" stroke="black" stroke-width="0.753306" stroke-miterlimit="10"/>
<path d="M66.2142 88.6543C66.1425 89.5376 65.8059 90.1909 65.3092 90.6426C64.0293 91.8092 61.6843 91.6758 60.0527 90.8775" stroke="black" stroke-width="0.753306" stroke-miterlimit="10"/>
<path d="M56.7214 88.1273C55.2765 86.3807 55.5714 84.0125 56.6931 82.1825C59.8746 76.9894 67.1444 77.986 71.8592 80.1443C75.679 81.8876 79.0256 84.5075 82.2838 87.1207C83.8754 88.3973 85.4387 89.7273 86.9503 91.1206C87.2278 91.3717 87.5586 91.5567 87.9179 91.6614C88.2772 91.7662 88.6556 91.788 89.0246 91.7255C89.3935 91.663 89.7435 91.5175 90.0482 91.3002C90.3528 91.0829 90.6043 90.7992 90.7835 90.4706C91.6168 88.9323 92.5184 87.254 92.6884 86.789" stroke="black" stroke-width="0.753306" stroke-miterlimit="10"/>
<path d="M65.3105 90.6426C65.3105 90.6426 72.8286 94.7208 78.4134 100.581" stroke="black" stroke-width="0.753306" stroke-miterlimit="10"/>
<path d="M75.4895 110.045C74.6562 111.469 75.3728 113.559 76.9478 114.059C78.9592 114.707 81.0858 114.921 83.1859 114.683C85.4775 114.417 87.0007 112.525 88.004 110.359C88.0767 110.197 88.1145 110.023 88.1152 109.846C88.1159 109.669 88.0794 109.494 88.008 109.333C87.9367 109.171 87.832 109.026 87.701 108.907C87.5699 108.788 87.4154 108.699 87.2474 108.644C86.9442 108.544 86.6146 108.562 86.3241 108.695C86.0338 108.827 85.8039 109.064 85.6808 109.359C85.3475 110.129 84.8325 111.092 84.1492 111.525" stroke="black" stroke-width="0.753306" stroke-miterlimit="10"/>
<path d="M79.4142 109.779C79.4142 109.779 77.3559 111.993 78.9792 114.336C79.0505 114.434 79.1345 114.523 79.2292 114.599" stroke="black" stroke-width="0.753306" stroke-miterlimit="10"/>
<path d="M82.1283 110.145C82.1283 110.145 80.225 114.428 82.6666 114.741" stroke="black" stroke-width="0.753306" stroke-miterlimit="10"/>
<path d="M149.699 125.311H31.8301" stroke="black" stroke-width="0.753306" stroke-miterlimit="10"/>
<path d="M78.2024 117.239H66.4478C66.3285 118.349 65.8029 119.375 64.9721 120.12C64.1413 120.866 63.0641 121.277 61.948 121.276H22.4395C22.4416 122.344 22.8671 123.368 23.6227 124.124C24.3782 124.879 25.4023 125.305 26.471 125.307H78.2024C79.2727 125.307 80.2993 124.882 81.0573 124.127C81.8155 123.371 82.2433 122.346 82.2473 121.276V118.566C82.2473 118.212 82.1068 117.873 81.8568 117.623C81.6068 117.373 81.2676 117.232 80.914 117.232L78.2024 117.239Z" stroke="black" stroke-width="0.753306" stroke-miterlimit="10"/>
<path d="M60.0478 90.8755C60.3942 91.3547 60.6433 91.8971 60.7812 92.4721L66.3493 115.695C66.4723 116.199 66.5044 116.721 66.4443 117.236C66.325 118.346 65.7993 119.372 64.9685 120.117C64.1377 120.863 63.0606 121.274 61.9444 121.273H21.7026C20.6863 121.273 19.6995 120.93 18.9017 120.301C18.1037 119.671 17.5411 118.791 17.3044 117.803L11.7463 94.582C11.5864 93.9171 11.5796 93.2248 11.7261 92.5568C11.8726 91.8888 12.1686 91.2628 12.5921 90.7259C13.0154 90.1889 13.555 89.7549 14.1703 89.4567C14.7857 89.1584 15.4606 89.0036 16.1444 89.0039H56.383C57.044 89.0026 57.6973 89.1472 58.2959 89.4276C58.8946 89.7079 59.4239 90.1169 59.8462 90.6255L60.0478 90.8755Z" stroke="black" stroke-width="0.753306" stroke-miterlimit="10"/>
<path d="M53.7501 61.9766C53.4934 61.675 53.2235 61.385 52.9418 61.1033C51.3614 59.5174 49.4831 58.2593 47.415 57.4011C45.3469 56.5432 43.1297 56.1022 40.8906 56.1035H19.7947C17.5563 56.1025 15.3395 56.5428 13.2712 57.3991C11.203 58.2554 9.32387 59.5109 7.74111 61.0938C6.15835 62.6768 4.90307 64.556 4.047 66.6243C3.19093 68.6927 2.75086 70.9093 2.75196 73.1479V73.2696C2.74981 74.8577 3.15431 76.4201 3.92692 77.8077C4.79514 78.6919 5.83147 79.3935 6.97491 79.8711C8.11835 80.349 9.3458 80.593 10.585 80.5893H31.2676C31.8987 80.5893 32.504 80.8399 32.9504 81.2863C33.3967 81.7326 33.6475 82.3379 33.6475 82.9692C33.6483 83.6012 33.9 84.2068 34.3471 84.6535C34.7943 85.1 35.4004 85.3508 36.0324 85.3508H36.0841L41.1906 85.2208C41.1906 85.1708 41.1806 85.1258 41.1806 85.0808C40.7391 84.929 40.3561 84.643 40.0851 84.263C39.8141 83.8828 39.6686 83.4277 39.6689 82.9609V82.8509C39.6694 82.2197 39.9203 81.6147 40.3664 81.1684C40.8127 80.7223 41.4179 80.4713 42.0489 80.471H47.0837C49.5589 80.471 51.9328 79.4877 53.6831 77.7374C55.4334 75.9871 56.4167 73.6132 56.4167 71.138C56.4253 67.8916 55.4997 64.7112 53.7501 61.9766ZM17.2181 71.8513C16.411 71.8516 15.6218 71.6124 14.9507 71.1643C14.2794 70.716 13.7562 70.0787 13.4472 69.333C13.1384 68.5874 13.0576 67.7669 13.2151 66.9753C13.3726 66.1836 13.7612 65.4565 14.3322 64.8859C14.903 64.3152 15.6303 63.9269 16.422 63.7696C17.2136 63.6124 18.0341 63.6936 18.7797 64.0029C19.5252 64.3122 20.1622 64.8355 20.6101 65.507C21.0581 66.1783 21.297 66.9676 21.2963 67.7748C21.295 68.8557 20.8648 69.8922 20.1003 70.6563C19.3357 71.4206 18.2991 71.8503 17.2181 71.8513ZM30.5293 71.8513C29.7223 71.8509 28.9335 71.6113 28.2627 71.1626C27.5919 70.714 27.0692 70.0765 26.7609 69.3307C26.4524 68.5851 26.3721 67.7646 26.5299 66.9731C26.6878 66.1818 27.0769 65.455 27.6479 64.8847C28.2189 64.3144 28.946 63.9262 29.7376 63.7694C30.5293 63.6124 31.3496 63.6939 32.0949 64.0032C32.8402 64.3125 33.4772 64.836 33.925 65.5073C34.3728 66.1786 34.6115 66.9678 34.6108 67.7748C34.6108 68.3104 34.5051 68.8409 34.3 69.3359C34.0948 69.8308 33.7942 70.2803 33.415 70.659C33.036 71.0376 32.586 71.3378 32.0909 71.5423C31.5957 71.7469 31.0651 71.8519 30.5293 71.8513ZM43.2071 71.8513C42.4002 71.8506 41.6117 71.6106 40.9411 71.1618C40.2704 70.713 39.7481 70.0753 39.44 69.3295C39.1318 68.5839 39.0516 67.7634 39.2096 66.9721C39.3678 66.1808 39.7569 65.4542 40.3279 64.8842C40.8991 64.314 41.6262 63.9261 42.4178 63.7692C43.2093 63.6126 44.0296 63.6939 44.7749 64.0034C45.5201 64.3127 46.1569 64.8362 46.6045 65.5075C47.0523 66.1788 47.291 66.9678 47.2903 67.7748C47.2903 68.3106 47.1847 68.8412 46.9794 69.3362C46.7742 69.8313 46.4732 70.281 46.0941 70.6596C45.7147 71.0383 45.2646 71.3383 44.7693 71.5428C44.2738 71.7473 43.743 71.8521 43.2071 71.8513Z" fill="#FFDCAE"/>
<path d="M56.4147 71.1396C56.4147 73.6148 55.4314 75.9887 53.6811 77.739C51.9308 79.4893 49.5569 80.4725 47.0817 80.4725H42.0502C41.4194 80.4729 40.8146 80.7235 40.3684 81.1695C39.9223 81.6153 39.6711 82.22 39.6703 82.8508V82.9608C39.6699 83.4276 39.8154 83.8828 40.0864 84.2629C40.3574 84.6429 40.7404 84.9289 41.1819 85.0807C41.4144 85.1615 41.659 85.202 41.9052 85.2007L41.1919 85.2207L36.0821 85.3507H36.0271C35.3954 85.3507 34.7896 85.1 34.3425 84.6539C33.8953 84.2077 33.6435 83.6024 33.6422 82.9708C33.6422 82.3395 33.3915 81.7342 32.945 81.2879C32.4987 80.8415 31.8934 80.5909 31.2622 80.5909H10.583C8.10773 80.5909 5.73385 79.6076 3.98357 77.8573C2.2333 76.107 1.25 73.7331 1.25 71.2579V71.1362C1.25022 68.8991 1.69105 66.6842 2.5473 64.6175C3.40355 62.5509 4.65849 60.6731 6.24044 59.0915C7.82238 57.5099 9.70036 56.2553 11.7671 55.3995C13.8339 54.5437 16.0491 54.1032 18.286 54.1035H39.3753C43.8936 54.1038 48.227 55.8988 51.4223 59.0935C54.6176 62.2882 56.4133 66.6211 56.4147 71.1396Z" stroke="black" stroke-width="0.753306" stroke-miterlimit="10"/>
<path d="M109.217 77.0571C109.207 77.0571 109.202 77.0471 109.192 77.0471C105.241 75.8571 103.317 73.4272 102.484 71.0973C102.484 71.0973 102.484 71.0973 102.484 71.0873C101.832 69.2707 101.847 67.5125 102.082 66.4625C102.223 65.9063 102.312 65.3385 102.349 64.7659C102.404 63.1443 101.214 63.5409 97.8108 64.2192C96.2476 64.5359 95.2476 63.9426 94.7476 63.0993C94.6989 63.0258 94.6566 62.9483 94.6209 62.8676C94.3876 62.3768 94.291 61.8322 94.341 61.291" stroke="black" stroke-width="0.753306" stroke-miterlimit="10"/>
<path d="M92.3817 70.63C92.3217 70.545 92.2601 70.4633 92.2001 70.3983C91.6734 69.7967 91.0701 69.8667 90.1268 70.2317C89.8901 70.3216 89.2935 70.2967 88.8218 70.1317C88.4252 69.99 88.1285 69.745 88.2635 69.3784C88.2982 69.3029 88.3499 69.2365 88.4142 69.1842C88.4787 69.1319 88.5542 69.095 88.6352 69.0767C88.7924 69.037 88.9515 69.0052 89.1118 68.9817C90.7301 68.62 90.3685 66.7468 90.1718 65.5718C89.6951 62.6153 90.3285 59.1354 92.3467 56.8305C94.57 54.2956 98.2065 53.7672 101.278 54.9272C103.98 55.9472 106.521 58.1604 107.048 61.1187C107.048 61.1287 107.048 61.1387 107.058 61.1486C107.068 61.1586 107.058 61.1737 107.058 61.1837C107.37 63.0319 107.058 65.0352 106.696 66.8634C106.48 67.9467 106.561 68.8317 106.863 69.5633C107.808 71.9583 110.996 72.7932 113.566 73.9782C119.647 76.7798 124.602 81.5696 127.942 87.3944C130.579 92.0142 131.204 94.8558 131.059 96.609C130.857 98.9639 129.26 99.3473 129.26 99.3473C127.91 100.146 125.835 99.2873 125.419 97.7906C125.413 97.7746 125.409 97.7576 125.409 97.7407C125.076 96.459 124.426 94.8124 123.552 93.0108" stroke="black" stroke-width="0.753306" stroke-miterlimit="10"/>
<path d="M94.3363 61.291C94.3363 62.1826 93.9164 63.0626 93.0031 63.4376C91.9764 63.8609 91.5598 64.9759 91.4098 66.0608C91.2001 67.6496 91.5419 69.2621 92.3781 70.629C93.1531 71.9156 94.4147 73.3339 96.2013 73.3339C99.4745 73.3339 100.878 71.7556 100.878 71.7556" stroke="black" stroke-width="0.753306" stroke-miterlimit="10"/>
<path d="M97.7285 66.5742C98.036 66.5742 98.2852 66.3251 98.2852 66.0176C98.2852 65.7103 98.036 65.4609 97.7285 65.4609C97.421 65.4609 97.1719 65.7103 97.1719 66.0176C97.1719 66.3251 97.421 66.5742 97.7285 66.5742Z" fill="black"/>
<path d="M92.834 66.9004C93.1415 66.9004 93.3906 66.6512 93.3906 66.3437C93.3906 66.0364 93.1415 65.7871 92.834 65.7871C92.5265 65.7871 92.2773 66.0364 92.2773 66.3437C92.2773 66.6512 92.5265 66.9004 92.834 66.9004Z" fill="black"/>
<path d="M95.238 65.4922C95.238 65.4922 94.9597 67.6904 95.0713 67.9921C95.183 68.2938 95.8796 67.9488 95.8796 67.9488" stroke="black" stroke-width="0.753306" stroke-miterlimit="10"/>
<path d="M96.2676 69.8733C97.4592 70.3116 98.6892 69.7533 99.0491 68.6816" stroke="black" stroke-width="0.753306" stroke-miterlimit="10"/>
<path d="M100.612 66.8204C101.421 65.6761 101.126 64.0775 99.9538 63.2494C98.7818 62.4214 97.1764 62.6777 96.3681 63.822C95.5598 64.9662 95.8546 66.5649 97.0266 67.3929C98.1985 68.2209 99.804 67.9645 100.612 66.8204Z" stroke="black" stroke-width="0.753306" stroke-miterlimit="10"/>
<path d="M94.1025 67.1466C94.9108 66.0023 94.616 64.4035 93.444 63.5756C92.2721 62.7476 90.6666 63.0039 89.8583 64.1482C89.05 65.2923 89.3449 66.8911 90.5168 67.7191C91.6888 68.547 93.2942 68.2907 94.1025 67.1466Z" stroke="black" stroke-width="0.753306" stroke-miterlimit="10"/>
<path d="M91.936 63.8861C92.399 63.8848 92.8451 64.0586 93.1853 64.3726C93.5253 64.6868 93.7339 65.1178 93.7693 65.5794C93.7878 65.8087 93.7599 66.0394 93.6873 66.2575C93.6144 66.4757 93.4984 66.677 93.3459 66.8494C93.1918 67.024 93.0041 67.1657 92.7938 67.2658C92.5836 67.3662 92.3553 67.4228 92.1226 67.4327H92.0293C91.5662 67.434 91.1197 67.26 90.7795 66.9455C90.4395 66.631 90.231 66.1995 90.196 65.7377C90.1779 65.5084 90.2062 65.2776 90.2792 65.0594C90.3522 64.8413 90.4685 64.6399 90.621 64.4678C90.7752 64.2936 90.9627 64.1523 91.1727 64.052C91.3825 63.9518 91.6103 63.8948 91.8427 63.8845H91.936V63.8861ZM91.936 63.5078H91.8243C91.5433 63.5203 91.2678 63.5893 91.014 63.7103C90.7602 63.8315 90.5334 64.0023 90.3467 64.2128C90.1602 64.4233 90.0179 64.6691 89.9282 64.9356C89.8384 65.2021 89.8031 65.4839 89.8244 65.7644C89.8696 66.32 90.1217 66.8384 90.531 67.2168C90.9404 67.5953 91.4768 67.8062 92.0343 67.8077H92.146C92.427 67.795 92.7025 67.7262 92.9563 67.605C93.2101 67.484 93.4369 67.313 93.6236 67.1027C93.8101 66.8922 93.9524 66.6464 94.0421 66.3799C94.1319 66.1134 94.1672 65.8314 94.1459 65.5511C94.1007 64.9954 93.8486 64.4771 93.4393 64.0986C93.0299 63.7201 92.4935 63.5093 91.936 63.5078Z" fill="white"/>
<path d="M95.9174 65.459L94.5508 65.529" stroke="black" stroke-width="0.753306" stroke-miterlimit="10"/>
<path opacity="0.53" d="M100.288 66.5913C100.973 65.6223 100.724 64.2684 99.7313 63.5674C98.7388 62.8664 97.3796 63.0836 96.6949 64.0526C96.0103 65.0217 96.2598 66.3755 97.2521 67.0766C98.2445 67.7776 99.6038 67.5604 100.288 66.5913Z" fill="white"/>
<path opacity="0.53" d="M93.7826 66.9195C94.4672 65.9505 94.2177 64.5966 93.2254 63.8956C92.2331 63.1945 90.8737 63.4118 90.1891 64.3807C89.5044 65.3499 89.7539 66.7037 90.7464 67.4046C91.7387 68.1058 93.0979 67.8884 93.7826 66.9195Z" fill="white"/>
<path d="M97.1719 73.3359L100.207 80.5457C100.207 80.5457 106.062 82.1206 107.485 76.5808" stroke="black" stroke-width="0.753306" stroke-miterlimit="10"/>
<path d="M39.5893 110.702C41.8814 109.979 43.0812 107.305 42.269 104.73C41.4569 102.154 38.9405 100.652 36.6486 101.375C34.3565 102.097 33.1567 104.771 33.9689 107.347C34.7808 109.922 37.2972 111.424 39.5893 110.702Z" fill="#FFDCAE"/>
<path d="M96.3618 125.304C96.2968 119.436 95.2618 113.638 94.7852 111.271" stroke="black" stroke-width="0.753306" stroke-miterlimit="10"/>
</g>
<defs>
<clipPath id="clip0_800_21416">
<rect width="152" height="152" fill="white" transform="translate(0.25)"/>
</clipPath>
</defs>
</svg>
