<svg width="20" height="20" viewBox="0 0 20 20" fill="none" xmlns="http://www.w3.org/2000/svg">
<path d="M10.0175 2.42505C7.25914 2.42505 5.01747 4.66672 5.01747 7.42505V9.83338C5.01747 10.3417 4.80081 11.1167 4.54247 11.55L3.58414 13.1417C2.99247 14.125 3.40081 15.2167 4.48414 15.5834C8.07581 16.7834 11.9508 16.7834 15.5425 15.5834C16.5508 15.25 16.9925 14.0584 16.4425 13.1417L15.4841 11.55C15.2341 11.1167 15.0175 10.3417 15.0175 9.83338V7.42505C15.0175 4.67505 12.7675 2.42505 10.0175 2.42505Z" stroke="black" stroke-miterlimit="10" stroke-linecap="round"/>
<path d="M11.5579 2.6667C11.2996 2.5917 11.0329 2.53337 10.7579 2.50003C9.95794 2.40003 9.19128 2.45837 8.47461 2.6667C8.71628 2.05003 9.31628 1.6167 10.0163 1.6167C10.7163 1.6167 11.3163 2.05003 11.5579 2.6667Z" stroke="black" stroke-miterlimit="10" stroke-linecap="round" stroke-linejoin="round"/>
<path d="M12.5176 15.8833C12.5176 17.2583 11.3926 18.3833 10.0176 18.3833C9.33425 18.3833 8.70091 18.1 8.25091 17.65C7.80091 17.2 7.51758 16.5666 7.51758 15.8833" stroke="black" stroke-miterlimit="10"/>
</svg>
