<svg width="20" height="20" viewBox="0 0 20 20" fill="none" xmlns="http://www.w3.org/2000/svg">
<path opacity="0.4" d="M14.9993 2.5H4.99935C3.15768 2.5 1.66602 3.98333 1.66602 5.80833V14.1917C1.66602 16.0167 3.15768 17.5 4.99935 17.5H14.9993C16.841 17.5 18.3327 16.0167 18.3327 14.1917V5.80833C18.3327 3.98333 16.841 2.5 14.9993 2.5Z" fill="white"/>
<path d="M15.8327 7.29175H11.666C11.3243 7.29175 11.041 7.00841 11.041 6.66675C11.041 6.32508 11.3243 6.04175 11.666 6.04175H15.8327C16.1743 6.04175 16.4577 6.32508 16.4577 6.66675C16.4577 7.00841 16.1743 7.29175 15.8327 7.29175Z" fill="white"/>
<path d="M15.8333 10.625H12.5C12.1583 10.625 11.875 10.3417 11.875 10C11.875 9.65833 12.1583 9.375 12.5 9.375H15.8333C16.175 9.375 16.4583 9.65833 16.4583 10C16.4583 10.3417 16.175 10.625 15.8333 10.625Z" fill="white"/>
<path d="M15.8327 13.9583H14.166C13.8243 13.9583 13.541 13.6749 13.541 13.3333C13.541 12.9916 13.8243 12.7083 14.166 12.7083H15.8327C16.1743 12.7083 16.4577 12.9916 16.4577 13.3333C16.4577 13.6749 16.1743 13.9583 15.8327 13.9583Z" fill="white"/>
<path d="M7.0832 9.8251C8.14635 9.8251 9.0082 8.96325 9.0082 7.9001C9.0082 6.83695 8.14635 5.9751 7.0832 5.9751C6.02005 5.9751 5.1582 6.83695 5.1582 7.9001C5.1582 8.96325 6.02005 9.8251 7.0832 9.8251Z" fill="white"/>
<path d="M7.74929 10.925C7.30762 10.8834 6.84929 10.8834 6.40762 10.925C5.00762 11.0584 3.88262 12.1667 3.74929 13.5667C3.74096 13.6834 3.77429 13.8 3.85762 13.8834C3.94096 13.9667 4.04929 14.025 4.16596 14.025H9.99929C10.116 14.025 10.2326 13.975 10.3076 13.8917C10.3826 13.8084 10.4243 13.6917 10.416 13.575C10.2743 12.1667 9.15762 11.0584 7.74929 10.925Z" fill="white"/>
</svg>
