<svg width="123" height="123" viewBox="0 0 123 123" fill="none" xmlns="http://www.w3.org/2000/svg">
<g id="Illustration - Business, error _ comment, review, account, profile, user, list, problem">
<g id="Business, error _ comment, review, account, profile, user, list, problem">
<path id="Vector" d="M30.5058 29.7373C31.0135 28.3288 31.5786 26.93 32.1974 25.5703C33.4302 22.8644 33.7134 20.3 35.4453 18.0371" stroke="#FADBAD" stroke-width="0.883676" stroke-miterlimit="10"/>
<path id="Vector_2" d="M39.4607 15.4445C40.9509 13.9286 42.3448 12.2992 44.8774 11.0823C50.2295 8.51914 57.0731 8.25916 65.8086 11.8842" stroke="#FADBAD" stroke-width="0.883676" stroke-miterlimit="10"/>
<path id="Vector_3" d="M102.534 114.788C110.999 102.823 113.736 89.2958 112.322 75.4609" stroke="#FADBAD" stroke-width="0.883676" stroke-miterlimit="10"/>
<path id="Vector_4" d="M25.7419 55.8848V56.0325C25.8249 58.7177 23.3435 69.849 16.3058 73.385C9.26817 76.9209 4.2505 92.4414 20.1176 98.5307C35.9847 104.62 35.1206 114.787 35.1206 114.787" stroke="#FADBAD" stroke-width="0.883676" stroke-miterlimit="10"/>
<path id="Vector_5" d="M65.8087 23.3775V10.2273C65.8109 9.32392 66.1708 8.45814 66.8097 7.81932C67.4485 7.1805 68.3142 6.82062 69.2177 6.81836H112.767C113.67 6.82062 114.536 7.1805 115.175 7.81932C115.814 8.45814 116.174 9.32392 116.176 10.2273V72.0603C116.174 72.9632 115.814 73.8286 115.175 74.4664C114.536 75.1042 113.67 75.4623 112.767 75.4619H69.2177C68.7952 75.4646 68.3764 75.3841 67.9849 75.2251" stroke="black" stroke-width="0.883676" stroke-linecap="round" stroke-linejoin="round"/>
<path id="Vector_6" d="M70.3833 8.90234H111.601C113.283 8.90234 114.646 10.2658 114.646 11.9476V70.3398C114.646 72.0217 113.283 73.385 111.601 73.385H101.75C101.056 65.7767 68.4484 43.6326 67.3381 50.5V11.9476C67.3381 10.2658 68.7014 8.90234 70.3833 8.90234Z" fill="#FFDCAE"/>
<path id="Vector_7" d="M71.1273 13.8926H110.336C111.177 13.8926 111.859 14.5746 111.859 15.4158V24.443C111.859 25.2843 111.177 25.9662 110.336 25.9662H71.1273C70.286 25.9662 69.6041 25.2843 69.6041 24.443V15.4158C69.6041 14.5746 70.286 13.8926 71.1273 13.8926Z" fill="#FFDCAE"/>
<path id="Vector_8" d="M90.9916 18.9777C90.302 18.9777 89.743 18.4187 89.743 17.7291C89.743 17.0395 90.302 16.4805 90.9916 16.4805C91.6812 16.4805 92.2402 17.0395 92.2402 17.7291C92.2402 18.4187 91.6812 18.9777 90.9916 18.9777Z" fill="#FFDCAE"/>
<path id="Vector_9" d="M94.4805 23.3782C94.4805 22.4527 94.1128 21.5651 93.4584 20.9108C92.804 20.2563 91.9165 19.8887 90.9909 19.8887C90.0654 19.8887 89.1779 20.2563 88.5235 20.9108C87.869 21.5651 87.5014 22.4527 87.5014 23.3782H94.4805Z" fill="#FFDCAE"/>
<path id="Vector_10" d="M90.7401 38.9023C92.0713 38.9016 93.3727 39.2957 94.4799 40.0349C95.5871 40.7739 96.45 41.8248 96.9598 43.0545C97.4695 44.2842 97.603 45.6374 97.3435 46.9431C97.0841 48.2487 96.4432 49.448 95.5019 50.3893C94.5606 51.3306 93.3613 51.9715 92.0557 52.231C90.75 52.4906 89.3968 52.3569 88.1671 51.8472C86.9374 51.3375 85.8865 50.4745 85.1475 49.3673C84.4083 48.2602 84.0142 46.9588 84.0149 45.6276C84.0159 43.8442 84.7248 42.1342 85.9857 40.8733C87.2468 39.6122 88.9568 38.9033 90.7401 38.9023ZM90.7401 50.7307C91.0006 50.7307 91.2503 50.6273 91.4345 50.4431C91.6186 50.2589 91.7221 50.0092 91.7221 49.7487C91.7221 49.4884 91.6186 49.2385 91.4345 49.0545C91.2503 48.8703 91.0006 48.7668 90.7401 48.7668C90.4797 48.7668 90.23 48.8703 90.0458 49.0545C89.8617 49.2385 89.7582 49.4884 89.7582 49.7487C89.7582 50.0092 89.8617 50.2589 90.0458 50.4431C90.23 50.6273 90.4797 50.7307 90.7401 50.7307ZM89.494 43.1633C89.7051 44.6206 89.8833 46.1573 90.3117 47.5743C90.4167 47.9112 91.0563 47.9112 91.1661 47.5743C91.4732 46.5078 91.7088 45.4219 91.8716 44.324C92.0034 43.5258 92.4709 42.2344 92.0229 41.4557C91.6336 40.7637 90.5266 40.6782 89.887 41.0407C89.0924 41.4972 89.4024 42.4431 89.494 43.1682V43.1633Z" fill="#FFDCAE"/>
<path id="Vector_11" d="M107.635 31.3555H74.7789" stroke="white" stroke-width="0.883676" stroke-miterlimit="10"/>
<path id="Vector_12" d="M107.635 34.5859H74.7789" stroke="white" stroke-width="0.883676" stroke-miterlimit="10"/>
<path id="Vector_13" d="M107.25 55L81.25 55" stroke="white" stroke-width="0.883676" stroke-miterlimit="10"/>
<path id="Vector_14" d="M100.25 58L87.25 58" stroke="white" stroke-width="0.883676" stroke-miterlimit="10"/>
<path id="Vector_15" d="M104.147 78.5048C104.147 78.5048 98.3002 55.2729 80.0909 49.5986L72.6895 47.8324C72.6895 47.8324 71.519 42.6048 71.9498 42.0556C72.3807 41.5063 73.2656 40.381 74.8865 40.6251C76.5074 40.8692 80.6975 40.9473 81.7704 35.8247C82.8432 30.7021 78.8789 18.5259 68.5762 16.7048C58.2736 14.8838 58.0332 22.4487 58.0332 22.4487L65.6005 39.9843L64.4264 54.1305C74.3095 53.3862 78.7513 54.7032 85.2502 59C95.0029 65.4966 98.1018 70.2511 104.147 78.5048Z" fill="white"/>
<g id="Group">
<path id="Vector_18" d="M51.3907 30.7731C51.4055 32.4151 51.6194 34.049 52.0278 35.6394C52.2141 36.3935 52.614 37.0776 53.1795 37.61C53.745 38.1424 54.4521 38.5003 55.2159 38.6407C55.2464 37.5325 55.7175 36.5597 56.4364 35.9555C56.3708 35.0173 56.3802 34.0753 56.4645 33.1385C56.5121 32.5197 56.5866 31.9424 56.6647 31.4236C56.7112 31.1284 56.7784 30.8368 56.8661 30.551C57.1114 30.2874 57.4004 30.0681 57.7204 29.9028C58.8519 29.2657 61.1807 28.5883 65.4953 29.5843C66.1998 29.7456 66.8626 30.0528 67.4409 30.4863C67.4537 30.4943 67.4652 30.5041 67.4751 30.5156C67.8644 30.8744 68.36 31.3284 68.8726 31.564C69.4035 31.8081 69.9576 31.8179 70.4227 31.2406C70.4349 31.2284 70.441 31.2174 70.452 31.2052C70.6961 30.8866 70.9292 30.4728 71.3601 30.3911C72.2681 30.2202 72.71 31.1234 72.8247 31.8826C72.9248 32.5844 72.7185 33.2032 72.4171 33.7927C72.1645 34.272 71.8346 34.7063 71.4406 35.078C71.3394 35.1758 71.2468 35.2819 71.1636 35.3953C71.2014 35.402 71.2386 35.4123 71.2746 35.4258C71.3581 35.4539 71.4396 35.4873 71.5187 35.5259C72.6172 36.0202 73.3996 37.2591 73.4167 38.7091C73.4167 38.7542 75.2585 38.7274 75.4916 38.7091C76.3899 38.6261 77.2748 38.3673 77.9071 37.6899C79.7013 35.7676 79.6927 32.9152 78.9555 30.684C78.2574 28.5663 77.3688 26.4987 76.2044 24.5935C73.6815 20.4705 69.7672 17.4289 64.8118 17.1555C63.6234 17.0958 62.4321 17.1653 61.2588 17.3629C60.7036 17.4505 60.1545 17.5728 59.6147 17.7291C54.5629 19.9334 51.3565 24.9303 51.3858 30.7731" fill="#FFDCAE"/>
<path id="Vector_19" d="M54.3178 77.7776C54.9147 79.3093 56.3354 80.1857 57.4913 79.7304C58.6471 79.2752 59.1012 77.6738 58.5055 76.142C57.9099 74.6102 56.488 73.7327 55.3321 74.1892C54.1762 74.6456 53.721 76.247 54.3178 77.7788" fill="#FFDCAE"/>
<path id="Vector_20" d="M51.2476 91.4553C51.2476 91.4553 54.4894 114.054 41.5223 111.549C28.626 109.056 23.745 56.5903 61.0742 49.0449" stroke="black" stroke-width="0.883676" stroke-miterlimit="10"/>
<path id="Vector_21" d="M81.605 69.7012C81.605 69.7012 92.0675 78.5246 86.4298 87.3492" stroke="black" stroke-width="0.883676" stroke-miterlimit="10"/>
<path id="Vector_22" d="M51.0098 85.1779C51.1892 85.1889 51.4455 85.0693 51.62 85.0217C51.8413 84.9631 52.0607 84.9003 52.2779 84.8337C53.5525 84.4369 54.7518 83.8297 55.826 83.0371C56.0702 82.8625 56.5047 82.7502 56.8025 82.865C56.9682 82.9257 57.1146 83.03 57.2263 83.1668C57.3379 83.3035 57.4108 83.4678 57.4372 83.6424C57.5287 84.2722 57.0844 84.8886 56.5999 85.2926C56.025 85.7735 55.4281 86.2166 54.7312 86.5046C54.0584 86.7746 53.3644 86.9882 52.6563 87.143C52.3353 87.2174 52.0094 87.265 51.6908 87.3468" stroke="black" stroke-width="0.883676" stroke-miterlimit="10"/>
<path id="Vector_23" d="M46.9964 79.0645C46.8646 79.7602 46.7682 80.4827 46.8341 81.1894C46.889 81.7875 47.1038 82.4856 47.769 82.6309C47.8955 82.6643 48.0267 82.6763 48.1571 82.6663C50.6617 82.5186 52.7256 81.6532 55.0825 79.9493C57.4394 78.2455 58.2694 82.1695 56.1163 82.8652" stroke="black" stroke-width="0.883676" stroke-miterlimit="10"/>
<path id="Vector_24" d="M56.0253 85.7667C56.0831 85.7191 56.1381 85.6681 56.1901 85.6142C57.363 84.3875 57.5754 86.8518 56.3438 87.5768L56.1852 87.6708C56.1022 87.7062 56.0131 87.7477 55.9252 87.7928C55.8837 87.8038 55.8373 87.8221 55.7946 87.8343M55.7946 87.8343C54.6815 88.3226 53.4963 88.635 52.3295 88.9536C53.4841 88.5764 54.6351 88.2054 55.7946 87.8343ZM55.7946 87.8343C55.8947 87.7928 55.9899 87.7513 56.09 87.7037C56.1207 87.6909 56.1526 87.6812 56.1852 87.6744C56.2059 87.6651 56.2287 87.6611 56.2514 87.6633C56.2741 87.6654 56.2959 87.6735 56.3146 87.6867C56.3424 87.7095 56.3628 87.7401 56.3731 87.7745C56.5623 88.2286 56.4085 88.801 56.1669 89.2075C55.913 89.6371 55.4773 89.9679 55.0476 90.2034C53.8918 90.8515 52.5479 91.2348 51.2505 91.4642C51.0098 91.514 50.7633 91.5302 50.5182 91.5118" stroke="black" stroke-width="0.883676" stroke-miterlimit="10"/>
<path id="Vector_25" d="M40.0521 94.3064C40.0521 94.3064 44.0299 87.5275 44.4729 81.6335C44.7439 77.9852 45.8155 77.2126 46.582 77.1602" stroke="black" stroke-width="0.883676" stroke-miterlimit="10"/>
<path id="Vector_26" d="M47.7661 82.6303L46.9923 79.0651L46.5797 77.1611L43.521 63.0442C43.4756 62.834 43.4779 62.6164 43.5276 62.4071C43.5774 62.1979 43.6732 62.0025 43.8083 61.8351C43.9433 61.6678 44.1141 61.5327 44.3082 61.4399C44.5021 61.3472 44.7145 61.299 44.9295 61.2988H63.2207C63.5459 61.2986 63.8618 61.4086 64.1165 61.611C64.3713 61.8134 64.5498 62.0962 64.6231 62.4132L68.2249 77.858L70.854 89.1273L71.0981 90.1831C71.1466 90.3945 71.147 90.6139 71.099 90.8254C71.0512 91.0368 70.9564 91.2348 70.8215 91.4046C70.6867 91.5744 70.5154 91.7116 70.3202 91.806C70.1252 91.9006 69.9112 91.9499 69.6944 91.9504H51.3142" stroke="black" stroke-width="0.883676" stroke-miterlimit="10"/>
<path id="Vector_27" d="M70.4453 30.8357C70.4453 30.8357 69.4774 26.731 64.0118 26.1867C58.5462 25.6423 57.1768 29.7263 57.1768 29.7263L57.3488 30.1376C57.3488 30.1376 64.5342 27.2547 68.5022 31.3691C68.5022 31.3691 69.9315 32.0172 70.4453 30.8382" fill="#FFDCAE"/>
<path id="Vector_28" d="M68.9686 77.7577L77.4697 75.6339C77.6725 75.5838 77.8835 75.5763 78.0893 75.612C78.2951 75.6477 78.4912 75.7259 78.6653 75.8414C78.8392 75.957 78.9872 76.1076 79.1 76.2835C79.2127 76.4594 79.2875 76.6568 79.3198 76.8632C79.3521 77.0696 79.3411 77.2805 79.2875 77.4824C79.2339 77.6842 79.1389 77.8728 79.0086 78.036C78.8782 78.1992 78.7153 78.3336 78.5303 78.4305C78.3451 78.5273 78.1419 78.5846 77.9335 78.5987L73.9143 78.8635" stroke="black" stroke-width="0.883676" stroke-miterlimit="10"/>
<path id="Vector_29" d="M48.6131 54.0386C48.6131 54.0386 67.1813 69.0806 83.3828 51.1152" stroke="black" stroke-width="0.883676" stroke-miterlimit="10"/>
<path id="Vector_30" d="M83.9626 72.1412C84.3104 68.587 86.0717 60.3287 94.873 60.5594" stroke="black" stroke-width="0.883676" stroke-miterlimit="10"/>
<path id="Vector_31" d="M41.3343 60.5566C41.3343 60.5566 42.993 61.0131 43.6289 62.1287" stroke="black" stroke-width="0.883676" stroke-miterlimit="10"/>
<path id="Vector_32" d="M108.719 114.793H29.8824" stroke="black" stroke-width="0.883676" stroke-miterlimit="10"/>
<path id="Vector_33" d="M56.4369 35.959C55.6936 36.5839 55.2164 37.6043 55.2164 38.7589C55.2164 40.6752 56.548 42.2253 58.1933 42.2253C58.3794 42.2243 58.5648 42.2026 58.7462 42.1606C56.8299 40.6959 56.4418 35.959 56.4418 35.959" fill="#FFDCAE"/>
<path id="Vector_34" d="M67.277 43.6956C66.3533 44.1552 65.3425 44.4135 64.3115 44.4533C63.2805 44.4931 62.2528 44.3134 61.2964 43.9263C55.904 41.6744 56.1103 35.037 56.6705 31.4291C56.7152 31.1364 56.7788 30.8469 56.8609 30.5625V30.5564C57.4797 28.4937 59.0945 26.813 61.2219 26.3357C65.3425 25.4045 69.1103 27.7406 70.6738 30.8859" stroke="black" stroke-width="0.883676" stroke-miterlimit="10"/>
<path id="Vector_35" d="M56.8082 30.6275C56.8082 30.6275 56.8253 30.6031 56.8607 30.5628V30.5567C57.2269 30.1442 59.347 28.1754 65.4839 29.5901C66.188 29.751 66.8505 30.0584 67.4282 30.492C67.4419 30.4998 67.4542 30.5097 67.4648 30.5213" stroke="black" stroke-width="0.883676" stroke-miterlimit="10"/>
<path id="Vector_36" d="M73.1671 40.6248H76.2026C78.3934 40.6248 80.1303 38.6182 80.8858 36.7349C81.9477 34.0863 81.2678 31.3755 80.3121 28.8013C79.5115 26.6471 78.4935 24.5538 77.1546 22.6803C74.1569 18.4877 69.6311 16.1125 64.4292 16.5519C63.9678 16.591 63.5085 16.6479 63.0512 16.7228C56.066 17.8555 51.3559 23.6958 51.3913 30.7689C51.4059 32.412 51.6198 34.0473 52.0284 35.6388C52.2162 36.3923 52.6167 37.0758 53.1822 37.608C53.7477 38.1401 54.4542 38.4983 55.2177 38.6402" stroke="black" stroke-width="0.883676" stroke-miterlimit="10"/>
<path id="Vector_37" d="M71.161 35.3943C71.2446 35.2808 71.3372 35.1743 71.438 35.0758C71.8323 34.7047 72.1623 34.2708 72.4145 33.7918C72.7159 33.2022 72.9222 32.5834 72.8221 31.8816C72.7098 31.1273 72.268 30.2192 71.3575 30.3901C70.9266 30.4731 70.6972 30.8856 70.4494 31.2042C69.5071 32.4247 68.2097 31.1981 67.4139 30.4609" stroke="black" stroke-width="0.883676" stroke-miterlimit="10"/>
<path id="Vector_38" d="M56.4369 35.959C55.6936 36.5839 55.2164 37.6043 55.2164 38.7589C55.2164 40.6752 56.548 42.2253 58.1933 42.2253C58.3794 42.2243 58.5648 42.2026 58.7462 42.1606" stroke="black" stroke-width="0.883676" stroke-miterlimit="10"/>
<path id="Vector_39" d="M62.8086 38.313C62.1422 38.7609 60.5323 39.1283 60.8557 37.8004C61.2439 36.2271 61.7662 32.8657 58.5672 32.6094C58.5672 32.6094 57.1587 32.6692 56.463 33.1476" stroke="black" stroke-width="0.883676" stroke-miterlimit="10"/>
<path id="Vector_40" d="M61.6024 40.942C61.6024 40.942 63.2135 41.7964 64.0117 40.0938" stroke="black" stroke-width="0.883676" stroke-miterlimit="10"/>
<path id="Vector_41" d="M64.87 34.9059C64.9322 35.4466 64.7211 35.9141 64.3976 35.9519C64.0742 35.9898 63.7617 35.5857 63.6983 35.0414C63.6348 34.497 63.8484 34.0344 64.1706 33.9966C64.4928 33.9588 64.8077 34.3628 64.87 34.9059Z" fill="black"/>
<path id="Vector_42" d="M59.6239 35.2241C59.6861 35.7636 59.475 36.2323 59.1515 36.2701C58.8281 36.308 58.5156 35.904 58.4534 35.3596C58.3911 34.8152 58.6023 34.3514 58.9245 34.3148C59.2467 34.2782 59.5616 34.681 59.6239 35.2241Z" fill="black"/>
<path id="Vector_43" d="M62.8083 32.9536C62.8083 32.9536 63.7945 31.4328 66.0293 32.8755" stroke="black" stroke-width="0.883676" stroke-miterlimit="10"/>
<path id="Vector_44" d="M61.0742 43.8262V52.2626" stroke="black" stroke-width="0.883676" stroke-miterlimit="10"/>
<path id="Vector_45" d="M94.4277 94.3096C94.4277 94.3096 90.9504 91.0141 86.4344 87.3525C82.503 84.1632 77.788 80.6858 73.9152 78.8648C73.4197 78.6341 72.9388 78.4278 72.4713 78.2545C71.3559 77.8294 70.1587 77.6624 68.9696 77.7663C68.7206 77.7868 68.4729 77.8201 68.2275 77.8664" stroke="black" stroke-width="0.883676" stroke-miterlimit="10"/>
<path id="Vector_46" d="M70.8545 89.1256C74.6736 90.2692 77.0793 92.9691 78.8942 96.7589C80.1014 99.2756 81.1462 102.17 83.0441 104.257C84.8883 106.272 87.0463 108.04 89.5447 109.178C94.0778 111.241 99.6594 111.082 102.605 106.596C104.597 103.555 105.38 99.7761 105.778 96.2218C106.462 90.0446 104.304 72.6323 94.8736 60.555C91.8442 56.67 88.0654 53.3404 83.3859 51.1116C80.1014 49.5518 76.3885 48.5314 72.18 48.2421L71.001 42.1602" stroke="black" stroke-width="0.883676" stroke-miterlimit="10"/>
<path id="Vector_47" d="M42.8047 111.742V114.791" stroke="black" stroke-width="0.883676" stroke-miterlimit="10"/>
<path id="Vector_48" d="M95.7539 110.654V114.792" stroke="black" stroke-width="0.883676" stroke-miterlimit="10"/>
<path id="Vector_49" d="M67.4725 38.7593C67.4609 39.6744 67.7858 40.5617 68.3855 41.2529C68.7217 41.4084 69.0879 41.4887 69.4583 41.4885C71.1024 41.4885 72.4352 39.9384 72.4352 38.0221C72.4471 37.1072 72.1216 36.22 71.521 35.5298C71.185 35.3734 70.8189 35.2926 70.4482 35.293C68.8041 35.293 67.4725 36.8443 67.4725 38.7593Z" fill="#FFDCAE"/>
<path id="Vector_50" d="M70.4428 42.2257C68.8006 42.2257 67.4695 40.6737 67.4695 38.7593C67.4695 36.8449 68.8006 35.293 70.4428 35.293C72.0849 35.293 73.416 36.8449 73.416 38.7593C73.416 40.6737 72.0849 42.2257 70.4428 42.2257Z" stroke="black" stroke-width="0.883676" stroke-miterlimit="10"/>
</g>
<path id="Vector_51" d="M35.0924 8.46527C36.9242 7.91921 38.8767 7.92859 40.7031 8.49224C42.5296 9.05588 44.1478 10.1485 45.3533 11.6318C46.5587 13.1152 47.2973 14.9227 47.4755 16.8258C47.6537 18.7289 47.2636 20.6421 46.3544 22.3235C45.4453 24.0048 44.0581 25.3789 42.368 26.2717C40.678 27.1647 38.7611 27.5363 36.8598 27.3399C34.9585 27.1434 33.1582 26.3875 31.6865 25.1679C30.2147 23.9482 29.1379 22.3195 28.5918 20.4877C27.8596 18.0313 28.1331 15.3848 29.3522 13.1301C30.5713 10.8755 32.6361 9.1975 35.0924 8.46527ZM39.9478 24.7523C40.1255 24.6992 40.2911 24.6116 40.435 24.4946C40.5789 24.3775 40.6984 24.2333 40.7865 24.0701C40.8748 23.9069 40.9299 23.728 40.9488 23.5434C40.9679 23.3589 40.9504 23.1724 40.8973 22.9947C40.8442 22.817 40.7567 22.6513 40.6397 22.5074C40.5226 22.3635 40.3784 22.244 40.2152 22.1559C39.8856 21.9778 39.4987 21.9379 39.1398 22.0451C38.7808 22.1522 38.4791 22.3976 38.301 22.7272C38.1229 23.0568 38.083 23.4437 38.1902 23.8027C38.2973 24.1616 38.5427 24.4634 38.8723 24.6414C39.2019 24.8195 39.5888 24.8594 39.9478 24.7523ZM35.0656 14.8731C35.086 14.922 35.1055 14.9696 35.1242 15.016C35.9162 16.9642 36.9011 18.8283 38.0645 20.5804C38.3464 21.0076 39.2301 20.744 39.2325 20.2313C39.216 18.6383 39.0937 17.048 38.8663 15.4712C38.7248 14.319 38.8346 12.3466 37.9033 11.4605C37.077 10.6671 35.5184 11.0077 34.7836 11.7693C33.972 12.6151 34.675 13.9443 35.0692 14.8731H35.0656Z" fill="#FFDCAE"/>
<path id="Vector_52" d="M28.4072 63.882C29.0778 64.5637 29.5311 65.4291 29.7098 66.3686C29.8884 67.308 29.7846 68.2795 29.4112 69.1598C29.0377 70.0402 28.4117 70.7901 27.612 71.3146C26.8124 71.8391 25.8752 72.1147 24.919 72.1065C23.9627 72.0983 23.0303 71.8067 22.2398 71.2686C21.4492 70.7304 20.8361 69.9699 20.4779 69.0832C20.1195 68.1966 20.0324 67.2236 20.2271 66.2873C20.4219 65.3511 20.89 64.4936 21.5721 63.8234C22.4864 62.9252 23.72 62.4267 25.0019 62.4377C26.2836 62.4487 27.5084 62.9681 28.4072 63.882ZM22.3435 69.8419C22.475 69.9757 22.6541 70.0517 22.8416 70.0533C23.0291 70.0549 23.2095 69.9819 23.3431 69.8504C23.4768 69.7191 23.5528 69.5399 23.5544 69.3524C23.556 69.165 23.4831 68.9846 23.3517 68.8508C23.2866 68.7846 23.2091 68.7319 23.1237 68.6957C23.0382 68.6594 22.9465 68.6404 22.8537 68.6395C22.7608 68.6388 22.6688 68.6562 22.5827 68.691C22.4967 68.7258 22.4182 68.7772 22.352 68.8423C22.2859 68.9074 22.2332 68.9848 22.1969 69.0704C22.1607 69.1558 22.1415 69.2475 22.1408 69.3404C22.1399 69.4331 22.1575 69.5253 22.1923 69.6113C22.2271 69.6974 22.2784 69.7757 22.3435 69.8419ZM25.595 65.393C24.9518 66.2352 24.2524 67.1018 23.7471 68.0343C23.6251 68.2588 23.9485 68.5884 24.1755 68.4688C24.8767 68.0889 25.5516 67.6625 26.1956 67.1921C26.6716 66.8601 27.5699 66.4463 27.7432 65.8275C27.9007 65.2758 27.3856 64.6668 26.8766 64.5203C26.2517 64.3421 25.9197 64.9804 25.595 65.393Z" fill="#FFDCAE"/>
<path id="Vector_53" d="M9.45024 25.1609C8.96861 24.5685 8.67349 23.8464 8.60233 23.0863C8.53105 22.3261 8.68667 21.5618 9.04978 20.8901C9.41289 20.2185 9.9669 19.6696 10.642 19.3127C11.3169 18.9559 12.0826 18.8073 12.8421 18.8856C13.6016 18.964 14.3208 19.2658 14.9088 19.7528C15.4967 20.2399 15.9271 20.8904 16.1454 21.6221C16.3638 22.3537 16.3602 23.1336 16.1353 23.8633C15.9104 24.5929 15.474 25.2394 14.8817 25.7212C14.4883 26.0411 14.0357 26.2803 13.5498 26.4253C13.0639 26.5703 12.5542 26.6181 12.0499 26.566C11.5456 26.514 11.0564 26.3632 10.6103 26.1221C10.1643 25.8809 9.77002 25.5543 9.45024 25.1609ZM14.7193 20.878C14.6726 20.8204 14.615 20.7727 14.5498 20.7374C14.4846 20.7022 14.4131 20.6801 14.3394 20.6724C14.2657 20.6647 14.1912 20.6716 14.1202 20.6929C14.0491 20.714 13.9829 20.7489 13.9254 20.7957C13.8678 20.8424 13.82 20.9 13.7848 20.9652C13.7495 21.0304 13.7274 21.1018 13.7197 21.1756C13.712 21.2493 13.719 21.3238 13.7402 21.3948C13.7613 21.4659 13.7962 21.532 13.843 21.5896C13.9373 21.7058 14.074 21.7798 14.2229 21.7953C14.3717 21.8107 14.5208 21.7664 14.637 21.672C14.7531 21.5777 14.8271 21.441 14.8426 21.292C14.858 21.1431 14.8137 20.9942 14.7193 20.878ZM11.7986 24.1735C12.3735 23.5523 12.9923 22.92 13.4671 22.2121C13.5818 22.0424 13.345 21.7568 13.1595 21.8349C12.5717 22.0855 12.0012 22.375 11.4519 22.7015C11.0492 22.9298 10.3034 23.1898 10.1191 23.6706C9.95311 24.0966 10.3168 24.6202 10.7111 24.7691C11.1981 24.9571 11.5105 24.475 11.7986 24.1662V24.1735Z" fill="#FFDCAE"/>
<path id="Vector_54" d="M47.8256 50.6106C46.4635 52.9297 46.5257 54.5811 46.8797 57.2577C47.0213 58.2769 45.924 58.9665 45.0342 58.4539C37.1727 53.9379 29.8348 57.5092 20.461 55.2951C17.019 54.4871 12.7276 52.8125 9.78606 50.12C8.80999 48.6707 8.28844 46.9632 8.28844 45.2158C8.28844 37.8925 18.2969 31.9473 30.6403 31.9473C38.5507 31.9473 45.5005 34.3884 49.4734 38.0659C49.4734 38.0659 49.4734 38.0659 49.4843 38.0769C50.4925 39.5867 51.0466 41.2368 51.0466 42.959C51.0527 45.5869 49.0987 48.4356 47.8256 50.6106Z" fill="#FFDCAE"/>
<path id="Vector_55" d="M51.0176 42.9615C51.0176 43.0225 51.0176 43.0835 51.0176 43.147C50.9736 45.7101 49.6872 48.0987 48.1639 50.1651C47.1436 51.5468 45.9328 53.0822 46.2196 54.7763C46.3417 55.5233 46.7628 56.2007 46.8677 56.9501C46.9727 57.6996 46.5736 58.6345 45.8168 58.6736C45.3359 58.698 44.927 58.3562 44.5462 58.0633C42.2943 56.3179 39.3675 55.6649 36.5211 55.5502C33.6748 55.4354 30.8322 55.8114 27.9846 55.8919C23.8787 56.014 19.7081 55.4965 15.9159 53.922C12.5179 52.5135 9.40426 50.2017 7.35984 47.1138C5.35082 44.0819 6.53841 39.6794 8.68169 37.043C10.6907 34.569 13.6017 32.9859 16.5872 31.8703C24.6171 28.8727 33.7822 28.941 41.7011 32.2255C44.0519 33.202 46.3258 34.4713 48.0883 36.3083C49.8056 38.0976 50.9993 40.4825 51.0176 42.9615Z" stroke="black" stroke-width="0.883676" stroke-miterlimit="10"/>
<path id="Vector_56" d="M18.0712 45.8791C16.3684 45.8791 14.9881 44.4988 14.9881 42.796C14.9881 41.0932 16.3684 39.7129 18.0712 39.7129C19.774 39.7129 21.1543 41.0932 21.1543 42.796C21.1543 44.4988 19.774 45.8791 18.0712 45.8791Z" fill="white"/>
<path id="Vector_57" d="M28.0439 45.8791C26.3411 45.8791 24.9608 44.4988 24.9608 42.796C24.9608 41.0932 26.3411 39.7129 28.0439 39.7129C29.7466 39.7129 31.127 41.0932 31.127 42.796C31.127 44.4988 29.7466 45.8791 28.0439 45.8791Z" fill="white"/>
<path id="Vector_58" d="M38.206 45.8791C36.5032 45.8791 35.1229 44.4988 35.1229 42.796C35.1229 41.0932 36.5032 39.7129 38.206 39.7129C39.9087 39.7129 41.2891 41.0932 41.2891 42.796C41.2891 44.4988 39.9087 45.8791 38.206 45.8791Z" fill="white"/>
</g>
</g>
</svg>
