<svg width="32" height="35" viewBox="0 0 32 35" fill="none" xmlns="http://www.w3.org/2000/svg">
<path d="M16.2124 15.7578C16.1726 15.7578 16.146 15.7578 16.1062 15.7578C16.0398 15.7445 15.9469 15.7445 15.8672 15.7578C12.017 15.6382 9.10938 12.6082 9.10938 8.87383C9.10938 5.07302 12.2029 1.97656 16 1.97656C19.7971 1.97656 22.8906 5.07302 22.8906 8.87383C22.8773 12.6082 19.9565 15.6382 16.2523 15.7578C16.239 15.7578 16.2257 15.7578 16.2124 15.7578Z" fill="#E8E7EA"/>
<path d="M16 39.5234C11.9221 39.5234 7.82332 38.5013 4.72325 36.4572C1.83124 34.5765 0.25 32.0008 0.25 29.2003C0.25 26.3997 1.83124 23.8036 4.72325 21.9025C10.965 17.8346 21.0766 17.8346 27.2768 21.9025C30.148 23.7832 31.75 26.3588 31.75 29.1594C31.75 31.9599 30.1688 34.5561 27.2768 36.4572C24.1559 38.5013 20.0779 39.5234 16 39.5234Z" fill="#E8E7EA"/>
</svg>
