<svg width="20" height="20" viewBox="0 0 20 20" fill="none" xmlns="http://www.w3.org/2000/svg">
<path opacity="0.4" d="M7.49935 1.66675C5.31602 1.66675 3.54102 3.44175 3.54102 5.62508C3.54102 7.76675 5.21602 9.50008 7.39935 9.57508C7.46602 9.56675 7.53268 9.56675 7.58268 9.57508C7.59935 9.57508 7.60768 9.57508 7.62435 9.57508C7.63268 9.57508 7.63268 9.57508 7.64102 9.57508C9.77435 9.50008 11.4493 7.76675 11.4577 5.62508C11.4577 3.44175 9.68268 1.66675 7.49935 1.66675Z" fill="white"/>
<path d="M11.7328 11.7917C9.40781 10.2417 5.61615 10.2417 3.27448 11.7917C2.21615 12.5 1.63281 13.4583 1.63281 14.4833C1.63281 15.5083 2.21615 16.4583 3.26615 17.1583C4.43281 17.9417 5.96615 18.3333 7.49948 18.3333C9.03281 18.3333 10.5661 17.9417 11.7328 17.1583C12.7828 16.45 13.3661 15.5 13.3661 14.4667C13.3578 13.4417 12.7828 12.4917 11.7328 11.7917Z" fill="white"/>
<path opacity="0.4" d="M16.6578 6.11659C16.7911 7.73325 15.6411 9.14992 14.0495 9.34159C14.0411 9.34159 14.0411 9.34159 14.0328 9.34159H14.0078C13.9578 9.34159 13.9078 9.34159 13.8661 9.35825C13.0578 9.39992 12.3161 9.14159 11.7578 8.66659C12.6161 7.89992 13.1078 6.74992 13.0078 5.49992C12.9495 4.82492 12.7161 4.20825 12.3661 3.68325C12.6828 3.52492 13.0495 3.42492 13.4245 3.39159C15.0578 3.24992 16.5161 4.46659 16.6578 6.11659Z" fill="white"/>
<path d="M18.3249 13.8249C18.2582 14.6333 17.7415 15.3333 16.8749 15.8083C16.0415 16.2666 14.9915 16.4833 13.9499 16.4583C14.5499 15.9166 14.8999 15.2416 14.9665 14.5249C15.0499 13.4916 14.5582 12.4999 13.5749 11.7083C13.0165 11.2666 12.3665 10.9166 11.6582 10.6583C13.4999 10.1249 15.8165 10.4833 17.2415 11.6333C18.0082 12.2499 18.3999 13.0249 18.3249 13.8249Z" fill="white"/>
</svg>
