<svg width="17" height="16" viewBox="0 0 17 16" fill="none" xmlns="http://www.w3.org/2000/svg">
<path d="M11.6666 14.1663H4.99998C2.56665 14.1663 1.16665 12.7663 1.16665 10.333V5.66634C1.16665 3.23301 2.56665 1.83301 4.99998 1.83301H11.6666C14.1 1.83301 15.5 3.23301 15.5 5.66634V10.333C15.5 12.7663 14.1 14.1663 11.6666 14.1663ZM4.99998 2.83301C3.09331 2.83301 2.16665 3.75967 2.16665 5.66634V10.333C2.16665 12.2397 3.09331 13.1663 4.99998 13.1663H11.6666C13.5733 13.1663 14.5 12.2397 14.5 10.333V5.66634C14.5 3.75967 13.5733 2.83301 11.6666 2.83301H4.99998Z" fill="#140F29"/>
<path d="M8.33316 8.57998C7.77316 8.57998 7.2065 8.40665 6.77317 8.05331L4.6865 6.38665C4.47316 6.21331 4.43317 5.89998 4.6065 5.68665C4.77983 5.47331 5.09317 5.43332 5.3065 5.60665L7.39316 7.27332C7.89983 7.67998 8.75983 7.67998 9.26649 7.27332L11.3532 5.60665C11.5665 5.43332 11.8865 5.46665 12.0532 5.68665C12.2265 5.89998 12.1932 6.21998 11.9732 6.38665L9.8865 8.05331C9.45983 8.40665 8.89316 8.57998 8.33316 8.57998Z" fill="#140F29"/>
</svg>
