<svg width="17" height="16" viewBox="0 0 17 16" fill="none" xmlns="http://www.w3.org/2000/svg">
<path d="M11.7344 14.1673H5.06771C2.63437 14.1673 1.23438 12.7673 1.23438 10.334V5.66732C1.23438 3.23398 2.63437 1.83398 5.06771 1.83398H11.7344C14.1677 1.83398 15.5677 3.23398 15.5677 5.66732V10.334C15.5677 12.7673 14.1677 14.1673 11.7344 14.1673ZM5.06771 2.83398C3.16104 2.83398 2.23438 3.76065 2.23438 5.66732V10.334C2.23438 12.2407 3.16104 13.1673 5.06771 13.1673H11.7344C13.641 13.1673 14.5677 12.2407 14.5677 10.334V5.66732C14.5677 3.76065 13.641 2.83398 11.7344 2.83398H5.06771Z" fill="#140F29"/>
<path d="M8.39959 8.57998C7.83959 8.57998 7.27293 8.40665 6.83959 8.05331L4.75292 6.38665C4.53959 6.21331 4.49959 5.89998 4.67293 5.68665C4.84626 5.47331 5.1596 5.43332 5.37293 5.60665L7.45959 7.27332C7.96626 7.67998 8.82625 7.67998 9.33292 7.27332L11.4196 5.60665C11.6329 5.43332 11.9529 5.46665 12.1196 5.68665C12.2929 5.89998 12.2596 6.21998 12.0396 6.38665L9.95293 8.05331C9.52626 8.40665 8.95959 8.57998 8.39959 8.57998Z" fill="#140F29"/>
</svg>
