<svg width="32" height="32" viewBox="0 0 32 32" fill="none" xmlns="http://www.w3.org/2000/svg">
<path d="M12.6409 27.5874C11.9742 27.5874 11.5076 27.3607 11.2276 27.1474C10.6942 26.7607 9.86758 25.7607 10.3876 23.5207L11.1475 20.2407C11.2142 19.9607 11.0676 19.4541 10.8676 19.2407L8.21424 16.5874C6.81424 15.1874 6.93423 13.9741 7.12089 13.3741C7.30756 12.7741 7.92089 11.7207 9.86756 11.3874L13.2676 10.8274C13.5209 10.7874 13.9342 10.4807 14.0409 10.2541L15.9209 6.49406C16.8276 4.68073 18.0276 4.41406 18.6676 4.41406C19.3076 4.41406 20.5076 4.68073 21.4142 6.49406L23.2942 10.2541C23.4142 10.4807 23.8142 10.7874 24.0675 10.8274L27.4676 11.3874C29.4142 11.7074 30.0276 12.7741 30.2142 13.3741C30.4009 13.9741 30.5209 15.1874 29.1209 16.5874L26.4676 19.2407C26.2676 19.4407 26.1209 19.9607 26.1876 20.2407L26.9476 23.5207C27.4676 25.7741 26.6409 26.7607 26.1075 27.1474C25.5742 27.5341 24.3876 28.0274 22.3876 26.8407L19.2009 24.9474C18.9342 24.7874 18.3742 24.7874 18.1075 24.9474L14.9209 26.8407C14.0009 27.4007 13.2276 27.5874 12.6409 27.5874ZM18.6676 6.41406C18.4542 6.41406 18.0676 6.66739 17.7076 7.38739L15.8276 11.1474C15.4276 11.9607 14.4809 12.6541 13.5876 12.8007L10.1876 13.3607C9.42758 13.4941 9.08091 13.7741 9.01424 13.9874C8.94758 14.2007 9.06755 14.6274 9.61422 15.1741L12.2676 17.8274C12.9476 18.5074 13.3076 19.7474 13.0942 20.6807L12.3342 23.9607C12.1076 24.9074 12.2542 25.4141 12.4009 25.5341C12.5475 25.6407 13.0809 25.6274 13.9076 25.1207L17.1075 23.2274C18.0009 22.6941 19.3476 22.6941 20.2276 23.2274L23.4142 25.1207C24.2542 25.6141 24.7876 25.6407 24.9342 25.5341C25.0809 25.4274 25.2276 24.9207 25.0009 23.9607L24.2409 20.6807C24.0276 19.7341 24.3742 18.5074 25.0675 17.8274L27.7209 15.1741C28.2676 14.6274 28.3876 14.1874 28.3209 13.9874C28.2542 13.7874 27.9075 13.4941 27.1475 13.3607L23.7476 12.8007C22.8542 12.6541 21.9076 11.9607 21.5076 11.1474L19.6276 7.38739C19.2676 6.66739 18.8809 6.41406 18.6676 6.41406Z" fill="#140F29"/>
<path d="M10.666 7.66602H2.66602C2.11935 7.66602 1.66602 7.21268 1.66602 6.66602C1.66602 6.11935 2.11935 5.66602 2.66602 5.66602H10.666C11.2127 5.66602 11.666 6.11935 11.666 6.66602C11.666 7.21268 11.2127 7.66602 10.666 7.66602Z" fill="#140F29"/>
<path d="M6.66602 26.334H2.66602C2.11935 26.334 1.66602 25.8807 1.66602 25.334C1.66602 24.7873 2.11935 24.334 2.66602 24.334H6.66602C7.21268 24.334 7.66602 24.7873 7.66602 25.334C7.66602 25.8807 7.21268 26.334 6.66602 26.334Z" fill="#140F29"/>
<path d="M3.99935 17H2.66602C2.11935 17 1.66602 16.5467 1.66602 16C1.66602 15.4533 2.11935 15 2.66602 15H3.99935C4.54602 15 4.99935 15.4533 4.99935 16C4.99935 16.5467 4.54602 17 3.99935 17Z" fill="#140F29"/>
</svg>
