<svg width="152" height="152" viewBox="0 0 152 152" fill="none" xmlns="http://www.w3.org/2000/svg">
<g id="Illustration - Finance, e-commerce, startup, workflow _ account, information, user, profile, data">
<g id="Finance, e-commerce, startup, workflow _ account, information, user, profile, data">
<path id="Vector" d="M34.9578 52.9945C34.9578 52.9945 26.7756 28.7839 55.3151 31.7388C83.8546 34.6937 70.2187 23.9777 81.0031 17.3277C91.7875 10.6777 123.563 31.3664 110.269 51.321C96.9753 71.2755 131.514 53.0219 138.719 83.0297C143.165 101.548 132.134 115.178 123.034 122.904" stroke="#CCDDE2" stroke-width="0.83144" stroke-miterlimit="10"/>
<path id="Vector_3" d="M34.6191 74.2187C34.6191 74.2187 38.0984 73.7962 39.4011 71.3125L38.2656 77.6828C38.2656 77.6828 52.1067 72.9708 54.6451 72.3628C54.6451 72.3628 55.4629 77.6357 58.7187 79.0508L62.0779 74.7796C62.0779 74.7796 66.2899 75.8436 65.1377 81.5831C63.9855 87.3227 48.0499 92.1198 45.3473 92.0088C42.6447 91.8979 39.7355 90.235 36.7563 81.2989L34.6191 74.2187Z" fill="#353642"/>
<path id="Vector_4" d="M40.2863 60.0234C41.1679 61.4583 42.0541 62.8902 42.9691 64.3038C43.533 65.1747 44.5605 66.4166 43.4677 67.327C43.112 67.5997 42.6824 67.7587 42.2349 67.783C41.5327 67.8454 40.7955 67.6766 40.3684 67.0732L38.2404 63.5468C37.8163 62.8435 37.1428 62.3258 36.3542 62.0964C35.5655 61.8672 34.7194 61.9433 33.9844 62.3095" stroke="black" stroke-width="0.83144" stroke-miterlimit="10"/>
<path id="Vector_5" d="M48.3377 64.6727C48.894 65.9951 48.517 66.8478 47.8665 67.2764C46.8025 67.9741 45.3782 67.6397 44.6243 66.6213L40.2969 60.0352" stroke="black" stroke-width="0.83144" stroke-miterlimit="10"/>
<path id="Vector_6" d="M43.9517 58.1099C45.5264 60.0251 47.513 63.5819 48.612 65.067C49.7109 66.552 51.4103 65.6567 51.4103 65.6567C52.7905 64.9134 52.5564 63.6807 51.9529 62.1835C50.4664 58.5082 48.3445 56.064 45.9778 54.4619C38.6438 49.5006 31.1198 53.1608 28.8809 61.7245L20.0269 86.271C19.704 87.5078 19.6692 88.8021 19.9247 90.0544C20.1804 91.3067 20.7198 92.4838 21.5016 93.4951C22.2831 94.5063 23.2863 95.3248 24.4338 95.8879C25.5814 96.4507 26.8427 96.743 28.1209 96.7422H53.5991L68.4571 134.855" stroke="black" stroke-width="0.83144" stroke-miterlimit="10"/>
<path id="Vector_7" d="M53.0483 60.4982C54.8723 59.8659 54.7887 56.9566 52.2001 55.9747C49.341 54.8894 44.2642 53.3542 42.9889 52.9712C42.981 52.9651 42.9714 52.9615 42.9615 52.9606C42.8719 52.9332 42.8095 52.9104 42.7609 52.8998L42.6895 52.877" stroke="black" stroke-width="0.83144" stroke-miterlimit="10"/>
<path id="Vector_8" d="M79.9973 89.5879C78.4013 87.6697 74.0329 86.5829 71.1813 86.057C70.7021 85.967 70.2651 85.7236 69.936 85.3637C69.6071 85.0038 69.404 84.5467 69.3573 84.0612C69.3242 83.7338 69.3621 83.403 69.4683 83.0914C69.6382 82.6131 69.964 82.2057 70.3931 81.9346C70.8222 81.6634 71.33 81.5441 71.8349 81.5958C76.6989 82.0882 81.7149 83.6189 85.4253 86.9158C85.4253 86.9158 103.411 100.641 105.559 101.977C106.445 102.516 107.272 101.88 106.672 101.035L106.483 100.713C105.426 98.8985 104.175 97.2045 102.752 95.6603" stroke="black" stroke-width="0.83144" stroke-miterlimit="10"/>
<path id="Vector_9" d="M80.3282 68.9288C57.7075 69.1173 38.2637 77.6809 38.2637 77.6809L40.2047 66.8008" stroke="black" stroke-width="0.83144" stroke-miterlimit="10"/>
<path id="Vector_11" d="M77.8217 92.0928C77.8217 92.0928 75.1633 90.0773 72.7693 92.1202C72.6685 92.2089 72.5805 92.3112 72.5078 92.4242" stroke="black" stroke-width="0.83144" stroke-miterlimit="10"/>
<g id="Group" opacity="0.77">
<path id="Vector_12" opacity="0.77" d="M44.6145 66.6108C45.3745 67.6308 46.7972 67.9636 47.8567 67.2644C48.4996 66.8388 48.8766 65.9907 48.3339 64.6804C48.4327 64.8248 48.5224 64.9525 48.6106 65.0696C49.708 66.5607 51.4089 65.6624 51.4089 65.6624C52.789 64.9191 52.5565 63.6864 51.9531 62.1876C51.3625 60.7032 50.5878 59.2989 49.6472 58.0076C50.2628 57.4316 50.9939 56.8494 51.7646 57.1048C52.596 57.3814 52.8286 58.4241 52.9228 59.2936C52.9669 59.6979 53.011 60.0976 53.0551 60.502L53.7208 66.4543C53.9427 68.4303 54.1647 70.4352 54.6465 72.364C54.8956 73.4069 55.2405 74.4245 55.6771 75.404C56.2879 76.7695 57.1511 78.0072 58.2215 79.052C59.5565 77.7295 60.7254 76.2493 61.7023 74.644C62.6368 74.9499 63.461 75.5238 64.072 76.2943C64.6829 77.0648 65.0541 77.9978 65.139 78.9776V79.0277C65.516 82.586 62.0899 85.2597 59.2111 86.9044C55.8853 88.8165 52.178 90.2484 48.5361 91.4385C47.0343 91.931 45.0827 92.3505 43.4973 91.8368C43.3266 91.7823 43.16 91.7158 42.9987 91.6376C41.4179 90.8624 40.36 89.2376 39.5347 87.7525C35.5827 80.6465 33.9411 72.4872 33.0762 64.4068C34.8059 64.1682 36.5296 63.9022 38.232 63.5359C38.232 63.5359 38.232 63.548 38.2427 63.5526L40.205 66.8069L40.3661 67.0775C40.7917 67.6855 41.5289 67.8481 42.2326 67.7873C42.6801 67.7651 43.11 67.606 43.4639 67.3313C44.5552 66.4193 43.5307 65.182 42.9653 64.3111" fill="white"/>
<path id="Vector_13" opacity="0.77" d="M44.6145 66.6108C45.3745 67.6308 46.7972 67.9636 47.8567 67.2644C48.4996 66.8388 48.8766 65.9907 48.3339 64.6804C48.4327 64.8248 48.5224 64.9525 48.6106 65.0696C49.708 66.5607 51.4089 65.6624 51.4089 65.6624C52.789 64.9191 52.5565 63.6864 51.9531 62.1876C51.3625 60.7032 50.5878 59.2989 49.6472 58.0076C50.2628 57.4316 50.9939 56.8494 51.7646 57.1048C52.596 57.3814 52.8286 58.4241 52.9228 59.2936C52.9669 59.6979 53.011 60.0976 53.0551 60.502L53.7208 66.4543C53.9427 68.4303 54.1647 70.4352 54.6465 72.364C54.8956 73.4069 55.2405 74.4245 55.6771 75.404C56.2879 76.7695 57.1511 78.0072 58.2215 79.052C59.5565 77.7295 60.7254 76.2493 61.7023 74.644C62.6368 74.9499 63.461 75.5238 64.072 76.2943C64.6829 77.0648 65.0541 77.9978 65.139 78.9776V79.0277C65.516 82.586 62.0899 85.2597 59.2111 86.9044C55.8853 88.8165 52.178 90.2484 48.5361 91.4385C47.0343 91.931 45.0827 92.3505 43.4973 91.8368C43.3266 91.7823 43.16 91.7158 42.9987 91.6376C41.4179 90.8624 40.36 89.2376 39.5347 87.7525C35.5827 80.6465 33.9411 72.4872 33.0762 64.4068C34.8059 64.1682 36.5296 63.9022 38.232 63.5359C38.232 63.5359 38.232 63.548 38.2427 63.5526L40.205 66.8069L40.3661 67.0775C40.7917 67.6855 41.5289 67.8481 42.2326 67.7873C42.6801 67.7651 43.11 67.606 43.4639 67.3313C44.5552 66.4193 43.5307 65.182 42.9653 64.3111" fill="#D2C0F7"/>
<path id="Vector_14" opacity="0.77" d="M45.0834 67.095C45.7567 68.007 46.9074 67.8915 47.8589 67.2668C48.4335 66.8868 48.9047 66.9977 48.4198 65.8258C48.5095 65.9535 48.5216 65.5218 48.6007 65.6176C49.5811 66.9491 48.6128 65.0673 48.6128 65.0673C49.9808 66.7956 52.9585 65.1676 52.4128 63.8316C51.8352 62.3921 51.2272 60.2641 50.4566 59.2001C51.0646 58.6256 50.9475 58.7107 51.7212 59.1682C51.929 59.3017 52.103 59.4818 52.2294 59.6941C52.3558 59.9065 52.4311 60.1453 52.4493 60.3918C52.5116 60.9709 52.5739 61.5257 52.6363 62.0912L53.2291 67.4112C53.4282 69.1789 53.6258 70.9649 54.0559 72.6856C54.2783 73.616 54.5867 74.5237 54.9771 75.3972C55.5212 76.5996 57.2692 78.6014 58.2238 79.518C59.4109 78.34 60.8336 76.174 61.7046 74.7345C63.3766 75.2483 63.3036 76.8473 63.4222 78.5938V78.6394C63.7596 81.8147 60.7014 84.1996 58.1387 85.6694C55.1686 87.3764 51.8595 88.6532 48.6083 89.7172C47.2676 90.158 45.5257 90.538 44.1106 90.0728C43.958 90.0247 43.809 89.9651 43.6652 89.895C42.2547 89.2019 41.3092 87.7533 40.572 86.4264C37.3451 80.6306 35.8479 74.0505 35.024 67.4537C34.9635 66.96 35.0971 66.4624 35.3966 66.0654C35.696 65.6683 36.1379 65.4031 36.6291 65.3257C37.5548 65.1737 38.4775 65.0217 39.394 64.818L39.4199 64.8302L41.1709 67.7349C41.5524 68.2745 41.6147 67.852 42.2425 67.7972C42.6392 67.7623 43.4083 67.6848 43.7154 67.4279C44.6897 66.6162 44.1395 66.2803 43.6348 65.5036" fill="#D2C0F7"/>
</g>
<path id="Vector_15" d="M77.5028 95.0251C77.5028 95.0251 72.4549 93.3652 72.3789 96.156" stroke="black" stroke-width="0.83144" stroke-miterlimit="10"/>
<path id="Vector_16" opacity="0.54" d="M32.3173 123.454L22.4175 98.091C22.2948 97.6002 22.2857 97.0879 22.3906 96.593C22.4956 96.0983 22.7121 95.6338 23.0234 95.2351C23.3348 94.8364 23.7329 94.5138 24.1877 94.2921C24.6423 94.0703 25.1416 93.9551 25.6475 93.9551H64.9699C65.8529 93.9549 66.7101 94.2521 67.4037 94.7987C68.0971 95.3451 68.5864 96.1092 68.7927 96.9677L79.6303 122.324C79.7475 122.813 79.7522 123.323 79.6443 123.814C79.5362 124.305 79.3184 124.766 79.0069 125.161C78.6955 125.556 78.2986 125.875 77.8461 126.095C77.3936 126.314 76.8972 126.428 76.3942 126.428H36.1309C35.2545 126.429 34.4031 126.136 33.7122 125.597C33.0212 125.058 32.5302 124.304 32.3173 123.454Z" fill="white"/>
<path id="Vector_17" d="M79.1469 99.3035C79.1469 99.3035 79.9661 100.054 79.6545 101.127C79.4235 101.922 78.6331 102.424 77.8503 102.152C75.3575 101.29 73.1125 99.8263 72.5653 97.3381C72.3067 96.0783 72.2508 94.7853 72.3996 93.5077C72.5197 92.3236 72.6945 91.0453 73.0927 89.919C73.7007 88.1892 75.5627 86.9839 77.37 87.8168" stroke="black" stroke-width="0.83144" stroke-miterlimit="10"/>
<path id="Vector_18" d="M32.3173 123.454L22.4175 98.091C22.2948 97.6002 22.2857 97.0879 22.3906 96.593C22.4956 96.0983 22.7121 95.6338 23.0234 95.2351C23.3348 94.8364 23.7329 94.5138 24.1877 94.2921C24.6423 94.0703 25.1416 93.9551 25.6475 93.9551H64.9699C65.8529 93.9549 66.7101 94.2521 67.4037 94.7987C68.0971 95.3451 68.5864 96.1092 68.7927 96.9677L79.6303 122.324C79.7475 122.813 79.7522 123.323 79.6443 123.814C79.5362 124.305 79.3184 124.766 79.0069 125.161C78.6955 125.556 78.2986 125.875 77.8461 126.095C77.3936 126.314 76.8972 126.428 76.3942 126.428H36.1309C35.2545 126.429 34.4031 126.136 33.7122 125.597C33.0212 125.058 32.5302 124.304 32.3173 123.454Z" fill="#D2C0F7"/>
<path id="Vector_19" d="M32.3173 123.454L22.4175 98.091C22.2948 97.6002 22.2857 97.0879 22.3906 96.593C22.4956 96.0983 22.7121 95.6338 23.0234 95.2351C23.3348 94.8364 23.7329 94.5138 24.1877 94.2921C24.6423 94.0703 25.1416 93.9551 25.6475 93.9551H64.9699C65.8529 93.9549 66.7101 94.2521 67.4037 94.7987C68.0971 95.3451 68.5864 96.1092 68.7927 96.9677L79.6303 122.324C79.7475 122.813 79.7522 123.323 79.6443 123.814C79.5362 124.305 79.3184 124.766 79.0069 125.161C78.6955 125.556 78.2986 125.875 77.8461 126.095C77.3936 126.314 76.8972 126.428 76.3942 126.428H36.1309C35.2545 126.429 34.4031 126.136 33.7122 125.597C33.0212 125.058 32.5302 124.304 32.3173 123.454Z" stroke="black" stroke-width="0.83144" stroke-linecap="square" stroke-linejoin="round"/>
<path id="Vector_20" d="M33.766 122.43L24.6323 99.0222C24.5193 98.5694 24.5111 98.0969 24.6081 97.6404C24.7051 97.1839 24.9048 96.7555 25.1923 96.3878C25.4795 96.0201 25.8469 95.7226 26.2663 95.518C26.6858 95.3134 27.1464 95.207 27.613 95.207H63.8893C64.7037 95.2067 65.4946 95.4808 66.1344 95.9848C66.7741 96.4888 67.2256 97.1937 67.4157 97.9856L77.4158 121.38C77.5237 121.831 77.528 122.301 77.4283 122.755C77.3286 123.208 77.1273 123.633 76.8399 123.997C76.5526 124.361 76.1863 124.656 75.7687 124.858C75.3512 125.061 74.8931 125.166 74.429 125.166H37.2832C36.476 125.167 35.6917 124.898 35.0546 124.403C34.4174 123.907 33.964 123.213 33.766 122.43Z" fill="#D2C0F7"/>
<path id="Vector_21" d="M111.402 118.76L118.358 134.855" stroke="black" stroke-width="0.83144" stroke-miterlimit="10"/>
<path id="Vector_22" d="M144.4 134.855H7.59961" stroke="black" stroke-width="0.83144" stroke-miterlimit="10"/>
<path id="Vector_23" d="M79.7047 62.209C78.5769 63.3231 76.8927 63.3216 75.9336 62.2911" stroke="black" stroke-width="0.83144" stroke-miterlimit="10"/>
<path id="Vector_24" d="M49.6445 58.0037C50.2601 57.4277 50.9913 56.8455 51.7619 57.1009C52.5933 57.3775 52.8259 58.4202 52.9201 59.2897C53.1866 61.6791 53.4526 64.0661 53.7181 66.4505C54.0556 69.4905 54.4113 72.6033 55.6744 75.3971C56.2853 76.7625 57.1485 78.0002 58.2189 79.0451" stroke="black" stroke-width="0.83144" stroke-miterlimit="10"/>
<path id="Vector_25" d="M65.1361 79.0282V78.9781C65.0512 77.9984 64.68 77.0653 64.0691 76.2948C63.458 75.5245 62.6339 74.9505 61.6994 74.6445C60.7225 76.2498 59.5536 77.7301 58.2186 79.0525C54.7185 82.5329 50.2222 84.8378 45.3533 85.6478C45.5874 86.5796 46.0693 87.4277 46.4021 88.3245C46.735 89.2213 46.9007 90.2595 46.4964 91.1244C45.9857 92.2279 44.5204 92.0835 43.502 91.8388C43.4913 91.8388 43.4852 91.8388 43.4746 91.8388" stroke="black" stroke-width="0.83144" stroke-miterlimit="10"/>
<path id="Vector_26" d="M38.234 63.5371C36.5316 63.9034 34.8079 64.1694 33.0781 64.4081C33.943 72.4884 35.5785 80.6477 39.5366 87.7537C40.362 89.2388 41.4199 90.8637 43.0007 91.6389C43.162 91.7171 43.3285 91.7837 43.4992 91.838C45.0846 92.3593 47.0363 91.9322 48.538 91.4397C52.186 90.2481 55.8872 88.8177 59.213 86.9056C62.0843 85.2594 65.5104 82.5873 65.141 79.0289C65.1053 78.6371 65.0252 78.2506 64.9024 77.8768" stroke="black" stroke-width="0.83144" stroke-miterlimit="10"/>
<path id="Vector_27" d="M66.6992 47.4174C66.9543 48.4811 67.5366 49.4378 68.3642 50.1528C69.1919 50.868 70.223 51.3051 71.3124 51.4029C71.4029 50.9642 71.5991 50.554 71.8839 50.2083C73.0999 48.775 73.6183 51.4638 77.5079 49.5334C82.8979 46.8522 84.9438 48.3904 84.9438 48.3904C85.1231 48.5242 85.0958 49.7582 85.1262 49.9832C85.2782 51.2646 85.415 52.5398 85.5655 53.8197C85.6567 54.601 85.7463 55.3763 85.8315 56.1515C85.9049 56.0196 85.986 55.8921 86.0747 55.7698C86.5656 54.0325 87.4427 51.9806 89.3335 52.8638C89.7164 53.0504 90.0498 53.3248 90.3063 53.6646C91.5603 55.3123 90.6103 56.9038 89.2986 58.0818C88.9698 58.4473 88.6023 58.7759 88.2027 59.0623C88.4185 59.5092 89.3001 61.283 89.3001 61.2891C89.3913 61.4685 92.4723 57.9814 92.7019 57.6014C93.0448 56.6706 93.2287 55.6887 93.246 54.6969C93.2962 50.6187 91.6363 45.8716 88.3334 43.5323C87.5141 42.9532 87.7755 42.3954 87.7254 41.608C87.7219 41.5654 87.7056 41.525 87.6786 41.4919C87.6517 41.4587 87.6152 41.4346 87.5743 41.4226C87.5333 41.4106 87.4896 41.4113 87.449 41.4245C87.4085 41.4379 87.3729 41.4631 87.3469 41.4972C86.3118 42.6889 83.7491 42.5703 83.7491 42.5703C74.854 40.342 71.8642 44.297 70.0691 45.0023C69.3366 45.2797 68.5304 45.2931 67.7891 45.0403C67.7454 45.2856 67.6355 45.5144 67.4714 45.702C67.3071 45.8895 67.0949 46.0286 66.8573 46.1043L66.9029 46.5161C66.9417 46.8312 66.8696 47.1498 66.6992 47.4174Z" fill="#D2C0F7"/>
<path id="Vector_28" d="M71.3173 51.4075C70.2279 51.3096 69.1968 50.8725 68.3691 50.1575C67.5415 49.4425 66.959 48.4856 66.7041 47.4221C66.6042 47.0141 66.5412 46.5979 66.5156 46.1787L66.5855 46.1711C66.6812 46.164 66.7752 46.1435 66.8652 46.1103C67.1028 46.0346 67.315 45.8956 67.4793 45.708C67.6435 45.5206 67.7534 45.2917 67.797 45.0463C67.8248 44.9103 67.8304 44.7706 67.8137 44.6329L67.5857 42.6204C67.5857 42.6204 69.1939 43.8167 70.9783 43.1175C72.7628 42.4183 75.7587 38.4632 84.6583 40.6855C84.6583 40.6855 86.6678 40.804 87.6983 39.6123C87.7243 39.5783 87.7599 39.5531 87.8005 39.5398C87.8411 39.5265 87.8847 39.5258 87.9257 39.5379C87.9666 39.5499 88.0031 39.574 88.03 39.607C88.0571 39.6402 88.0733 39.6807 88.0768 39.7233C88.13 40.5122 88.4219 41.07 89.2427 41.6476C92.5456 43.9884 94.2055 48.7339 94.1538 52.812C94.1386 54.5038 93.5762 56.1743 92.7083 57.6076C92.4787 57.9876 89.3977 61.4745 89.3065 61.2951C89.3065 61.2951 88.4249 59.5152 88.2091 59.0683L88.1574 58.9695L88.2562 58.9042C88.6231 58.655 88.9735 58.3824 89.305 58.0879C90.6152 56.9099 91.5667 55.3185 90.3127 53.6708C90.056 53.3309 89.7228 53.0564 89.34 52.8698C87.443 51.9867 86.572 54.0387 86.0811 55.776C85.9858 56.108 85.9271 56.4495 85.9063 56.7944C85.8835 56.5816 85.8607 56.3764 85.8379 56.1636C85.7527 55.3884 85.6631 54.6132 85.5719 53.8319C85.4199 52.5521 85.277 51.2768 85.1326 49.9955C85.1098 49.7766 85.1326 48.5363 84.9502 48.4025C84.9502 48.4025 82.9027 46.8643 77.5143 49.5455C73.6247 51.4759 73.1063 48.7855 71.8903 50.2204C71.6055 50.5662 71.4093 50.9763 71.3188 51.4151C71.291 51.556 71.2732 51.6988 71.2656 51.8423C71.2627 51.8608 71.2627 51.8798 71.2656 51.8985C71.2474 52.2131 71.2413 52.5263 71.2337 52.8333C71.2048 55.7958 71.5301 58.8905 72.6929 61.6417C74.1065 64.9766 77.8472 68.2659 81.7369 66.7109C82.9529 66.223 84.0427 65.4371 85.0399 64.6027" stroke="black" stroke-width="0.83144" stroke-miterlimit="10"/>
<path id="Vector_29" d="M73.979 58.6354C74.3659 58.5059 74.5525 58.0214 74.396 57.5534C74.2394 57.0853 73.7988 56.8108 73.4118 56.9403C73.0249 57.0696 72.8383 57.554 72.9948 58.0222C73.1516 58.4904 73.5922 58.7649 73.979 58.6354Z" fill="black"/>
<path id="Vector_30" d="M79.7681 58.4498C80.1549 58.3205 80.3416 57.836 80.185 57.3679C80.0283 56.8997 79.5878 56.6252 79.2008 56.7547C78.814 56.8842 78.6273 57.3686 78.7839 57.8366C78.9405 58.3048 79.3811 58.5793 79.7681 58.4498Z" fill="black"/>
<path id="Vector_31" d="M77.5564 59.4522C77.5564 59.4522 75.6305 60.5451 75.5135 59.4112C75.477 59.0616 75.0058 55.637 75.0058 55.637C75.0058 55.637 73.4493 53.9878 71.0645 55.2069" stroke="black" stroke-width="0.83144" stroke-miterlimit="10"/>
<path id="Vector_32" d="M77.123 54.679C77.123 54.679 80.233 53.1256 82.291 55.3645" stroke="black" stroke-width="0.83144" stroke-miterlimit="10"/>
<path id="Vector_33" d="M79.9751 67.0957L80.3323 68.9288C79.206 69.967 78.4095 71.4551 78.6421 73.0222C78.8488 74.4115 79.9857 75.705 81.1516 76.4331C83.1002 77.6491 85.6918 77.5533 87.7894 76.7796C89.8399 76.0196 91.6137 74.5771 92.8996 72.817C93.5052 71.9661 93.9086 70.9883 94.0792 69.9579V69.9396" stroke="black" stroke-width="0.83144" stroke-miterlimit="10"/>
<path id="Vector_34" d="M80.332 68.9258L81.0282 72.2363" stroke="black" stroke-width="0.83144" stroke-miterlimit="10"/>
<path id="Vector_35" d="M90.1771 60.498L91.2289 67.4824C91.3326 68.1661 91.6782 68.7899 92.2029 69.2403C92.7276 69.6909 93.3964 69.9382 94.088 69.9372C97.3616 70.4677 100.591 71.242 103.749 72.2537C116.087 76.2331 123.681 87.3473 125.826 99.7657C126.718 104.966 126.785 110.419 125.664 115.59C125.028 118.501 124.106 121.771 121.968 123.95C119.191 126.793 114.929 125.622 111.647 124.338C101.459 120.375 92.9845 113.326 85.6672 105.254C81.7547 100.938 76.6992 97.4781 76.6992 97.4781" stroke="black" stroke-width="0.83144" stroke-miterlimit="10"/>
<path id="Vector_36" d="M37.1349 117.193C35.9919 117.182 34.9963 116.26 34.7394 114.975C34.2317 112.449 34.098 108.543 37.8022 107.69C42.4306 106.626 45.9905 111.666 47.7354 114.852C48.3221 115.916 47.6579 117.284 46.565 117.284L37.1349 117.193Z" fill="white"/>
<path id="Vector_37" d="M38.662 105.543C39.6445 104.889 39.6597 103.185 38.6955 101.736C37.7316 100.287 36.1535 99.6426 35.1708 100.297C34.1881 100.95 34.1731 102.655 35.1371 104.104C36.1012 105.553 37.6793 106.197 38.662 105.543Z" fill="white"/>
<path id="Vector_38" d="M114.727 128.226C114.655 128.237 114.575 128.247 114.505 128.264H114.477L103.666 128.208L87.4426 128.124C87.3803 128.124 87.3195 128.124 87.2587 128.124C87.1381 128.121 87.0179 128.112 86.8984 128.097C87.9975 127.969 89.0164 127.458 89.7758 126.653C90.535 125.848 90.9862 124.801 91.0496 123.696C91.0526 123.639 91.0526 123.582 91.0496 123.525V123.436C91.0451 122.355 90.6685 121.309 89.983 120.473C89.2976 119.638 88.3452 119.063 87.286 118.847C87.1751 118.82 87.0535 118.803 86.9364 118.787C87.1204 118.77 87.3028 118.758 87.4806 118.758L101.186 118.831L103.71 118.841L107.113 118.858C108.278 118.965 109.362 119.502 110.152 120.365C110.942 121.228 111.382 122.354 111.386 123.525C111.386 123.745 111.369 123.966 111.335 124.184C111.173 125.298 110.617 126.317 109.767 127.055C108.918 127.794 107.831 128.203 106.706 128.208H114.941C114.467 128.208 114.599 128.208 114.727 128.226Z" fill="white"/>
<path id="Vector_39" d="M92.7932 133.879C93.1021 134.189 93.4695 134.435 93.8741 134.603C94.2789 134.77 94.7128 134.856 95.1507 134.854H87.189C85.669 134.854 84.839 134.484 84.2341 133.879C83.6124 133.254 83.2623 132.41 83.2598 131.529C83.2598 129.705 84.7554 128.209 87.189 128.209H95.1507C94.4935 128.208 93.8507 128.402 93.3038 128.767C92.7569 129.131 92.3305 129.65 92.079 130.257C91.8272 130.865 91.7614 131.533 91.89 132.178C92.0185 132.822 92.3355 133.414 92.8008 133.879H92.7932Z" fill="white"/>
<path id="Vector_40" d="M119.086 123.605C119.084 124.308 118.92 125 118.608 125.629C118.386 126.104 118.08 126.536 117.706 126.904C117.088 127.516 116.313 127.943 115.467 128.14C115.118 128.22 114.761 128.261 114.403 128.261C114.476 128.245 114.555 128.234 114.625 128.223C114.497 128.211 114.365 128.207 114.84 128.207H106.604C107.73 128.202 108.817 127.793 109.668 127.055C110.518 126.316 111.075 125.296 111.236 124.182C111.27 123.963 111.287 123.743 111.287 123.522C111.283 122.352 110.843 121.225 110.053 120.362C109.262 119.499 108.178 118.962 107.012 118.855L111.458 118.878L114.428 118.895C115.67 118.905 116.856 119.407 117.729 120.289C118.602 121.172 119.089 122.364 119.086 123.605Z" fill="#D2C0F7"/>
<path id="Vector_41" d="M119.089 123.607C119.08 124.849 118.579 126.037 117.696 126.91C116.812 127.783 115.619 128.271 114.377 128.266L87.3332 128.126C87.1523 128.126 86.9715 128.112 86.7891 128.094C87.9291 127.965 88.982 127.422 89.7485 126.568C90.5149 125.715 90.9416 124.61 90.9476 123.462C90.9536 122.315 90.5384 121.205 89.781 120.344C89.0235 119.482 87.9763 118.928 86.8377 118.787C87.0184 118.768 87.2001 118.759 87.3819 118.76L114.426 118.9C115.668 118.908 116.855 119.408 117.729 120.29C118.603 121.173 119.092 122.365 119.089 123.607Z" stroke="black" stroke-width="0.83144" stroke-linecap="square" stroke-linejoin="round"/>
<path id="Vector_42" d="M111.285 123.521C111.283 124.763 110.788 125.953 109.91 126.831C109.032 127.709 107.842 128.204 106.6 128.206H87.3586C87.1768 128.205 86.9952 128.195 86.8145 128.176C87.9535 128.04 89.0036 127.492 89.7655 126.634C90.5274 125.777 90.9481 124.669 90.9481 123.522C90.9481 122.375 90.5274 121.268 89.7655 120.41C89.0036 119.552 87.9535 119.004 86.8145 118.869C86.9953 118.852 87.1777 118.84 87.3586 118.84H106.6C107.841 118.843 109.031 119.337 109.909 120.214C110.787 121.091 111.281 122.28 111.285 123.521Z" stroke="black" stroke-width="0.83144" stroke-linecap="square" stroke-linejoin="round"/>
<path id="Vector_43" d="M83.2598 131.531C83.2596 131.967 83.3455 132.399 83.5124 132.802C83.6794 133.204 83.924 133.57 84.2326 133.878C84.8406 134.486 85.6659 134.856 87.1874 134.856H114.841C114.365 134.856 114.494 134.846 114.623 134.834C113.814 134.739 113.068 134.35 112.527 133.741C111.985 133.132 111.687 132.346 111.687 131.531C111.687 130.717 111.985 129.93 112.527 129.321C113.068 128.713 113.814 128.324 114.623 128.228C114.494 128.216 114.365 128.207 114.841 128.207H87.1874C84.7524 128.209 83.2598 129.704 83.2598 131.531Z" stroke="black" stroke-width="0.83144" stroke-linecap="square" stroke-linejoin="round"/>
<path id="Vector_44" d="M91.8164 131.531C91.8184 132.412 92.1693 133.257 92.7922 133.88C93.4153 134.503 94.2597 134.854 95.1406 134.856H114.236C114.364 134.856 114.493 134.846 114.622 134.834C113.813 134.739 113.067 134.35 112.526 133.741C111.985 133.132 111.686 132.346 111.686 131.531C111.686 130.717 111.985 129.93 112.526 129.321C113.067 128.713 113.813 128.324 114.622 128.228C114.493 128.216 114.364 128.207 114.236 128.207H95.1406C94.2598 128.209 93.4156 128.56 92.7927 129.183C92.1698 129.806 91.8188 130.65 91.8164 131.531Z" stroke="black" stroke-width="0.83144" stroke-linecap="square" stroke-linejoin="round"/>
<path id="Vector_45" d="M60.8633 106.169H52.333C51.9427 106.169 51.561 106.054 51.2345 105.841C50.908 105.627 50.6507 105.323 50.4938 104.965C50.4333 104.832 50.4073 104.686 50.4186 104.54C50.4297 104.395 50.4776 104.254 50.5577 104.132C50.6378 104.01 50.7475 103.91 50.8767 103.841C51.0059 103.773 51.1502 103.738 51.2964 103.74H60.3647C59.9376 104.459 60.1549 105.458 60.8633 106.169Z" fill="white"/>
<path id="Vector_46" d="M66.3794 105.289C66.3789 105.522 66.2865 105.745 66.122 105.909C65.9577 106.074 65.7349 106.166 65.5023 106.166H60.8633C60.155 105.457 59.9376 104.458 60.3647 103.734H64.4611C64.851 103.735 65.2324 103.848 65.5592 104.06C65.8858 104.273 66.1439 104.576 66.3018 104.932C66.3509 105.045 66.3772 105.166 66.3794 105.289Z" fill="#D2C0F7"/>
<path id="Vector_47" d="M64.2453 106.167C64.2213 106.213 64.1933 106.257 64.1617 106.299C63.5537 107.13 62.2328 107.211 61.2068 106.46C61.0855 106.37 60.9708 106.272 60.8633 106.167C60.155 105.457 59.9376 104.458 60.3647 103.735C60.3887 103.688 60.4167 103.644 60.4483 103.602C61.0563 102.765 62.3711 102.69 63.3971 103.435C63.5207 103.528 63.637 103.629 63.7452 103.739C64.4474 104.446 64.6663 105.438 64.2453 106.167Z" fill="white"/>
<path id="Vector_48" d="M68.5241 110.644C68.5225 110.877 68.429 111.1 68.2638 111.264C68.0987 111.428 67.8753 111.52 67.6425 111.52H58.6913C59.1229 110.793 58.9071 109.802 58.1973 109.088H66.6059C66.9964 109.088 67.3782 109.202 67.7052 109.415C68.032 109.629 68.2896 109.933 68.4466 110.29C68.4968 110.402 68.5231 110.522 68.5241 110.644Z" fill="#D2C0F7"/>
<path id="Vector_49" d="M58.6907 111.519H54.4788C54.0889 111.52 53.7072 111.406 53.3804 111.194C53.0536 110.981 52.7957 110.678 52.6381 110.321C52.5884 110.21 52.5621 110.09 52.5605 109.967C52.5604 109.852 52.5829 109.738 52.6268 109.632C52.6707 109.526 52.7352 109.429 52.8165 109.348C52.8978 109.266 52.9945 109.202 53.1008 109.158C53.2072 109.114 53.321 109.092 53.4361 109.092H58.1967C58.9066 109.802 59.127 110.793 58.6907 111.519Z" fill="white"/>
<path id="Vector_50" d="M58.6925 111.519C58.6727 111.567 58.6466 111.612 58.615 111.653C58.007 112.489 56.6906 112.565 55.6662 111.818C55.5421 111.726 55.4254 111.624 55.3166 111.514C54.6128 110.805 54.397 109.814 54.818 109.082C54.8423 109.036 54.8703 108.991 54.9016 108.949C55.5096 108.117 56.8305 108.037 57.855 108.789C57.977 108.878 58.0918 108.976 58.1985 109.082C58.9083 109.801 59.1287 110.792 58.6925 111.519Z" fill="white"/>
<path id="Vector_51" d="M61.6721 116.834H56.3126C55.9229 116.833 55.5417 116.72 55.215 116.507C54.8882 116.295 54.6301 115.992 54.4719 115.636C54.4115 115.503 54.3859 115.356 54.3971 115.21C54.4085 115.064 54.4564 114.923 54.5365 114.801C54.6167 114.678 54.7265 114.578 54.8557 114.509C54.985 114.44 55.1294 114.405 55.276 114.406H61.1736C60.751 115.134 60.9684 116.124 61.6721 116.834Z" fill="#D2C0F7"/>
<path id="Vector_52" d="M70.3599 115.963C70.3587 116.194 70.2658 116.416 70.1018 116.579C69.9377 116.741 69.7156 116.833 69.4844 116.832H61.6747C60.9709 116.123 60.7535 115.132 61.1761 114.4H68.4417C68.832 114.4 69.214 114.514 69.541 114.728C69.8678 114.941 70.1254 115.245 70.2824 115.603C70.3324 115.716 70.3589 115.839 70.3599 115.963Z" fill="white"/>
<path id="Vector_53" d="M65.0571 116.836C65.0328 116.882 65.0048 116.927 64.9735 116.969C64.3655 117.805 63.0507 117.881 62.0247 117.135C61.9014 117.042 61.7851 116.941 61.6766 116.831C60.9728 116.121 60.7555 115.13 61.178 114.399C61.2013 114.352 61.2287 114.307 61.2601 114.265C61.8681 113.434 63.189 113.362 64.215 114.106C64.3369 114.194 64.4518 114.292 64.5585 114.399C65.2668 115.118 65.4827 116.115 65.0571 116.836Z" fill="white"/>
<path id="Vector_54" d="M24.5645 68.375L24.6982 68.413L24.6481 68.6076C24.6163 68.5316 24.5883 68.4539 24.5645 68.375Z" fill="#353642"/>
<path id="Vector_55" d="M48.3504 80.5377C50.3513 79.9504 51.4025 77.5303 50.6986 75.1323C49.9947 72.7345 47.8021 71.2667 45.8013 71.854C43.8004 72.4415 42.7492 74.8615 43.4531 77.2594C44.157 79.6574 46.3496 81.1251 48.3504 80.5377Z" fill="white"/>
</g>
</g>
</svg>
