<svg width="56" height="56" viewBox="0 0 56 56" fill="none" xmlns="http://www.w3.org/2000/svg">
<path d="M48.2072 18.7598C48.2072 19.2964 48.0672 19.8564 47.7172 20.2998L25.8305 48.1598C25.0372 49.1631 24.1039 49.5131 23.3105 49.2331L23.3339 48.9998L25.6672 23.3331L46.7605 19.1098L48.2072 18.7598Z" fill="#D1BEC8"/>
<path opacity="0.4" d="M48.206 18.7592L46.7593 19.1092L25.666 23.3326L39.5494 9.44922C39.8294 9.56589 40.0627 9.72922 40.226 9.89255L47.5294 17.1959C47.9494 17.6159 48.1827 18.1759 48.206 18.7592Z" fill="#D1BEC8"/>
<path d="M39.5504 9.45062L25.667 23.3339L7.0237 6.76728L6.20703 5.97395V5.95062C6.6737 5.34395 7.5137 5.04062 8.6337 5.20395L38.8737 9.24062C39.0837 9.26395 39.317 9.33395 39.5504 9.45062Z" fill="#D1BEC8"/>
<path opacity="0.4" d="M25.6666 23.3327L23.3333 48.9993L23.31 49.2327C22.7266 49.0227 22.19 48.4627 21.84 47.576L6.15996 8.37599C5.76329 7.39599 5.80996 6.55599 6.20663 5.97266L7.02329 6.76599L25.6666 23.3327Z" fill="#D1BEC8"/>
</svg>
