<svg width="17" height="16" viewBox="0 0 17 16" fill="none" xmlns="http://www.w3.org/2000/svg">
<path d="M8.33331 6.49967C8.05998 6.49967 7.83331 6.273 7.83331 5.99967V2.53967L7.35331 3.01967C7.15998 3.213 6.83998 3.213 6.64665 3.01967C6.45331 2.82633 6.45331 2.50633 6.64665 2.313L7.97998 0.979667C8.11998 0.839667 8.33998 0.793 8.52665 0.873C8.71331 0.946334 8.83331 1.133 8.83331 1.333V5.99967C8.83331 6.273 8.60665 6.49967 8.33331 6.49967Z" fill="#140F29"/>
<path d="M9.66664 3.16663C9.53998 3.16663 9.41331 3.11996 9.31331 3.01996L7.97998 1.68663C7.78664 1.49329 7.78664 1.17329 7.97998 0.979961C8.17331 0.786628 8.49331 0.786628 8.68664 0.979961L10.02 2.31329C10.2133 2.50663 10.2133 2.82663 10.02 3.01996C9.91998 3.11996 9.79331 3.16663 9.66664 3.16663Z" fill="#140F29"/>
<path d="M9.50665 11.8337H7.15331C6.45331 11.8337 5.82665 11.447 5.51331 10.8203L4.73331 9.26033C4.70665 9.20033 4.64665 9.16699 4.58665 9.16699H1.65331C1.37998 9.16699 1.15331 8.94033 1.15331 8.66699C1.15331 8.39366 1.37998 8.16699 1.65331 8.16699H4.59331C5.03998 8.16699 5.43998 8.41366 5.63998 8.81366L6.41998 10.3737C6.55998 10.6603 6.84665 10.8337 7.16665 10.8337H9.51998C9.83998 10.8337 10.1266 10.6603 10.2666 10.3737L11.0466 8.81366C11.2466 8.41366 11.6466 8.16699 12.0933 8.16699H15C15.2733 8.16699 15.5 8.39366 15.5 8.66699C15.5 8.94033 15.2733 9.16699 15 9.16699H12.0933C12.0266 9.16699 11.9733 9.20033 11.9466 9.26033L11.1666 10.8203C10.8333 11.447 10.2066 11.8337 9.50665 11.8337Z" fill="#140F29"/>
<path d="M10.3333 15.1663H6.33332C2.71332 15.1663 1.16665 13.6196 1.16665 9.99963V7.99963C1.16665 4.87296 2.32665 3.30629 4.92665 2.92629C5.20665 2.88629 5.45332 3.07296 5.49332 3.34629C5.53332 3.61963 5.34665 3.87296 5.07332 3.91296C2.97998 4.21963 2.16665 5.36629 2.16665 7.99963V9.99963C2.16665 13.073 3.25998 14.1663 6.33332 14.1663H10.3333C13.4066 14.1663 14.5 13.073 14.5 9.99963V7.99963C14.5 5.36629 13.6866 4.21963 11.5933 3.91296C11.32 3.87296 11.1333 3.61963 11.1733 3.34629C11.2133 3.07296 11.4667 2.88629 11.74 2.92629C14.34 3.30629 15.5 4.87296 15.5 7.99963V9.99963C15.5 13.6196 13.9533 15.1663 10.3333 15.1663Z" fill="#140F29"/>
</svg>
