<svg width="20" height="20" viewBox="0 0 20 20" fill="none" xmlns="http://www.w3.org/2000/svg">
<path d="M10.0007 10.0001C12.3018 10.0001 14.1673 8.1346 14.1673 5.83341C14.1673 3.53223 12.3018 1.66675 10.0007 1.66675C7.69946 1.66675 5.83398 3.53223 5.83398 5.83341C5.83398 8.1346 7.69946 10.0001 10.0007 10.0001Z" fill="white"/>
<path opacity="0.4" d="M10.0008 12.0833C5.8258 12.0833 2.42578 14.8833 2.42578 18.3333C2.42578 18.5666 2.60911 18.7499 2.84245 18.7499H17.1592C17.3925 18.7499 17.5758 18.5666 17.5758 18.3333C17.5758 14.8833 14.1758 12.0833 10.0008 12.0833Z" fill="white"/>
<path d="M18.9355 15.7035L15.834 19.231V11.5987L16.2005 11.1818C16.709 10.6046 17.1259 10.7604 17.1259 11.53V14.8285H18.5415C19.1828 14.8285 19.3615 15.2224 18.9355 15.7035Z" fill="white"/>
<path d="M15.8332 11.5986V19.2309L15.4667 19.6478C14.9582 20.225 14.5413 20.0693 14.5413 19.2996V16.0012H13.1257C12.4844 16.0012 12.3057 15.6072 12.7318 15.1261L15.8332 11.5986Z" fill="white"/>
</svg>
