<svg width="20" height="20" viewBox="0 0 20 20" fill="none" xmlns="http://www.w3.org/2000/svg">
<path d="M10.0007 10.6251C7.35898 10.6251 5.20898 8.47508 5.20898 5.83341C5.20898 3.19175 7.35898 1.04175 10.0007 1.04175C12.6423 1.04175 14.7923 3.19175 14.7923 5.83341C14.7923 8.47508 12.6423 10.6251 10.0007 10.6251ZM10.0007 2.29175C8.05065 2.29175 6.45898 3.88341 6.45898 5.83341C6.45898 7.78341 8.05065 9.37508 10.0007 9.37508C11.9507 9.37508 13.5423 7.78341 13.5423 5.83341C13.5423 3.88341 11.9507 2.29175 10.0007 2.29175Z" fill="#433F54"/>
<path d="M2.8418 18.9583C2.50013 18.9583 2.2168 18.675 2.2168 18.3333C2.2168 14.775 5.70849 11.875 10.0002 11.875C10.3418 11.875 10.6252 12.1583 10.6252 12.5C10.6252 12.8417 10.3418 13.125 10.0002 13.125C6.40015 13.125 3.4668 15.4583 3.4668 18.3333C3.4668 18.675 3.18346 18.9583 2.8418 18.9583Z" fill="#433F54"/>
<path d="M16.5802 14.3572H17.4521C17.7466 14.3572 17.9555 14.4266 18.1028 14.5238C18.2498 14.6208 18.3283 14.7409 18.3696 14.8308L18.37 14.8317L18.37 14.8317C18.4113 14.924 18.4494 15.0624 18.425 15.2369C18.4006 15.4115 18.3147 15.6138 18.1215 15.8355L18.1212 15.8359L14.9769 19.4079C14.9769 19.408 14.9769 19.408 14.9769 19.408L14.9768 19.4081L16.5802 14.3572ZM16.5802 14.3572V11.778C16.5802 11.4415 16.5063 11.2094 16.4018 11.0502C16.2969 10.8906 16.1663 10.8121 16.0667 10.7747C15.9672 10.7374 15.8177 10.7104 15.6342 10.7611C15.4513 10.8115 15.2433 10.9368 15.0219 11.1886C15.0219 11.1886 15.0219 11.1886 15.0219 11.1886L11.8775 14.7608L11.8772 14.7612C11.684 14.9829 11.5981 15.1852 11.5737 15.3598C11.5493 15.5343 11.5874 15.6727 11.6287 15.7649L11.6287 15.7649L11.6291 15.7659C11.6704 15.8558 11.7489 15.9759 11.8959 16.0729C12.0432 16.17 12.2521 16.2395 12.5466 16.2395H13.4185V18.8187C13.4185 19.1552 13.4924 19.3873 13.5969 19.5465C13.7012 19.7052 13.8309 19.7837 13.9304 19.8213L16.5802 14.3572ZM14.2503 18.975C14.2452 18.9356 14.2416 18.8854 14.2416 18.8228V15.8321C14.2416 15.6066 14.0556 15.4206 13.8301 15.4206H12.5466C12.4936 15.4206 12.4521 15.4164 12.4206 15.411C12.4369 15.3837 12.4612 15.3492 12.4971 15.3082C12.4971 15.3082 12.4972 15.3082 12.4972 15.3081L15.6414 11.7361L15.6414 11.7361L15.6418 11.7356C15.6835 11.6877 15.7198 11.6516 15.7499 11.6245C15.7551 11.6633 15.7584 11.713 15.7571 11.776L15.7571 11.776V11.778V14.7687C15.7571 14.9943 15.9431 15.1803 16.1686 15.1803H17.4521C17.5051 15.1803 17.5466 15.1845 17.5781 15.1898C17.5618 15.2171 17.5374 15.2517 17.5015 15.2927C17.5015 15.2927 17.5015 15.2927 17.5015 15.2927L14.3573 18.8647L14.3569 18.8652C14.3159 18.9123 14.2802 18.948 14.2503 18.975Z" fill="#433F54" stroke="#433F54" stroke-width="0.2"/>
</svg>
