<svg width="21" height="20" viewBox="0 0 21 20" fill="none" xmlns="http://www.w3.org/2000/svg">
<path d="M10.5007 10.6248C7.85898 10.6248 5.70898 8.47484 5.70898 5.83317C5.70898 3.1915 7.85898 1.0415 10.5007 1.0415C13.1423 1.0415 15.2923 3.1915 15.2923 5.83317C15.2923 8.47484 13.1423 10.6248 10.5007 10.6248ZM10.5007 2.2915C8.55065 2.2915 6.95898 3.88317 6.95898 5.83317C6.95898 7.78317 8.55065 9.37484 10.5007 9.37484C12.4507 9.37484 14.0423 7.78317 14.0423 5.83317C14.0423 3.88317 12.4507 2.2915 10.5007 2.2915Z" fill="#433F54"/>
<path d="M3.3418 18.9583C3.00013 18.9583 2.7168 18.675 2.7168 18.3333C2.7168 14.775 6.20849 11.875 10.5002 11.875C10.8418 11.875 11.1252 12.1583 11.1252 12.5C11.1252 12.8417 10.8418 13.125 10.5002 13.125C6.90015 13.125 3.9668 15.4583 3.9668 18.3333C3.9668 18.675 3.68346 18.9583 3.3418 18.9583Z" fill="#433F54"/>
<path d="M17.0802 14.3575H17.9521C18.2466 14.3575 18.4555 14.4269 18.6028 14.524C18.7498 14.6211 18.8283 14.7411 18.8696 14.8311L18.87 14.832L18.87 14.832C18.9113 14.9242 18.9494 15.0627 18.925 15.2372C18.9006 15.4117 18.8147 15.614 18.6215 15.8357L18.6212 15.8361L15.4769 19.4082C15.4769 19.4082 15.4769 19.4082 15.4769 19.4083L15.4768 19.4083L17.0802 14.3575ZM17.0802 14.3575V11.7783C17.0802 11.4418 17.0063 11.2096 16.9018 11.0505C16.7969 10.8909 16.6663 10.8123 16.5667 10.775C16.4672 10.7377 16.3177 10.7107 16.1342 10.7613C15.9513 10.8118 15.7433 10.937 15.5219 11.1888C15.5219 11.1888 15.5219 11.1889 15.5219 11.1889L12.3775 14.7611L12.3772 14.7614C12.184 14.9831 12.0981 15.1854 12.0737 15.36C12.0493 15.5345 12.0874 15.673 12.1287 15.7652L12.1287 15.7652L12.1291 15.7661C12.1704 15.8561 12.2489 15.9761 12.3959 16.0731C12.5432 16.1703 12.7521 16.2397 13.0466 16.2397H13.9185V18.8189C13.9185 19.1554 13.9924 19.3876 14.0969 19.5467C14.2012 19.7054 14.3309 19.784 14.4304 19.8216L17.0802 14.3575ZM14.7503 18.9752C14.7452 18.9358 14.7416 18.8857 14.7416 18.8231V15.8323C14.7416 15.6068 14.5556 15.4208 14.3301 15.4208H13.0466C12.9936 15.4208 12.9521 15.4166 12.9206 15.4113C12.9369 15.384 12.9612 15.3495 12.9971 15.3085C12.9971 15.3084 12.9972 15.3084 12.9972 15.3084L16.1414 11.7364L16.1414 11.7364L16.1418 11.7358C16.1835 11.6879 16.2198 11.6519 16.2499 11.6247C16.2551 11.6635 16.2584 11.7133 16.2571 11.7763L16.2571 11.7763V11.7783V14.769C16.2571 14.9945 16.4431 15.1805 16.6686 15.1805H17.9521C18.0051 15.1805 18.0466 15.1847 18.0781 15.1901C18.0618 15.2174 18.0374 15.2519 18.0015 15.2929C18.0015 15.2929 18.0015 15.293 18.0015 15.293L14.8573 18.865L14.8569 18.8655C14.8159 18.9126 14.7802 18.9482 14.7503 18.9752Z" fill="#433F54" stroke="#433F54" stroke-width="0.2"/>
</svg>
